<svg fill="none" height="40" viewBox="0 0 40 40" width="40" xmlns="http://www.w3.org/2000/svg" xmlns:xlink="http://www.w3.org/1999/xlink"><clipPath id="a"><path d="m0 0h40v40h-40z"/></clipPath><g clip-path="url(#a)" fill="#fff"><path d="m20.0005 10.4095 4.7496-3.95789h6.2181v-6.45161h-15.4838v6.45161h4.5161zm-3.2258-5.24821v-3.87097h12.9032v3.87097h-5.3947l-2.9924 2.4937v-2.4937z"/><path d="m18.0645 2.58057h1.2903v1.29032h-1.2903z"/><path d="m20.6445 2.58057h5.1613v1.29032h-5.1613z"/><path d="m27.0977 2.58057h1.2903v1.29032h-1.2903z"/><path d="m32.8418 38.7095-.5217-5.2227c2.1541-.3406 3.8089-2.2058 3.8089-4.4547v-8.3871h-2.5806v-.8915c0-.877-.482-1.6646-1.2569-2.0684.7705-.7079 1.2569-1.7201 1.2569-2.8466v-1.2903c0-2.1349-1.7361-3.87095-3.871-3.87095s-3.8709 1.73605-3.8709 3.87095v1.2903c0 1.6703 1.065 3.0923 2.5504 3.6341l-3.4627 3.4627h-3.6181c-.0721-1.0755-.8108-2.013-1.8573-2.3122l-2.6446-.7548v-1.1524c.7897-.7091 1.2903-1.7342 1.2903-2.8774v-1.2903c0-2.1349-1.7361-3.87095-3.871-3.87095-2.1348 0-3.8709 1.73605-3.8709 3.87095v1.2903c0 1.1426.5005 2.1677 1.2903 2.8774v1.153l-2.64459.7548c-1.10194.3141-1.87154 1.3347-1.87154 2.4814v2.4109h-2.58064v3.8709h1.29032v10.3226h-5.80645v1.2903h40v-1.2903zm-5.745-10.3226v-2.9586l4.5715-4.5716c.3305-.3305.5271-.7743.5712-1.2374.0056.045.0186.0876.0186.1342v7.9883c0 1.0669-.8685 1.9354-1.9355 1.9354h-5.1613v-1.2903zm-1.9355 5.1613h3.2872l.516 5.1613h-3.8032zm4.5838 0h1.2841l.516 5.1613h-1.284zm3.8033-5.8064v-5.8065h1.2903v7.0968c0 1.7786-1.4472 3.2258-3.2258 3.2258h-6.4516v-1.2903h5.1613c1.7786 0 3.2258-1.4472 3.2258-3.2258zm-6.4516-12.9033v-1.2903c0-1.4232 1.1574-2.5806 2.5806-2.5806 1.4233 0 2.5807 1.1574 2.5807 2.5806v1.2903c0 1.4233-1.1574 2.5807-2.5807 2.5807-1.4232 0-2.5806-1.1574-2.5806-2.5807zm-1.6684 8.3871 4.3045-4.3044c.1348-.1348.3213-.2117.5116-.2117.3988 0 .7232.3245.7232.7233 0 .1903-.0768.3768-.2117.5116l-4.5715 4.5716h-6.8297c-.3559 0-.6451-.2892-.6451-.6452s.2892-.6452.6451-.6452zm-13.8155-9.6774c0-1.4232 1.1574-2.5806 2.5806-2.5806 1.4233 0 2.5807 1.1574 2.5807 2.5806v1.2903c0 1.4233-1.1574 2.5807-2.5807 2.5807-1.4232 0-2.5806-1.1574-2.5806-2.5807zm2.5806 5.1613c.453 0 .8859-.0825 1.2904-.2259v.6931c-.1601.247-.6046.8231-1.2904.8231s-1.1302-.5761-1.2903-.8231v-.6931c.4045.1434.8373.2259 1.2903.2259zm-5.8064 3.3956c0-.5736.38527-1.0833.93561-1.2409l2.65779-.7592c.3743.4877 1.1026 1.1852 2.213 1.1852 1.1105 0 1.8388-.6975 2.2131-1.1858l2.6578.7592c.4943.1415.8389.5711.9079 1.0711h-.6175c-1.0669 0-1.9354.8685-1.9354 1.9355 0 .2271.0463.4426.1187.6451h-9.151zm-2.58065 3.7012h20.00005v1.2903h-20.00005zm1.29032 5.1613h1.93549v-1.2904h-1.93549v-1.2903h16.77423v1.2903h-13.5484v1.2904h13.5484v7.7419h-1.5367l-1.2903-2.5806h-11.12024l-1.29032 2.5806h-1.53667zm13.79473 7.7419h-10.8153l.6452-1.2903h9.5249z"/></g></svg>