<svg width="22" height="22" viewBox="0 0 22 22" fill="none" xmlns="http://www.w3.org/2000/svg">
<path d="M3.74245 8.25C3.72286 8.02347 3.71289 7.79453 3.71289 7.5625C3.71323 3.38594 6.97611 0 11.0007 0C15.0254 0 18.2882 3.38594 18.2882 7.5625C18.2882 7.79419 18.2783 8.02347 18.2587 8.25H18.2882C18.2882 12.3829 11.0007 22 11.0007 22C11.0007 22 3.71323 12.4056 3.71323 8.25H3.74245ZM11.0007 9.625C12.5645 9.669 13.8686 8.43872 13.9157 6.875C13.8686 5.31128 12.5645 4.081 11.0007 4.125C9.43702 4.081 8.13283 5.31128 8.08573 6.875C8.13283 8.43872 9.43702 9.669 11.0007 9.625Z" fill="white"/>
</svg>
