<svg width="20px" height="20px" viewBox="0 0 20 20" version="1.1" xmlns="http://www.w3.org/2000/svg" xmlns:xlink="http://www.w3.org/1999/xlink">
    <g id="Page-1" stroke="none" stroke-width="1" fill="none" fill-rule="evenodd">
        <g id="mmenu" transform="translate(-22.000000, -26.000000)" fill="#FFFFFF" fill-rule="nonzero">
            <path d="M32,34.2477987 L39.8849059,26.3628928 C40.3687629,25.8790357 41.1532502,25.8790357 41.6371072,26.3628928 C42.1209643,26.8467498 42.1209643,27.6312371 41.6371072,28.1150941 L33.7522013,36 L41.6371072,43.8849059 C42.1209643,44.3687629 42.1209643,45.1532502 41.6371072,45.6371072 C41.1532502,46.1209643 40.3687629,46.1209643 39.8849059,45.6371072 L32,37.7522013 L24.1150941,45.6371072 C23.6312371,46.1209643 22.8467498,46.1209643 22.3628928,45.6371072 C21.8790357,45.1532502 21.8790357,44.3687629 22.3628928,43.8849059 L30.2477987,36 L22.3628928,28.1150941 C21.8790357,27.6312371 21.8790357,26.8467498 22.3628928,26.3628928 C22.8467498,25.8790357 23.6312371,25.8790357 24.1150941,26.3628928 L32,34.2477987 Z" id="close_icon"></path>
        </g>
    </g>
</svg>