<svg fill="none" height="40" viewBox="0 0 40 40" width="40" xmlns="http://www.w3.org/2000/svg"><g fill="#fff"><path d="m25.1958 17.7778h-17.77783v1.4815h17.77783z"/><path d="m7.41797 22.2222v1.4814h14.41803l1.4815-1.4814z"/><path d="m7.41797 26.6665v1.4815h9.97333l1.4816-1.4815z"/><path d="m14.8254 31.1113h-7.40743v1.4815h7.40743z"/><path d="m34.8373 16.9763-1.8042-1.8041c-.4979-.4979-1.3062-.498-1.8041 0-4.6043 4.6043-9.2209 9.2209-13.862 13.8618v3.6408c3.0712 0 2.2943.0014 3.5813-.0054.6658-.6659 3.6044-3.6044 6.6246-6.6245v9.1816c0 .7045-.5712 1.2757-1.2758 1.2757h-20.41158c-.7046 0-1.27573-.5712-1.27573-1.2757v-22.9631c0-.7046.57113-1.2757 1.27573-1.2757h2.55169v2.5515h15.30849v-2.5514l2.5514-.0001c.7046 0 1.2758.5711 1.2758 1.2757v4.7382l1.2757-1.2846v-3.4536c0-1.4092-1.1423-2.55143-2.5515-2.55143h-2.7718c-.4097-1.15788-1.3587-2.06102-2.547-2.40267-.5874-.16888-1.0395-.62096-1.2084-1.20836-.4597-1.59832-1.9326-2.76744-3.6787-2.76744-1.7459 0-3.2188 1.16912-3.6784 2.76721-.1691.58811-.6223 1.03963-1.2104 1.20906-1.1878.3423-2.13762 1.24448-2.5468 2.4022h-2.77016c-1.40912 0-2.55146 1.14223-2.55146 2.55143v22.9631c0 1.4091 1.14234 2.5514 2.55146 2.5514h20.41166c1.4091 0 2.5514-1.1423 2.5514-2.5514v-10.4572c2.7427-2.7427 5.2972-5.2972 5.9887-5.9888.498-.498.498-1.3063.0001-1.8042zm-25.12453-6.009c.00877-1.12154.76653-2.12139 1.84283-2.43155 1.0134-.29198 1.7922-1.0705 2.0832-2.08231.3123-1.08596 1.3208-1.84422 2.4524-1.84422 1.1318 0 2.1402.75826 2.4525 1.84422.2912 1.01245 1.0694 1.79072 2.0819 2.08183 1.0858.31239 1.8442 1.32085 1.8442 2.45253v1.2757h-12.75703zm10.70403 20.4294c-.3309.0018-.4663.0024-.9241.0025l-.85-.85v-.9867c.3162-.3162.5349-.5349.8594-.8594l1.8041 1.8042zm1.7914-1.7915-1.8041-1.8041 8.1187-8.1186 1.8041 1.8042zm9.0207-9.0207-1.8041-1.8041.9021-.9021 1.8042 1.8041zm1.8042-1.804-1.8042-1.8042.9021-.902 1.8042 1.8041z"/><path d="m16.3279 5.55573c.6137 0 1.1111-.49747 1.1111-1.11112s-.4974-1.11111-1.1111-1.11111c-.6136 0-1.1111.49746-1.1111 1.11111s.4975 1.11112 1.1111 1.11112z"/></g></svg>