<svg fill="none" height="40" viewBox="0 0 40 40" width="40" xmlns="http://www.w3.org/2000/svg"><g fill="#fff"><path d="m33.6454 4.03638h-3.6459v-3.489684c-.0012-.079426-.0193-.157682-.0534-.229452-.034-.07177-.0831-.135371-.1439-.186482-.0608-.0511107-.1319-.0885337-.2085-.1097257-.0765-.0211921-.1568-.02565666-.2352-.01309033l-23.09905 4.03624403c-.12596.02407-.23977.09082-.32225.18902-.08249.09819-.1286.22182-.13056.35004v34.86965c.00008.145.05773.2841.16027.3866.10254.1026.24159.1602.38661.1603h27.29188c.145 0 .2841-.0576.3867-.1602.1025-.1025.1602-.2416.1602-.3867v-34.86965c0-.07182-.0141-.14296-.0416-.20932-.0274-.06637-.0677-.12668-.1185-.17747s-.1111-.09107-.1775-.11854c-.0663-.02746-.1375-.04158-.2093-.04154zm-4.7397-2.83875v2.83875h-16.2453zm4.1928 37.70837h-26.19811v-33.77587h26.19811z"/><path d="m14.099 18.9708-.5237 9.0981c-.0234.2922.0138.586.1095.8631.0956.2771.2475.5314.4462.7469.1986.2155.4397.3876.7081.5055.2684.1178.5583.1789.8514.1793s.5832-.0598.8519-.1769.5103-.2885.7095-.5035c.1993-.215.3519-.4689.4483-.7457.0965-.2768.1346-.5705.112-.8628l-.5225-9.104c1.0209-.3866 1.604-1.4582 1.4837-2.8182l-.3472-3.9268c-.0519-.6746-.3481-1.3071-.833-1.7788-.4849-.47178-1.1253-.75044-1.801-.78375-.7002-.02415-1.383.22078-1.9082.68445-.5252.4637-.8528 1.1109-.9156 1.8087l-.3531 3.9962c-.1206 1.36.4628 2.4316 1.4837 2.8182zm-.3943-2.7207.3534-3.9968c.0364-.4091.2246-.7897.5275-1.0669.303-.2772.6987-.4309 1.1094-.431h.0587c.4091.0238.7956.1958 1.087.4839.2914.2882.4678.6726.4961 1.0815l.3472 3.9293c.0313.3732.0553 1.6028-1.0462 1.7666-.1351.02-.2578.0899-.344.1959-.0861.1059-.1295.2403-.1216.3766l.5496 9.5547c.0104.1409-.0086.2825-.0558.4157s-.1217.2551-.2185.358c-.0982.1002-.2154.1798-.3447.2342-.1293.0543-.2682.0823-.4085.0823-.1402 0-.2791-.028-.4084-.0823-.1293-.0544-.2465-.134-.3447-.2342-.0976-.1039-.1723-.2271-.2195-.3616-.0472-.1346-.0658-.2775-.0545-.4196l.5493-9.55c.0079-.1364-.0355-.2707-.1217-.3766-.0861-.106-.2088-.1759-.3439-.1959-1.1016-.1622-1.0794-1.3919-1.0462-1.7638z"/><path d="m22.7103 18.9707-.5225 9.0978c-.0223.2916.0159.5846.112.8608.0962.2761.2484.5295.447.7441.1986.2147.4393.386.7072.5034.2679.1173.557.1781.8495.1785.2924.0005.5818-.0595.85-.176.2682-.1166.5095-.2872.7087-.5013.1992-.214.3521-.4669.4491-.7428s.136-.5688.1146-.8605l-.5247-9.104c1.0203-.3866 1.6041-1.4581 1.4838-2.8181l-.1207-1.3616v-4.5825c0-.145-.0576-.28414-.1601-.3867-.1026-.10256-.2417-.16018-.3867-.16018-.1451 0-.2842.05762-.3867.16018-.1026.10256-.1602.2417-.1602.3867v4.0597h-1.3181v-4.0597c0-.145-.0576-.28414-.1602-.3867s-.2417-.16018-.3867-.16018-.2841.05762-.3867.16018-.1602.2417-.1602.3867v4.0597h-1.3178v-4.0597c0-.145-.0576-.28414-.1602-.3867-.1025-.10256-.2416-.16018-.3867-.16018-.145 0-.2841.05762-.3867.16018-.1025.10256-.1601.2417-.1601.3867v4.5825l-.1207 1.3616c-.1203 1.36.4632 2.4315 1.4838 2.8181zm-.3944-2.7206.0784-.8869h3.8229l.0784.8869c.0328.3731.0547 1.6028-1.0463 1.7665-.135.0201-.2577.09-.3439.1959-.0861.1059-.1296.2403-.1217.3766l.5494 9.5563c.0104.1408-.0087.2823-.0559.4154s-.1216.2549-.2185.3577c-.0982.1002-.2153.1798-.3446.2341-.1294.0544-.2682.0824-.4085.0824s-.2791-.028-.4085-.0824c-.1293-.0543-.2465-.1339-.3446-.2341-.0975-.104-.1723-.2272-.2194-.3617-.0472-.1345-.0659-.2774-.0547-.4196l.5494-9.55c.0079-.1363-.0355-.2706-.1217-.3766-.0862-.1059-.2089-.1758-.3439-.1959-1.1013-.1628-1.0791-1.3928-1.0463-1.7646z"/><path d="m8.78906 32.8125v3.8281c.00009.145.05773.2841.16027.3866.10254.1026.24159.1602.38661.1603h21.32816c.145 0 .2841-.0576.3867-.1602.1025-.1025.1601-.2416.1601-.3867v-3.8281c0-.145-.0576-.2841-.1601-.3867-.1026-.1026-.2417-.1602-.3867-.1602h-21.32816c-.14502.0001-.28407.0578-.38661.1603s-.16018.2416-.16027.3866zm1.09375.5469h20.23439v2.7344h-20.23439z"/></g></svg>