<svg width="137" height="123" viewBox="0 0 137 123" fill="none" xmlns="http://www.w3.org/2000/svg">
<path d="M73.4053 83.7075C72.9698 83.3662 72.4133 83.2063 71.8572 83.2629C71.3011 83.3194 70.7905 83.5877 70.4367 84.0092C70.0439 84.5163 69.5381 84.9301 68.9575 85.2196C68.3768 85.509 67.7363 85.6665 67.0842 85.6802C65.8183 85.6802 64.6293 85.0871 63.7316 84.0092C63.362 83.6476 62.8679 83.4321 62.3447 83.4045C61.8215 83.3769 61.3064 83.539 60.8988 83.8596C60.4912 84.1802 60.2201 84.6366 60.1378 85.1404C60.0555 85.6443 60.1678 86.16 60.4532 86.5879C61.2329 87.5799 62.2368 88.3836 63.3869 88.9367C64.5371 89.4899 65.8027 89.7776 67.0855 89.7776C68.3683 89.7776 69.6339 89.4899 70.784 88.9367C71.9342 88.3836 72.9381 87.5799 73.7178 86.5879C74.0647 86.1641 74.2264 85.6243 74.168 85.0853C74.1095 84.5463 73.8355 84.0514 73.4053 83.7075Z" fill="#359E3D"/>
<path d="M57.0952 71.0923C56.5333 71.0923 55.9945 71.3096 55.5972 71.6965C55.1999 72.0834 54.9767 72.6081 54.9767 73.1553V75.587C54.9491 75.8729 54.9832 76.1613 55.0766 76.4337C55.1701 76.706 55.3209 76.9564 55.5195 77.1687C55.718 77.381 55.9599 77.5507 56.2296 77.6667C56.4994 77.7828 56.791 77.8428 57.0859 77.8428C57.3808 77.8428 57.6725 77.7828 57.9422 77.6667C58.212 77.5507 58.4538 77.381 58.6524 77.1687C58.8509 76.9564 59.0018 76.706 59.0952 76.4337C59.1887 76.1613 59.2228 75.8729 59.1952 75.587V73.1553C59.1952 72.6112 58.9746 72.0892 58.5813 71.7029C58.188 71.3165 57.6539 71.097 57.0952 71.0923Z" fill="#359E3D"/>
<path d="M77.0676 71.0923C76.5058 71.0923 75.9669 71.3096 75.5696 71.6965C75.1723 72.0834 74.9491 72.6081 74.9491 73.1553V75.587C74.9215 75.8729 74.9556 76.1613 75.049 76.4337C75.1425 76.706 75.2934 76.9564 75.4919 77.1687C75.6904 77.381 75.9323 77.5507 76.2021 77.6667C76.4718 77.7828 76.7635 77.8428 77.0584 77.8428C77.3533 77.8428 77.6449 77.7828 77.9146 77.6667C78.1844 77.5507 78.4263 77.381 78.6248 77.1687C78.8234 76.9564 78.9742 76.706 79.0677 76.4337C79.1611 76.1613 79.1952 75.8729 79.1676 75.587V73.1553C79.1676 72.6112 78.947 72.0892 78.5537 71.7029C78.1604 71.3165 77.6263 71.097 77.0676 71.0923Z" fill="#359E3D"/>
<path d="M135.635 46.1351L69.8278 0.362542C69.4912 0.127428 69.0874 0.000976563 68.6732 0.000976563C68.259 0.000976562 67.8552 0.127428 67.5186 0.362542L40.1048 19.4297V10.7368H40.4703C40.997 10.7368 41.5022 10.533 41.8747 10.1703C42.2472 9.80762 42.4564 9.31569 42.4564 8.80274C42.4564 8.2898 42.2472 7.79787 41.8747 7.43516C41.5022 7.07246 40.997 6.86869 40.4703 6.86869H19.3194C18.7927 6.86869 18.2875 7.07246 17.915 7.43516C17.5425 7.79787 17.3333 8.2898 17.3333 8.80274C17.3333 9.31569 17.5425 9.80762 17.915 10.1703C18.2875 10.533 18.7927 10.7368 19.3194 10.7368H19.6822V33.636L1.71177 46.1351C1.45451 46.3138 1.24482 46.5498 1.10018 46.8234C0.955541 47.0971 0.880137 47.4004 0.880249 47.7081V59.1526C0.881311 59.5075 0.982527 59.8553 1.17284 60.1581C1.36315 60.4608 1.63524 60.7068 1.95938 60.8691C2.28353 61.0314 2.64725 61.1039 3.01083 61.0786C3.3744 61.0533 3.72384 60.9312 4.02097 60.7256L7.93231 58.005V117.868C7.93011 118.94 8.3481 119.973 9.101 120.755C9.8539 121.538 10.885 122.011 11.984 122.079C11.9946 121.773 12.0131 121.469 12.0396 121.166C12.0149 120.872 11.9964 120.578 11.984 120.284C11.9555 119.569 11.9723 118.852 12.0343 118.139C11.9925 118.106 11.959 118.065 11.9365 118.018C11.9139 117.971 11.903 117.92 11.9046 117.868V55.2432L68.6732 15.755L112.164 46.0062C112.592 46.3061 113.126 46.4279 113.646 46.345C114.167 46.2621 114.633 45.9811 114.941 45.5639C115.249 45.1467 115.374 44.6275 115.289 44.1204C115.203 43.6133 114.915 43.16 114.486 42.8601L69.8278 11.8044C69.4908 11.5704 69.0872 11.4446 68.6732 11.4446C68.2593 11.4446 67.8557 11.5704 67.5186 11.8044L4.85249 55.3928V48.7035L68.6732 4.31316L132.494 48.7035V55.3928L121.528 47.7649C121.316 47.6172 121.076 47.5117 120.821 47.4544C120.567 47.3971 120.304 47.3892 120.047 47.4309C119.789 47.4727 119.543 47.5635 119.322 47.698C119.1 47.8325 118.908 48.0081 118.757 48.2148C118.605 48.4216 118.497 48.6554 118.438 48.9029C118.379 49.1504 118.371 49.4068 118.414 49.6574C118.457 49.908 118.55 50.1479 118.688 50.3634C118.826 50.5789 119.006 50.7658 119.219 50.9135L125.445 55.2432V117.948C125.445 118.002 125.432 118.056 125.407 118.105C125.383 118.154 125.346 118.196 125.302 118.229C125.255 118.263 125.2 118.286 125.143 118.296C125.143 118.329 125.143 118.36 125.143 118.394C125.156 118.693 125.143 118.987 125.143 119.284C125.143 119.58 125.143 119.915 125.143 120.227C125.143 120.539 125.143 120.8 125.143 121.083C125.143 121.45 125.143 121.811 125.143 122.169C126.281 122.152 127.367 121.7 128.165 120.91C128.964 120.12 129.412 119.056 129.411 117.948V58.005L133.323 60.7256C133.62 60.932 133.97 61.0548 134.334 61.0804C134.699 61.1059 135.063 61.0334 135.388 60.8706C135.712 60.7079 135.985 60.4613 136.175 60.1577C136.365 59.8542 136.466 59.5056 136.466 59.15V47.7081C136.466 47.4004 136.391 47.0971 136.246 46.8234C136.102 46.5498 135.892 46.3138 135.635 46.1351ZM36.1352 22.1915L23.6544 30.8716V10.7368H36.1352V22.1915Z" fill="#359E3D"/>
<path d="M42.3689 67.4898V57.4456C42.3303 54.2041 43.206 51.0144 44.9005 48.2241C47.7129 43.6597 51.746 39.8251 62.7147 40.0056C73.6834 40.1861 80.6242 40.0056 80.6242 40.0056C80.6242 40.0056 85.9709 40.5601 86.9083 46.0373C86.9083 46.0373 86.1562 46.5866 88.2192 47.4994C90.2821 48.4123 91.4791 49.9647 92.1914 53.2526C92.8084 56.0892 92.9197 56.0737 92.1914 79.3649C92.1914 79.3649 93.1871 92.2405 77.6265 98.3573C62.0659 104.474 52.2042 95.4949 52.2042 95.4949C52.2042 95.4949 45.4513 90.2317 44.9826 81.5568C37.7796 82.939 34.1252 70.7545 42.3689 67.4898Z" stroke="#359E3D" stroke-width="4.31253" stroke-miterlimit="10"/>
<path d="M42.3687 67.0255L48.0728 67.0823C48.0728 67.0823 50.525 67.2989 51.0891 63.191C51.0891 63.191 49.6829 62.1853 58.5039 61.5483C67.3249 60.9114 78.3837 59.3564 81.2781 56.8911" stroke="#359E3D" stroke-width="4.31253" stroke-miterlimit="10" stroke-linecap="round"/>
<path d="M54.4946 97.1892V107.589C54.4946 107.589 54.5846 108.824 48.7587 110.63C42.9327 112.435 11.507 119.949 11.507 119.949" stroke="#359E3D" stroke-width="4.31253" stroke-miterlimit="10"/>
<path d="M82.6049 97.0061V107.535C82.6049 107.535 82.5175 108.786 88.3435 110.614C94.1695 112.442 125.608 120.052 125.608 120.052" stroke="#359E3D" stroke-width="4.31253" stroke-miterlimit="10"/>
</svg>
