<svg width="137" height="121" viewBox="0 0 137 121" fill="none" xmlns="http://www.w3.org/2000/svg">
<path d="M50.818 90.6404C49.9597 89.9782 48.6996 90.1028 48.0035 90.9199C47.1524 91.9186 46.0225 92.4688 44.8219 92.4688C43.6213 92.4688 42.4914 91.9186 41.6403 90.9199C40.9445 90.1031 39.6844 89.9782 38.8258 90.6404C37.9675 91.3028 37.8362 92.5023 38.5323 93.3189C40.1345 95.1989 42.4271 96.2773 44.8222 96.2773C47.2172 96.2773 49.5096 95.1989 51.112 93.3189C51.8076 92.5023 51.676 91.3031 50.818 90.6404Z" fill="#359E3D"/>
<path d="M35.3501 78.948C34.245 78.948 33.3491 79.8004 33.3491 80.8524V83.1059C33.3491 84.1576 34.245 85.0103 35.3501 85.0103C36.4552 85.0103 37.3512 84.1576 37.3512 83.1059V80.8524C37.3512 79.8004 36.4552 78.948 35.3501 78.948Z" fill="#359E3D"/>
<path d="M54.2929 78.948C53.1878 78.948 52.2919 79.8004 52.2919 80.8524V83.1059C52.2919 84.1576 53.1878 85.0103 54.2929 85.0103C55.3979 85.0103 56.2939 84.1576 56.2939 83.1059V80.8524C56.2939 79.8004 55.3979 78.948 54.2929 78.948Z" fill="#359E3D"/>
<path d="M98.1756 92.8934C97.3173 92.2309 96.0572 92.3559 95.3611 93.173C94.5101 94.1716 93.3802 94.7219 92.1796 94.7219C90.979 94.7219 89.849 94.1716 88.998 93.173C88.3021 92.3561 87.0418 92.2312 86.1835 92.8934C85.3252 93.5559 85.1939 94.7554 85.89 95.572C87.4921 97.452 89.7848 98.5304 92.1798 98.5304C94.5749 98.5304 96.8672 97.452 98.4696 95.572C99.1652 94.7554 99.0337 93.5561 98.1756 92.8934Z" fill="#359E3D"/>
<path d="M82.7071 81.2014C81.602 81.2014 80.7061 82.0538 80.7061 83.1058V85.3593C80.7061 86.411 81.602 87.2637 82.7071 87.2637C83.8122 87.2637 84.7081 86.411 84.7081 85.3593V83.1058C84.7081 82.0538 83.8122 81.2014 82.7071 81.2014Z" fill="#359E3D"/>
<path d="M101.65 81.2014C100.545 81.2014 99.6489 82.0538 99.6489 83.1058V85.3593C99.6489 86.411 100.545 87.2637 101.65 87.2637C102.755 87.2637 103.651 86.411 103.651 85.3593V83.1058C103.651 82.0538 102.755 81.2014 101.65 81.2014Z" fill="#359E3D"/>
<path d="M135.963 45.4248L69.6633 0.354595C68.9674 -0.118198 68.0331 -0.118198 67.337 0.354595L39.7188 19.1292V10.5694H40.0857C41.1908 10.5694 42.0867 9.71676 42.0867 8.66504C42.0867 7.61306 41.1908 6.76066 40.0857 6.76066H18.7752C17.6701 6.76066 16.7742 7.61306 16.7742 8.66504C16.7742 9.71676 17.6701 10.5694 18.7752 10.5694H19.1421V33.1175L1.03724 45.4248C0.511376 45.7824 0.199219 46.3595 0.199219 46.9747V58.2423C0.199219 58.9556 0.618096 59.6091 1.28457 59.9354C1.95103 60.262 2.75304 60.2063 3.36321 59.7917L7.30279 57.1136V116.058C7.30279 117.386 7.94472 118.602 9.06368 119.394C9.83153 119.937 10.7355 120.219 11.6589 120.219C12.0812 120.219 12.5078 120.16 12.927 120.04L30.1823 115.114C33.0539 114.294 34.9831 111.826 34.9831 108.973V105.393C37.9742 106.723 41.3074 107.47 44.8214 107.47C48.3058 107.47 51.6465 106.729 54.6594 105.392V108.972C54.6594 111.826 56.5887 114.293 59.4603 115.113C62.7352 116.049 66.1135 116.516 69.4944 116.516C72.5818 116.516 75.6716 116.126 78.6835 115.344L79.7438 115.069C82.6666 114.31 84.7079 111.767 84.7079 108.883V108.546C87.1011 109.316 89.6256 109.723 92.1783 109.723C94.7311 109.723 97.2555 109.316 99.6487 108.546V108.884C99.6487 111.767 101.69 114.31 104.613 115.069L124.179 120.147C124.563 120.247 124.953 120.297 125.34 120.297C126.283 120.297 127.206 120.003 127.98 119.441C129.071 118.647 129.697 117.443 129.697 116.136V57.1136L133.637 59.7917C133.983 60.0268 134.39 60.1464 134.8 60.1464C135.113 60.1464 135.427 60.0766 135.715 59.9352C136.382 59.6086 136.801 58.9553 136.801 58.2421V46.9745C136.801 46.3595 136.489 45.7824 135.963 45.4248ZM23.1441 10.5694H35.7171V21.8499L23.1441 30.3968V10.5694ZM44.8214 103.661C34.1742 103.662 25.512 95.4175 25.512 85.2844C25.512 84.2325 24.616 83.3801 23.511 83.3801C22.003 83.3801 20.7762 82.2123 20.7762 80.7774C20.7762 79.3423 22.003 78.1748 23.511 78.1748H26.5399C28.4236 78.1748 30.0892 77.0322 30.6847 75.3317L32.0633 71.396C36.7675 71.2972 51.5931 70.6705 59.9237 66.7061C60.9122 66.2356 61.3129 65.092 60.8185 64.1509C60.3244 63.2102 59.1227 62.8288 58.134 63.2993C49.1986 67.5514 30.7992 67.6052 30.6143 67.6052C29.753 67.6055 28.9884 68.1298 28.7162 68.9073L26.8881 74.1271C26.838 74.2701 26.6982 74.3658 26.5399 74.3658H23.511C23.388 74.3658 23.2658 74.3693 23.1441 74.3757V65.0026C23.1441 57.3544 29.6821 51.1324 37.7181 51.1324H56.661C59.171 51.1324 61.2801 52.8537 61.6758 55.2258C61.7715 55.7996 62.1373 56.3006 62.6691 56.586C65.0316 57.8538 66.499 60.2155 66.499 62.7491V63.2884C64.978 66.5736 64.1311 70.2023 64.1311 74.0166C64.1311 79.3311 63.8563 84.9348 63.4946 90.0086C61.2396 98.025 53.5575 103.661 44.8214 103.661ZM60.6104 111.466C59.4448 111.133 58.6617 110.131 58.6617 108.973V103.13C60.1403 102.092 61.4893 100.89 62.6773 99.5464C62.2008 104.339 61.7889 107.508 61.7793 107.583C61.7099 108.111 61.8756 108.642 62.236 109.048C62.3393 109.165 63.3083 110.222 65.5342 111.546C66.1788 111.93 66.8629 112.296 67.5814 112.647C65.2301 112.508 62.8916 112.117 60.6104 111.466ZM80.7064 108.884C80.7064 110.054 79.8777 111.087 78.6913 111.395L77.631 111.67C77.3557 111.741 77.079 111.806 76.8023 111.87C70.3631 110.243 67.09 108.068 65.8704 107.096C66.1826 104.542 67.0342 97.1904 67.599 88.6306C68.0182 88.853 68.4621 89.0378 68.9298 89.1717C69.0152 90.2836 69.1873 91.3866 69.445 92.4667C70.5957 97.2924 73.4684 101.673 77.5341 104.8C78.5328 105.569 79.5955 106.251 80.7064 106.848V108.884ZM92.1789 105.915C87.711 105.915 83.5169 104.505 80.0501 101.838C76.6807 99.2463 74.3005 95.6186 73.3478 91.6235C73.0303 90.2919 72.8691 88.9172 72.8691 87.5377C72.8691 86.4857 71.9732 85.6333 70.8681 85.6333C69.3602 85.6333 68.1334 84.4656 68.1334 83.0307C68.1334 81.5956 69.3602 80.428 70.8681 80.428C76.936 80.428 81.3371 75.1989 83.3245 72.273C87.9911 75.1326 93.3285 76.1412 98.1048 77.0436C106.899 78.7052 111.489 79.9265 111.489 87.5377C111.489 88.9172 111.327 90.2919 111.01 91.6237C110.057 95.6184 107.677 99.2461 104.308 101.838C100.841 104.505 96.6467 105.915 92.1789 105.915ZM105.666 111.395C104.48 111.087 103.651 110.054 103.651 108.884V106.848C104.762 106.251 105.825 105.569 106.824 104.8C110.889 101.673 113.762 97.2924 114.913 92.4667C115.296 90.8589 115.491 89.2006 115.491 87.538C115.491 76.4456 107.048 74.8505 98.8841 73.3079C93.6628 72.3215 88.2638 71.3015 83.9574 68.0229C83.4862 67.6641 82.8696 67.5283 82.2803 67.6504C81.6909 67.7728 81.1904 68.1428 80.9188 68.6557C80.9076 68.6768 79.7865 70.7772 77.8903 72.8225C76.2845 74.5547 73.7624 76.6198 70.8679 76.6198C69.8828 76.6198 68.9472 76.8237 68.103 77.1868C68.1225 76.1234 68.1331 75.0648 68.1331 74.0169C68.1331 61.3985 78.9199 51.1326 92.1786 51.1326C105.437 51.1326 116.224 61.3985 116.224 74.0169C116.224 87.6571 118.003 103.132 118.487 107.094C117.254 108.078 113.974 110.253 107.527 111.878L105.666 111.395ZM132.799 54.5415L121.751 47.0306C120.851 46.4194 119.601 46.6177 118.959 47.4734C118.317 48.3294 118.525 49.5187 119.425 50.1299L125.696 54.3932V116.136C125.696 116.279 125.618 116.366 125.552 116.414C125.486 116.462 125.377 116.511 125.233 116.473L114.439 113.672C119.91 111.478 122.009 109.175 122.122 109.048C122.482 108.642 122.648 108.111 122.579 107.583C122.555 107.404 120.226 89.4863 120.226 74.0166C120.226 59.2981 107.644 47.3236 92.1789 47.3236C82.8675 47.3236 74.6028 51.6656 69.4986 58.3324C68.6305 56.4971 67.2327 54.8942 65.4299 53.7358C64.3774 49.9705 60.8287 47.3236 56.661 47.3236H37.7181C27.4751 47.3236 19.1421 55.2542 19.1421 65.0026V75.9027C17.6944 77.0796 16.7742 78.8276 16.7742 80.7772C16.7742 83.6713 18.7998 86.1239 21.5724 86.9182C22.0822 93.551 25.6731 99.3786 30.9814 103.12V108.973C30.9814 110.131 30.1981 111.133 29.0324 111.466L11.777 116.393C11.6316 116.434 11.5201 116.386 11.4526 116.338C11.3851 116.29 11.3048 116.203 11.3048 116.058V54.3932L68.5003 15.5122L112.318 45.2994C113.218 45.9106 114.467 45.7123 115.11 44.8566C115.752 44.0009 115.544 42.8113 114.644 42.2001L69.6633 11.6222C68.9674 11.1494 68.0331 11.1494 67.337 11.6222L4.20123 54.5415V47.9546L68.5003 4.2446L132.799 47.9546V54.5415Z" fill="#359E3D"/>
</svg>
