<svg width="92" height="30" viewBox="0 0 92 30" fill="none" xmlns="http://www.w3.org/2000/svg">
<g clip-path="url(#clip0)">
<path d="M0 22.7448C0 20.6458 0 18.5467 0 16.4476C0 16.2585 0 16.2585 0.203745 16.2585C2.0004 16.2585 3.79706 16.2585 5.59371 16.2585C6.0012 16.2585 6.40869 16.2963 6.79766 16.372C7.83488 16.5989 8.74253 17.0338 9.42778 17.847C9.72417 18.2063 9.98346 18.6034 10.1132 19.0572C10.1872 19.2842 10.2799 19.4922 10.3169 19.7191C10.4281 20.2865 10.4651 20.8727 10.3725 21.4588C10.2799 22.1019 10.0761 22.6881 9.72417 23.2365C9.37227 23.766 8.90913 24.1819 8.37208 24.5035C7.90901 24.7872 7.39037 24.9762 6.87174 25.1086C6.66801 25.1654 6.44574 25.1843 6.22347 25.2221C5.40849 25.3544 4.57499 25.2788 3.7415 25.2977C3.5007 25.2977 3.25991 25.2977 3.03764 25.2977C2.92651 25.2977 2.88947 25.3355 2.88947 25.449C2.88947 26.6404 2.88947 27.8317 2.88947 29.0232C2.88947 29.2311 2.88947 29.2311 2.68572 29.2311C1.85222 29.2311 1.01873 29.2311 0.185222 29.2311C0 29.2311 0 29.2311 0 29.0609C0 26.9618 0 24.8439 0 22.7448ZM2.87095 20.797C2.87095 21.4211 2.87095 22.0452 2.87095 22.6503C2.87095 22.7638 2.90799 22.8016 3.01912 22.8016C3.76001 22.8016 4.5009 22.8016 5.24179 22.8016C5.70485 22.8016 6.1679 22.7259 6.5754 22.4611C6.94583 22.2153 7.24219 21.9128 7.37185 21.4967C7.5015 21.1185 7.52003 20.7214 7.44594 20.3243C7.37185 19.946 7.20515 19.6057 6.90879 19.3599C6.46425 18.9627 5.92711 18.8114 5.3344 18.8114C4.55647 18.7925 3.77853 18.8114 3.00061 18.8114C2.87095 18.8114 2.8339 18.8492 2.8339 18.9816C2.87095 19.5678 2.87095 20.1918 2.87095 20.797ZM32.7474 22.7827C32.7658 26.3378 29.8207 29.3446 26.1348 29.3258C22.486 29.3068 19.578 26.3945 19.578 22.8016C19.578 19.1518 22.523 16.2584 26.1719 16.2584C29.7838 16.2396 32.7658 19.1707 32.7474 22.7827ZM26.1534 19.2842C24.2455 19.2842 22.6342 20.8537 22.6342 22.7827C22.6342 24.7115 24.2455 26.2622 26.0793 26.2811C28.0982 26.3188 29.6911 24.6926 29.6911 22.7827C29.6726 20.8348 28.0982 19.2842 26.1534 19.2842Z" fill="white"/>
<path d="M12.7065 26.0161C12.7065 25.6945 12.7065 25.392 12.7251 25.0704C12.7436 24.8057 12.7251 24.541 12.7622 24.2762C12.7991 23.9737 12.7991 23.671 12.8362 23.3685C12.8733 23.1416 12.8733 22.9147 12.9103 22.7066C12.9659 22.4419 13.0214 22.1772 13.0955 21.9313C13.2067 21.591 13.3548 21.2695 13.54 20.9669C13.7809 20.5697 14.0957 20.2294 14.4662 19.9457C14.8551 19.6432 15.2811 19.4162 15.7257 19.2082C15.9665 19.0948 16.2073 19.0192 16.448 18.8867C16.485 18.8678 16.5221 18.8678 16.5407 18.9056C16.7444 19.3217 16.8185 19.7377 16.837 20.1916C16.837 20.3618 16.837 20.5131 16.8185 20.6832C16.7999 20.8535 16.7814 21.0236 16.7444 21.1749C16.6518 21.4964 16.5407 21.8179 16.3554 22.1015C16.1331 22.4608 15.8554 22.7445 15.5034 22.9715C15.2256 23.1416 14.8922 23.2362 14.5958 23.3685C14.318 23.482 14.0402 23.5955 13.7993 23.7657C13.54 23.9359 13.3734 24.1817 13.3363 24.5032C13.3178 24.749 13.3178 24.9949 13.3363 25.2407C13.6512 24.9381 14.1513 24.8246 14.6144 24.7679C14.9663 24.7301 15.3182 24.7301 15.6516 24.749C15.5219 24.6544 15.4479 24.5788 15.4664 24.522C15.559 24.3141 16.9667 24.5599 17.5594 24.4464C17.9484 24.3708 18.3188 24.2006 18.3188 24.2006C18.4114 24.1627 18.504 24.106 18.5781 24.0682C19.2079 23.7089 19.6154 23.1605 19.8561 22.4987C19.9858 22.1205 20.0599 21.7422 20.0969 21.3451C20.1339 20.9101 20.1154 20.4753 20.0228 20.0403C19.9488 19.7188 19.8377 19.4162 19.6894 19.1326C19.4116 18.6031 19.0226 18.187 18.5225 17.8466C18.041 17.5063 17.4853 17.2793 16.9111 17.1469C16.5407 17.0714 16.1702 17.0146 15.7998 17.0146C15.4293 17.0146 15.0589 17.0335 14.67 17.1092C14.3736 17.1658 14.0957 17.2415 13.818 17.3361C13.2993 17.5251 12.8177 17.771 12.3732 18.0925C12.6139 18.2249 12.7807 18.5085 12.7807 18.7733C13.1141 19.0002 13.2993 19.4919 12.9288 19.889C12.1324 20.7589 11.8361 21.9691 11.2433 22.9715C11.1507 23.1416 11.0025 23.2551 10.8543 23.2929C10.8359 23.3874 10.7988 23.482 10.7803 23.5766C11.1322 23.5955 11.4285 23.8224 11.3915 24.2574C11.3545 24.522 11.3174 24.8057 11.2804 25.0704C11.4656 25.1272 11.6137 25.2407 11.6879 25.4297C11.9101 25.392 12.1694 25.4297 12.3546 25.6C12.4843 25.7323 12.6139 25.8647 12.7065 26.0161Z" fill="white"/>
<path d="M13.5213 23.1987C13.4843 23.1041 13.5213 23.0096 13.5213 22.9339C13.5584 22.7071 13.614 22.4801 13.7251 22.2721C13.8733 22.0073 14.0585 21.7803 14.2808 21.5724C14.5401 21.3266 14.855 21.1185 15.1328 20.8916C15.4477 20.6268 15.7441 20.3432 15.9478 20.0027C16.0034 19.9083 16.0774 19.7948 16.1144 19.6813C16.1331 19.6624 16.1331 19.6434 16.1701 19.6245C16.1886 19.7191 16.1331 19.8137 16.1144 19.9083C16.0219 20.2865 15.8367 20.6268 15.5773 20.9294C15.2995 21.2698 14.9661 21.5345 14.6328 21.7993C14.2994 22.0829 13.9474 22.3478 13.7251 22.726C13.651 22.8583 13.577 22.9906 13.5584 23.123C13.5584 23.123 13.5584 23.1608 13.5213 23.1987Z" fill="white"/>
<path d="M23.1154 26.5834C23.0043 26.7159 22.8746 26.8483 22.7449 26.9617C22.4485 27.2265 22.0966 27.4156 21.7076 27.4534C21.3742 27.4723 21.0409 27.4723 20.7074 27.4156C20.1703 27.3021 19.6517 27.1319 19.1516 26.8861C18.3922 26.5079 17.6884 26.0351 17.003 25.5056C16.577 25.1841 16.151 24.8438 15.6324 24.7303C15.7991 24.6924 16.0399 24.6546 16.3547 24.6168C17.4291 24.4466 17.5587 24.4466 17.7624 24.3899C18.5033 24.1818 18.9294 23.5011 19.2257 23.0284C19.3553 22.8202 20.2815 21.3074 19.7628 19.6245C19.5406 18.8869 19.133 18.4142 19.0034 18.2818C18.5959 17.8658 18.0959 17.601 17.5772 17.3551C16.6511 16.9201 15.6694 16.7311 14.6507 16.75C13.7061 16.75 12.7614 16.7879 11.7982 16.7879C11.539 16.7879 11.2796 16.7311 11.0388 16.6176C10.5758 16.4097 10.2239 16.0692 9.94603 15.6343C9.92755 15.6154 9.90892 15.5586 9.87197 15.5586C9.81631 15.5586 9.83494 15.6154 9.83494 15.6532C9.81631 15.8991 9.85342 16.126 9.90892 16.3718C10.0016 16.9014 10.1498 17.4308 10.3536 17.9225C10.5387 18.3574 10.761 18.7735 11.113 19.1138C11.613 19.5677 12.2243 19.7379 12.854 19.8324C12.9652 19.8513 13.0578 19.8513 13.1689 19.8703V19.8513C13.3726 19.2273 14.0209 18.8491 14.6692 18.8491C14.8174 18.8491 14.947 18.8869 15.0767 18.9247C15.1137 18.9247 15.1322 18.9059 15.1693 18.9059C15.1879 18.8869 15.2064 18.8869 15.2064 18.868C14.9285 18.7545 14.6321 18.6411 14.3173 18.5465C14.7063 18.5465 15.0582 18.5844 15.3915 18.6411C15.4286 18.6411 15.4656 18.6601 15.5028 18.6601C15.6138 18.6033 15.725 18.5277 15.8361 18.4898C16.2066 18.3195 16.5956 18.3952 16.8363 18.7545C16.9289 18.8869 16.9475 19.0949 16.9104 19.2652C17.6513 19.8324 17.855 20.8536 17.5587 21.6857C17.4291 22.0639 17.2067 22.3476 16.9475 22.5744C16.9659 22.8392 16.8363 23.1229 16.5956 23.2552C16.4844 23.3119 16.3733 23.3687 16.2621 23.4444C16.225 23.4633 16.1324 23.5011 16.1139 23.5389C16.188 23.4821 16.2066 23.4633 16.151 23.52C16.1324 23.5389 16.0954 23.5578 16.0769 23.5767C15.9102 23.7091 15.7064 23.7848 15.5212 23.7848C15.4656 23.9549 15.3545 24.1062 15.1879 24.2007C15.0952 24.2575 15.0026 24.2954 14.8915 24.3331C14.8544 24.3521 14.7989 24.371 14.7618 24.3899C14.7063 24.4088 14.5581 24.5223 14.7247 24.3899C14.5581 24.5223 14.4099 24.5979 14.2061 24.5979C14.095 24.5979 14.0025 24.5789 13.9099 24.5412C13.8727 24.7492 13.7431 24.9194 13.5393 25.0139C13.4282 25.1463 13.2429 25.2219 13.0207 25.2219C12.3354 25.2219 12.1501 24.4655 12.4651 24.0495C12.2798 23.8225 12.2613 23.5011 12.4095 23.2363C12.428 23.1985 12.4465 23.1795 12.4465 23.1418C12.3169 22.6123 12.3725 22.0639 12.6873 21.5911C12.7058 21.5533 12.7244 21.5344 12.7429 21.4966C12.7058 21.3453 12.6688 21.175 12.6688 21.0428C12.6503 20.6646 12.891 20.4375 13.1689 20.3809C13.1504 20.343 13.1318 20.2863 13.1133 20.2485C12.7799 20.2106 12.4465 20.1728 12.1316 20.0782C11.3907 19.8703 10.7795 19.4921 10.3536 18.8112C10.335 18.7735 10.3165 18.6978 10.2609 18.7167C10.2053 18.7356 10.2239 18.8112 10.2239 18.8491C10.2239 22.1962 10.2239 25.5435 10.2239 28.8906C10.2239 29.0607 10.2423 29.0796 10.4276 29.0986C10.7055 29.0986 11.0018 29.0986 11.2796 29.0986C11.7242 29.0796 12.1501 29.004 12.5391 28.7582C12.854 28.5691 13.1133 28.3232 13.3171 28.0396C13.5208 27.737 13.6135 27.4723 13.6505 27.3777C13.9654 26.3944 13.6875 24.9194 13.7987 24.8059C13.8172 24.7871 13.8357 24.7681 13.8357 24.7681C13.8912 24.7492 13.9654 24.7871 14.0394 24.7871C14.521 24.7303 14.8544 24.9572 15.1322 25.3354C15.3545 25.6569 15.5767 25.9973 15.8361 26.2999C16.1324 26.6592 16.4844 26.9617 16.8548 27.2265C15.9286 26.8861 15.2248 26.262 14.6692 25.3922C14.6507 25.4867 14.6692 25.5435 14.6692 25.5812C14.7803 26.054 14.947 26.5268 15.0952 26.9806C15.336 27.7181 15.7064 28.3232 16.3362 28.7771C16.8918 29.1743 17.5216 29.3822 18.2069 29.4389C18.5774 29.4768 18.9294 29.4389 19.2998 29.3822C19.7072 29.3255 20.0962 29.231 20.4667 29.0607C21.4299 28.6259 22.2634 27.9828 22.893 27.0941C23.0228 26.905 23.1709 26.6969 23.2265 26.47C23.1709 26.5268 23.1339 26.5457 23.1154 26.5834Z" fill="white"/>
<path d="M20.8555 0.411304C21.7816 0.241109 23.1893 0.241109 24.0969 0.411304V8.08901C24.0969 12.1736 22.0595 13.9513 18.5772 13.9513C15.0951 13.9513 13.0576 12.1736 13.0576 8.08901V0.411304C13.9652 0.241109 15.3914 0.241109 16.299 0.411304V8.59956C16.299 10.1313 17.077 11.247 18.5772 11.247C20.0775 11.247 20.8555 10.1313 20.8555 8.59956V0.411304ZM34.9509 0.411304C35.1175 1.35683 35.1175 2.18888 34.9509 3.11551H31.4502V13.6297C30.5241 13.8 29.172 13.8 28.2643 13.6297V3.11551H24.7452C24.5784 2.16998 24.5784 1.33791 24.7452 0.411304H34.9509ZM40.8225 0.411304C43.712 0.411304 45.7123 2.18889 45.7123 4.77963C45.7123 6.57613 44.7677 7.97552 43.2488 8.67518L46.3977 13.6487C45.49 13.8188 43.8416 13.8188 42.9339 13.6487L40.0816 9.16688H38.822V13.6487C37.9144 13.8188 36.5438 13.8188 35.6362 13.6487V0.411304H40.8225ZM38.822 6.46268H40.8225C41.693 6.46268 42.4524 5.93318 42.4524 4.79855C42.4524 3.66391 41.693 3.13442 40.8225 3.13442H38.822V6.46268ZM50.4355 13.6487C49.5279 13.8188 48.1572 13.8188 47.2496 13.6487V0.411304C48.1572 0.241109 49.5279 0.241109 50.4355 0.411304V13.6487ZM61.3266 0.411304C61.4932 1.35683 61.4932 2.18888 61.3266 3.11551H57.8258V13.6297C56.8997 13.8 55.5476 13.8 54.6399 13.6297V3.11551H51.1393C50.9726 2.16998 50.9726 1.33791 51.1393 0.411304H61.3266ZM65.2162 13.6487C64.3087 13.8188 62.938 13.8188 62.0304 13.6487V0.411304C62.938 0.241109 64.3087 0.241109 65.2162 0.411304V13.6487ZM79.4972 7.02998C79.4972 10.831 76.7188 13.9513 72.6251 13.9513C68.5132 13.9513 65.7533 10.831 65.7533 7.02998C65.7533 3.22897 68.5317 0.108735 72.6251 0.108735C76.7372 0.108735 79.4972 3.21006 79.4972 7.02998ZM68.9947 7.02998C68.9947 9.67743 70.6618 11.247 72.6251 11.247C74.5885 11.247 76.2554 9.67743 76.2554 7.02998C76.2554 4.38251 74.5885 2.81295 72.6251 2.81295C70.6618 2.81295 68.9947 4.38251 68.9947 7.02998ZM91.9992 13.6487C91.0731 13.8188 90.4253 13.8188 89.4991 13.6487L83.4609 5.89535V13.6487C82.5347 13.8188 81.1823 13.8188 80.2746 13.6487V0.411304C81.2007 0.241109 81.8493 0.241109 82.7755 0.411304L88.8137 8.16463V0.411304C89.7399 0.241109 91.0923 0.241109 91.9992 0.411304V13.6487ZM11.9647 13.365C11.0387 13.5352 10.3904 13.5352 9.46427 13.365L3.42605 5.6117V13.365C2.49995 13.5352 1.14783 13.5352 0.240234 13.365V0.127646C1.16635 -0.0425487 1.81463 -0.0425487 2.74073 0.127646L8.77902 7.88097V0.127646C9.70508 -0.0425487 11.0572 -0.0425487 11.9647 0.127646V13.365Z" fill="white"/>
</g>
<defs>
<clipPath id="clip0">
<rect width="92" height="30" fill="white"/>
</clipPath>
</defs>
</svg>
