<svg width="21" height="22" viewBox="0 0 21 22" fill="none" xmlns="http://www.w3.org/2000/svg">
<path d="M13.8278 3.31152H6.91396C4.52745 3.31152 2.59277 5.2462 2.59277 7.63271V14.5466C2.59277 16.9331 4.52745 18.8678 6.91396 18.8678H13.8278C16.2144 18.8678 18.149 16.9331 18.149 14.5466V7.63271C18.149 5.2462 16.2144 3.31152 13.8278 3.31152Z" stroke="white" stroke-width="1.29635" stroke-miterlimit="10"/>
<path d="M13.2877 11.0896C13.2877 9.47867 11.9818 8.17281 10.3709 8.17281C8.75996 8.17281 7.4541 9.47867 7.4541 11.0896C7.4541 12.7005 8.75996 14.0064 10.3709 14.0064C11.9818 14.0064 13.2877 12.7005 13.2877 11.0896ZM15.0162 7.03807C15.0162 6.71017 14.7495 6.44434 14.4216 6.44434C14.2641 6.44434 14.1131 6.50689 14.0017 6.61824C13.8904 6.72958 13.8278 6.8806 13.8278 7.03807V7.03893C13.8278 7.36682 14.0945 7.63266 14.4224 7.63266C14.5799 7.63266 14.7309 7.57011 14.8423 7.45876C14.9536 7.34742 15.0162 7.1964 15.0162 7.03893V7.03807V7.03807Z" stroke="white" stroke-width="1.29635" stroke-miterlimit="10"/>
</svg>
