<svg width="23" height="23" viewBox="0 0 23 23" fill="none" xmlns="http://www.w3.org/2000/svg">
<path d="M3.17717 8.66622C3.0537 7.70102 3.12642 6.80714 3.24159 6.12372C4.05957 7.09609 5.0241 7.91593 6.14147 8.46354C7.68069 9.21788 9.47013 9.43508 11.4778 8.87342C11.7578 8.7951 11.9514 8.53994 11.9514 8.24921V7.43089H11.9514L11.9513 7.42249C11.9433 6.80411 12.1254 6.19818 12.4729 5.68664L12.473 5.68657C12.7327 5.30416 13.0768 4.98648 13.4787 4.75803C13.8805 4.52957 14.3295 4.39644 14.791 4.36888C15.2524 4.34132 15.714 4.42008 16.1402 4.59908C16.5665 4.77808 16.9459 5.05255 17.2493 5.40133C17.4129 5.58939 17.6698 5.66699 17.9102 5.60091C18.4443 5.45404 18.9662 5.26812 19.4716 5.04496C19.1524 5.74689 18.7222 6.3966 18.1947 6.96794C18.0841 7.08769 18.0227 7.24468 18.0227 7.40767C18.0227 11.8777 15.8316 15.0032 12.8099 16.5524C10.4491 17.7628 7.5488 18.0267 4.72929 17.1725C6.01216 16.9172 7.24642 16.4331 8.37063 15.7358C8.57886 15.6067 8.69647 15.3711 8.67458 15.1271C8.65269 14.883 8.49504 14.6722 8.26714 14.5821C6.39709 13.8434 5.1982 12.8645 4.43294 11.8385C3.66609 10.8104 3.30953 9.70095 3.17717 8.66622Z" stroke="white" stroke-width="1.29635" stroke-linecap="round" stroke-linejoin="round"/>
</svg>
