<svg fill="none" height="24" viewBox="0 0 24 24" width="24" xmlns="http://www.w3.org/2000/svg"><path d="m12 24c6.6274 0 12-5.3726 12-12 0-6.62742-5.3726-12-12-12-6.62742 0-12 5.37258-12 12 0 6.6274 5.37258 12 12 12z" fill="#2fa037"/><path clip-rule="evenodd" d="m11.5471 17.263h.9419s.2845-.0313.4297-.1879c.1337-.1437.1295-.4137.1295-.4137s-.0184-1.2637.5681-1.4498c.5782-.1834 1.3207 1.2214 2.1077 1.7615.5951.4088 1.0473.3192 1.0473.3192l2.1042-.0293s1.1008-.0678.5789-.9333c-.0428-.0708-.304-.6403-1.5646-1.8104-1.3194-1.2246-1.1427-1.0265.4467-3.1449.9679-1.2901 1.3549-2.0777 1.234-2.41504-.1153-.32129-.8272-.23637-.8272-.23637l-2.3692.01476s-.1757-.02396-.3059.05391c-.1273.07636-.2092.25434-.2092.25434s-.375.9983-.8752 1.8473c-1.055 1.7915-1.4768 1.8861-1.6492 1.7749-.4011-.2593-.301-1.0416-.301-1.5973 0-1.73612.2633-2.46-.5127-2.64738-.2576-.06225-.4471-.10332-1.1057-.10995-.8454-.00877-1.56095.00256-1.9661.20107-.26953.13199-.47745.42611-.35082.44301.15659.02097.51125.09562.69928.35167.24274.33028.23424 1.07208.23424 1.07208s.1395 2.0437-.32579 2.2977c-.31937.1741-.75746-.1814-1.69803-1.8067-.48194-.8326-.84581-1.75282-.84581-1.75282s-.07016-.17198-.1953-.26396c-.15187-.11145-.36408-.14696-.36408-.14696l-2.25141.01476s-.33798.00941-.46205.15637c-.11038.1307-.00877.40108-.00877.40108s1.76263 4.12373 3.75842 6.20193c1.83001 1.9053 3.90812 1.7802 3.90812 1.7802z" fill="#fff" fill-rule="evenodd"/></svg>