<svg width="359" height="359" viewBox="0 0 359 359" fill="none" xmlns="http://www.w3.org/2000/svg">
<g id="carousel_mask_mob 1" clip-path="url(#clip0)">
<g id="carousel_mask_mob">
<g id="BG">
<path id="Vector" fill-rule="evenodd" clip-rule="evenodd" d="M465 -9H-171V378H465V-9ZM48.321 107.641C58.991 107.641 67.641 98.991 67.641 88.3206C67.641 77.6501 58.991 69 48.321 69C37.65 69 29 77.6501 29 88.3206C29 98.991 37.65 107.641 48.321 107.641ZM38.641 214.321C38.641 224.991 29.991 233.641 19.321 233.641C8.65 233.641 0 224.991 0 214.321C0 203.65 8.65 195 19.321 195C29.991 195 38.641 203.65 38.641 214.321ZM21.321 170.641C31.991 170.641 40.641 161.991 40.641 151.321C40.641 140.65 31.991 132 21.321 132C10.65 132 2 140.65 2 151.321C2 161.991 10.65 170.641 21.321 170.641ZM67.641 277.321C67.641 287.991 58.991 296.641 48.321 296.641C37.65 296.641 29 287.991 29 277.321C29 266.65 37.65 258 48.321 258C58.991 258 67.641 266.65 67.641 277.321ZM178 308C247.036 308 303 252.036 303 183C303 113.964 247.036 58 178 58C108.964 58 53 113.964 53 183C53 252.036 108.964 308 178 308Z" fill="#FDFDFD"/>
<g id="Stroke" filter="url(#filter0_d)">
<path id="Vector_2" d="M179 313C250.245 313 308 255.245 308 184C308 112.755 250.245 55 179 55C107.755 55 50 112.755 50 184C50 255.245 107.755 313 179 313Z" stroke="white" stroke-width="8"/>
</g>
</g>
<g id="Elements rotation group">
<animateTransform
  attributeName="transform"
  attributeType="XML"
  type="rotate"
  from="10 177 177"
  to="0 177 177"
  dur="1.5s"
  start="2s"
  id="rotate"
/>
<path id="Dot orange 2" fill-rule="evenodd" clip-rule="evenodd" d="M290.082 67.5344C259.465 38.186 218.5 22.1097 176.094 22.8007C133.688 23.4918 93.2685 40.8941 63.6235 71.2245C62.6381 72.2328 61.6672 73.2526 60.711 74.2836C60.5082 74.1198 60.302 73.96 60.0926 73.8043C61.0686 72.751 62.0598 71.7094 63.0662 70.6798C92.8547 40.2025 133.47 22.7159 176.081 22.0215C218.693 21.3271 259.856 37.4812 290.621 66.9718C321.387 96.4623 339.268 136.905 340.377 179.508C341.486 222.111 325.733 263.429 296.543 294.48L295.976 293.946C325.025 263.045 340.702 221.926 339.598 179.528C338.494 137.131 320.7 96.8828 290.082 67.5344ZM37.4038 105.084C37.6163 105.235 37.832 105.381 38.0508 105.524C33.1868 114.275 29.1527 123.455 25.9982 132.943C25.7398 132.897 25.4796 132.856 25.2178 132.82C28.401 123.22 32.4799 113.933 37.4038 105.084ZM17.531 170.616C17.1498 175.308 16.9723 180.033 17.0035 184.777C17.0275 188.442 17.1759 192.093 17.4462 195.725C17.7011 195.67 17.9579 195.619 18.2165 195.574C17.9519 191.99 17.8066 188.388 17.7828 184.772C17.7521 180.093 17.9253 175.434 18.2975 170.806C18.04 170.748 17.7845 170.685 17.531 170.616ZM37.0615 261.73C32.1272 252.77 28.0549 243.363 24.8986 233.639C25.1574 233.594 25.4143 233.544 25.6694 233.489C28.797 243.106 32.825 252.409 37.7005 261.274C37.4843 261.422 37.2712 261.574 37.0615 261.73ZM59.6117 293.106C61.2196 294.857 62.8691 296.575 64.5598 298.26C94.7458 328.344 135.587 345.296 178.204 345.431C220.821 345.566 261.768 328.873 292.144 298.981L291.597 298.426C261.368 328.174 220.618 344.786 178.206 344.652C135.795 344.517 95.1505 327.647 65.1099 297.708C63.4486 296.053 61.8271 294.364 60.2461 292.645C60.0379 292.803 59.8264 292.957 59.6117 293.106Z" fill="url(#paint0_linear)"/>
<path id="Dot orange 1" d="M323.773 114.99C324.957 114.99 325.916 114.03 325.916 112.846C325.916 111.663 324.957 110.703 323.773 110.703C322.589 110.703 321.63 111.663 321.63 112.846C321.63 114.03 322.589 114.99 323.773 114.99Z" fill="#F6BEA8"/>
<path id="Dot green 2" d="M317.149 102.909C318.333 102.909 319.292 101.95 319.292 100.766C319.292 99.5826 318.333 98.623 317.149 98.623C315.965 98.623 315.006 99.5826 315.006 100.766C315.006 101.95 315.965 102.909 317.149 102.909Z" fill="#91D4B4"/>
<path id="Dot green 1" d="M268.304 51.9622C269.488 51.9622 270.448 51.0027 270.448 49.819C270.448 48.6353 269.488 47.6758 268.304 47.6758C267.121 47.6758 266.161 48.6353 266.161 49.819C266.161 51.0027 267.121 51.9622 268.304 51.9622Z" fill="#91D4B4"/>
<path id="Dot4" d="M331.304 237.962C332.488 237.962 333.448 237.003 333.448 235.819C333.448 234.635 332.488 233.676 331.304 233.676C330.121 233.676 329.161 234.635 329.161 235.819C329.161 237.003 330.121 237.962 331.304 237.962Z" fill="#F6BEA8"/>
<path id="Text top" fill-rule="evenodd" clip-rule="evenodd" d="M82.2871 42.5366L88.0591 51.0456L89.4606 50.1012L87.48 47.1843L89.2202 46.0079C89.588 45.7594 89.9031 45.441 90.1475 45.0709C90.392 44.7009 90.561 44.2864 90.6449 43.8511C90.7287 43.4159 90.7259 42.9684 90.6365 42.5342C90.5471 42.1 90.3728 41.6876 90.1237 41.3206C89.8746 40.9536 89.5554 40.6391 89.1846 40.3951C88.8137 40.1512 88.3982 39.9825 87.962 39.8987C87.5258 39.8149 87.0774 39.8177 86.6423 39.9069C86.2072 39.996 85.7939 40.1699 85.4262 40.4184L82.2871 42.5366ZM86.589 45.8714L84.577 42.9051L86.3172 41.7312C86.5036 41.5968 86.7164 41.503 86.9416 41.4561C87.1668 41.4092 87.3994 41.4102 87.6242 41.459C88.0827 41.5787 88.4819 41.8608 88.7474 42.2525C89.0129 42.6443 89.1265 43.119 89.0671 43.5882C89.0292 43.8141 88.9438 44.0295 88.8167 44.2203C88.6895 44.411 88.5234 44.5728 88.3292 44.695L86.589 45.8714ZM99.4469 42.6643C99.6295 41.9203 99.5871 41.139 99.3251 40.4189C99.0631 39.6989 98.5931 39.0724 97.9746 38.6186C97.3561 38.1649 96.6167 37.9041 95.8498 37.8693C95.0829 37.8346 94.323 38.0273 93.6658 38.4232C93.0087 38.8191 92.4839 39.4005 92.1577 40.0938C91.8315 40.7872 91.7185 41.5615 91.833 42.319C91.9475 43.0765 92.2844 43.7831 92.801 44.3497C93.3177 44.9164 93.991 45.3176 94.736 45.5027C95.7371 45.7356 96.7898 45.5692 97.6697 45.0391C98.5497 44.5089 99.1874 43.6568 99.4469 42.6643ZM93.7031 42.918C93.5366 42.6601 93.4245 42.3711 93.3737 42.0686C93.3229 41.7661 93.3345 41.4564 93.4077 41.1585C93.5617 40.5701 93.9398 40.0649 94.4615 39.7505C94.9832 39.4361 95.6073 39.3373 96.201 39.4752C96.7972 39.639 97.3077 40.0249 97.6275 40.5531C97.9472 41.0813 98.0518 41.7117 97.9196 42.3145C97.766 42.9025 97.3883 43.4074 96.8669 43.7214C96.3456 44.0354 95.7219 44.1337 95.1289 43.9954C94.83 43.9229 94.5491 43.7899 94.3039 43.6045C94.0586 43.4192 93.8541 43.1855 93.7031 42.918ZM101.811 33.05L102.215 30.5047L100.789 31.2654L100.622 32.5697L99.4286 31.9903L98.0029 32.751L100.349 33.8297L101.811 33.05ZM105.278 38.6231C105.064 38.9723 104.758 39.2567 104.394 39.4457C104.132 39.5937 103.841 39.6861 103.541 39.7172C103.241 39.7484 102.938 39.7176 102.65 39.6267C102.07 39.4319 101.585 39.0234 101.296 38.4845C101.007 37.9457 100.935 37.3171 101.094 36.7269C101.178 36.4377 101.32 36.1688 101.513 35.9373C101.706 35.7059 101.944 35.5167 102.214 35.3819C102.571 35.1815 102.977 35.083 103.387 35.0974C103.769 35.1122 104.138 35.2427 104.445 35.4716L105.275 34.1318C104.74 33.7595 104.108 33.5523 103.456 33.5358C102.771 33.5133 102.092 33.6749 101.491 34.0037C101.036 34.239 100.632 34.5621 100.304 34.9542C99.9753 35.3464 99.7278 35.7999 99.5762 36.2883C99.4246 36.7767 99.3717 37.2904 99.4206 37.7994C99.4696 38.3084 99.6193 38.8026 99.8613 39.2534C100.103 39.7042 100.432 40.1025 100.83 40.4253C101.227 40.748 101.685 40.9888 102.176 41.1336C102.668 41.2784 103.183 41.3243 103.693 41.2687C104.202 41.213 104.695 41.057 105.144 40.8096C105.751 40.4938 106.263 40.0203 106.623 39.4389C106.973 38.8795 107.158 38.2329 107.156 37.5734L105.583 37.5293C105.59 37.9157 105.484 38.2958 105.278 38.6231ZM104.922 29.1739L106.57 28.3676L106.607 30.636L105.235 31.3072L104.922 29.1739ZM110.279 37.996L107.035 31.4074L105.609 32.1046L108.853 38.6932L110.279 37.996ZM112.447 28.903L110.788 29.6556L109.934 27.788L108.685 28.8697L109.345 30.3117L108.115 30.8709L108.751 32.2613L109.982 31.6995L111.449 34.9035C111.849 35.7779 112.364 36.2654 112.994 36.3709C113.623 36.4764 114.459 36.2133 115.504 35.5766L114.91 34.2816C114.553 34.4647 114.248 34.6065 113.998 34.7045C113.796 34.7997 113.566 34.818 113.352 34.7559C113.245 34.7064 113.149 34.6358 113.07 34.5485C112.991 34.4611 112.93 34.3587 112.891 34.2474L111.424 31.0435L113.081 30.2908L112.447 28.903ZM115.992 24.2447L115.646 26.5178L117.063 25.9497L117.765 23.5315L115.992 24.2447ZM119.408 27.1579C118.546 26.6178 117.597 26.5563 116.559 26.9732C116.107 27.1495 115.698 27.4189 115.357 27.7636C115.017 28.1084 114.752 28.5208 114.582 28.9742C114.223 29.9241 114.235 30.9741 114.617 31.9155C114.998 32.8568 115.721 33.6204 116.641 34.0544C117.079 34.2654 117.557 34.3813 118.043 34.3946C118.53 34.4078 119.013 34.3182 119.462 34.1315C119.934 33.9673 120.356 33.6873 120.691 33.3173C121.026 32.9473 121.262 32.4992 121.377 32.0142L121.774 32.9952L123.247 32.4011L120.487 25.5982L119.016 26.1923L119.408 27.1579ZM116.091 31.3265C115.965 31.0425 115.899 30.736 115.895 30.4255C115.892 30.1151 115.952 29.8072 116.072 29.5207C116.326 28.9576 116.788 28.5142 117.361 28.2832C117.935 28.0522 118.576 28.0515 119.15 28.2813C119.716 28.5462 120.16 29.0144 120.394 29.592C120.628 30.1697 120.636 30.8144 120.414 31.397C120.162 31.9612 119.7 32.4057 119.126 32.6369C118.552 32.868 117.91 32.8679 117.336 32.6364C117.05 32.5135 116.793 32.3341 116.579 32.1089C116.365 31.8837 116.199 31.6175 116.091 31.3265ZM128.317 23.9415C128.009 23.6525 127.626 23.4562 127.211 23.3749C126.796 23.2937 126.366 23.3309 125.972 23.4822C125.572 23.5886 125.207 23.7988 124.914 24.0915C124.622 24.3842 124.412 24.7489 124.306 25.1486L124.035 24.3116L122.525 24.8002L124.805 31.7771L126.316 31.2859L125.038 27.3802C124.84 26.8961 124.834 26.3546 125.022 25.8664C125.113 25.6667 125.246 25.489 125.413 25.3458C125.58 25.2025 125.775 25.097 125.987 25.0365C126.165 24.9663 126.356 24.9372 126.547 24.9513C126.738 24.9653 126.923 25.0222 127.088 25.1177C127.439 25.3586 127.691 25.7182 127.796 26.1298L129.18 30.3565L130.687 29.8678L129.41 25.9621C129.21 25.3484 129.197 24.8435 129.371 24.4475C129.46 24.2481 129.593 24.071 129.759 23.9292C129.925 23.7873 130.122 23.6843 130.333 23.6277C130.514 23.558 130.708 23.5285 130.902 23.5413C131.096 23.5541 131.285 23.6089 131.455 23.7019C131.816 23.933 132.077 24.2922 132.184 24.7071L133.567 28.9338L135.077 28.4452L133.662 24.1209C133.453 23.3508 132.949 22.6934 132.259 22.2902C131.929 22.1148 131.566 22.0111 131.192 21.9859C130.819 21.9608 130.445 22.0148 130.094 22.1444C129.134 22.4565 128.542 23.0555 128.317 23.9415ZM142.71 23.4532C142.689 23.2332 142.654 23.0149 142.605 22.7996C142.376 21.8109 141.773 20.9487 140.922 20.3931C140.508 20.1174 140.038 19.9347 139.547 19.8576C139.055 19.7806 138.552 19.8111 138.073 19.9469C137.567 20.0556 137.09 20.2676 136.671 20.5695C136.252 20.8714 135.901 21.2567 135.638 21.701C135.144 22.5997 135.012 23.6522 135.267 24.6451C135.522 25.6379 136.147 26.4967 137.013 27.0471C137.906 27.573 138.932 27.6905 140.09 27.3996C141.468 27.0511 142.377 26.2717 142.817 25.0615L141.361 24.6431C141.229 24.9858 141.012 25.2892 140.729 25.5243C140.447 25.7594 140.109 25.9184 139.747 25.9863C139.219 26.1385 138.657 26.1191 138.141 25.9308C137.652 25.7369 137.257 25.361 137.04 24.8823L142.71 23.4532ZM137.108 22.1707C137.43 21.7482 137.894 21.4545 138.414 21.3424C138.889 21.2153 139.393 21.2542 139.842 21.4526C140.323 21.6827 140.699 22.0856 140.895 22.5807L136.706 23.6344C136.662 23.1144 136.804 22.5957 137.108 22.1707ZM150.574 21.1629L153.13 17.0645L151.218 17.3997L148.979 21.085L147.899 15.0027L146.335 15.2762L148.131 25.3896L149.695 25.1161L149.103 21.7773L152.662 24.5965L154.528 24.2674L150.574 21.1629ZM159.81 17.2545C159.47 16.8906 159.045 16.6174 158.572 16.4596C158.099 16.3018 157.595 16.2645 157.104 16.3512C156.622 16.4054 156.156 16.5605 155.738 16.8064C155.32 17.0523 154.959 17.3834 154.678 17.7781C154.088 18.605 153.831 19.6235 153.959 20.6309C154.086 21.6383 154.59 22.5608 155.368 23.2148C155.738 23.5294 156.171 23.7625 156.638 23.8989C157.104 24.0353 157.594 24.072 158.076 24.0065C158.574 23.9697 159.055 23.8078 159.474 23.536C159.892 23.2641 160.235 22.8911 160.471 22.4515L160.605 23.4997L162.179 23.3026L161.255 16.0248L159.678 16.2217L159.81 17.2545ZM155.535 20.4354C155.486 20.1296 155.5 19.817 155.576 19.5166C155.652 19.2163 155.789 18.9346 155.977 18.6887C156.366 18.2076 156.927 17.8957 157.542 17.8185C158.157 17.7412 158.777 17.9046 159.274 18.2744C159.753 18.6738 160.064 19.2395 160.142 19.8578C160.221 20.4761 160.062 21.1011 159.698 21.6074C159.309 22.0884 158.748 22.4003 158.134 22.4776C157.519 22.5548 156.898 22.3914 156.402 22.0217C156.157 21.8295 155.954 21.5899 155.806 21.3172C155.657 21.0445 155.565 20.7446 155.535 20.4354ZM166.633 14.7201L168.03 12.557L166.418 12.6765L165.738 13.8006L164.88 12.791L163.268 12.9105L164.977 14.8432L166.633 14.7201ZM168.685 16.5123L168.604 15.4584L163.181 15.8577L163.295 17.352L166.578 17.1073L163.509 22.1299L163.59 23.1838L169.307 22.7616L169.193 21.2699L165.632 21.5329L168.685 16.5123ZM175.811 16.2555C175.19 15.4496 174.321 15.0616 173.205 15.0917C172.72 15.0986 172.241 15.2074 171.801 15.4109C171.361 15.6144 170.969 15.9081 170.65 16.2729C169.981 17.0382 169.625 18.0271 169.654 19.0425C169.682 20.0578 170.093 21.0253 170.804 21.7521C171.142 22.1017 171.549 22.3762 172 22.5576C172.451 22.739 172.936 22.8232 173.422 22.8046C173.921 22.8157 174.415 22.7011 174.858 22.4715C175.302 22.2419 175.68 21.9046 175.958 21.4908L175.988 22.5479L177.574 22.5062L177.287 12.2393L175.701 12.281L175.811 16.2555ZM171.24 19.0023C171.223 18.6929 171.268 18.3831 171.374 18.0918C171.48 17.8005 171.644 17.5336 171.856 17.3072C172.29 16.8665 172.879 16.611 173.498 16.5945C174.118 16.578 174.719 16.8018 175.177 17.2188C175.615 17.6634 175.868 18.2571 175.885 18.8805C175.903 19.5038 175.683 20.1105 175.27 20.5784C174.834 21.0181 174.246 21.2726 173.627 21.2886C173.007 21.3046 172.406 21.0809 171.949 20.6643C171.724 20.4495 171.546 20.1914 171.424 19.9058C171.302 19.6201 171.24 19.3127 171.24 19.0023ZM185.493 21.7463C186.227 21.0284 186.65 20.0511 186.668 19.0254C186.687 17.9996 186.301 17.0076 185.593 16.2632C184.871 15.5328 183.891 15.1127 182.863 15.0924C181.835 15.0721 180.839 15.4531 180.089 16.1544C179.351 16.8707 178.927 17.8484 178.908 18.8752C178.889 19.902 179.278 20.8947 179.988 21.6375C180.711 22.3678 181.691 22.7879 182.719 22.8082C183.747 22.8285 184.742 22.4475 185.493 21.7463ZM180.495 18.9053C180.492 18.5986 180.551 18.2944 180.671 18.0116C180.79 17.7288 180.966 17.4734 181.188 17.2612C181.633 16.8459 182.223 16.6202 182.832 16.6323C183.441 16.6443 184.022 16.893 184.45 17.3256C184.867 17.7807 185.093 18.3781 185.082 18.9947C185.07 19.6112 184.822 20.1999 184.389 20.6393C183.944 21.0546 183.354 21.2803 182.745 21.2682C182.136 21.2562 181.555 21.0075 181.127 20.5749C180.913 20.3543 180.747 20.0924 180.638 19.8053C180.529 19.5182 180.48 19.2119 180.495 18.9053ZM193.075 19.8321C193.017 20.5435 192.802 21.0583 192.432 21.3764C192.241 21.5359 192.019 21.6545 191.78 21.7249C191.541 21.7953 191.291 21.8159 191.043 21.7855C190.823 21.7792 190.605 21.7283 190.405 21.6358C190.204 21.5434 190.024 21.4113 189.876 21.2476C189.736 21.0655 189.634 20.8571 189.576 20.6348C189.518 20.4126 189.506 20.181 189.539 19.9539L189.89 15.627L188.309 15.4963L187.943 19.9825C187.868 20.9193 188.067 21.6768 188.541 22.2552C188.784 22.5456 189.084 22.7822 189.424 22.9496C189.764 23.117 190.134 23.2115 190.513 23.2271C191.548 23.3136 192.336 23.0005 192.876 22.288L192.798 23.2247L194.381 23.3555L194.974 16.0462L193.394 15.9155L193.075 19.8321ZM203.197 20.7655L206.941 17.7084L205.026 17.4113L201.711 20.1785L202.652 14.077L201.083 13.8325L199.519 23.9797L201.088 24.2217L201.603 20.873L204.065 24.685L205.94 24.9757L203.197 20.7655ZM213.214 20.0399C212.793 19.1139 212.036 18.5385 210.943 18.3137C210.469 18.21 209.978 18.2072 209.502 18.3054C209.027 18.4036 208.577 18.6006 208.183 18.8836C207.357 19.4764 206.785 20.358 206.582 21.3527C206.378 22.3475 206.558 23.3823 207.084 24.251C207.333 24.6677 207.667 25.0273 208.065 25.3061C208.463 25.585 208.915 25.7769 209.392 25.8692C209.876 25.9941 210.383 25.9953 210.867 25.8727C211.351 25.75 211.797 25.5075 212.162 25.1676L211.951 26.2012L213.507 26.5215L214.979 19.3391L213.425 19.0189L213.214 20.0399ZM208.138 21.6748C208.19 21.3694 208.305 21.0779 208.474 20.8179C208.643 20.558 208.863 20.335 209.121 20.1626C209.645 19.8329 210.277 19.7183 210.884 19.8429C211.491 19.9675 212.026 20.3216 212.378 20.831C212.547 21.0917 212.661 21.3837 212.715 21.6897C212.768 21.9956 212.759 22.309 212.688 22.6113C212.635 22.9166 212.52 23.208 212.351 23.4675C212.181 23.7271 211.96 23.9494 211.702 24.1209C211.178 24.4509 210.547 24.5655 209.94 24.4409C209.333 24.3163 208.798 23.9621 208.448 23.4526C208.278 23.1929 208.162 22.9012 208.109 22.5956C208.056 22.2899 208.066 21.9766 208.138 21.6748ZM216.67 27.3289L219.234 16.9344L217.693 16.5537L215.128 26.9482L216.67 27.3289ZM224.53 28.5472C225.425 28.0424 226.085 27.207 226.369 26.2209C226.652 25.2348 226.536 24.1771 226.045 23.2755C225.536 22.3843 224.698 21.7263 223.71 21.4415C222.723 21.1566 221.662 21.2672 220.755 21.7498C219.857 22.2512 219.193 23.0865 218.909 24.0738C218.625 25.0611 218.743 26.1205 219.237 27.0215C219.748 27.9124 220.586 28.5699 221.574 28.8547C222.562 29.1396 223.622 29.0293 224.53 28.5472ZM220.436 24.5138C220.559 24.0759 220.81 23.6844 221.156 23.3886C221.503 23.0929 221.929 22.9061 222.382 22.8519C222.834 22.7977 223.293 22.8786 223.7 23.0842C224.106 23.2899 224.443 23.6111 224.667 24.0074C224.95 24.555 225.013 25.1901 224.842 25.7824C224.671 26.3747 224.28 26.8792 223.748 27.1924C223.484 27.3409 223.193 27.4335 222.892 27.4647C222.591 27.4958 222.287 27.4646 221.998 27.3732C221.706 27.2961 221.431 27.1602 221.193 26.9739C220.954 26.7876 220.756 26.5547 220.611 26.2895C220.462 26.0211 220.369 25.7251 220.339 25.4197C220.309 25.1143 220.342 24.806 220.436 24.5138ZM230.383 23.7223L228.879 23.2185L226.545 30.168L228.052 30.6745L229.226 27.1708C229.467 26.458 229.851 26.0168 230.384 25.8499C230.925 25.6833 231.508 25.717 232.027 25.9447L232.574 24.3184C231.523 23.9647 230.662 24.1551 229.992 24.8894L230.383 23.7223ZM236.068 23.4895C236.159 23.2371 236.147 22.9588 236.033 22.7156C235.92 22.4723 235.714 22.2839 235.461 22.1915C235.336 22.1431 235.202 22.1214 235.068 22.1277C234.933 22.134 234.802 22.1681 234.682 22.228C234.562 22.2829 234.454 22.3613 234.365 22.4585C234.276 22.5558 234.207 22.6699 234.163 22.7941C234.075 23.0463 234.089 23.3228 234.202 23.5651C234.315 23.8074 234.517 23.9964 234.767 24.092C235.02 24.1814 235.298 24.1684 235.541 24.0557C235.784 23.9431 235.973 23.7398 236.068 23.4895ZM232.622 32.287L235.137 25.397L233.644 24.8529L231.132 31.743L232.622 32.287ZM238.531 23.5491L240.244 24.215L238.594 25.7779L237.168 25.2234L238.531 23.5491ZM235.658 33.448L238.316 26.6137L236.837 26.0396L234.179 32.8714L235.658 33.448Z" fill="#353643"/>
<path id="Text bottom" fill-rule="evenodd" clip-rule="evenodd" d="M91.6148 319.629L100.387 313.093L98.863 312.056L91.9288 317.356L94.3199 308.961L92.7845 307.915L89.9346 318.483L91.6148 319.629ZM103.016 314.645L100.976 315.736L102.284 316.532L104.655 315.642L103.016 314.645ZM98.7247 321.768L99.6336 316.044L98.1466 315.137L97.0506 322.961L96.9104 323.051C96.5586 323.347 96.1348 323.545 95.682 323.625C95.2521 323.66 94.8248 323.532 94.4853 323.266L93.7095 324.543C95.1028 325.505 96.5968 325.354 98.1915 324.089L104.567 319.049L103.12 318.167L98.7247 321.768ZM108.309 320.074L110.676 319.012L109.254 318.232L108.065 318.807L107.898 317.487L106.476 316.706L106.851 319.269L108.309 320.074ZM109.053 322.707L109.565 321.772L104.784 319.147L104.061 320.468L106.953 322.057L101.615 324.618L101.103 325.552L106.14 328.32L106.866 326.999L103.726 325.274L109.053 322.707ZM113.242 321.244C113.304 321.126 113.341 320.997 113.351 320.864C113.362 320.731 113.346 320.597 113.304 320.471C113.263 320.343 113.197 320.224 113.11 320.122C113.023 320.019 112.916 319.935 112.797 319.874C112.677 319.813 112.546 319.777 112.412 319.767C112.278 319.757 112.143 319.774 112.016 319.817C111.889 319.857 111.773 319.923 111.672 320.01C111.571 320.096 111.489 320.202 111.43 320.321C111.311 320.562 111.29 320.841 111.373 321.097C111.456 321.353 111.635 321.566 111.874 321.691C111.992 321.753 112.122 321.79 112.256 321.799C112.39 321.809 112.524 321.79 112.65 321.745C112.777 321.706 112.896 321.642 112.997 321.556C113.099 321.47 113.183 321.364 113.242 321.244ZM108.737 329.626L112.083 323.041L110.663 322.317L107.32 328.903L108.737 329.626ZM113.634 330.024L114.132 324.065L112.557 323.328L112.044 331.241L113.713 332.018L119.437 326.535L117.861 325.8L113.634 330.024ZM122.94 334.927C123.648 334.627 124.251 334.122 124.674 333.479C125.096 332.835 125.319 332.08 125.313 331.31C125.308 330.54 125.074 329.789 124.643 329.152C124.211 328.514 123.6 328.019 122.888 327.729C122.176 327.439 121.393 327.367 120.639 327.521C119.886 327.676 119.195 328.051 118.654 328.598C118.112 329.146 117.745 329.841 117.598 330.597C117.452 331.353 117.532 332.136 117.829 332.846C118.241 333.792 119.007 334.538 119.961 334.927C120.916 335.316 121.985 335.316 122.94 334.927ZM119.293 330.461C119.401 330.172 119.567 329.907 119.78 329.685C119.993 329.462 120.25 329.285 120.534 329.165C121.1 328.934 121.734 328.933 122.301 329.164C122.867 329.394 123.321 329.837 123.566 330.399C123.79 330.977 123.785 331.62 123.552 332.195C123.318 332.77 122.873 333.233 122.308 333.49C121.742 333.72 121.108 333.719 120.542 333.489C119.976 333.259 119.522 332.816 119.276 332.256C119.157 331.972 119.097 331.666 119.099 331.357C119.102 331.048 119.168 330.743 119.293 330.461ZM127.921 335.837L127.829 329.857L126.188 329.283L126.457 337.204L128.196 337.814L133.349 331.792L131.709 331.215L127.921 335.837ZM137.576 329.953L135.877 331.53L137.348 331.967L139.412 330.5L137.576 329.953ZM135.235 337.935L134.659 332.17L132.99 331.675L133.92 339.516L133.806 339.638C133.542 340.015 133.182 340.315 132.765 340.507C132.357 340.651 131.911 340.636 131.514 340.466L131.089 341.897C132.681 342.473 134.088 341.946 135.31 340.315L140.196 333.813L138.572 333.332L135.235 337.935ZM145.184 336.126L145.41 335.088L143.856 334.75L141.66 344.857L143.216 345.193L144.065 341.28C144.477 342.216 145.229 342.802 146.323 343.038C146.798 343.147 147.29 343.154 147.768 343.06C148.246 342.966 148.699 342.772 149.098 342.491C149.933 341.903 150.517 341.022 150.734 340.023C150.951 339.024 150.785 337.979 150.269 337.097C150.024 336.676 149.692 336.311 149.296 336.026C148.901 335.742 148.449 335.544 147.971 335.447C147.487 335.317 146.978 335.311 146.491 335.43C146.004 335.548 145.554 335.788 145.184 336.126ZM144.628 338.697C144.684 338.39 144.802 338.097 144.975 337.837C145.148 337.577 145.372 337.355 145.634 337.184C146.162 336.857 146.796 336.747 147.403 336.879C148.01 337.01 148.543 337.372 148.888 337.889C149.208 338.428 149.312 339.069 149.179 339.683C149.046 340.296 148.686 340.836 148.171 341.195C147.643 341.522 147.008 341.632 146.401 341.5C145.794 341.369 145.262 341.007 144.916 340.49C144.749 340.226 144.638 339.931 144.588 339.623C144.539 339.315 144.552 339 144.628 338.697ZM157.515 343.895C158.263 343.364 158.804 342.59 159.045 341.705C159.286 340.819 159.212 339.877 158.837 339.04C158.461 338.204 157.806 337.523 156.984 337.117C156.163 336.71 155.225 336.601 154.333 336.81C153.44 337.019 152.647 337.532 152.09 338.261C151.533 338.99 151.246 339.89 151.279 340.807C151.312 341.724 151.661 342.601 152.269 343.289C152.876 343.976 153.703 344.43 154.608 344.574C155.114 344.666 155.632 344.653 156.132 344.536C156.632 344.419 157.102 344.201 157.515 343.895ZM152.946 340.38C152.985 340.073 153.086 339.777 153.244 339.511C153.402 339.245 153.613 339.014 153.864 338.833C154.363 338.481 154.979 338.337 155.582 338.432C156.185 338.527 156.727 338.854 157.094 339.343C157.445 339.855 157.586 340.482 157.489 341.095C157.392 341.709 157.063 342.261 156.571 342.64C156.072 342.992 155.456 343.136 154.853 343.041C154.25 342.946 153.707 342.619 153.341 342.13C153.159 341.881 153.03 341.597 152.962 341.296C152.894 340.995 152.889 340.683 152.946 340.38ZM162.166 337.951L160.583 337.771L159.745 345.109L161.327 345.289L161.749 341.589C161.835 340.838 162.123 340.321 162.609 340.044C163.105 339.766 163.684 339.677 164.24 339.793L164.436 338.073C163.332 337.949 162.528 338.319 162.023 339.185L162.166 337.951ZM170.513 339.724C170.251 339.298 169.886 338.946 169.452 338.698C169.018 338.45 168.528 338.315 168.029 338.305C167.543 338.265 167.055 338.327 166.595 338.489C166.135 338.651 165.715 338.908 165.361 339.243C164.617 339.943 164.163 340.898 164.09 341.918C164.017 342.938 164.331 343.948 164.969 344.746C165.27 345.129 165.65 345.444 166.082 345.669C166.514 345.895 166.989 346.026 167.476 346.054C167.973 346.115 168.478 346.048 168.944 345.861C169.409 345.674 169.82 345.372 170.137 344.983L170.063 346.044L171.651 346.155L172.176 338.79L170.588 338.679L170.513 339.724ZM165.678 342.035C165.691 341.723 165.768 341.417 165.902 341.135C166.037 340.852 166.226 340.6 166.46 340.393C166.938 339.995 167.55 339.797 168.17 339.841C168.789 339.885 169.368 340.166 169.784 340.628C170.176 341.117 170.369 341.736 170.324 342.362C170.279 342.987 170 343.573 169.542 344.001C169.066 344.401 168.454 344.6 167.834 344.557C167.214 344.513 166.636 344.231 166.22 343.769C166.017 343.532 165.865 343.256 165.772 342.958C165.678 342.66 165.646 342.346 165.678 342.035ZM179.252 339.955C178.662 339.12 177.807 338.697 176.688 338.684C176.201 338.673 175.717 338.765 175.267 338.953C174.818 339.142 174.413 339.423 174.079 339.778C173.377 340.521 172.98 341.501 172.967 342.523C172.954 343.545 173.326 344.535 174.01 345.294C174.334 345.658 174.731 345.95 175.175 346.149C175.62 346.349 176.101 346.453 176.588 346.453C177.089 346.483 177.589 346.387 178.043 346.172C178.497 345.957 178.889 345.632 179.184 345.225L179.171 346.29L180.763 346.306L180.894 335.969L179.302 335.952L179.252 339.955ZM174.559 342.544C174.554 342.232 174.612 341.921 174.729 341.632C174.847 341.343 175.023 341.08 175.245 340.861C175.698 340.435 176.297 340.201 176.918 340.207C177.539 340.214 178.133 340.462 178.576 340.898C178.996 341.363 179.225 341.97 179.217 342.597C179.209 343.225 178.965 343.826 178.533 344.281C178.081 344.707 177.481 344.941 176.86 344.934C176.239 344.927 175.645 344.68 175.202 344.244C174.986 344.019 174.817 343.752 174.707 343.46C174.596 343.168 174.546 342.856 174.559 342.544ZM187.866 345.703C188.427 345.348 188.876 344.842 189.161 344.242L187.759 343.519C187.596 343.873 187.334 344.172 187.006 344.38C186.66 344.604 186.26 344.729 185.849 344.741C185.546 344.761 185.243 344.719 184.959 344.617C184.674 344.514 184.413 344.354 184.192 344.147C183.753 343.717 183.494 343.136 183.468 342.522C183.443 341.907 183.653 341.306 184.055 340.842C184.258 340.616 184.504 340.434 184.78 340.308C185.055 340.181 185.354 340.113 185.657 340.107C186.066 340.082 186.475 340.168 186.839 340.358C187.179 340.538 187.455 340.817 187.632 341.159L188.968 340.304C188.648 339.734 188.167 339.271 187.585 338.974C186.975 338.655 186.291 338.505 185.605 338.542C185.091 338.557 184.586 338.674 184.119 338.886C183.651 339.099 183.23 339.402 182.88 339.778C182.53 340.154 182.258 340.596 182.08 341.079C181.902 341.561 181.822 342.073 181.843 342.587C181.864 343.101 181.987 343.605 182.205 344.07C182.422 344.536 182.73 344.954 183.109 345.299C183.489 345.645 183.934 345.912 184.418 346.084C184.901 346.256 185.414 346.331 185.927 346.303C186.616 346.282 187.286 346.074 187.866 345.703ZM196.898 342.23C196.911 342.008 196.909 341.785 196.894 341.563C196.822 340.545 196.36 339.595 195.604 338.911C195.236 338.573 194.799 338.319 194.324 338.167C193.848 338.014 193.345 337.968 192.849 338.03C192.331 338.061 191.825 338.199 191.363 338.436C190.901 338.672 190.492 339.002 190.164 339.404C189.841 339.801 189.6 340.258 189.458 340.75C189.315 341.241 189.273 341.756 189.334 342.264C189.365 342.778 189.502 343.28 189.735 343.739C189.969 344.198 190.294 344.604 190.691 344.931C191.494 345.591 192.492 345.865 193.685 345.753C195.102 345.619 196.124 344.983 196.751 343.845L195.373 343.206C195.19 343.527 194.927 343.795 194.611 343.986C194.294 344.177 193.934 344.284 193.565 344.296C193.018 344.365 192.463 344.258 191.981 343.992C191.526 343.726 191.194 343.292 191.056 342.783L196.898 342.23ZM191.547 340.096C191.931 339.725 192.436 339.503 192.969 339.472C193.48 339.405 193.997 339.534 194.417 339.833C194.837 340.131 195.13 340.577 195.236 341.082L190.921 341.491C190.956 340.966 191.178 340.471 191.547 340.096ZM206.603 337.34C205.873 336.629 204.956 336.37 203.852 336.563C203.371 336.641 202.911 336.82 202.504 337.087C202.096 337.355 201.749 337.705 201.486 338.116C200.931 338.974 200.719 340.01 200.893 341.017C201.066 342.024 201.612 342.928 202.422 343.55C202.807 343.85 203.251 344.064 203.725 344.179C204.199 344.293 204.692 344.306 205.172 344.216C205.669 344.154 206.143 343.968 206.55 343.674C206.956 343.381 207.282 342.989 207.498 342.536L207.681 343.585L209.248 343.31L207.995 336.034L206.425 336.308L206.603 337.34ZM202.464 340.748C202.401 340.442 202.4 340.126 202.463 339.82C202.526 339.514 202.65 339.224 202.829 338.967C203.197 338.466 203.744 338.127 204.355 338.02C204.967 337.914 205.596 338.048 206.111 338.394C206.61 338.774 206.947 339.329 207.053 339.947C207.16 340.566 207.028 341.202 206.685 341.727C206.318 342.228 205.771 342.568 205.159 342.675C204.547 342.782 203.918 342.647 203.403 342.3C203.149 342.119 202.935 341.888 202.774 341.621C202.612 341.354 202.507 341.057 202.464 340.748ZM215.486 333.299L216.507 330.913L214.931 331.308L214.446 332.538L213.429 331.683L211.857 332.075L213.868 333.703L215.486 333.299ZM214.578 336.013C214.731 335.869 214.911 335.758 215.107 335.685C215.303 335.612 215.512 335.58 215.721 335.589C215.93 335.599 216.135 335.65 216.324 335.741C216.513 335.831 216.682 335.959 216.82 336.116L217.942 335.057C217.586 334.657 217.122 334.369 216.606 334.228C216.055 334.082 215.476 334.082 214.926 334.229C214.246 334.375 213.639 334.753 213.209 335.3C213.014 335.547 212.88 335.837 212.818 336.145C212.756 336.454 212.767 336.773 212.852 337.077C212.941 337.51 213.185 337.895 213.537 338.161C213.868 338.403 214.259 338.55 214.667 338.584C215.082 338.624 215.492 338.646 215.893 338.653C216.246 338.653 216.599 338.694 216.942 338.777C217.065 338.796 217.181 338.849 217.275 338.93C217.369 339.012 217.438 339.119 217.473 339.238C217.606 339.773 217.268 340.142 216.455 340.343C215.642 340.545 215.032 340.335 214.611 339.71L213.474 340.818C213.827 341.281 214.321 341.617 214.881 341.774C215.513 341.943 216.178 341.94 216.808 341.764C217.526 341.613 218.175 341.231 218.657 340.678C218.868 340.431 219.014 340.136 219.083 339.818C219.152 339.501 219.141 339.171 219.051 338.86C218.959 338.418 218.713 338.023 218.357 337.746C218.027 337.497 217.635 337.345 217.224 337.306C216.809 337.269 216.4 337.247 215.998 337.24C215.646 337.241 215.294 337.201 214.951 337.121C214.831 337.103 214.719 337.053 214.627 336.975C214.534 336.897 214.465 336.796 214.426 336.681C214.388 336.567 214.382 336.443 214.408 336.326C214.435 336.208 214.494 336.1 214.578 336.013ZM220.869 329.687L220.333 331.943L221.797 331.485L222.699 329.114L220.869 329.687ZM226.47 335.651C226.439 335.431 226.392 335.213 226.33 334.999C226.051 334.019 225.402 333.185 224.521 332.674C224.091 332.419 223.611 332.261 223.114 332.211C222.618 332.161 222.116 332.22 221.644 332.384C221.143 332.521 220.677 332.761 220.273 333.088C219.87 333.415 219.538 333.822 219.299 334.283C219.065 334.738 218.924 335.235 218.886 335.746C218.848 336.256 218.913 336.769 219.077 337.254C219.214 337.75 219.451 338.213 219.775 338.613C220.098 339.013 220.5 339.342 220.956 339.58C221.879 340.059 222.909 340.121 224.056 339.762C225.416 339.337 226.285 338.504 226.663 337.262L225.182 336.922C225.069 337.274 224.867 337.591 224.597 337.843C224.327 338.095 223.996 338.274 223.638 338.362C223.117 338.543 222.553 338.555 222.025 338.395C221.526 338.227 221.111 337.872 220.868 337.404L226.47 335.651ZM220.793 334.674C221.093 334.232 221.541 333.911 222.056 333.77C222.525 333.613 223.033 333.624 223.495 333.798C223.987 334.004 224.385 334.387 224.608 334.873L220.469 336.167C220.397 335.647 220.511 335.118 220.793 334.674ZM228.628 326.993C227.573 327.281 226.862 327.766 226.496 328.447C226.131 329.128 226.112 329.949 226.439 330.911L226.485 331.05L225.426 331.412L225.921 332.867L226.98 332.502L228.864 338.035L230.37 337.519L228.486 331.986L230.134 331.422L229.639 329.969L227.994 330.534L227.946 330.392C227.597 329.367 227.988 328.718 229.121 328.445L228.628 326.993ZM234.329 332.053L236.064 327.508L234.246 328.209L232.742 332.286L230.52 326.484L229.034 327.057L232.73 336.704L234.216 336.131L232.997 332.947L237.038 335.041L238.812 334.356L234.329 332.053ZM242.542 328.971C242.831 329.628 242.888 330.186 242.714 330.646C242.621 330.879 242.482 331.09 242.304 331.267C242.127 331.444 241.915 331.582 241.682 331.674C241.485 331.775 241.269 331.834 241.048 331.848C240.827 331.862 240.605 331.831 240.397 331.756C240.186 331.663 239.997 331.527 239.839 331.359C239.682 331.19 239.56 330.991 239.482 330.774L237.727 326.775L236.268 327.42L238.09 331.569C238.472 332.433 239.009 333.007 239.703 333.291C240.055 333.431 240.433 333.497 240.812 333.482C241.192 333.468 241.563 333.374 241.904 333.206C242.857 332.784 243.402 332.128 243.539 331.24L243.918 332.104L245.376 331.461L242.41 324.706L240.951 325.351L242.542 328.971ZM251.604 327.993C251.971 327.439 252.172 326.793 252.186 326.129L250.612 326.048C250.608 326.438 250.492 326.817 250.277 327.142C250.054 327.489 249.74 327.768 249.369 327.948C249.102 328.092 248.809 328.179 248.507 328.204C248.205 328.228 247.902 328.19 247.615 328.091C247.039 327.881 246.564 327.458 246.289 326.908C246.013 326.359 245.958 325.725 246.135 325.136C246.226 324.847 246.375 324.579 246.575 324.35C246.774 324.122 247.018 323.937 247.293 323.807C247.656 323.615 248.065 323.526 248.475 323.549C248.858 323.574 249.224 323.714 249.526 323.952L250.395 322.623C249.869 322.235 249.239 322.011 248.586 321.979C247.899 321.94 247.214 322.087 246.604 322.405C246.139 322.628 245.723 322.941 245.38 323.327C245.037 323.713 244.775 324.163 244.608 324.651C244.441 325.14 244.373 325.656 244.408 326.171C244.443 326.686 244.581 327.189 244.812 327.65C245.044 328.111 245.365 328.522 245.756 328.857C246.148 329.192 246.603 329.446 247.094 329.603C247.585 329.761 248.102 329.818 248.616 329.773C249.129 329.728 249.629 329.58 250.085 329.339C250.703 329.036 251.228 328.571 251.604 327.993ZM252.026 320.813L250.106 317.427L248.72 318.217L253.819 327.198L255.204 326.407L253.25 322.969C252.897 322.344 252.783 321.795 252.909 321.32C252.977 321.079 253.094 320.855 253.252 320.661C253.411 320.467 253.607 320.307 253.83 320.193C254.016 320.073 254.224 319.992 254.442 319.955C254.66 319.919 254.884 319.926 255.098 319.978C255.318 320.049 255.521 320.163 255.695 320.315C255.869 320.467 256.01 320.653 256.109 320.862L258.266 324.659L259.652 323.868L257.413 319.929C256.947 319.109 256.355 318.593 255.634 318.381C255.269 318.277 254.887 318.251 254.511 318.305C254.135 318.358 253.775 318.49 253.453 318.691C252.548 319.209 252.072 319.916 252.026 320.813ZM262.442 314.581C261.492 314.213 260.546 314.334 259.602 314.945C259.19 315.205 258.837 315.549 258.566 315.954C258.295 316.359 258.112 316.817 258.03 317.298C257.855 318.304 258.065 319.34 258.618 320.198C259.171 321.056 260.026 321.674 261.014 321.93C261.485 322.054 261.977 322.077 262.458 321.997C262.939 321.918 263.398 321.737 263.804 321.468C264.239 321.216 264.603 320.859 264.863 320.429C265.124 319.999 265.271 319.51 265.293 319.008L265.868 319.902L267.206 319.035L263.213 312.836L261.875 313.701L262.442 314.581ZM259.958 319.337C259.781 319.08 259.658 318.789 259.596 318.483C259.535 318.177 259.536 317.862 259.6 317.556C259.742 316.951 260.113 316.423 260.635 316.085C261.157 315.747 261.789 315.624 262.399 315.742C263.006 315.896 263.533 316.274 263.873 316.801C264.212 317.328 264.34 317.965 264.23 318.582C264.087 319.188 263.716 319.715 263.194 320.053C262.672 320.391 262.039 320.514 261.429 320.396C261.125 320.329 260.837 320.2 260.584 320.018C260.331 319.836 260.118 319.604 259.958 319.337ZM265.966 309.764L266.045 307.172L264.724 308.114L264.721 309.436L263.462 309.014L262.141 309.956L264.608 310.732L265.966 309.764ZM265.603 311.111L264.303 312.036L268.572 318.05L269.87 317.125L267.719 314.093C267.28 313.476 267.15 312.903 267.328 312.37C267.512 311.832 267.884 311.378 268.375 311.091L267.375 309.682C266.471 310.329 266.118 311.143 266.318 312.122L265.603 311.111ZM276.508 309.847L271.381 306.791L270.028 307.889L276.899 311.808L278.331 310.645L275.932 303.098L274.58 304.196L276.508 309.847ZM278.963 297.493C278.779 297.296 278.526 297.18 278.258 297.168C277.99 297.156 277.728 297.249 277.527 297.428C277.428 297.517 277.347 297.626 277.292 297.748C277.236 297.87 277.205 298.001 277.202 298.135C277.194 298.268 277.213 298.402 277.257 298.527C277.301 298.653 277.37 298.769 277.46 298.867C277.549 298.966 277.658 299.045 277.779 299.101C277.899 299.157 278.03 299.188 278.163 299.192C278.297 299.202 278.431 299.184 278.557 299.14C278.683 299.095 278.799 299.026 278.897 298.935C278.996 298.844 279.075 298.735 279.131 298.614C279.187 298.492 279.218 298.361 279.222 298.227C279.231 298.094 279.212 297.959 279.168 297.833C279.123 297.707 279.053 297.591 278.963 297.493ZM284.678 306.994C284.646 307.301 284.432 307.603 284.034 307.897L285.068 309.032C286.655 307.782 286.762 306.4 285.387 304.888L280.23 299.213L279.051 300.289L284.209 305.961C284.554 306.339 284.71 306.683 284.678 306.994ZM289.412 296.391C289.283 296.21 289.142 296.038 288.99 295.877C288.294 295.132 287.335 294.689 286.317 294.641C285.818 294.612 285.319 294.692 284.854 294.875C284.389 295.058 283.969 295.34 283.623 295.702C283.079 296.246 282.707 296.937 282.552 297.691C282.396 298.444 282.466 299.227 282.751 299.941C283.036 300.655 283.524 301.27 284.155 301.709C284.786 302.148 285.532 302.392 286.3 302.41C287.34 302.414 288.286 301.995 289.14 301.152C290.158 300.151 290.551 299.012 290.318 297.736L288.844 298.11C288.905 298.475 288.87 298.85 288.745 299.199C288.62 299.547 288.408 299.858 288.129 300.101C287.748 300.5 287.251 300.768 286.709 300.868C286.188 300.948 285.657 300.822 285.227 300.518L289.412 296.391ZM283.913 298.126C283.979 297.594 284.231 297.103 284.626 296.741C284.98 296.367 285.462 296.139 285.976 296.105C286.49 296.07 286.999 296.23 287.4 296.553L284.307 299.602C284.005 299.172 283.865 298.649 283.913 298.126ZM291.631 289.052C290.618 288.941 289.734 289.301 288.978 290.132C288.647 290.489 288.393 290.913 288.235 291.375C288.077 291.836 288.017 292.326 288.06 292.812C288.149 293.83 288.618 294.776 289.373 295.463C290.127 296.15 291.112 296.528 292.133 296.52C292.62 296.519 293.102 296.414 293.547 296.213C293.992 296.012 294.389 295.72 294.713 295.355C295.069 295 295.329 294.561 295.47 294.08C295.612 293.598 295.629 293.088 295.522 292.597L296.308 293.312L297.379 292.13L289.751 285.181L288.677 286.363L291.631 289.052ZM290.446 294.286C290.209 294.083 290.017 293.834 289.879 293.554C289.741 293.274 289.662 292.969 289.645 292.657C289.628 292.035 289.852 291.43 290.27 290.969C290.688 290.508 291.268 290.227 291.889 290.184C292.515 290.178 293.12 290.409 293.583 290.831C294.046 291.253 294.333 291.835 294.384 292.46C294.4 293.081 294.176 293.685 293.758 294.146C293.34 294.606 292.761 294.887 292.141 294.93C291.829 294.943 291.519 294.893 291.227 294.783C290.936 294.672 290.67 294.503 290.446 294.286ZM294.487 285.549L293.755 284.953L292.75 286.192L298.466 290.846L299.471 289.608L296.407 287.113C295.852 286.659 295.547 286.191 295.493 285.702C295.469 285.453 295.497 285.201 295.575 284.963C295.652 284.724 295.778 284.504 295.945 284.317C296.074 284.138 296.239 283.986 296.429 283.873C296.619 283.759 296.83 283.686 297.05 283.657C297.28 283.643 297.51 283.676 297.727 283.754C297.944 283.832 298.143 283.953 298.312 284.111L301.697 286.866L302.701 285.629L299.193 282.77C298.461 282.176 297.72 281.91 296.972 281.973C296.593 282.009 296.227 282.124 295.896 282.311C295.565 282.497 295.276 282.751 295.049 283.056C294.391 283.865 294.203 284.696 294.487 285.549ZM306.566 278.8C306.451 278.036 306.11 277.324 305.587 276.755C305.065 276.186 304.385 275.787 303.634 275.608C302.883 275.429 302.095 275.479 301.373 275.751C300.65 276.023 300.025 276.505 299.577 277.135C299.269 277.544 299.046 278.011 298.922 278.508C298.799 279.006 298.777 279.523 298.858 280.029C299.022 281.05 299.583 281.964 300.418 282.572C301.252 283.181 302.293 283.434 303.314 283.276C304.331 283.099 305.238 282.533 305.846 281.698C306.453 280.862 306.711 279.823 306.566 278.8ZM301.356 281.282C301.101 281.108 300.885 280.884 300.721 280.623C300.556 280.361 300.448 280.069 300.401 279.764C300.316 279.158 300.469 278.543 300.828 278.048C301.187 277.553 301.725 277.217 302.327 277.111C302.709 277.039 303.103 277.063 303.473 277.182C303.843 277.301 304.178 277.51 304.447 277.791C304.715 278.072 304.91 278.416 305.013 278.791C305.115 279.166 305.123 279.561 305.035 279.94C304.947 280.319 304.765 280.67 304.507 280.962C304.25 281.253 303.923 281.475 303.558 281.609C303.193 281.742 302.8 281.782 302.415 281.725C302.031 281.668 301.667 281.516 301.356 281.282ZM306.414 269.081C305.991 269.056 305.57 269.152 305.198 269.356C304.826 269.56 304.52 269.864 304.313 270.235C304.072 270.575 303.926 270.972 303.888 271.387C303.851 271.802 303.923 272.219 304.098 272.597L303.35 272.123L302.501 273.474L308.733 277.406L309.582 276.055L306.092 273.853C305.629 273.605 305.277 273.19 305.108 272.692C305.051 272.478 305.041 272.255 305.077 272.037C305.114 271.819 305.197 271.611 305.32 271.427C305.413 271.259 305.542 271.114 305.699 271.002C305.855 270.891 306.034 270.816 306.224 270.783C306.649 270.743 307.074 270.86 307.42 271.11L311.197 273.491L312.046 272.143L308.556 269.941C308.008 269.596 307.672 269.211 307.552 268.792C307.494 268.58 307.483 268.358 307.521 268.142C307.558 267.925 307.642 267.719 307.767 267.539C307.863 267.369 307.994 267.221 308.152 267.107C308.309 266.993 308.49 266.915 308.681 266.878C309.108 266.821 309.54 266.93 309.889 267.184L313.666 269.567L314.515 268.217L310.651 265.778C309.996 265.317 309.186 265.133 308.396 265.266C308.029 265.342 307.682 265.496 307.378 265.716C307.074 265.937 306.821 266.22 306.634 266.546C306.093 267.404 306.019 268.249 306.414 269.081Z" fill="#353643"/>
</g>
<g id="Food data">
<g id="Tuk_1">
<path id="Tuk_bg" d="M48.3209 296.319C58.8135 296.319 67.3195 287.814 67.3195 277.321C67.3195 266.828 58.8135 258.322 48.3209 258.322C37.8282 258.322 29.3223 266.828 29.3223 277.321C29.3223 287.814 37.8282 296.319 48.3209 296.319Z" stroke="#FF8F62" stroke-width="0.64402"/>
</g>
<g id="Bilk_1">
<path id="Bilk_bg" d="M19.3209 233.319C29.8135 233.319 38.3195 224.813 38.3195 214.321C38.3195 203.828 29.8135 195.322 19.3209 195.322C8.82823 195.322 0.322266 203.828 0.322266 214.321C0.322266 224.813 8.82823 233.319 19.3209 233.319Z" stroke="#FF8F62" stroke-width="0.64402"/>
</g>
<g id="Sach_1">
<path id="Sach_bg" d="M21.3209 170.319C31.8135 170.319 40.3195 161.813 40.3195 151.321C40.3195 140.828 31.8135 132.322 21.3209 132.322C10.8282 132.322 2.32227 140.828 2.32227 151.321C2.32227 161.813 10.8282 170.319 21.3209 170.319Z" stroke="#FF8F62" stroke-width="0.64402"/>
</g>
<g id="Kcal_1">
<path id="Kcal_bg" d="M48.3209 107.319C58.8135 107.319 67.3195 98.8135 67.3195 88.3209C67.3195 77.8282 58.8135 69.3223 48.3209 69.3223C37.8282 69.3223 29.3223 77.8282 29.3223 88.3209C29.3223 98.8135 37.8282 107.319 48.3209 107.319Z" stroke="#3DC383" stroke-width="0.64402"/>
</g>
</g>
</g>
</g>
<defs>
<filter id="filter0_d" x="-34" y="-29" width="426" height="426" filterUnits="userSpaceOnUse" color-interpolation-filters="sRGB">
<feFlood flood-opacity="0" result="BackgroundImageFix"/>
<feColorMatrix in="SourceAlpha" type="matrix" values="0 0 0 0 0 0 0 0 0 0 0 0 0 0 0 0 0 0 127 0"/>
<feOffset/>
<feGaussianBlur stdDeviation="40"/>
<feColorMatrix type="matrix" values="0 0 0 0 0 0 0 0 0 0 0 0 0 0 0 0 0 0 0.1 0"/>
<feBlend mode="normal" in2="BackgroundImageFix" result="effect1_dropShadow"/>
<feBlend mode="normal" in="SourceGraphic" in2="effect1_dropShadow" result="shape"/>
</filter>
<linearGradient id="paint0_linear" x1="176.378" y1="67.0077" x2="178.716" y2="345.432" gradientUnits="userSpaceOnUse">
<stop stop-color="#F8F8F8" stop-opacity="0.14"/>
<stop offset="0.395833" stop-color="#EEEEEE" stop-opacity="0.31"/>
<stop offset="1" stop-color="#F8F8F8" stop-opacity="0.31"/>
</linearGradient>
<clipPath id="clip0">
<rect width="359" height="359" fill="white"/>
</clipPath>
</defs>
</svg>
