<svg width="359" height="343" viewBox="0 0 359 343" fill="none" xmlns="http://www.w3.org/2000/svg">
<g id="carousel_mask_mob" clip-path="url(#clip0)">
<g id="BG">
<path id="Vector" fill-rule="evenodd" clip-rule="evenodd" d="M465 -18H-171V369H465V-18ZM48.321 98.641C58.991 98.641 67.641 89.991 67.641 79.3206C67.641 68.6501 58.991 60 48.321 60C37.65 60 29 68.6501 29 79.3206C29 89.991 37.65 98.641 48.321 98.641ZM38.641 205.321C38.641 215.991 29.991 224.641 19.321 224.641C8.65 224.641 0 215.991 0 205.321C0 194.65 8.65 186 19.321 186C29.991 186 38.641 194.65 38.641 205.321ZM21.321 161.641C31.991 161.641 40.641 152.991 40.641 142.321C40.641 131.65 31.991 123 21.321 123C10.65 123 2 131.65 2 142.321C2 152.991 10.65 161.641 21.321 161.641ZM67.641 268.321C67.641 278.991 58.991 287.641 48.321 287.641C37.65 287.641 29 278.991 29 268.321C29 257.65 37.65 249 48.321 249C58.991 249 67.641 257.65 67.641 268.321ZM178 299C247.036 299 303 243.036 303 174C303 104.964 247.036 49 178 49C108.964 49 53 104.964 53 174C53 243.036 108.964 299 178 299Z" fill="#FDFDFD"/>
<g id="Stroke" filter="url(#filter0_d)">
<circle cx="179" cy="175" r="129" stroke="white" stroke-width="8"/>
</g>
</g>
<g id="Elements rotation group">
<path id="Dot orange 2" fill-rule="evenodd" clip-rule="evenodd" d="M290.082 58.5344C259.465 29.186 218.5 13.1097 176.094 13.8007C133.688 14.4918 93.2685 31.8941 63.6235 62.2245C62.6381 63.2328 61.6672 64.2526 60.711 65.2836C60.5082 65.1198 60.302 64.96 60.0926 64.8043C61.0686 63.751 62.0598 62.7094 63.0662 61.6798C92.8547 31.2025 133.47 13.7159 176.081 13.0215C218.693 12.3271 259.856 28.4812 290.621 57.9718C321.387 87.4623 339.268 127.905 340.377 170.508C341.486 213.111 325.733 254.429 296.543 285.48L295.976 284.946C325.025 254.045 340.702 212.926 339.598 170.528C338.494 128.131 320.7 87.8828 290.082 58.5344ZM37.4038 96.0836C37.6163 96.2346 37.832 96.3813 38.0508 96.5237C33.1868 105.275 29.1527 114.455 25.9982 123.943C25.7398 123.897 25.4796 123.856 25.2178 123.82C28.401 114.22 32.4799 104.933 37.4038 96.0836ZM17.531 161.616C17.1498 166.308 16.9723 171.033 17.0035 175.777C17.0275 179.442 17.1759 183.093 17.4462 186.725C17.7011 186.67 17.9579 186.619 18.2165 186.574C17.9519 182.99 17.8066 179.388 17.7828 175.772C17.7521 171.093 17.9253 166.434 18.2975 161.806C18.04 161.748 17.7845 161.685 17.531 161.616ZM37.0615 252.73C32.1272 243.77 28.0549 234.363 24.8986 224.639C25.1574 224.594 25.4143 224.544 25.6694 224.489C28.797 234.106 32.825 243.409 37.7005 252.274C37.4843 252.422 37.2712 252.574 37.0615 252.73ZM59.6117 284.106C61.2196 285.857 62.8691 287.575 64.5598 289.26C94.7458 319.344 135.587 336.296 178.204 336.431C220.821 336.566 261.768 319.873 292.144 289.981L291.597 289.426C261.368 319.174 220.618 335.786 178.206 335.652C135.795 335.517 95.1505 318.647 65.1099 288.708C63.4486 287.053 61.8271 285.364 60.2461 283.645C60.0379 283.803 59.8264 283.957 59.6117 284.106Z" fill="url(#paint0_linear)"/>
<circle id="Dot orange 1" cx="323.773" cy="103.846" r="2.14322" fill="#F6BEA8"/>
<circle id="Dot green 2" cx="317.149" cy="91.7663" r="2.14322" fill="#91D4B4"/>
<circle id="Dot green 1" cx="268.304" cy="40.819" r="2.14322" fill="#91D4B4"/>
<circle id="Dot4" cx="331.304" cy="226.819" r="2.14322" fill="#F6BEA8"/>
<path id="Text top" fill-rule="evenodd" clip-rule="evenodd" d="M82.2867 33.5366L88.0587 42.0456L89.4602 41.1012L87.4796 38.1843L89.2198 37.0079C89.5876 36.7594 89.9027 36.441 90.1471 36.0709C90.3916 35.7009 90.5606 35.2864 90.6445 34.8511C90.7283 34.4159 90.7255 33.9684 90.6361 33.5342C90.5467 33.1 90.3724 32.6876 90.1233 32.3206C89.8742 31.9536 89.555 31.6391 89.1842 31.3951C88.8133 31.1512 88.3978 30.9825 87.9616 30.8987C87.5254 30.8149 87.077 30.8177 86.6419 30.9069C86.2068 30.996 85.7935 31.1699 85.4258 31.4184L82.2867 33.5366ZM86.5886 36.8714L84.5766 33.9051L86.3168 32.7312C86.5032 32.5968 86.716 32.503 86.9412 32.4561C87.1664 32.4092 87.399 32.4102 87.6238 32.459C88.0823 32.5787 88.4815 32.8608 88.747 33.2525C89.0125 33.6443 89.1261 34.119 89.0667 34.5882C89.0288 34.8141 88.9434 35.0295 88.8163 35.2203C88.6891 35.411 88.523 35.5728 88.3288 35.695L86.5886 36.8714ZM99.4465 33.6643C99.6291 32.9203 99.5867 32.139 99.3247 31.4189C99.0627 30.6989 98.5927 30.0724 97.9742 29.6186C97.3557 29.1649 96.6163 28.9041 95.8494 28.8693C95.0825 28.8346 94.3226 29.0273 93.6654 29.4232C93.0083 29.8191 92.4835 30.4005 92.1573 31.0938C91.8311 31.7872 91.7181 32.5615 91.8326 33.319C91.9471 34.0765 92.284 34.7831 92.8006 35.3497C93.3173 35.9164 93.9906 36.3176 94.7356 36.5027C95.7367 36.7356 96.7894 36.5692 97.6693 36.0391C98.5493 35.5089 99.187 34.6568 99.4465 33.6643V33.6643ZM93.7027 33.918C93.5362 33.6601 93.4241 33.3711 93.3733 33.0686C93.3225 32.7661 93.3341 32.4564 93.4073 32.1585C93.5613 31.5701 93.9394 31.0649 94.4611 30.7505C94.9828 30.4361 95.6069 30.3373 96.2006 30.4752C96.7968 30.639 97.3073 31.0249 97.6271 31.5531C97.9468 32.0813 98.0514 32.7117 97.9192 33.3145C97.7656 33.9025 97.3879 34.4074 96.8665 34.7214C96.3452 35.0354 95.7215 35.1337 95.1285 34.9954C94.8296 34.9229 94.5487 34.7899 94.3035 34.6045C94.0582 34.4192 93.8537 34.1855 93.7027 33.918V33.918ZM101.811 24.05L102.215 21.5047L100.789 22.2654L100.622 23.5697L99.4282 22.9903L98.0025 23.751L100.349 24.8297L101.811 24.05ZM105.278 29.6231C105.064 29.9723 104.758 30.2567 104.394 30.4457C104.132 30.5937 103.841 30.6861 103.541 30.7172C103.241 30.7484 102.938 30.7176 102.65 30.6267C102.07 30.4319 101.585 30.0234 101.296 29.4845C101.007 28.9457 100.935 28.3171 101.094 27.7269C101.178 27.4377 101.32 27.1688 101.513 26.9373C101.706 26.7059 101.944 26.5167 102.214 26.3819C102.571 26.1815 102.977 26.083 103.387 26.0974C103.769 26.1122 104.138 26.2427 104.445 26.4716L105.275 25.1318C104.74 24.7595 104.108 24.5523 103.456 24.5358C102.771 24.5133 102.092 24.6749 101.491 25.0037C101.036 25.239 100.632 25.5621 100.304 25.9542C99.9749 26.3464 99.7274 26.7999 99.5758 27.2883C99.4242 27.7767 99.3713 28.2904 99.4202 28.7994C99.4692 29.3084 99.6189 29.8026 99.8609 30.2534C100.103 30.7042 100.432 31.1025 100.83 31.4253C101.227 31.748 101.685 31.9888 102.176 32.1336C102.668 32.2784 103.183 32.3243 103.693 32.2687C104.202 32.213 104.695 32.057 105.144 31.8096C105.751 31.4938 106.263 31.0203 106.623 30.4389C106.973 29.8795 107.158 29.2329 107.156 28.5734L105.583 28.5293C105.59 28.9157 105.484 29.2958 105.278 29.6231V29.6231ZM104.922 20.1739L106.57 19.3676L106.607 21.636L105.235 22.3072L104.922 20.1739ZM110.279 28.996L107.035 22.4074L105.609 23.1046L108.853 29.6932L110.279 28.996ZM112.447 19.903L110.788 20.6556L109.934 18.788L108.685 19.8697L109.345 21.3117L108.115 21.8709L108.751 23.2613L109.982 22.6995L111.449 25.9035C111.849 26.7779 112.364 27.2654 112.994 27.3709C113.623 27.4764 114.459 27.2133 115.504 26.5766L114.91 25.2816C114.553 25.4647 114.248 25.6065 113.998 25.7045C113.796 25.7997 113.566 25.818 113.352 25.7559C113.245 25.7064 113.149 25.6358 113.07 25.5485C112.991 25.4611 112.93 25.3587 112.891 25.2474L111.424 22.0435L113.081 21.2908L112.447 19.903ZM115.992 15.2447L115.646 17.5178L117.063 16.9497L117.765 14.5315L115.992 15.2447ZM119.408 18.1579C118.546 17.6178 117.597 17.5563 116.559 17.9732C116.107 18.1495 115.698 18.4189 115.357 18.7636C115.017 19.1084 114.752 19.5208 114.582 19.9742C114.223 20.9241 114.235 21.9741 114.617 22.9155C114.998 23.8568 115.721 24.6204 116.641 25.0544C117.079 25.2654 117.557 25.3813 118.043 25.3946C118.53 25.4078 119.013 25.3182 119.462 25.1315C119.934 24.9673 120.356 24.6873 120.691 24.3173C121.026 23.9473 121.262 23.4992 121.377 23.0142L121.774 23.9952L123.247 23.4011L120.487 16.5982L119.016 17.1923L119.408 18.1579ZM116.091 22.3265C115.965 22.0425 115.899 21.736 115.895 21.4255C115.892 21.1151 115.952 20.8072 116.072 20.5207C116.326 19.9576 116.788 19.5142 117.361 19.2832C117.935 19.0522 118.576 19.0515 119.15 19.2813C119.716 19.5462 120.16 20.0144 120.394 20.592C120.628 21.1697 120.636 21.8144 120.414 22.397C120.162 22.9612 119.7 23.4057 119.126 23.6369C118.552 23.868 117.91 23.8679 117.336 23.6364C117.05 23.5135 116.793 23.3341 116.579 23.1089C116.365 22.8837 116.199 22.6175 116.091 22.3265V22.3265ZM128.317 14.9415C128.009 14.6525 127.626 14.4562 127.211 14.3749C126.796 14.2937 126.366 14.3309 125.972 14.4822C125.572 14.5886 125.207 14.7988 124.914 15.0915C124.622 15.3842 124.412 15.7489 124.306 16.1486L124.035 15.3116L122.525 15.8002L124.805 22.7771L126.316 22.2859L125.038 18.3802C124.84 17.8961 124.834 17.3546 125.022 16.8664C125.113 16.6667 125.246 16.489 125.413 16.3458C125.58 16.2025 125.775 16.097 125.987 16.0365C126.165 15.9663 126.356 15.9372 126.547 15.9513C126.738 15.9653 126.923 16.0222 127.088 16.1177C127.439 16.3586 127.691 16.7182 127.796 17.1298L129.18 21.3565L130.687 20.8678L129.41 16.9621C129.21 16.3484 129.197 15.8435 129.371 15.4475C129.46 15.2481 129.593 15.071 129.759 14.9292C129.925 14.7873 130.122 14.6843 130.333 14.6277C130.514 14.558 130.708 14.5285 130.902 14.5413C131.096 14.5541 131.285 14.6089 131.455 14.7019C131.816 14.933 132.077 15.2922 132.184 15.7071L133.567 19.9338L135.077 19.4452L133.662 15.1209C133.453 14.3508 132.949 13.6934 132.259 13.2902C131.929 13.1148 131.566 13.0111 131.192 12.9859C130.819 12.9608 130.445 13.0148 130.094 13.1444C129.134 13.4565 128.542 14.0555 128.317 14.9415V14.9415ZM142.71 14.4532C142.689 14.2332 142.654 14.0149 142.605 13.7996C142.376 12.8109 141.773 11.9487 140.922 11.3931C140.508 11.1174 140.038 10.9347 139.547 10.8576C139.055 10.7806 138.552 10.8111 138.073 10.9469C137.567 11.0556 137.09 11.2676 136.671 11.5695C136.252 11.8714 135.901 12.2567 135.638 12.701C135.144 13.5997 135.012 14.6522 135.267 15.6451C135.522 16.6379 136.147 17.4967 137.013 18.0471C137.906 18.573 138.932 18.6905 140.09 18.3996C141.468 18.0511 142.377 17.2717 142.817 16.0615L141.361 15.6431C141.229 15.9858 141.012 16.2892 140.729 16.5243C140.447 16.7594 140.109 16.9184 139.747 16.9863C139.219 17.1385 138.657 17.1191 138.141 16.9308C137.652 16.7369 137.257 16.361 137.04 15.8823L142.71 14.4532ZM137.108 13.1707C137.43 12.7482 137.894 12.4545 138.414 12.3424C138.889 12.2153 139.393 12.2542 139.842 12.4526C140.323 12.6827 140.699 13.0856 140.895 13.5807L136.706 14.6344C136.662 14.1144 136.804 13.5957 137.108 13.1707V13.1707ZM150.574 12.1629L153.13 8.06457L151.218 8.39973L148.979 12.085L147.899 6.00269L146.335 6.27623L148.131 16.3896L149.695 16.1161L149.103 12.7773L152.662 15.5965L154.528 15.2674L150.574 12.1629ZM159.81 8.25452C159.47 7.89064 159.045 7.61738 158.572 7.4596C158.099 7.30183 157.595 7.26457 157.104 7.35121C156.622 7.40541 156.156 7.56052 155.738 7.8064C155.32 8.05228 154.959 8.38338 154.678 8.7781C154.088 9.60498 153.831 10.6235 153.959 11.6309C154.086 12.6383 154.59 13.5608 155.368 14.2148C155.738 14.5294 156.171 14.7625 156.638 14.8989C157.104 15.0353 157.594 15.072 158.076 15.0065C158.574 14.9697 159.055 14.8078 159.474 14.536C159.892 14.2641 160.235 13.8911 160.471 13.4515L160.605 14.4997L162.179 14.3026L161.255 7.02481L159.678 7.22173L159.81 8.25452ZM155.535 11.4354C155.486 11.1296 155.5 10.817 155.576 10.5166C155.652 10.2163 155.789 9.93461 155.977 9.68871C156.366 9.20766 156.927 8.89575 157.542 8.8185C158.157 8.74125 158.777 8.90467 159.274 9.27443C159.753 9.67385 160.064 10.2395 160.142 10.8578C160.221 11.4761 160.062 12.1011 159.698 12.6074C159.309 13.0884 158.748 13.4003 158.134 13.4776C157.519 13.5548 156.898 13.3914 156.402 13.0217C156.157 12.8295 155.954 12.5899 155.806 12.3172C155.657 12.0445 155.565 11.7446 155.535 11.4354V11.4354ZM166.633 5.72013L168.03 3.557L166.418 3.67655L165.738 4.80066L164.88 3.79103L163.268 3.91055L164.977 5.84324L166.633 5.72013ZM168.685 7.51231L168.604 6.45846L163.181 6.85773L163.295 8.35198L166.578 8.10731L163.509 13.1299L163.59 14.1838L169.307 13.7616L169.193 12.2699L165.632 12.5329L168.685 7.51231ZM175.811 7.25557C175.19 6.44963 174.321 6.06167 173.205 6.09169C172.72 6.09863 172.241 6.20741 171.801 6.41093C171.361 6.61445 170.969 6.90815 170.65 7.27294C169.981 8.03826 169.625 9.02708 169.654 10.0425C169.682 11.0578 170.093 12.0253 170.804 12.7521C171.142 13.1017 171.549 13.3762 172 13.5576C172.451 13.739 172.936 13.8232 173.422 13.8046C173.921 13.8157 174.415 13.7011 174.858 13.4715C175.302 13.2419 175.68 12.9046 175.958 12.4908L175.988 13.5479L177.574 13.5062L177.287 3.23928L175.701 3.281L175.811 7.25557ZM171.24 10.0023C171.223 9.69289 171.268 9.38315 171.374 9.09182C171.48 8.80048 171.644 8.5336 171.856 8.30727C172.29 7.86653 172.879 7.61103 173.498 7.59453C174.118 7.57803 174.719 7.8018 175.177 8.21878C175.615 8.66344 175.868 9.25717 175.885 9.88049C175.903 10.5038 175.683 11.1105 175.27 11.5784C174.834 12.0181 174.246 12.2726 173.627 12.2886C173.007 12.3046 172.406 12.0809 171.949 11.6643C171.724 11.4495 171.546 11.1914 171.424 10.9058C171.302 10.6201 171.24 10.3127 171.24 10.0023V10.0023ZM185.493 12.7463C186.227 12.0284 186.65 11.0511 186.668 10.0254C186.687 8.99962 186.301 8.00758 185.593 7.26322C184.871 6.53283 183.891 6.11272 182.863 6.0924C181.835 6.07209 180.839 6.45316 180.089 7.15444C179.351 7.87068 178.927 8.84846 178.908 9.87521C178.889 10.902 179.278 11.8947 179.988 12.6375C180.711 13.3678 181.691 13.7879 182.719 13.8082C183.747 13.8285 184.742 13.4475 185.493 12.7463V12.7463ZM180.495 9.90537C180.492 9.5986 180.551 9.29443 180.671 9.01164C180.79 8.72886 180.966 8.47346 181.188 8.26123C181.633 7.8459 182.223 7.62026 182.832 7.63228C183.441 7.6443 184.022 7.89305 184.45 8.32561C184.867 8.78071 185.093 9.37814 185.082 9.99468C185.07 10.6112 184.822 11.1999 184.389 11.6393C183.944 12.0546 183.354 12.2803 182.745 12.2682C182.136 12.2562 181.555 12.0075 181.127 11.5749C180.913 11.3543 180.747 11.0924 180.638 10.8053C180.529 10.5182 180.48 10.2119 180.495 9.90537V9.90537ZM193.075 10.8321C193.017 11.5435 192.802 12.0583 192.432 12.3764C192.241 12.5359 192.019 12.6545 191.78 12.7249C191.541 12.7953 191.291 12.8159 191.043 12.7855C190.823 12.7792 190.605 12.7283 190.405 12.6358C190.204 12.5434 190.024 12.4113 189.876 12.2476C189.736 12.0655 189.634 11.8571 189.576 11.6348C189.518 11.4126 189.506 11.181 189.539 10.9539L189.89 6.62699L188.309 6.49629L187.943 10.9825C187.868 11.9193 188.067 12.6768 188.541 13.2552C188.784 13.5456 189.084 13.7822 189.424 13.9496C189.764 14.117 190.134 14.2115 190.513 14.2271C191.548 14.3136 192.336 14.0005 192.876 13.288L192.798 14.2247L194.381 14.3555L194.974 7.04625L193.394 6.91551L193.075 10.8321ZM203.197 11.7655L206.941 8.70844L205.026 8.41129L201.711 11.1785L202.652 5.07707L201.083 4.83249L199.519 14.9797L201.088 15.2217L201.603 11.873L204.065 15.685L205.94 15.9757L203.197 11.7655ZM213.214 11.0399C212.793 10.1139 212.036 9.53851 210.943 9.31374C210.469 9.21005 209.978 9.20719 209.502 9.30538C209.027 9.40358 208.577 9.60062 208.183 9.88366C207.357 10.4764 206.785 11.358 206.582 12.3527C206.378 13.3475 206.558 14.3823 207.084 15.251C207.333 15.6677 207.667 16.0273 208.065 16.3061C208.463 16.585 208.915 16.7769 209.392 16.8692C209.876 16.9941 210.383 16.9953 210.867 16.8727C211.351 16.75 211.797 16.5075 212.162 16.1676L211.951 17.2012L213.507 17.5215L214.979 10.3391L213.425 10.0189L213.214 11.0399ZM208.138 12.6748C208.19 12.3694 208.305 12.0779 208.474 11.8179C208.643 11.558 208.863 11.335 209.121 11.1626C209.645 10.8329 210.277 10.7183 210.884 10.8429C211.491 10.9675 212.026 11.3216 212.378 11.831C212.547 12.0917 212.661 12.3837 212.715 12.6897C212.768 12.9956 212.759 13.309 212.688 13.6113C212.635 13.9166 212.52 14.208 212.351 14.4675C212.181 14.7271 211.96 14.9494 211.702 15.1209C211.178 15.4509 210.547 15.5655 209.94 15.4409C209.333 15.3163 208.798 14.9621 208.448 14.4526C208.278 14.1929 208.162 13.9012 208.109 13.5956C208.056 13.2899 208.066 12.9766 208.138 12.6748V12.6748ZM216.67 18.3289L219.234 7.93443L217.693 7.5537L215.128 17.9482L216.67 18.3289ZM224.53 19.5472C225.425 19.0424 226.085 18.207 226.369 17.2209C226.652 16.2348 226.536 15.1771 226.045 14.2755C225.536 13.3843 224.698 12.7263 223.71 12.4415C222.723 12.1566 221.662 12.2672 220.755 12.7498C219.857 13.2512 219.193 14.0865 218.909 15.0738C218.625 16.0611 218.743 17.1205 219.237 18.0215C219.748 18.9124 220.586 19.5699 221.574 19.8547C222.562 20.1396 223.622 20.0293 224.53 19.5472V19.5472ZM220.436 15.5138C220.559 15.0759 220.81 14.6844 221.156 14.3886C221.503 14.0929 221.929 13.9061 222.382 13.8519C222.834 13.7977 223.293 13.8786 223.7 14.0842C224.106 14.2899 224.443 14.6111 224.667 15.0074C224.95 15.555 225.013 16.1901 224.842 16.7824C224.671 17.3747 224.28 17.8792 223.748 18.1924C223.484 18.3409 223.193 18.4335 222.892 18.4647C222.591 18.4958 222.287 18.4646 221.998 18.3732C221.706 18.2961 221.431 18.1602 221.193 17.9739C220.954 17.7876 220.756 17.5547 220.611 17.2895C220.462 17.0211 220.369 16.7251 220.339 16.4197C220.309 16.1143 220.342 15.806 220.436 15.5138V15.5138ZM230.383 14.7223L228.879 14.2185L226.545 21.168L228.052 21.6745L229.226 18.1708C229.467 17.458 229.851 17.0168 230.384 16.8499C230.925 16.6833 231.508 16.717 232.027 16.9447L232.574 15.3184C231.523 14.9647 230.662 15.1551 229.992 15.8894L230.383 14.7223ZM236.068 14.4895C236.159 14.2371 236.147 13.9588 236.033 13.7156C235.92 13.4723 235.714 13.2839 235.461 13.1915C235.336 13.1431 235.202 13.1214 235.068 13.1277C234.933 13.134 234.802 13.1681 234.682 13.228C234.562 13.2829 234.454 13.3613 234.365 13.4585C234.276 13.5558 234.207 13.6699 234.163 13.7941C234.075 14.0463 234.089 14.3228 234.202 14.5651C234.315 14.8074 234.517 14.9964 234.767 15.092C235.02 15.1814 235.298 15.1684 235.541 15.0557C235.784 14.9431 235.973 14.7398 236.068 14.4895V14.4895ZM232.622 23.287L235.137 16.397L233.644 15.8529L231.132 22.743L232.622 23.287ZM238.531 14.5491L240.244 15.215L238.594 16.7779L237.168 16.2234L238.531 14.5491ZM235.658 24.448L238.316 17.6137L236.837 17.0396L234.179 23.8714L235.658 24.448Z" fill="#353643"/>
<path id="Text bottom" fill-rule="evenodd" clip-rule="evenodd" d="M91.6146 310.629L100.387 304.093L98.8628 303.056L91.9286 308.356L94.3197 299.961L92.7843 298.915L89.9344 309.483L91.6146 310.629ZM103.016 305.645L100.976 306.736L102.284 307.532L104.655 306.642L103.016 305.645ZM98.7245 312.768L99.6334 307.044L98.1464 306.137L97.0504 313.961L96.9102 314.051C96.5584 314.347 96.1346 314.545 95.6818 314.625C95.2519 314.66 94.8246 314.532 94.4851 314.266L93.7093 315.543C95.1026 316.505 96.5966 316.354 98.1913 315.089L104.567 310.049L103.12 309.167L98.7245 312.768ZM108.309 311.074L110.676 310.012L109.254 309.232L108.065 309.807L107.898 308.487L106.476 307.706L106.851 310.269L108.309 311.074ZM109.053 313.707L109.565 312.772L104.784 310.147L104.061 311.468L106.953 313.057L101.615 315.618L101.103 316.552L106.14 319.32L106.866 317.999L103.726 316.274L109.053 313.707ZM113.242 312.244C113.304 312.126 113.341 311.997 113.351 311.864C113.362 311.731 113.346 311.597 113.304 311.471C113.263 311.343 113.197 311.224 113.11 311.122C113.023 311.019 112.916 310.935 112.797 310.874C112.677 310.813 112.546 310.777 112.412 310.767C112.278 310.757 112.143 310.774 112.016 310.817C111.889 310.857 111.773 310.923 111.672 311.01C111.571 311.096 111.489 311.202 111.43 311.321C111.311 311.562 111.29 311.841 111.373 312.097C111.456 312.353 111.635 312.566 111.874 312.691C111.992 312.753 112.122 312.79 112.256 312.799C112.39 312.809 112.524 312.79 112.65 312.745C112.777 312.706 112.896 312.642 112.997 312.556C113.099 312.47 113.183 312.364 113.242 312.244V312.244ZM108.737 320.626L112.083 314.041L110.663 313.317L107.32 319.903L108.737 320.626ZM113.634 321.024L114.132 315.065L112.557 314.328L112.044 322.241L113.713 323.018L119.437 317.535L117.861 316.8L113.634 321.024ZM122.94 325.927C123.648 325.627 124.251 325.122 124.674 324.479C125.096 323.835 125.319 323.08 125.313 322.31C125.308 321.54 125.074 320.789 124.643 320.152C124.211 319.514 123.6 319.019 122.888 318.729C122.176 318.439 121.393 318.367 120.639 318.521C119.886 318.676 119.195 319.051 118.654 319.598C118.112 320.146 117.745 320.841 117.598 321.597C117.452 322.353 117.532 323.136 117.829 323.846C118.241 324.792 119.007 325.538 119.961 325.927C120.916 326.316 121.985 326.316 122.94 325.927V325.927ZM119.293 321.461C119.401 321.172 119.567 320.907 119.78 320.685C119.993 320.462 120.25 320.285 120.534 320.165C121.1 319.934 121.734 319.933 122.301 320.164C122.867 320.394 123.321 320.837 123.566 321.399C123.79 321.977 123.785 322.62 123.552 323.195C123.318 323.77 122.873 324.233 122.308 324.49C121.742 324.72 121.108 324.719 120.542 324.489C119.976 324.259 119.522 323.816 119.276 323.256C119.157 322.972 119.097 322.666 119.099 322.357C119.102 322.048 119.168 321.743 119.293 321.461V321.461ZM127.921 326.837L127.829 320.857L126.188 320.283L126.457 328.204L128.196 328.814L133.349 322.792L131.709 322.215L127.921 326.837ZM137.576 320.953L135.877 322.53L137.348 322.967L139.412 321.5L137.576 320.953ZM135.235 328.935L134.659 323.17L132.99 322.675L133.92 330.516L133.806 330.638C133.542 331.015 133.182 331.315 132.765 331.507C132.357 331.651 131.911 331.636 131.514 331.466L131.089 332.897C132.681 333.473 134.088 332.946 135.31 331.315L140.196 324.813L138.572 324.332L135.235 328.935ZM145.184 327.126L145.41 326.088L143.856 325.75L141.66 335.857L143.216 336.193L144.065 332.28C144.477 333.216 145.229 333.802 146.323 334.038C146.798 334.147 147.29 334.154 147.768 334.06C148.246 333.966 148.699 333.772 149.098 333.491C149.933 332.903 150.517 332.022 150.734 331.023C150.951 330.024 150.785 328.979 150.269 328.097C150.024 327.676 149.692 327.311 149.296 327.026C148.901 326.742 148.449 326.544 147.971 326.447C147.487 326.317 146.978 326.311 146.491 326.43C146.004 326.548 145.554 326.788 145.184 327.126V327.126ZM144.628 329.697C144.684 329.39 144.802 329.097 144.975 328.837C145.148 328.577 145.372 328.355 145.634 328.184C146.162 327.857 146.796 327.747 147.403 327.879C148.01 328.01 148.543 328.372 148.888 328.889C149.208 329.428 149.312 330.069 149.179 330.683C149.046 331.296 148.686 331.836 148.171 332.195C147.643 332.522 147.008 332.632 146.401 332.5C145.794 332.369 145.262 332.007 144.916 331.49C144.749 331.226 144.638 330.931 144.588 330.623C144.539 330.315 144.552 330 144.628 329.697V329.697ZM157.515 334.895C158.263 334.364 158.804 333.59 159.045 332.705C159.286 331.819 159.212 330.877 158.837 330.04C158.461 329.204 157.806 328.523 156.984 328.117C156.163 327.71 155.225 327.601 154.333 327.81C153.44 328.019 152.647 328.532 152.09 329.261C151.533 329.99 151.246 330.89 151.279 331.807C151.312 332.724 151.661 333.601 152.269 334.289C152.876 334.976 153.703 335.43 154.608 335.574C155.114 335.666 155.632 335.653 156.132 335.536C156.632 335.419 157.102 335.201 157.515 334.895V334.895ZM152.946 331.38C152.985 331.073 153.086 330.777 153.244 330.511C153.402 330.245 153.613 330.014 153.864 329.833C154.363 329.481 154.979 329.337 155.582 329.432C156.185 329.527 156.727 329.854 157.094 330.343C157.445 330.855 157.586 331.482 157.489 332.095C157.392 332.709 157.063 333.261 156.571 333.64C156.072 333.992 155.456 334.136 154.853 334.041C154.25 333.946 153.707 333.619 153.341 333.13C153.159 332.881 153.03 332.597 152.962 332.296C152.894 331.995 152.889 331.683 152.946 331.38V331.38ZM162.166 328.951L160.583 328.771L159.745 336.109L161.327 336.289L161.749 332.589C161.835 331.838 162.123 331.321 162.609 331.044C163.105 330.766 163.684 330.677 164.24 330.793L164.436 329.073C163.332 328.949 162.528 329.319 162.023 330.185L162.166 328.951ZM170.513 330.724C170.251 330.298 169.886 329.946 169.452 329.698C169.018 329.45 168.528 329.315 168.029 329.305C167.543 329.265 167.055 329.327 166.595 329.489C166.135 329.651 165.715 329.908 165.361 330.243C164.617 330.943 164.163 331.898 164.09 332.918C164.017 333.938 164.331 334.948 164.969 335.746C165.27 336.129 165.65 336.444 166.082 336.669C166.514 336.895 166.989 337.026 167.476 337.054C167.973 337.115 168.478 337.048 168.944 336.861C169.409 336.674 169.82 336.372 170.137 335.983L170.063 337.044L171.651 337.155L172.176 329.79L170.588 329.679L170.513 330.724ZM165.678 333.035C165.691 332.723 165.768 332.417 165.902 332.135C166.037 331.852 166.226 331.6 166.46 331.393C166.938 330.995 167.55 330.797 168.17 330.841C168.789 330.885 169.368 331.166 169.784 331.628C170.176 332.117 170.369 332.736 170.324 333.362C170.279 333.987 170 334.573 169.542 335.001C169.066 335.401 168.454 335.6 167.834 335.557C167.214 335.513 166.636 335.231 166.22 334.769C166.017 334.532 165.865 334.256 165.772 333.958C165.678 333.66 165.646 333.346 165.678 333.035V333.035ZM179.252 330.955C178.662 330.12 177.807 329.697 176.688 329.684C176.201 329.673 175.717 329.765 175.267 329.953C174.818 330.142 174.413 330.423 174.079 330.778C173.377 331.521 172.98 332.501 172.967 333.523C172.954 334.545 173.326 335.535 174.01 336.294C174.334 336.658 174.731 336.95 175.175 337.149C175.62 337.349 176.101 337.453 176.588 337.453C177.089 337.483 177.589 337.387 178.043 337.172C178.497 336.957 178.889 336.632 179.184 336.225L179.171 337.29L180.763 337.306L180.894 326.969L179.302 326.952L179.252 330.955ZM174.559 333.544C174.554 333.232 174.612 332.921 174.729 332.632C174.847 332.343 175.023 332.08 175.245 331.861C175.698 331.435 176.297 331.201 176.918 331.207C177.539 331.214 178.133 331.462 178.576 331.898C178.996 332.363 179.225 332.97 179.217 333.597C179.209 334.225 178.965 334.826 178.533 335.281C178.081 335.707 177.481 335.941 176.86 335.934C176.239 335.927 175.645 335.68 175.202 335.244C174.986 335.019 174.817 334.752 174.707 334.46C174.596 334.168 174.546 333.856 174.559 333.544V333.544ZM187.866 336.703C188.427 336.348 188.876 335.842 189.161 335.242L187.759 334.519C187.596 334.873 187.334 335.172 187.006 335.38C186.66 335.604 186.26 335.729 185.849 335.741C185.546 335.761 185.243 335.719 184.959 335.617C184.674 335.514 184.413 335.354 184.192 335.147C183.753 334.717 183.494 334.136 183.468 333.522C183.443 332.907 183.653 332.306 184.055 331.842C184.258 331.616 184.504 331.434 184.78 331.308C185.055 331.181 185.354 331.113 185.657 331.107C186.066 331.082 186.475 331.168 186.839 331.358C187.179 331.538 187.455 331.817 187.632 332.159L188.968 331.304C188.648 330.734 188.167 330.271 187.585 329.974C186.975 329.655 186.291 329.505 185.605 329.542C185.091 329.557 184.586 329.674 184.119 329.886C183.651 330.099 183.23 330.402 182.88 330.778C182.53 331.154 182.258 331.596 182.08 332.079C181.902 332.561 181.822 333.073 181.843 333.587C181.864 334.101 181.987 334.605 182.205 335.07C182.422 335.536 182.73 335.954 183.109 336.299C183.489 336.645 183.934 336.912 184.418 337.084C184.901 337.256 185.414 337.331 185.927 337.303C186.616 337.282 187.286 337.074 187.866 336.703V336.703ZM196.898 333.23C196.911 333.008 196.909 332.785 196.894 332.563C196.822 331.545 196.36 330.595 195.604 329.911C195.236 329.573 194.799 329.319 194.324 329.167C193.848 329.014 193.345 328.968 192.849 329.03C192.331 329.061 191.825 329.199 191.363 329.436C190.901 329.672 190.492 330.002 190.164 330.404C189.841 330.801 189.6 331.258 189.458 331.75C189.315 332.241 189.273 332.756 189.334 333.264C189.365 333.778 189.502 334.28 189.735 334.739C189.969 335.198 190.294 335.604 190.691 335.931C191.494 336.591 192.492 336.865 193.685 336.753C195.102 336.619 196.124 335.983 196.751 334.845L195.373 334.206C195.19 334.527 194.927 334.795 194.611 334.986C194.294 335.177 193.934 335.284 193.565 335.296C193.018 335.365 192.463 335.258 191.981 334.992C191.526 334.726 191.194 334.292 191.056 333.783L196.898 333.23ZM191.547 331.096C191.931 330.725 192.436 330.503 192.969 330.472C193.48 330.405 193.997 330.534 194.417 330.833C194.837 331.131 195.13 331.577 195.236 332.082L190.921 332.491C190.956 331.966 191.178 331.471 191.547 331.096V331.096ZM206.603 328.34C205.873 327.629 204.956 327.37 203.852 327.563C203.371 327.641 202.911 327.82 202.504 328.087C202.096 328.355 201.749 328.705 201.486 329.116C200.931 329.974 200.719 331.01 200.893 332.017C201.066 333.024 201.612 333.928 202.422 334.55C202.807 334.85 203.251 335.064 203.725 335.179C204.199 335.293 204.692 335.306 205.172 335.216C205.669 335.154 206.143 334.968 206.55 334.674C206.956 334.381 207.282 333.989 207.498 333.536L207.681 334.585L209.248 334.31L207.995 327.034L206.425 327.308L206.603 328.34ZM202.464 331.748C202.401 331.442 202.4 331.126 202.463 330.82C202.526 330.514 202.65 330.224 202.829 329.967C203.197 329.466 203.744 329.127 204.355 329.02C204.967 328.914 205.596 329.048 206.111 329.394C206.61 329.774 206.947 330.329 207.053 330.947C207.16 331.566 207.028 332.202 206.685 332.727C206.318 333.228 205.771 333.568 205.159 333.675C204.547 333.782 203.918 333.647 203.403 333.3C203.149 333.119 202.935 332.888 202.774 332.621C202.612 332.354 202.507 332.057 202.464 331.748V331.748ZM215.486 324.299L216.507 321.913L214.931 322.308L214.446 323.538L213.429 322.683L211.857 323.075L213.868 324.703L215.486 324.299ZM214.578 327.013C214.731 326.869 214.911 326.758 215.107 326.685C215.303 326.612 215.512 326.58 215.721 326.589C215.93 326.599 216.135 326.65 216.324 326.741C216.513 326.831 216.682 326.959 216.82 327.116L217.942 326.057C217.586 325.657 217.122 325.369 216.606 325.228C216.055 325.082 215.476 325.082 214.926 325.229C214.246 325.375 213.639 325.753 213.209 326.3C213.014 326.547 212.88 326.837 212.818 327.145C212.756 327.454 212.767 327.773 212.852 328.077C212.941 328.51 213.185 328.895 213.537 329.161C213.868 329.403 214.259 329.55 214.667 329.584C215.082 329.624 215.492 329.646 215.893 329.653C216.246 329.653 216.599 329.694 216.942 329.777C217.065 329.796 217.181 329.849 217.275 329.93C217.369 330.012 217.438 330.119 217.473 330.238C217.606 330.773 217.268 331.142 216.455 331.343C215.642 331.545 215.032 331.335 214.611 330.71L213.474 331.818C213.827 332.281 214.321 332.617 214.881 332.774C215.513 332.943 216.178 332.94 216.808 332.764C217.526 332.613 218.175 332.231 218.657 331.678C218.868 331.431 219.014 331.136 219.083 330.818C219.152 330.501 219.141 330.171 219.051 329.86C218.959 329.418 218.713 329.023 218.357 328.746C218.027 328.497 217.635 328.345 217.224 328.306C216.809 328.269 216.4 328.247 215.998 328.24C215.646 328.241 215.294 328.201 214.951 328.121C214.831 328.103 214.719 328.053 214.627 327.975C214.534 327.897 214.465 327.796 214.426 327.681C214.388 327.567 214.382 327.443 214.408 327.326C214.435 327.208 214.494 327.1 214.578 327.013V327.013ZM220.869 320.687L220.333 322.943L221.797 322.485L222.699 320.114L220.869 320.687ZM226.47 326.651C226.439 326.431 226.392 326.213 226.33 325.999C226.051 325.019 225.402 324.185 224.521 323.674C224.091 323.419 223.611 323.261 223.114 323.211C222.618 323.161 222.116 323.22 221.644 323.384C221.143 323.521 220.677 323.761 220.273 324.088C219.87 324.415 219.538 324.822 219.299 325.283C219.065 325.738 218.924 326.235 218.886 326.746C218.848 327.256 218.913 327.769 219.077 328.254C219.214 328.75 219.451 329.213 219.775 329.613C220.098 330.013 220.5 330.342 220.956 330.58C221.879 331.059 222.909 331.121 224.056 330.762C225.416 330.337 226.285 329.504 226.663 328.262L225.182 327.922C225.069 328.274 224.867 328.591 224.597 328.843C224.327 329.095 223.996 329.274 223.638 329.362C223.117 329.543 222.553 329.555 222.025 329.395C221.526 329.227 221.111 328.872 220.868 328.404L226.47 326.651ZM220.793 325.674C221.093 325.232 221.541 324.911 222.056 324.77C222.525 324.613 223.033 324.624 223.495 324.798C223.987 325.004 224.385 325.387 224.608 325.873L220.469 327.167C220.397 326.647 220.511 326.118 220.793 325.674ZM228.628 317.993C227.573 318.281 226.862 318.766 226.496 319.447C226.131 320.128 226.112 320.949 226.439 321.911L226.485 322.05L225.426 322.412L225.921 323.867L226.98 323.502L228.864 329.035L230.37 328.519L228.486 322.986L230.134 322.422L229.639 320.969L227.994 321.534L227.946 321.392C227.597 320.367 227.988 319.718 229.121 319.445L228.628 317.993ZM234.329 323.053L236.064 318.508L234.246 319.209L232.742 323.286L230.52 317.484L229.034 318.057L232.73 327.704L234.216 327.131L232.997 323.947L237.038 326.041L238.812 325.356L234.329 323.053ZM242.542 319.971C242.831 320.628 242.888 321.186 242.714 321.646C242.621 321.879 242.482 322.09 242.304 322.267C242.127 322.444 241.915 322.582 241.682 322.674C241.485 322.775 241.269 322.834 241.048 322.848C240.827 322.862 240.605 322.831 240.397 322.756C240.186 322.663 239.997 322.527 239.839 322.359C239.682 322.19 239.56 321.991 239.482 321.774L237.727 317.775L236.268 318.42L238.09 322.569C238.472 323.433 239.009 324.007 239.703 324.291C240.055 324.431 240.433 324.497 240.812 324.482C241.192 324.468 241.563 324.374 241.904 324.206C242.857 323.784 243.402 323.128 243.539 322.24L243.918 323.104L245.376 322.461L242.41 315.706L240.951 316.351L242.542 319.971ZM251.604 318.993C251.971 318.439 252.172 317.793 252.186 317.129L250.612 317.048C250.608 317.438 250.492 317.817 250.277 318.142C250.054 318.489 249.74 318.768 249.369 318.948C249.102 319.092 248.809 319.179 248.507 319.204C248.205 319.228 247.902 319.19 247.615 319.091C247.039 318.881 246.564 318.458 246.289 317.908C246.013 317.359 245.958 316.725 246.135 316.136C246.226 315.847 246.375 315.579 246.575 315.35C246.774 315.122 247.018 314.937 247.293 314.807C247.656 314.615 248.065 314.526 248.475 314.549C248.858 314.574 249.224 314.714 249.526 314.952L250.395 313.623C249.869 313.235 249.239 313.011 248.586 312.979C247.899 312.94 247.214 313.087 246.604 313.405C246.139 313.628 245.723 313.941 245.38 314.327C245.037 314.713 244.775 315.163 244.608 315.651C244.441 316.14 244.373 316.656 244.408 317.171C244.443 317.686 244.581 318.189 244.812 318.65C245.044 319.111 245.365 319.522 245.756 319.857C246.148 320.192 246.603 320.446 247.094 320.603C247.585 320.761 248.102 320.818 248.616 320.773C249.129 320.728 249.629 320.58 250.085 320.339C250.703 320.036 251.228 319.571 251.604 318.993V318.993ZM252.026 311.813L250.106 308.427L248.72 309.217L253.819 318.198L255.204 317.407L253.25 313.969C252.897 313.344 252.783 312.795 252.909 312.32C252.977 312.079 253.094 311.855 253.252 311.661C253.411 311.467 253.607 311.307 253.83 311.193C254.016 311.073 254.224 310.992 254.442 310.955C254.66 310.919 254.884 310.926 255.098 310.978C255.318 311.049 255.521 311.163 255.695 311.315C255.869 311.467 256.01 311.653 256.109 311.862L258.266 315.659L259.652 314.868L257.413 310.929C256.947 310.109 256.355 309.593 255.634 309.381C255.269 309.277 254.887 309.251 254.511 309.305C254.135 309.358 253.775 309.49 253.453 309.691C252.548 310.209 252.072 310.916 252.026 311.813ZM262.442 305.581C261.492 305.213 260.546 305.334 259.602 305.945C259.19 306.205 258.837 306.549 258.566 306.954C258.295 307.359 258.112 307.817 258.03 308.298C257.855 309.304 258.065 310.34 258.618 311.198C259.171 312.056 260.026 312.674 261.014 312.93C261.485 313.054 261.977 313.077 262.458 312.997C262.939 312.918 263.398 312.737 263.804 312.468C264.239 312.216 264.603 311.859 264.863 311.429C265.124 310.999 265.271 310.51 265.293 310.008L265.868 310.902L267.206 310.035L263.213 303.836L261.875 304.701L262.442 305.581ZM259.958 310.337C259.781 310.08 259.658 309.789 259.596 309.483C259.535 309.177 259.536 308.862 259.6 308.556C259.742 307.951 260.113 307.423 260.635 307.085C261.157 306.747 261.789 306.624 262.399 306.742C263.006 306.896 263.533 307.274 263.873 307.801C264.212 308.328 264.34 308.965 264.23 309.582C264.087 310.188 263.716 310.715 263.194 311.053C262.672 311.391 262.039 311.514 261.429 311.396C261.125 311.329 260.837 311.2 260.584 311.018C260.331 310.836 260.118 310.604 259.958 310.337V310.337ZM265.966 300.764L266.045 298.172L264.724 299.114L264.721 300.436L263.462 300.014L262.141 300.956L264.608 301.732L265.966 300.764ZM265.603 302.111L264.303 303.036L268.572 309.05L269.87 308.125L267.719 305.093C267.28 304.476 267.15 303.903 267.328 303.37C267.512 302.832 267.884 302.378 268.375 302.091L267.375 300.682C266.471 301.329 266.118 302.143 266.318 303.122L265.603 302.111ZM276.508 300.847L271.381 297.791L270.028 298.889L276.899 302.808L278.331 301.645L275.932 294.098L274.58 295.196L276.508 300.847ZM278.963 288.493C278.779 288.296 278.526 288.18 278.258 288.168C277.99 288.156 277.728 288.249 277.527 288.428C277.428 288.517 277.347 288.626 277.292 288.748C277.236 288.87 277.205 289.001 277.202 289.135C277.194 289.268 277.213 289.402 277.257 289.527C277.301 289.653 277.37 289.769 277.46 289.867C277.549 289.966 277.658 290.045 277.779 290.101C277.899 290.157 278.03 290.188 278.163 290.192C278.297 290.202 278.431 290.184 278.557 290.14C278.683 290.095 278.799 290.026 278.897 289.935C278.996 289.844 279.075 289.735 279.131 289.614C279.187 289.492 279.218 289.361 279.222 289.227C279.231 289.094 279.212 288.959 279.168 288.833C279.123 288.707 279.053 288.591 278.963 288.493V288.493ZM284.678 297.994C284.646 298.301 284.432 298.603 284.034 298.897L285.068 300.032C286.655 298.782 286.762 297.4 285.387 295.888L280.23 290.213L279.051 291.289L284.209 296.961C284.554 297.339 284.71 297.683 284.678 297.994V297.994ZM289.412 287.391C289.283 287.21 289.142 287.038 288.99 286.877C288.294 286.132 287.335 285.689 286.317 285.641C285.818 285.612 285.319 285.692 284.854 285.875C284.389 286.058 283.969 286.34 283.623 286.702C283.079 287.246 282.707 287.937 282.552 288.691C282.396 289.444 282.466 290.227 282.751 290.941C283.036 291.655 283.524 292.27 284.155 292.709C284.786 293.148 285.532 293.392 286.3 293.41C287.34 293.414 288.286 292.995 289.14 292.152C290.158 291.151 290.551 290.012 290.318 288.736L288.844 289.11C288.905 289.475 288.87 289.85 288.745 290.199C288.62 290.547 288.408 290.858 288.129 291.101C287.748 291.5 287.251 291.768 286.709 291.868C286.188 291.948 285.657 291.822 285.227 291.518L289.412 287.391ZM283.913 289.126C283.979 288.594 284.231 288.103 284.626 287.741C284.98 287.367 285.462 287.139 285.976 287.105C286.49 287.07 286.999 287.23 287.4 287.553L284.307 290.602C284.005 290.172 283.865 289.649 283.913 289.126V289.126ZM291.631 280.052C290.618 279.941 289.734 280.301 288.978 281.132C288.647 281.489 288.393 281.913 288.235 282.375C288.077 282.836 288.017 283.326 288.06 283.812C288.149 284.83 288.618 285.776 289.373 286.463C290.127 287.15 291.112 287.528 292.133 287.52C292.62 287.519 293.102 287.414 293.547 287.213C293.992 287.012 294.389 286.72 294.713 286.355C295.069 286 295.329 285.561 295.47 285.08C295.612 284.598 295.629 284.088 295.522 283.597L296.308 284.312L297.379 283.13L289.751 276.181L288.677 277.363L291.631 280.052ZM290.446 285.286C290.209 285.083 290.017 284.834 289.879 284.554C289.741 284.274 289.662 283.969 289.645 283.657C289.628 283.035 289.852 282.43 290.27 281.969C290.688 281.508 291.268 281.227 291.889 281.184C292.515 281.178 293.12 281.409 293.583 281.831C294.046 282.253 294.333 282.835 294.384 283.46C294.4 284.081 294.176 284.685 293.758 285.146C293.34 285.606 292.761 285.887 292.141 285.93C291.829 285.943 291.519 285.893 291.227 285.783C290.936 285.672 290.67 285.503 290.446 285.286V285.286ZM294.487 276.549L293.755 275.953L292.75 277.192L298.466 281.846L299.471 280.608L296.407 278.113C295.852 277.659 295.547 277.191 295.493 276.702C295.469 276.453 295.497 276.201 295.575 275.963C295.652 275.724 295.778 275.504 295.945 275.317C296.074 275.138 296.239 274.986 296.429 274.873C296.619 274.759 296.83 274.686 297.05 274.657C297.28 274.643 297.51 274.676 297.727 274.754C297.944 274.832 298.143 274.953 298.312 275.111L301.697 277.866L302.701 276.629L299.193 273.77C298.461 273.176 297.72 272.91 296.972 272.973C296.593 273.009 296.227 273.124 295.896 273.311C295.565 273.497 295.276 273.751 295.049 274.056C294.391 274.865 294.203 275.696 294.487 276.549V276.549ZM306.566 269.8C306.451 269.036 306.11 268.324 305.587 267.755C305.065 267.186 304.385 266.787 303.634 266.608C302.883 266.429 302.095 266.479 301.373 266.751C300.65 267.023 300.025 267.505 299.577 268.135C299.269 268.544 299.046 269.011 298.922 269.508C298.799 270.006 298.777 270.523 298.858 271.029C299.022 272.05 299.583 272.964 300.418 273.572C301.252 274.181 302.293 274.434 303.314 274.276C304.331 274.099 305.238 273.533 305.846 272.698C306.453 271.862 306.711 270.823 306.566 269.8V269.8ZM301.356 272.282C301.101 272.108 300.885 271.884 300.721 271.623C300.556 271.361 300.448 271.069 300.401 270.764C300.316 270.158 300.469 269.543 300.828 269.048C301.187 268.553 301.725 268.217 302.327 268.111C302.709 268.039 303.103 268.063 303.473 268.182C303.843 268.301 304.178 268.51 304.447 268.791C304.715 269.072 304.91 269.416 305.013 269.791C305.115 270.166 305.123 270.561 305.035 270.94C304.947 271.319 304.765 271.67 304.507 271.962C304.25 272.253 303.923 272.475 303.558 272.609C303.193 272.742 302.8 272.782 302.415 272.725C302.031 272.668 301.667 272.516 301.356 272.282V272.282ZM306.414 260.081C305.991 260.056 305.57 260.152 305.198 260.356C304.826 260.56 304.52 260.864 304.313 261.235C304.072 261.575 303.926 261.972 303.888 262.387C303.851 262.802 303.923 263.219 304.098 263.597L303.35 263.123L302.501 264.474L308.733 268.406L309.582 267.055L306.092 264.853C305.629 264.605 305.277 264.19 305.108 263.692C305.051 263.478 305.041 263.255 305.077 263.037C305.114 262.819 305.197 262.611 305.32 262.427C305.413 262.259 305.542 262.114 305.699 262.002C305.855 261.891 306.034 261.816 306.224 261.783C306.649 261.743 307.074 261.86 307.42 262.11L311.197 264.491L312.046 263.143L308.556 260.941C308.008 260.596 307.672 260.211 307.552 259.792C307.494 259.58 307.483 259.358 307.521 259.142C307.558 258.925 307.642 258.719 307.767 258.539C307.863 258.369 307.994 258.221 308.152 258.107C308.309 257.993 308.49 257.915 308.681 257.878C309.108 257.821 309.54 257.93 309.889 258.184L313.666 260.567L314.515 259.217L310.651 256.778C309.996 256.317 309.186 256.133 308.396 256.266C308.029 256.342 307.682 256.496 307.378 256.716C307.074 256.937 306.821 257.22 306.634 257.546C306.093 258.404 306.019 259.249 306.414 260.081V260.081Z" fill="#353643"/>
</g>
<g id="Food data">
<g id="Tuk_1">
<circle id="Tuk_bg" cx="48.3206" cy="268.321" r="18.9986" stroke="#FF8F62" stroke-width="0.64402"/>
</g>
<g id="Bilk_1">
<circle id="Bilk_bg" cx="19.3206" cy="205.321" r="18.9986" stroke="#FF8F62" stroke-width="0.64402"/>
</g>
<g id="Sach_1">
<circle id="Sach_bg" cx="21.3206" cy="142.321" r="18.9986" stroke="#FF8F62" stroke-width="0.64402"/>
</g>
<g id="Kcal_1">
<circle id="Kcal_bg" cx="48.3206" cy="79.3206" r="18.9986" stroke="#3DC383" stroke-width="0.64402"/>
</g>
</g>
</g>
<defs>
<filter id="filter0_d" x="-34" y="-38" width="426" height="426" filterUnits="userSpaceOnUse" color-interpolation-filters="sRGB">
<feFlood flood-opacity="0" result="BackgroundImageFix"/>
<feColorMatrix in="SourceAlpha" type="matrix" values="0 0 0 0 0 0 0 0 0 0 0 0 0 0 0 0 0 0 127 0"/>
<feOffset/>
<feGaussianBlur stdDeviation="40"/>
<feColorMatrix type="matrix" values="0 0 0 0 0 0 0 0 0 0 0 0 0 0 0 0 0 0 0.1 0"/>
<feBlend mode="normal" in2="BackgroundImageFix" result="effect1_dropShadow"/>
<feBlend mode="normal" in="SourceGraphic" in2="effect1_dropShadow" result="shape"/>
</filter>
<linearGradient id="paint0_linear" x1="176.378" y1="58.0077" x2="178.716" y2="336.432" gradientUnits="userSpaceOnUse">
<stop stop-color="#F8F8F8" stop-opacity="0.14"/>
<stop offset="0.395833" stop-color="#EEEEEE" stop-opacity="0.31"/>
<stop offset="1" stop-color="#F8F8F8" stop-opacity="0.31"/>
</linearGradient>
<clipPath id="clip0">
<rect width="359" height="343" fill="white"/>
</clipPath>
</defs>
</svg>
