<svg width="884" height="884" viewBox="0 0 884 884" fill="none" xmlns="http://www.w3.org/2000/svg">
<g id="carousel_mask_update 4 1" clip-path="url(#clip0)">
<g id="Img and bg">
<path id="Vector" fill-rule="evenodd" clip-rule="evenodd" d="M1039 -155H-151V1035H1039V-155ZM766 440C766 617.836 621.836 762 444 762C266.164 762 122 617.836 122 440C122 262.164 266.164 118 444 118C621.836 118 766 262.164 766 440ZM63.5005 631.5C79.7929 631.5 93.0005 618.292 93.0005 602C93.0005 585.708 79.7929 572.5 63.5005 572.5C47.2081 572.5 34.0005 585.708 34.0005 602C34.0005 618.292 47.2081 631.5 63.5005 631.5ZM60.0005 494C60.0005 510.292 46.7929 523.5 30.5005 523.5C14.2081 523.5 1.00049 510.292 1.00049 494C1.00049 477.708 14.2081 464.5 30.5005 464.5C46.7929 464.5 60.0005 477.708 60.0005 494ZM30.5005 415.5C46.7929 415.5 60.0005 402.292 60.0005 386C60.0005 369.708 46.7929 356.5 30.5005 356.5C14.2081 356.5 1.00049 369.708 1.00049 386C1.00049 402.292 14.2081 415.5 30.5005 415.5ZM94.0005 278C94.0005 294.292 80.7929 307.5 64.5005 307.5C48.2081 307.5 35.0005 294.292 35.0005 278C35.0005 261.708 48.2081 248.5 64.5005 248.5C80.7929 248.5 94.0005 261.708 94.0005 278Z" fill="#FDFDFD"/>
<g id="Img bg" filter="url(#filter0_d)">
<path id="Vector_2" d="M785 440C785 628.33 632.33 781 444 781C255.67 781 103 628.33 103 440C103 251.67 255.67 99 444 99C632.33 99 785 251.67 785 440Z" stroke="white" stroke-width="38"/>
</g>
<g id="Stroke">
<path id="Subtract" fill-rule="evenodd" clip-rule="evenodd" d="M680.046 101.102C590.735 38.8969 480.481 14.4602 373.252 33.105C266.023 51.7498 170.487 111.968 107.416 200.669C95.7595 217.062 85.3856 234.185 76.3298 251.884C75.7171 251.618 75.0935 251.372 74.4597 251.148C83.5805 233.301 94.0346 216.038 105.787 199.509C169.163 110.38 265.16 49.8697 372.91 31.1345C480.658 12.3995 591.446 36.9545 681.189 99.4606C770.933 161.966 832.373 257.37 852.157 364.931C871.939 472.493 848.463 583.515 786.834 673.862L785.182 672.734C846.514 582.824 869.877 472.336 850.19 365.294C830.502 258.25 769.357 163.306 680.046 101.102ZM51.7731 304.418C52.3702 304.718 52.9791 305 53.5989 305.259C53.4889 305.577 53.3794 305.896 53.2703 306.215C47.3903 323.389 42.6519 340.924 39.0823 358.702C38.4443 358.516 37.7971 358.35 37.1417 358.207C40.7263 340.378 45.4808 322.792 51.378 305.567C51.5092 305.183 51.6409 304.801 51.7731 304.418ZM29.7232 415.516C28.7415 432.121 28.756 448.826 29.7874 465.543C29.8692 465.542 29.9512 465.542 30.0332 465.542C30.6245 465.541 31.2117 465.558 31.7942 465.592C30.7551 448.864 30.7392 432.147 31.7259 415.529C31.474 415.537 31.2212 415.54 30.9677 415.54C30.5508 415.541 30.1359 415.533 29.7232 415.516ZM51.851 575.808C45.8589 558.506 40.9912 540.746 37.311 522.63C37.962 522.463 38.6043 522.274 39.2367 522.064C42.8985 540.128 47.7467 557.837 53.7181 575.089C53.0855 575.308 52.4628 575.547 51.851 575.808ZM74.623 629.168C104.109 686.739 146.922 737.166 200.234 775.86C288.743 840.1 399.031 866.805 507.125 850.171C615.218 833.537 712.375 774.905 777.474 687.025L775.866 685.835C711.081 773.291 614.393 831.64 506.821 848.194C399.248 864.749 289.49 838.171 201.408 774.241C148.372 735.747 105.776 685.585 76.434 628.316C75.8419 628.62 75.2378 628.904 74.623 629.168Z" fill="url(#paint0_linear)"/>
</g>
</g>
<g id="Elements rotation group">
<animateTransform
  attributeName="transform"
  attributeType="XML"
  type="rotate"
  from="35 442 442"
  to="0 442 442"
  dur="1.5s"
  start="2s"
  id="rotate"
/>
<path id="Text bottom" fill-rule="evenodd" clip-rule="evenodd" d="M293.658 813.75L293.054 824.49L299.962 816.267L302.075 817.111L293.291 827.306L290.958 826.374L291.529 812.899L293.658 813.75ZM299.203 831.102C299.658 830.954 300.108 830.627 300.553 830.119L300.701 829.981L300.163 820.257L302.176 821.005L302.441 828.145L306.9 822.761L308.862 823.49L302.352 831.079C300.723 832.982 298.951 833.513 297.037 832.673L297.67 830.949C298.237 831.198 298.748 831.25 299.203 831.102ZM309.335 823.645L315.694 825.857L315.268 827.095L309.338 831.308L313.514 832.76L312.912 834.514L306.209 832.183L306.634 830.945L312.582 826.738L308.732 825.399L309.335 823.645ZM319.14 826.99L316.316 835.633L314.451 835.016L317.274 826.373L319.14 826.99ZM321.993 827.922L322.386 835.286L326.838 829.438L328.886 830.079L322.818 837.707L320.648 837.028L319.944 827.281L321.993 827.922ZM329.856 831.55C331.005 830.921 332.22 830.791 333.502 831.16C334.796 831.531 335.763 832.289 336.404 833.431C337.045 834.574 337.182 835.793 336.815 837.088C336.449 838.383 335.694 839.346 334.551 839.976C333.409 840.607 332.19 840.736 330.896 840.364C329.614 839.996 328.649 839.239 328.003 838.095C327.356 836.95 327.217 835.731 327.584 834.436C327.95 833.141 328.707 832.179 329.856 831.55ZM329.472 834.978C329.247 835.772 329.323 836.506 329.698 837.182C330.075 837.857 330.647 838.306 331.416 838.526C332.186 838.748 332.907 838.671 333.58 838.297C334.253 837.923 334.702 837.339 334.927 836.545C335.152 835.752 335.076 835.018 334.7 834.342C334.324 833.666 333.751 833.218 332.982 832.997C332.213 832.776 331.492 832.853 330.819 833.227C330.145 833.601 329.697 834.185 329.472 834.978ZM340.065 833.238L340.803 840.576L344.974 834.524L346.913 835.031L348.906 835.505L350.039 842.562L353.807 836.672L355.842 837.156L350.307 845.487C348.923 847.575 347.229 848.319 345.228 847.719L345.646 845.93C346.239 846.109 346.753 846.096 347.186 845.894C347.619 845.692 348.026 845.312 348.405 844.754L348.535 844.598L346.872 835.315L341.348 842.975L339.149 842.399L337.988 832.694L340.065 833.238ZM362.667 838.615L362.415 839.9C363.339 839.034 364.478 838.737 365.834 839.009C367.058 839.254 368.015 839.919 368.704 841.004C369.392 842.088 369.608 843.285 369.351 844.594C369.091 845.915 368.438 846.941 367.393 847.671C366.347 848.401 365.212 848.644 363.987 848.398C362.632 848.126 361.69 847.418 361.162 846.273L360.211 851.11L358.285 850.724L360.742 838.229L362.667 838.615ZM361.79 843.078C361.629 843.898 361.762 844.633 362.191 845.282C362.619 845.931 363.237 846.336 364.046 846.499C364.854 846.661 365.579 846.525 366.22 846.091C366.862 845.656 367.263 845.029 367.425 844.208C367.586 843.386 367.453 842.652 367.024 842.003C366.596 841.354 365.977 840.948 365.169 840.786C364.36 840.624 363.636 840.761 362.995 841.194C362.353 841.629 361.952 842.256 361.79 843.078ZM372.216 841.645C373.289 840.896 374.483 840.634 375.796 840.861C377.123 841.091 378.166 841.739 378.926 842.805C379.686 843.873 379.954 845.069 379.73 846.397C379.505 847.725 378.859 848.764 377.792 849.515C376.724 850.266 375.528 850.527 374.202 850.298C372.888 850.07 371.848 849.423 371.081 848.355C370.315 847.287 370.045 846.089 370.269 844.761C370.493 843.434 371.142 842.395 372.216 841.645ZM372.204 845.096C372.067 845.91 372.221 846.632 372.668 847.263C373.115 847.894 373.732 848.277 374.52 848.414C375.309 848.55 376.017 848.396 376.646 847.95C377.274 847.505 377.657 846.876 377.795 846.062C377.932 845.25 377.777 844.527 377.331 843.896C376.884 843.265 376.267 842.881 375.478 842.745C374.69 842.609 373.982 842.763 373.353 843.208C372.724 843.653 372.341 844.283 372.204 845.096ZM383.793 842.4L383.569 843.911C384.226 842.87 385.231 842.452 386.586 842.658L386.274 844.764C385.538 844.603 384.864 844.682 384.254 845C383.643 845.318 383.269 845.94 383.132 846.863L382.46 851.399L380.519 851.104L381.852 842.105L383.793 842.4ZM387.86 844.172C388.854 843.373 389.97 843.054 391.208 843.217C392.578 843.397 393.565 844.041 394.169 845.148L394.332 843.867L396.279 844.123L395.126 853.148L393.18 852.892L393.346 851.592C392.482 852.519 391.365 852.892 389.995 852.712C388.757 852.549 387.759 851.95 386.999 850.914C386.239 849.878 385.944 848.698 386.113 847.374C386.284 846.039 386.866 844.971 387.86 844.172ZM389.135 845.67C388.524 846.147 388.166 846.8 388.059 847.63C387.954 848.461 388.136 849.185 388.607 849.804C389.078 850.423 389.722 850.785 390.539 850.893C391.356 851.001 392.07 850.816 392.681 850.34C393.292 849.863 393.65 849.21 393.756 848.379C393.862 847.549 393.68 846.825 393.209 846.206C392.738 845.587 392.094 845.224 391.277 845.117C390.459 845.009 389.746 845.194 389.135 845.67ZM397.13 848.81C397.264 847.47 397.816 846.387 398.788 845.561C399.76 844.734 400.866 844.385 402.108 844.514C403.482 844.656 404.487 845.273 405.121 846.363L405.611 841.456L407.564 841.658L406.298 854.334L404.345 854.132L404.475 852.828C403.637 853.778 402.531 854.181 401.157 854.039C399.915 853.91 398.9 853.339 398.112 852.324C397.325 851.309 396.997 850.138 397.13 848.81ZM399.689 851.17C400.177 851.776 400.831 852.121 401.651 852.206C402.47 852.291 403.179 852.087 403.776 851.594C404.374 851.101 404.714 850.438 404.797 849.605C404.88 848.771 404.678 848.052 404.19 847.446C403.703 846.841 403.049 846.496 402.229 846.411C401.409 846.326 400.701 846.53 400.104 847.023C399.506 847.517 399.166 848.179 399.083 849.012C399 849.845 399.202 850.565 399.689 851.17ZM408.196 849.934C408.296 848.579 408.836 847.48 409.817 846.637C410.797 845.795 411.969 845.426 413.335 845.533C414.216 845.601 415.004 845.876 415.697 846.355C416.391 846.836 416.893 847.447 417.202 848.188L415.444 849.037C415.271 848.586 414.985 848.22 414.587 847.94C414.188 847.659 413.717 847.498 413.173 847.455C412.376 847.393 411.688 847.614 411.11 848.116C410.532 848.619 410.213 849.276 410.153 850.086C410.093 850.897 410.312 851.595 410.809 852.182C411.306 852.768 411.954 853.092 412.751 853.154C413.283 853.196 413.772 853.106 414.22 852.885C414.668 852.665 415.016 852.351 415.265 851.944L416.879 853.037C416.439 853.734 415.84 854.265 415.084 854.632C414.328 854.999 413.508 855.149 412.627 855.08C411.261 854.974 410.156 854.425 409.313 853.435C408.468 852.444 408.096 851.277 408.196 849.934ZM418.997 847.315C419.938 846.448 421.11 846.053 422.514 846.128C423.845 846.199 424.914 846.725 425.72 847.703C426.526 848.682 426.896 849.838 426.829 851.172C426.819 851.378 426.781 851.649 426.716 851.985L419.492 851.598C419.602 852.297 419.909 852.845 420.41 853.242C420.912 853.64 421.538 853.859 422.289 853.899C423.329 853.955 424.128 853.621 424.687 852.898L426.255 853.929C425.293 855.203 423.935 855.792 422.181 855.698C420.704 855.619 419.535 855.103 418.672 854.152C417.81 853.2 417.413 852.033 417.483 850.652C417.551 849.295 418.055 848.183 418.997 847.315ZM419.554 849.997L424.89 850.284C424.794 849.537 424.516 848.963 424.057 848.562C423.598 848.161 423.048 847.943 422.407 847.909C421.681 847.87 421.065 848.037 420.562 848.411C420.057 848.785 419.722 849.314 419.554 849.997ZM433.358 847.959C434.254 847.051 435.327 846.607 436.575 846.628C437.956 846.65 439.009 847.177 439.735 848.209L439.752 846.916L441.714 846.949L441.596 856.05L439.634 856.018L439.65 854.707C438.898 855.727 437.832 856.225 436.451 856.203C435.203 856.182 434.142 855.7 433.271 854.757C432.398 853.815 431.971 852.676 431.988 851.341C432.005 849.994 432.462 848.866 433.358 847.959ZM434.795 849.302C434.243 849.846 433.961 850.536 433.95 851.373C433.94 852.21 434.203 852.91 434.741 853.471C435.279 854.032 435.96 854.319 436.784 854.333C437.608 854.346 438.296 854.081 438.848 853.538C439.4 852.995 439.682 852.304 439.692 851.467C439.704 850.63 439.44 849.931 438.902 849.37C438.364 848.809 437.683 848.521 436.859 848.507C436.035 848.494 435.348 848.759 434.795 849.302ZM452.586 853.349C452.58 853.058 452.408 852.824 452.071 852.648C451.734 852.472 451.325 852.325 450.844 852.206C450.362 852.087 449.878 851.947 449.389 851.786C448.901 851.625 448.487 851.35 448.145 850.962C447.803 850.574 447.626 850.076 447.613 849.469C447.595 848.632 447.899 847.953 448.524 847.431C449.149 846.91 449.933 846.641 450.878 846.624C451.629 846.61 452.302 846.765 452.896 847.088C453.491 847.411 453.952 847.867 454.28 848.456L452.647 849.414C452.317 848.728 451.74 848.393 450.917 848.408C450.541 848.415 450.228 848.502 449.977 848.671C449.726 848.839 449.604 849.081 449.611 849.396C449.617 849.7 449.789 849.937 450.126 850.107C450.463 850.277 450.872 850.421 451.353 850.54C451.834 850.658 452.319 850.798 452.807 850.959C453.295 851.12 453.71 851.401 454.052 851.802C454.394 852.202 454.572 852.712 454.585 853.331C454.604 854.204 454.282 854.896 453.621 855.406C452.959 855.916 452.12 856.18 451.102 856.198C450.206 856.214 449.433 856.04 448.783 855.676C448.132 855.312 447.655 854.798 447.35 854.136L449.018 853.122C449.352 853.99 450.034 854.415 451.063 854.396C452.093 854.377 452.601 854.028 452.586 853.349ZM455.211 851.338C455.152 849.98 455.55 848.825 456.405 847.873C457.261 846.922 458.391 846.417 459.795 846.36C461.126 846.306 462.239 846.729 463.133 847.628C464.027 848.528 464.504 849.644 464.562 850.978C464.571 851.184 464.559 851.458 464.525 851.8L457.299 852.092C457.475 852.778 457.831 853.295 458.367 853.644C458.904 853.992 459.547 854.151 460.298 854.121C461.338 854.079 462.103 853.672 462.591 852.898L464.248 853.779C463.41 855.137 462.113 855.852 460.358 855.923C458.882 855.982 457.67 855.579 456.722 854.712C455.775 853.846 455.271 852.721 455.211 851.338ZM462.549 850.276C462.383 849.542 462.053 848.996 461.559 848.64C461.064 848.284 460.496 848.118 459.855 848.144C459.128 848.173 458.532 848.398 458.065 848.817C457.598 849.237 457.314 849.796 457.211 850.492L462.549 850.276ZM464.798 848.266L464.679 846.376L466.057 846.294L466.046 846.112C465.968 844.864 466.256 843.895 466.91 843.205C467.565 842.516 468.566 842.174 469.914 842.178L470.032 844.068C468.597 844.02 467.921 844.662 468.005 845.995L468.016 846.177L470.157 846.049L470.275 847.939L468.135 848.067L468.587 855.263L466.628 855.38L466.176 848.184L464.798 848.266ZM472.568 842.22L473.188 849.862L476.377 845.576L478.768 845.39L475.144 850.148L479.649 854.453L477.313 854.636L473.259 850.733L473.599 854.926L471.643 855.078L470.612 842.373L472.568 842.22ZM479.853 850.903L479.274 845.343L481.226 845.145L481.785 850.507C481.855 851.183 482.09 851.684 482.489 852.01C482.889 852.335 483.401 852.466 484.028 852.403C484.715 852.333 485.247 852.063 485.624 851.592C486.001 851.121 486.144 850.444 486.052 849.562L485.546 844.708L487.498 844.51L488.441 853.567L486.49 853.765L486.369 852.605C485.875 853.595 484.99 854.154 483.712 854.284C482.676 854.388 481.804 854.141 481.096 853.542C480.388 852.943 479.974 852.063 479.853 850.903ZM489.406 848.878C489.233 847.53 489.54 846.344 490.33 845.32C491.12 844.297 492.194 843.699 493.552 843.528C494.429 843.417 495.255 843.528 496.031 843.858C496.806 844.189 497.419 844.687 497.872 845.352L496.321 846.538C496.061 846.131 495.708 845.83 495.261 845.635C494.815 845.44 494.322 845.377 493.781 845.445C492.988 845.545 492.359 845.9 491.894 846.509C491.429 847.118 491.249 847.826 491.353 848.633C491.457 849.44 491.811 850.08 492.416 850.555C493.02 851.03 493.719 851.217 494.512 851.117C495.041 851.05 495.502 850.864 495.896 850.557C496.29 850.25 496.568 849.873 496.73 849.424L498.529 850.17C498.238 850.941 497.759 851.583 497.092 852.095C496.426 852.607 495.654 852.919 494.777 853.03C493.419 853.201 492.228 852.886 491.202 852.085C490.177 851.284 489.578 850.215 489.406 848.878ZM499.992 839.218L500.722 843.97C501.167 842.958 502.024 842.356 503.293 842.164C504.323 842.009 505.205 842.213 505.942 842.777C506.678 843.342 507.135 844.2 507.312 845.352L508.161 850.879L506.221 851.172L505.402 845.843C505.299 845.171 505.04 844.682 504.625 844.376C504.211 844.07 503.692 843.964 503.07 844.058C502.387 844.161 501.869 844.458 501.515 844.947C501.161 845.436 501.052 846.119 501.187 846.995L501.928 851.82L499.989 852.113L498.052 839.511L499.992 839.218ZM508.715 846.185C508.476 844.858 508.708 843.664 509.415 842.6C510.12 841.537 511.087 840.896 512.315 840.677C513.674 840.435 514.808 840.751 515.717 841.625L515.487 840.353L517.418 840.008L519.039 848.971L517.108 849.315L516.874 848.024C516.331 849.17 515.379 849.863 514.021 850.106C512.793 850.324 511.661 850.054 510.625 849.295C509.589 848.536 508.953 847.499 508.715 846.185ZM513.991 848.205C514.801 848.061 515.426 847.669 515.864 847.03C516.302 846.39 516.446 845.658 516.297 844.834C516.148 844.009 515.756 843.373 515.122 842.925C514.487 842.477 513.764 842.325 512.953 842.469C512.142 842.614 511.518 843.006 511.08 843.645C510.642 844.285 510.498 845.016 510.646 845.841C510.796 846.665 511.188 847.301 511.823 847.75C512.457 848.198 513.18 848.349 513.991 848.205ZM521.187 839.245L521.492 840.745C521.754 839.54 522.556 838.804 523.898 838.535L524.32 840.623C523.575 840.723 522.97 841.027 522.505 841.536C522.04 842.044 521.9 842.756 522.086 843.673L522.999 848.171L521.076 848.557L519.264 839.63L521.187 839.245ZM530.161 837.346L534.215 843.513L535.096 836.203L537.185 835.719L535.81 845.388L533.599 845.9L528.073 837.829L530.161 837.346ZM544.864 843.528L542.451 834.367L544.349 833.872L546.762 843.033C547.405 845.476 546.502 846.923 544.055 847.373L543.572 845.541C544.173 845.447 544.579 845.241 544.789 844.922C545 844.604 545.025 844.139 544.864 843.528ZM556.736 835.165C556.335 833.878 556.419 832.663 556.988 831.52C557.558 830.378 558.438 829.622 559.629 829.253C560.947 828.845 562.111 829.018 563.12 829.774L561.65 825.06L563.523 824.479L567.319 836.655L565.445 837.236L565.055 835.983C564.658 837.188 563.799 837.994 562.481 838.402C561.29 838.771 560.134 838.643 559.014 838.017C557.893 837.392 557.134 836.441 556.736 835.165ZM563.931 835.121C564.287 834.432 564.34 833.688 564.09 832.887C563.841 832.087 563.374 831.504 562.689 831.137C562.004 830.771 561.269 830.71 560.482 830.953C559.696 831.197 559.125 831.663 558.769 832.351C558.413 833.041 558.36 833.785 558.609 834.585C558.859 835.385 559.325 835.969 560.01 836.335C560.695 836.702 561.431 836.763 562.217 836.519C563.004 836.276 563.575 835.81 563.931 835.121ZM568.21 826.755L568.586 827.859C568.846 826.784 569.583 826.039 570.799 825.627C571.784 825.293 572.689 825.339 573.512 825.765C574.335 826.192 574.935 826.956 575.311 828.06L577.116 833.354L575.259 833.984L573.519 828.88C573.3 828.236 572.959 827.8 572.497 827.571C572.036 827.343 571.507 827.33 570.911 827.532C570.257 827.754 569.799 828.137 569.538 828.681C569.275 829.225 569.288 829.917 569.574 830.756L571.148 835.378L569.292 836.008L566.352 827.385L568.21 826.755ZM576.841 828.629C576.373 827.364 576.416 826.138 576.971 824.95C577.525 823.762 578.427 822.938 579.677 822.477C580.938 822.013 582.163 822.054 583.352 822.6C584.541 823.146 585.369 824.052 585.837 825.316C586.305 826.581 586.264 827.806 585.716 828.992C585.167 830.178 584.262 831.003 583.001 831.467C581.751 831.927 580.529 831.885 579.335 831.342C578.14 830.798 577.308 829.893 576.841 828.629ZM583.945 828.207C584.266 827.506 584.284 826.769 583.997 825.994C583.711 825.219 583.217 824.669 582.516 824.344C581.815 824.02 581.09 823.996 580.34 824.272C579.59 824.548 579.055 825.037 578.734 825.737C578.412 826.439 578.394 827.176 578.681 827.951C578.968 828.726 579.46 829.275 580.161 829.6C580.862 829.925 581.588 829.949 582.338 829.673C583.087 829.397 583.623 828.908 583.945 828.207ZM587.268 819.877L587.679 820.889C587.884 819.85 588.519 819.114 589.585 818.683C590.662 818.246 591.639 818.368 592.516 819.048C592.716 817.932 593.394 817.14 594.549 816.672C595.503 816.285 596.397 816.284 597.232 816.666C598.067 817.049 598.696 817.763 599.122 818.81L601.25 824.043L599.433 824.78L597.353 819.665C597.116 819.079 596.785 818.685 596.363 818.483C595.941 818.28 595.478 818.281 594.973 818.486C594.412 818.713 594.042 819.079 593.862 819.585C593.682 820.09 593.742 820.714 594.044 821.457L595.966 826.183L594.148 826.92L592.069 821.805C591.832 821.22 591.51 820.822 591.105 820.613C590.699 820.404 590.244 820.401 589.74 820.606C589.19 820.828 588.817 821.199 588.622 821.716C588.427 822.235 588.48 822.859 588.777 823.59L590.699 828.317L588.881 829.053L585.451 820.613L587.268 819.877ZM554.473 837.737L556.286 838.212C555.784 839.728 554.689 840.723 552.999 841.198C551.577 841.597 550.306 841.484 549.185 840.858C548.065 840.233 547.316 839.254 546.939 837.922C546.569 836.613 546.69 835.396 547.303 834.272C547.916 833.147 548.898 832.395 550.251 832.015C551.533 831.655 552.712 831.81 553.788 832.48C554.865 833.149 555.584 834.126 555.948 835.412C556.004 835.611 556.055 835.88 556.101 836.22L549.143 838.174C549.471 838.801 549.936 839.222 550.538 839.438C551.14 839.654 551.803 839.66 552.525 839.457C553.527 839.176 554.177 838.602 554.473 837.737ZM552.49 833.828C551.927 833.595 551.336 833.565 550.719 833.738C550.02 833.935 549.491 834.291 549.134 834.808C548.777 835.324 548.629 835.933 548.689 836.636L553.829 835.193C553.499 834.516 553.053 834.061 552.49 833.828ZM542.105 832.659C541.802 832.481 541.607 832.228 541.52 831.899C541.433 831.57 541.478 831.254 541.656 830.95C541.832 830.647 542.083 830.452 542.411 830.367C542.739 830.281 543.055 830.328 543.359 830.505C543.662 830.684 543.858 830.937 543.945 831.266C544.031 831.595 543.986 831.911 543.81 832.215C543.633 832.518 543.38 832.712 543.053 832.798C542.724 832.884 542.409 832.838 542.105 832.659ZM517.863 836.196L519.822 835.803L521.03 836.917L521.692 835.429L523.651 835.036L522.271 837.913L520.258 838.317L517.863 836.196ZM459.716 842.901L462.077 842.806L460.26 845.339L458.372 845.416L459.716 842.901ZM447.769 843.184L449.767 843.148L450.759 844.459L451.675 843.113L453.674 843.077L451.803 845.66L449.75 845.698L447.769 843.184ZM352.335 832.582L354.636 833.129L352.201 835.074L350.36 834.636L352.335 832.582ZM318.63 825.385C318.308 825.279 318.068 825.068 317.909 824.754C317.75 824.44 317.723 824.121 317.828 823.799C317.934 823.476 318.14 823.234 318.448 823.075C318.755 822.914 319.076 822.89 319.41 823C319.744 823.111 319.988 823.322 320.141 823.635C320.294 823.947 320.318 824.265 320.212 824.587C320.107 824.91 319.897 825.151 319.584 825.309C319.271 825.467 318.953 825.492 318.63 825.385ZM310.878 820.331L312.768 820.989L313.247 822.561L314.572 821.616L316.463 822.274L313.814 824.048L311.872 823.372L310.878 820.331ZM305.937 818.524L308.155 819.348L305.5 820.98L303.726 820.321L305.937 818.524Z" fill="#353643"/>
<path id="Text top" fill-rule="evenodd" clip-rule="evenodd" d="M248.782 76.7184L244.422 68.2114L246.26 67.2694L250.62 75.7764L248.782 76.7184ZM243.461 64.4074L245.588 63.3174L245.686 66.2744L243.916 67.1814L243.461 64.4074ZM240.833 68.4654C240.517 68.6324 240.183 68.6604 239.83 68.5504C239.477 68.4414 239.218 68.2284 239.052 67.9124C238.885 67.5974 238.854 67.2644 238.958 66.9144C239.062 66.5644 239.277 66.3034 239.605 66.1314C239.932 65.9594 240.269 65.9294 240.616 66.0414C240.964 66.1544 241.22 66.3684 241.386 66.6844C241.553 67.0004 241.581 67.3344 241.471 67.6874C241.362 68.0404 241.149 68.2994 240.833 68.4654ZM239.236 70.7284L240.305 72.6934C239.586 73.0264 239.071 73.5204 238.76 74.1754C238.449 74.8304 238.528 75.5894 238.997 76.4514L241.299 80.6834L239.485 81.6694L234.918 73.2724L236.732 72.2864L237.499 73.6974C237.392 72.4054 237.971 71.4164 239.236 70.7284ZM236.162 82.1264C235.798 83.4524 235.002 84.4664 233.775 85.1704C232.559 85.8674 231.284 86.0404 229.951 85.6884C228.618 85.3364 227.599 84.5464 226.896 83.3194C226.192 82.0914 226.024 80.8144 226.394 79.4854C226.764 78.1574 227.557 77.1444 228.773 76.4474C230 75.7434 231.278 75.5694 232.605 75.9244C233.933 76.2794 234.949 77.0704 235.652 78.2984C236.356 79.5254 236.526 80.8014 236.162 82.1264ZM233.861 79.3254C233.43 78.5734 232.823 78.0914 232.04 77.8784C231.257 77.6664 230.501 77.7704 229.771 78.1884C229.042 78.6064 228.571 79.2074 228.358 79.9904C228.146 80.7734 228.256 81.5404 228.687 82.2924C229.118 83.0444 229.725 83.5264 230.508 83.7384C231.291 83.9504 232.047 83.8474 232.777 83.4294C233.507 83.0104 233.977 82.4094 234.189 81.6274C234.402 80.8434 234.292 80.0774 233.861 79.3254ZM226.123 89.3834L218.941 77.4174L220.711 76.3554L227.894 88.3214L226.123 89.3834ZM219.159 82.3984L224.247 90.4904L222.499 91.5894L221.766 90.4244C221.684 91.7554 221.029 92.8074 219.799 93.5804C218.687 94.2794 217.478 94.4634 216.172 94.1334C214.865 93.8034 213.839 93.0454 213.093 91.8584C212.34 90.6604 212.099 89.4044 212.371 88.0884C212.643 86.7734 213.335 85.7664 214.446 85.0674C215.676 84.2944 216.905 84.1534 218.133 84.6464L217.411 83.4974L219.159 82.3984ZM215.769 86.5614C215.035 87.0234 214.581 87.6524 214.403 88.4484C214.227 89.2444 214.372 90.0144 214.84 90.7584C215.308 91.5034 215.94 91.9684 216.734 92.1544C217.528 92.3404 218.292 92.2024 219.026 91.7404C219.759 91.2794 220.215 90.6514 220.392 89.8544C220.569 89.0584 220.423 88.2874 219.955 87.5434C219.487 86.7994 218.855 86.3344 218.062 86.1484C217.267 85.9624 216.503 86.1004 215.769 86.5614ZM213.7 97.2034L207.991 95.6974L210.437 99.3744L208.718 100.517L201.306 89.3754L203.025 88.2314L207.483 94.9334L208.231 89.3614L210.332 87.9634L209.424 94.1924L215.754 95.8384L213.7 97.2034ZM201.501 105.554L200.785 104.561C200.853 105.723 200.339 106.698 199.243 107.489C198.354 108.13 197.431 108.364 196.473 108.191C195.515 108.018 194.678 107.435 193.962 106.443L190.529 101.683L192.203 100.474L195.514 105.064C195.931 105.643 196.407 105.975 196.941 106.062C197.475 106.148 198.01 105.998 198.548 105.61C199.137 105.185 199.48 104.658 199.577 104.03C199.674 103.403 199.45 102.711 198.906 101.956L195.908 97.8014L197.583 96.5944L203.176 104.346L201.501 105.554ZM193.059 110.225C192.873 111.587 192.219 112.698 191.095 113.557C189.982 114.409 188.741 114.749 187.373 114.576C186.005 114.404 184.891 113.755 184.032 112.632C183.172 111.509 182.837 110.264 183.028 108.898C183.218 107.533 183.871 106.424 184.984 105.572C186.108 104.712 187.351 104.37 188.713 104.547C190.076 104.724 191.188 105.374 192.048 106.497C192.908 107.62 193.245 108.863 193.059 110.225ZM191.038 109.99C191.145 109.186 190.935 108.44 190.408 107.752C189.881 107.064 189.216 106.666 188.412 106.559C187.608 106.452 186.872 106.655 186.204 107.166C185.536 107.677 185.148 108.335 185.041 109.139C184.935 109.943 185.145 110.689 185.672 111.377C186.198 112.065 186.864 112.463 187.668 112.57C188.471 112.677 189.208 112.474 189.875 111.963C190.543 111.452 190.931 110.794 191.038 109.99ZM184.047 118.751L183.178 117.683C183.258 119.015 182.735 120.139 181.608 121.056C180.59 121.884 179.413 122.214 178.075 122.045C176.738 121.876 175.627 121.247 174.743 120.16C173.85 119.063 173.459 117.845 173.569 116.506C173.679 115.167 174.244 114.084 175.262 113.255C176.389 112.338 177.592 112.05 178.871 112.389L175.601 108.371L177.202 107.068L185.648 117.448L184.047 118.751ZM181.744 117.285C181.823 116.473 181.585 115.726 181.03 115.044C180.476 114.362 179.792 113.977 178.982 113.889C178.171 113.801 177.429 114.031 176.757 114.578C176.084 115.125 175.709 115.804 175.63 116.616C175.551 117.428 175.789 118.175 176.344 118.857C176.899 119.539 177.582 119.924 178.393 120.012C179.204 120.1 179.946 119.87 180.618 119.323C181.29 118.776 181.666 118.097 181.744 117.285ZM176.045 122.783L177.313 124.265L171.651 129.115L170.755 128.069L170.099 120.425L166.846 123.211L165.578 121.73L170.95 117.129L171.846 118.174L172.516 125.806L176.045 122.783ZM163.395 118.565L164.993 117.197L166.67 117.598L166.517 115.891L168.115 114.524L168.316 117.874L166.676 119.28L163.395 118.565ZM162.321 124.608L163.853 123.224L170.263 130.315L168.731 131.699L167.808 130.679C167.958 132.003 167.493 133.153 166.415 134.127C165.442 135.008 164.283 135.398 162.939 135.299C161.595 135.199 160.453 134.63 159.513 133.59C158.564 132.54 158.11 131.344 158.151 130.001C158.191 128.659 158.699 127.547 159.673 126.667C160.751 125.693 161.937 125.342 163.231 125.615L162.321 124.608ZM161.234 127.91C160.591 128.491 160.251 129.189 160.215 130.004C160.178 130.819 160.455 131.552 161.044 132.205C161.634 132.857 162.336 133.206 163.15 133.252C163.965 133.298 164.693 133.03 165.336 132.449C165.979 131.867 166.319 131.169 166.356 130.355C166.392 129.54 166.116 128.806 165.526 128.154C164.937 127.502 164.234 127.153 163.42 127.107C162.606 127.061 161.877 127.329 161.234 127.91ZM161.04 138.745L155.156 138.249L158.201 141.447L156.706 142.871L147.479 133.177L148.975 131.754L154.524 137.584L154.297 131.966L156.125 130.227L156.308 136.519L162.826 137.045L161.04 138.745ZM148.906 143.858C149.061 144.009 149.249 144.228 149.469 144.513L144.164 149.967C144.791 150.364 145.435 150.502 146.096 150.38C146.757 150.258 147.363 149.914 147.914 149.347C148.678 148.562 148.968 147.698 148.784 146.753L150.683 146.227C151.021 147.872 150.546 149.357 149.257 150.681C148.173 151.796 146.957 152.365 145.61 152.387C144.263 152.411 143.069 151.915 142.027 150.902C141.004 149.907 140.476 148.736 140.444 147.389C140.412 146.042 140.911 144.839 141.942 143.779C142.92 142.774 144.074 142.292 145.403 142.332C146.734 142.372 147.901 142.881 148.906 143.858ZM143.272 145.099C142.738 145.647 142.445 146.251 142.391 146.909C142.337 147.568 142.521 148.201 142.945 148.808L146.864 144.779C146.209 144.338 145.564 144.159 144.93 144.245C144.296 144.33 143.743 144.615 143.272 145.099ZM144.432 155.265L143.045 156.795L138.754 152.903C138.263 152.459 137.772 152.237 137.28 152.238C136.788 152.24 136.35 152.453 135.965 152.877C135.536 153.35 135.352 153.866 135.411 154.427C135.47 154.988 135.811 155.551 136.434 156.116L140.4 159.712L139.013 161.242L134.722 157.351C134.231 156.906 133.745 156.676 133.267 156.664C132.788 156.651 132.356 156.857 131.971 157.282C131.551 157.745 131.367 158.266 131.418 158.845C131.469 159.425 131.801 159.993 132.415 160.549L136.38 164.145L134.993 165.674L127.912 159.253L129.299 157.724L130.149 158.494C129.87 157.417 130.138 156.429 130.951 155.532C131.773 154.625 132.754 154.293 133.894 154.535C133.576 153.387 133.858 152.327 134.739 151.354C135.467 150.551 136.313 150.14 137.278 150.12C138.242 150.1 139.163 150.488 140.042 151.284L144.432 155.265ZM132.255 168.922L131.202 168.035C131.529 169.328 131.225 170.53 130.289 171.641C129.443 172.645 128.347 173.188 127.002 173.271C125.657 173.354 124.449 172.944 123.376 172.041C122.294 171.129 121.683 170.005 121.542 168.67C121.401 167.334 121.753 166.165 122.599 165.16C123.535 164.05 124.663 163.542 125.983 163.637L124.945 162.762L126.275 161.184L133.585 167.343L132.255 168.922ZM129.72 167.911C129.646 167.099 129.272 166.409 128.6 165.842C127.927 165.275 127.185 165.025 126.372 165.089C125.559 165.154 124.873 165.518 124.314 166.181C123.756 166.844 123.514 167.581 123.587 168.393C123.661 169.206 124.034 169.895 124.707 170.462C125.379 171.028 126.122 171.28 126.935 171.215C127.748 171.15 128.434 170.786 128.992 170.123C129.551 169.461 129.793 168.723 129.72 167.911ZM120.284 162.36L121.886 160.459L122.553 163.672L121.272 165.193L120.284 162.36ZM120.695 170.952L119.21 172.8L122.787 175.674C123.095 175.922 123.372 176.03 123.618 175.998C123.863 175.967 124.103 175.821 124.338 175.56C124.572 175.298 124.843 174.956 125.151 174.533L126.596 175.694C125.755 177.046 124.938 177.845 124.145 178.09C123.351 178.335 122.467 178.066 121.494 177.284L117.917 174.41L116.815 175.781L115.265 174.536L116.367 173.164L114.757 171.871L115.574 169.879L117.66 171.555L119.145 169.707L120.695 170.952ZM121.919 181.557L120.65 183.186L113.111 177.309L114.38 175.68L121.919 181.557ZM110.636 174.265L112.105 172.38L113.44 175.021L112.218 176.589L110.636 174.265ZM107.984 182.152L104.627 182.167L105.889 180.485L107.613 180.511L107.093 178.879L108.355 177.196L109.28 180.423L107.984 182.152ZM105.918 188.912C107.272 188.676 108.526 188.966 109.681 189.783C110.836 190.599 111.528 191.686 111.756 193.041C111.984 194.397 111.689 195.652 110.872 196.806C110.062 197.952 108.979 198.645 107.621 198.886C106.264 199.128 105.007 198.841 103.853 198.024C102.698 197.207 102.008 196.118 101.784 194.758C101.56 193.397 101.852 192.145 102.662 191C103.479 189.845 104.564 189.149 105.918 188.912ZM103.778 194.388C103.915 195.188 104.337 195.838 105.045 196.338C105.753 196.839 106.506 197.021 107.305 196.883C108.105 196.746 108.747 196.334 109.233 195.647C109.719 194.961 109.893 194.218 109.756 193.418C109.619 192.619 109.197 191.969 108.489 191.468C107.782 190.968 107.028 190.786 106.229 190.923C105.429 191.06 104.787 191.472 104.301 192.159C103.815 192.846 103.641 193.589 103.778 194.388ZM101.979 198.873C102.214 200.049 101.981 201.161 101.281 202.211L99.7635 204.486L103.581 207.032L102.361 208.861L91.2275 201.435L93.9645 197.332C94.6645 196.282 95.5995 195.638 96.7695 195.399C97.9395 195.161 99.0445 195.389 100.084 196.082C101.113 196.768 101.745 197.698 101.979 198.873ZM99.9055 199.364C99.7725 198.77 99.4265 198.285 98.8635 197.911C98.3025 197.536 97.7215 197.402 97.1225 197.507C96.5235 197.613 96.0425 197.936 95.6825 198.477L94.1655 200.751L98.0465 203.34L99.5635 201.066C99.9235 200.525 100.038 199.958 99.9055 199.364ZM110.42 188.782C109.278 187.925 108.611 186.824 108.418 185.476C108.225 184.129 108.561 182.879 109.425 181.727C109.983 180.983 110.671 180.438 111.486 180.094C112.302 179.75 113.125 179.651 113.956 179.796L113.716 181.838C113.218 181.736 112.734 181.783 112.261 181.977C111.788 182.172 111.38 182.5 111.035 182.958C110.53 183.631 110.337 184.367 110.456 185.165C110.574 185.962 110.976 186.617 111.659 187.13C112.342 187.642 113.083 187.843 113.882 187.734C114.681 187.624 115.333 187.233 115.838 186.56C116.174 186.111 116.371 185.626 116.429 185.103C116.486 184.581 116.405 184.094 116.186 183.643L118.063 182.828C118.43 183.613 118.563 184.445 118.461 185.325C118.359 186.204 118.028 187.016 117.47 187.761C116.606 188.913 115.498 189.583 114.146 189.772C112.794 189.961 111.551 189.63 110.42 188.782ZM242.415 69.2544L246.866 77.7134L245.039 78.6744L240.587 70.2154L242.415 69.2544Z" fill="#353643"/>
<path id="Dot orange 2" d="M781.501 686C784.539 686 787.001 683.538 787.001 680.5C787.001 677.462 784.539 675 781.501 675C778.463 675 776.001 677.462 776.001 680.5C776.001 683.538 778.463 686 781.501 686Z" fill="#F6BEA8"/>
<path id="Dot orange 1" d="M816.501 265C819.539 265 822.001 262.538 822.001 259.5C822.001 256.462 819.539 254 816.501 254C813.463 254 811.001 256.462 811.001 259.5C811.001 262.538 813.463 265 816.501 265Z" fill="#F6BEA8"/>
<path id="Dot green 2" d="M799.501 233C802.539 233 805.001 230.538 805.001 227.5C805.001 224.462 802.539 222 799.501 222C796.463 222 794.001 224.462 794.001 227.5C794.001 230.538 796.463 233 799.501 233Z" fill="#91D4B4"/>
<path id="Dot green 1" d="M529.502 40C532.54 40 535.002 37.5376 535.002 34.5C535.002 31.4624 532.54 29 529.502 29C526.464 29 524.002 31.4624 524.002 34.5C524.002 37.5376 526.464 40 529.502 40Z" fill="#91D4B4"/>
</g>
<g id="Food_data">
<g id="Tuk_1">
<path id="Tuk_bg" d="M63.5 631.5C79.7924 631.5 93 618.292 93 602C93 585.708 79.7924 572.5 63.5 572.5C47.2076 572.5 34 585.708 34 602C34 618.292 47.2076 631.5 63.5 631.5Z" stroke="#FF8F62"/>
</g>
<g id="Bilk_1">
<path id="Bilk_bg" d="M31.5 523.5C47.7924 523.5 61 510.292 61 494C61 477.708 47.7924 464.5 31.5 464.5C15.2076 464.5 2 477.708 2 494C2 510.292 15.2076 523.5 31.5 523.5Z" stroke="#FF8F62"/>
</g>
<g id="Sach_1">
<path id="Sach_bg" d="M31.5 415.5C47.7924 415.5 61 402.292 61 386C61 369.708 47.7924 356.5 31.5 356.5C15.2076 356.5 2 369.708 2 386C2 402.292 15.2076 415.5 31.5 415.5Z" stroke="#FF8F62"/>
</g>
<g id="Kcal_1">
<path id="Kcal_bg" d="M64.5 307.5C80.7924 307.5 94 294.292 94 278C94 261.708 80.7924 248.5 64.5 248.5C48.2076 248.5 35 261.708 35 278C35 294.292 48.2076 307.5 64.5 307.5Z" stroke="#3DC383"/>
</g>
</g>
</g>
<defs>
<filter id="filter0_d" x="4.00049" y="0" width="880" height="880" filterUnits="userSpaceOnUse" color-interpolation-filters="sRGB">
<feFlood flood-opacity="0" result="BackgroundImageFix"/>
<feColorMatrix in="SourceAlpha" type="matrix" values="0 0 0 0 0 0 0 0 0 0 0 0 0 0 0 0 0 0 127 0"/>
<feOffset/>
<feGaussianBlur stdDeviation="40"/>
<feColorMatrix type="matrix" values="0 0 0 0 0 0 0 0 0 0 0 0 0 0 0 0 0 0 0.05 0"/>
<feBlend mode="normal" in2="BackgroundImageFix" result="effect1_dropShadow"/>
<feBlend mode="normal" in="SourceGraphic" in2="effect1_dropShadow" result="shape"/>
</filter>
<linearGradient id="paint0_linear" x1="391.456" y1="144.349" x2="508.579" y2="850.958" gradientUnits="userSpaceOnUse">
<stop stop-color="#F8F8F8" stop-opacity="0.14"/>
<stop offset="0.5" stop-color="#EEEEEE"/>
<stop offset="1" stop-color="#F8F8F8" stop-opacity="0.31"/>
</linearGradient>
<clipPath id="clip0">
<rect width="884" height="884" fill="white"/>
</clipPath>
</defs>
</svg>
