<svg width="884" height="840" viewBox="0 0 884 840" fill="none" xmlns="http://www.w3.org/2000/svg">
<g id="carousel_mask_update 4 1" clip-path="url(#clip0)">
<g id="Img and bg">
<path id="Vector" fill-rule="evenodd" clip-rule="evenodd" d="M1039 -175H-151V1015H1039V-175ZM766 420C766 597.836 621.836 742 444 742C266.164 742 122 597.836 122 420C122 242.164 266.164 98 444 98C621.836 98 766 242.164 766 420ZM63.5 611.5C79.7924 611.5 93 598.292 93 582C93 565.708 79.7924 552.5 63.5 552.5C47.2076 552.5 34 565.708 34 582C34 598.292 47.2076 611.5 63.5 611.5ZM60 474C60 490.292 46.7924 503.5 30.5 503.5C14.2076 503.5 1 490.292 1 474C1 457.708 14.2076 444.5 30.5 444.5C46.7924 444.5 60 457.708 60 474ZM30.5 395.5C46.7924 395.5 60 382.292 60 366C60 349.708 46.7924 336.5 30.5 336.5C14.2076 336.5 1 349.708 1 366C1 382.292 14.2076 395.5 30.5 395.5ZM94 258C94 274.292 80.7924 287.5 64.5 287.5C48.2076 287.5 35 274.292 35 258C35 241.708 48.2076 228.5 64.5 228.5C80.7924 228.5 94 241.708 94 258Z" fill="#FDFDFD"/>
<g id="Img bg" filter="url(#filter0_d)">
<path id="Vector_2" d="M785 420C785 608.33 632.33 761 444 761C255.67 761 103 608.33 103 420C103 231.67 255.67 79 444 79C632.33 79 785 231.67 785 420Z" stroke="white" stroke-width="38"/>
</g>
</g>
<g id="Elements rotation group">
<animateTransform
  attributeName="transform"
  attributeType="XML"
  type="rotate"
  from="35 477 410"
  to="0 477 410"
  dur="1.5s"
  start="2s"
  id="rotate"
/>
<g id="Stroke">
<path id="Subtract" fill-rule="evenodd" clip-rule="evenodd" d="M680.489 81.4114C591.26 19.0897 481.038 -5.49132 373.785 13.013C266.531 31.5174 170.917 91.6108 107.73 180.229C96.0516 196.607 85.6553 213.716 76.5764 231.403C75.964 231.136 75.3407 230.889 74.7072 230.665C83.8514 212.83 94.3281 195.58 106.102 179.067C169.595 90.0205 265.671 29.6362 373.445 11.0421C481.218 -7.55181 591.974 17.1483 681.635 79.7718C771.297 142.395 832.612 237.879 852.255 345.466C871.896 453.054 848.275 564.045 786.527 654.311L784.877 653.181C846.327 563.351 869.834 452.894 850.287 345.826C830.74 238.757 769.719 143.733 680.489 81.4114ZM51.9509 283.905C52.5476 284.206 53.1561 284.488 53.7756 284.748C53.6652 285.066 53.5552 285.385 53.4457 285.704C47.5432 302.87 42.7819 320.399 39.189 338.172C38.5513 337.985 37.9043 337.819 37.2491 337.675C40.857 319.85 45.6345 302.271 51.5543 285.053C51.686 284.67 51.8182 284.288 51.9509 283.905ZM29.7555 394.974C28.7521 411.578 28.7447 428.283 29.7542 445.001C29.836 445 29.918 445 30 445C30.5913 445 31.1785 445.018 31.761 445.053C30.7438 428.323 30.7498 411.606 31.7582 394.99C31.5063 394.997 31.2535 395 31 395C30.5831 395 30.1682 394.991 29.7555 394.974ZM51.6734 555.295C45.704 537.985 40.8595 520.219 37.2031 502.098C37.8543 501.932 38.4968 501.743 39.1295 501.534C42.7676 519.603 47.5927 537.318 53.5415 554.578C52.9086 554.796 52.2856 555.035 51.6734 555.295ZM74.3755 608.684C103.786 666.294 146.533 716.777 199.794 755.541C288.219 819.897 398.472 846.746 506.588 830.254C614.702 813.761 711.936 755.257 777.15 667.462L775.544 666.27C710.644 753.641 613.88 811.863 506.286 828.276C398.692 844.69 288.969 817.969 200.97 753.923C147.985 715.36 105.455 665.142 76.1876 607.835C75.5951 608.138 74.9907 608.421 74.3755 608.684Z" fill="url(#paint0_linear)"/>
</g>
<path id="Text bottom" fill-rule="evenodd" clip-rule="evenodd" d="M293.658 793.75L293.054 804.49L299.962 796.267L302.075 797.111L293.291 807.306L290.958 806.374L291.529 792.899L293.658 793.75ZM299.203 811.102C299.658 810.954 300.108 810.627 300.553 810.119L300.701 809.981L300.163 800.257L302.176 801.005L302.441 808.145L306.9 802.761L308.862 803.49L302.352 811.079C300.723 812.982 298.951 813.513 297.037 812.673L297.67 810.949C298.237 811.198 298.748 811.25 299.203 811.102ZM309.335 803.645L315.694 805.857L315.268 807.095L309.338 811.308L313.514 812.76L312.912 814.514L306.209 812.183L306.634 810.945L312.582 806.738L308.732 805.399L309.335 803.645ZM319.14 806.99L316.316 815.633L314.451 815.016L317.274 806.373L319.14 806.99ZM321.993 807.922L322.386 815.286L326.838 809.438L328.886 810.079L322.818 817.707L320.648 817.028L319.944 807.281L321.993 807.922ZM329.856 811.55C331.005 810.921 332.22 810.791 333.502 811.16C334.796 811.531 335.763 812.289 336.404 813.431C337.045 814.574 337.182 815.793 336.815 817.088C336.449 818.383 335.694 819.346 334.551 819.976C333.409 820.607 332.19 820.736 330.896 820.364C329.614 819.996 328.649 819.239 328.003 818.095C327.356 816.95 327.217 815.731 327.584 814.436C327.95 813.141 328.707 812.179 329.856 811.55ZM329.472 814.978C329.247 815.772 329.323 816.506 329.698 817.182C330.075 817.857 330.647 818.306 331.416 818.526C332.186 818.748 332.907 818.671 333.58 818.297C334.253 817.923 334.702 817.339 334.927 816.545C335.152 815.752 335.076 815.018 334.7 814.342C334.324 813.666 333.751 813.218 332.982 812.997C332.213 812.776 331.492 812.853 330.819 813.227C330.145 813.601 329.697 814.185 329.472 814.978ZM340.065 813.238L340.803 820.576L344.974 814.524L346.913 815.031L348.906 815.505L350.039 822.562L353.807 816.672L355.842 817.156L350.307 825.487C348.923 827.575 347.229 828.319 345.228 827.719L345.646 825.93C346.239 826.109 346.753 826.096 347.186 825.894C347.619 825.692 348.026 825.312 348.405 824.754L348.535 824.598L346.872 815.315L341.348 822.975L339.149 822.399L337.988 812.694L340.065 813.238ZM362.667 818.615L362.415 819.9C363.339 819.034 364.478 818.737 365.834 819.009C367.058 819.254 368.015 819.919 368.704 821.004C369.392 822.088 369.608 823.285 369.351 824.594C369.091 825.915 368.438 826.941 367.393 827.671C366.347 828.401 365.212 828.644 363.987 828.398C362.632 828.126 361.69 827.418 361.162 826.273L360.211 831.11L358.285 830.724L360.742 818.229L362.667 818.615ZM361.79 823.078C361.629 823.898 361.762 824.633 362.191 825.282C362.619 825.931 363.237 826.336 364.046 826.499C364.854 826.661 365.579 826.525 366.22 826.091C366.862 825.656 367.263 825.029 367.425 824.208C367.586 823.386 367.453 822.652 367.024 822.003C366.596 821.354 365.977 820.948 365.169 820.786C364.36 820.624 363.636 820.761 362.995 821.194C362.353 821.629 361.952 822.256 361.79 823.078ZM372.216 821.645C373.289 820.896 374.483 820.634 375.796 820.861C377.123 821.091 378.166 821.739 378.926 822.805C379.686 823.873 379.954 825.069 379.73 826.397C379.505 827.725 378.859 828.764 377.792 829.515C376.724 830.266 375.528 830.527 374.202 830.298C372.888 830.07 371.848 829.423 371.081 828.355C370.315 827.287 370.045 826.089 370.269 824.761C370.493 823.434 371.142 822.395 372.216 821.645ZM372.204 825.096C372.067 825.91 372.221 826.632 372.668 827.263C373.115 827.894 373.732 828.277 374.52 828.414C375.309 828.55 376.017 828.396 376.646 827.95C377.274 827.505 377.657 826.876 377.795 826.062C377.932 825.25 377.777 824.527 377.331 823.896C376.884 823.265 376.267 822.881 375.478 822.745C374.69 822.609 373.982 822.763 373.353 823.208C372.724 823.653 372.341 824.283 372.204 825.096ZM383.793 822.4L383.569 823.911C384.226 822.87 385.231 822.452 386.586 822.658L386.274 824.764C385.538 824.603 384.864 824.682 384.254 825C383.643 825.318 383.269 825.94 383.132 826.863L382.46 831.399L380.519 831.104L381.852 822.105L383.793 822.4ZM387.86 824.172C388.854 823.373 389.97 823.054 391.208 823.217C392.578 823.397 393.565 824.041 394.169 825.148L394.332 823.867L396.279 824.123L395.126 833.148L393.18 832.892L393.346 831.592C392.482 832.519 391.365 832.892 389.995 832.712C388.757 832.549 387.759 831.95 386.999 830.914C386.239 829.878 385.944 828.698 386.113 827.374C386.284 826.039 386.866 824.971 387.86 824.172ZM389.135 825.67C388.524 826.147 388.166 826.8 388.059 827.63C387.954 828.461 388.136 829.185 388.607 829.804C389.078 830.423 389.722 830.785 390.539 830.893C391.356 831.001 392.07 830.816 392.681 830.34C393.292 829.863 393.65 829.21 393.756 828.379C393.862 827.549 393.68 826.825 393.209 826.206C392.738 825.587 392.094 825.224 391.277 825.117C390.459 825.009 389.746 825.194 389.135 825.67ZM397.13 828.81C397.264 827.47 397.816 826.387 398.788 825.561C399.76 824.734 400.866 824.385 402.108 824.514C403.482 824.656 404.487 825.273 405.121 826.363L405.611 821.456L407.564 821.658L406.298 834.334L404.345 834.132L404.475 832.828C403.637 833.778 402.531 834.181 401.157 834.039C399.915 833.91 398.9 833.339 398.112 832.324C397.325 831.309 396.997 830.138 397.13 828.81ZM399.689 831.17C400.177 831.776 400.831 832.121 401.651 832.206C402.47 832.291 403.179 832.087 403.776 831.594C404.374 831.101 404.714 830.438 404.797 829.605C404.88 828.771 404.678 828.052 404.19 827.446C403.703 826.841 403.049 826.496 402.229 826.411C401.409 826.326 400.701 826.53 400.104 827.023C399.506 827.517 399.166 828.179 399.083 829.012C399 829.845 399.202 830.565 399.689 831.17ZM408.196 829.934C408.296 828.579 408.836 827.48 409.817 826.637C410.797 825.795 411.969 825.426 413.335 825.533C414.216 825.601 415.004 825.876 415.697 826.355C416.391 826.836 416.893 827.447 417.202 828.188L415.444 829.037C415.271 828.586 414.985 828.22 414.587 827.94C414.188 827.659 413.717 827.498 413.173 827.455C412.376 827.393 411.688 827.614 411.11 828.116C410.532 828.619 410.213 829.276 410.153 830.086C410.093 830.897 410.312 831.595 410.809 832.182C411.306 832.768 411.954 833.092 412.751 833.154C413.283 833.196 413.772 833.106 414.22 832.885C414.668 832.665 415.016 832.351 415.265 831.944L416.879 833.037C416.439 833.734 415.84 834.265 415.084 834.632C414.328 834.999 413.508 835.149 412.627 835.08C411.261 834.974 410.156 834.425 409.313 833.435C408.468 832.444 408.096 831.277 408.196 829.934ZM418.997 827.315C419.938 826.448 421.11 826.053 422.514 826.128C423.845 826.199 424.914 826.725 425.72 827.703C426.526 828.682 426.896 829.838 426.829 831.172C426.819 831.378 426.781 831.649 426.716 831.985L419.492 831.598C419.602 832.297 419.909 832.845 420.41 833.242C420.912 833.64 421.538 833.859 422.289 833.899C423.329 833.955 424.128 833.621 424.687 832.898L426.255 833.929C425.293 835.203 423.935 835.792 422.181 835.698C420.704 835.619 419.535 835.103 418.672 834.152C417.81 833.2 417.413 832.033 417.483 830.652C417.551 829.295 418.055 828.183 418.997 827.315ZM419.554 829.997L424.89 830.284C424.794 829.537 424.516 828.963 424.057 828.562C423.598 828.161 423.048 827.943 422.407 827.909C421.681 827.87 421.065 828.037 420.562 828.411C420.057 828.785 419.722 829.314 419.554 829.997ZM433.358 827.959C434.254 827.051 435.327 826.607 436.575 826.628C437.956 826.65 439.009 827.177 439.735 828.209L439.752 826.916L441.714 826.949L441.596 836.05L439.634 836.018L439.65 834.707C438.898 835.727 437.832 836.225 436.451 836.203C435.203 836.182 434.142 835.7 433.271 834.757C432.398 833.815 431.971 832.676 431.988 831.341C432.005 829.994 432.462 828.866 433.358 827.959ZM434.795 829.302C434.243 829.846 433.961 830.536 433.95 831.373C433.94 832.21 434.203 832.91 434.741 833.471C435.279 834.032 435.96 834.319 436.784 834.333C437.608 834.346 438.296 834.081 438.848 833.538C439.4 832.995 439.682 832.304 439.692 831.467C439.704 830.63 439.44 829.931 438.902 829.37C438.364 828.809 437.683 828.521 436.859 828.507C436.035 828.494 435.348 828.759 434.795 829.302ZM452.586 833.349C452.58 833.058 452.408 832.824 452.071 832.648C451.734 832.472 451.325 832.325 450.844 832.206C450.362 832.087 449.878 831.947 449.389 831.786C448.901 831.625 448.487 831.35 448.145 830.962C447.803 830.574 447.626 830.076 447.613 829.469C447.595 828.632 447.899 827.953 448.524 827.431C449.149 826.91 449.933 826.641 450.878 826.624C451.629 826.61 452.302 826.765 452.896 827.088C453.491 827.411 453.952 827.867 454.28 828.456L452.647 829.414C452.317 828.728 451.74 828.393 450.917 828.408C450.541 828.415 450.228 828.502 449.977 828.671C449.726 828.839 449.604 829.081 449.611 829.396C449.617 829.7 449.789 829.937 450.126 830.107C450.463 830.277 450.872 830.421 451.353 830.54C451.834 830.658 452.319 830.798 452.807 830.959C453.295 831.12 453.71 831.401 454.052 831.802C454.394 832.202 454.572 832.712 454.585 833.331C454.604 834.204 454.282 834.896 453.621 835.406C452.959 835.916 452.12 836.18 451.102 836.198C450.206 836.214 449.433 836.04 448.783 835.676C448.132 835.312 447.655 834.798 447.35 834.136L449.018 833.122C449.352 833.99 450.034 834.415 451.063 834.396C452.093 834.377 452.601 834.028 452.586 833.349ZM455.211 831.338C455.152 829.98 455.55 828.825 456.405 827.873C457.261 826.922 458.391 826.417 459.795 826.36C461.126 826.306 462.239 826.729 463.133 827.628C464.027 828.528 464.504 829.644 464.562 830.978C464.571 831.184 464.559 831.458 464.525 831.8L457.299 832.092C457.475 832.778 457.831 833.295 458.367 833.644C458.904 833.992 459.547 834.151 460.298 834.121C461.338 834.079 462.103 833.672 462.591 832.898L464.248 833.779C463.41 835.137 462.113 835.852 460.358 835.923C458.882 835.982 457.67 835.579 456.722 834.712C455.775 833.846 455.271 832.721 455.211 831.338ZM462.549 830.276C462.383 829.542 462.053 828.996 461.559 828.64C461.064 828.284 460.496 828.118 459.855 828.144C459.128 828.173 458.532 828.398 458.065 828.817C457.598 829.237 457.314 829.796 457.211 830.492L462.549 830.276ZM464.798 828.266L464.679 826.376L466.057 826.294L466.046 826.112C465.968 824.864 466.256 823.895 466.91 823.205C467.565 822.516 468.566 822.174 469.914 822.178L470.032 824.068C468.597 824.02 467.921 824.662 468.005 825.995L468.016 826.177L470.157 826.049L470.275 827.939L468.135 828.067L468.587 835.263L466.628 835.38L466.176 828.184L464.798 828.266ZM472.568 822.22L473.188 829.862L476.377 825.576L478.768 825.39L475.144 830.148L479.649 834.453L477.313 834.636L473.259 830.733L473.599 834.926L471.643 835.078L470.612 822.373L472.568 822.22ZM479.853 830.903L479.274 825.343L481.226 825.145L481.785 830.507C481.855 831.183 482.09 831.684 482.489 832.01C482.889 832.335 483.401 832.466 484.028 832.403C484.715 832.333 485.247 832.063 485.624 831.592C486.001 831.121 486.144 830.444 486.052 829.562L485.546 824.708L487.498 824.51L488.441 833.567L486.49 833.765L486.369 832.605C485.875 833.595 484.99 834.154 483.712 834.284C482.676 834.388 481.804 834.141 481.096 833.542C480.388 832.943 479.974 832.063 479.853 830.903ZM489.406 828.878C489.233 827.53 489.54 826.344 490.33 825.32C491.12 824.297 492.194 823.699 493.552 823.528C494.429 823.417 495.255 823.528 496.031 823.858C496.806 824.189 497.419 824.687 497.872 825.352L496.321 826.538C496.061 826.131 495.708 825.83 495.261 825.635C494.815 825.44 494.322 825.377 493.781 825.445C492.988 825.545 492.359 825.9 491.894 826.509C491.429 827.118 491.249 827.826 491.353 828.633C491.457 829.44 491.811 830.08 492.416 830.555C493.02 831.03 493.719 831.217 494.512 831.117C495.041 831.05 495.502 830.864 495.896 830.557C496.29 830.25 496.568 829.873 496.73 829.424L498.529 830.17C498.238 830.941 497.759 831.583 497.092 832.095C496.426 832.607 495.654 832.919 494.777 833.03C493.419 833.201 492.228 832.886 491.202 832.085C490.177 831.284 489.578 830.215 489.406 828.878ZM499.992 819.218L500.722 823.97C501.167 822.958 502.024 822.356 503.293 822.164C504.323 822.009 505.205 822.213 505.942 822.777C506.678 823.342 507.135 824.2 507.312 825.352L508.161 830.879L506.221 831.172L505.402 825.843C505.299 825.171 505.04 824.682 504.625 824.376C504.211 824.07 503.692 823.964 503.07 824.058C502.387 824.161 501.869 824.458 501.515 824.947C501.161 825.436 501.052 826.119 501.187 826.995L501.928 831.82L499.989 832.113L498.052 819.511L499.992 819.218ZM508.715 826.185C508.476 824.858 508.708 823.664 509.415 822.6C510.12 821.537 511.087 820.896 512.315 820.677C513.674 820.435 514.808 820.751 515.717 821.625L515.487 820.353L517.418 820.008L519.039 828.971L517.108 829.315L516.874 828.024C516.331 829.17 515.379 829.863 514.021 830.106C512.793 830.324 511.661 830.054 510.625 829.295C509.589 828.536 508.953 827.499 508.715 826.185ZM513.991 828.205C514.801 828.061 515.426 827.669 515.864 827.03C516.302 826.39 516.446 825.658 516.297 824.834C516.148 824.009 515.756 823.373 515.122 822.925C514.487 822.477 513.764 822.325 512.953 822.469C512.142 822.614 511.518 823.006 511.08 823.645C510.642 824.285 510.498 825.016 510.646 825.841C510.796 826.665 511.188 827.301 511.823 827.75C512.457 828.198 513.18 828.349 513.991 828.205ZM521.187 819.245L521.492 820.745C521.754 819.54 522.556 818.804 523.898 818.535L524.32 820.623C523.575 820.723 522.97 821.027 522.505 821.536C522.04 822.044 521.9 822.756 522.086 823.673L522.999 828.171L521.076 828.557L519.264 819.63L521.187 819.245ZM530.161 817.346L534.215 823.513L535.096 816.203L537.185 815.719L535.81 825.388L533.599 825.9L528.073 817.829L530.161 817.346ZM544.864 823.528L542.451 814.367L544.349 813.872L546.762 823.033C547.405 825.476 546.502 826.923 544.055 827.373L543.572 825.541C544.173 825.447 544.579 825.241 544.789 824.922C545 824.604 545.025 824.139 544.864 823.528ZM556.736 815.165C556.335 813.878 556.419 812.663 556.988 811.52C557.558 810.378 558.438 809.622 559.629 809.253C560.947 808.845 562.111 809.018 563.12 809.774L561.65 805.06L563.523 804.479L567.319 816.655L565.445 817.236L565.055 815.983C564.658 817.188 563.799 817.994 562.481 818.402C561.29 818.771 560.134 818.643 559.014 818.017C557.893 817.392 557.134 816.441 556.736 815.165ZM563.931 815.121C564.287 814.432 564.34 813.688 564.09 812.887C563.841 812.087 563.374 811.504 562.689 811.137C562.004 810.771 561.269 810.71 560.482 810.953C559.696 811.197 559.125 811.663 558.769 812.351C558.413 813.041 558.36 813.785 558.609 814.585C558.859 815.385 559.325 815.969 560.01 816.335C560.695 816.702 561.431 816.763 562.217 816.519C563.004 816.276 563.575 815.81 563.931 815.121ZM568.21 806.755L568.586 807.859C568.846 806.784 569.583 806.039 570.799 805.627C571.784 805.293 572.689 805.339 573.512 805.765C574.335 806.192 574.935 806.956 575.311 808.06L577.116 813.354L575.259 813.984L573.519 808.88C573.3 808.236 572.959 807.8 572.497 807.571C572.036 807.343 571.507 807.33 570.911 807.532C570.257 807.754 569.799 808.137 569.538 808.681C569.275 809.225 569.288 809.917 569.574 810.756L571.148 815.378L569.292 816.008L566.352 807.385L568.21 806.755ZM576.841 808.629C576.373 807.364 576.416 806.138 576.971 804.95C577.525 803.762 578.427 802.938 579.677 802.477C580.938 802.013 582.163 802.054 583.352 802.6C584.541 803.146 585.369 804.052 585.837 805.316C586.305 806.581 586.264 807.806 585.716 808.992C585.167 810.178 584.262 811.003 583.001 811.467C581.751 811.927 580.529 811.885 579.335 811.342C578.14 810.798 577.308 809.893 576.841 808.629ZM583.945 808.207C584.266 807.506 584.284 806.769 583.997 805.994C583.711 805.219 583.217 804.669 582.516 804.344C581.815 804.02 581.09 803.996 580.34 804.272C579.59 804.548 579.055 805.037 578.734 805.737C578.412 806.439 578.394 807.176 578.681 807.951C578.968 808.726 579.46 809.275 580.161 809.6C580.862 809.925 581.588 809.949 582.338 809.673C583.087 809.397 583.623 808.908 583.945 808.207ZM587.268 799.877L587.679 800.889C587.884 799.85 588.519 799.114 589.585 798.683C590.662 798.246 591.639 798.368 592.516 799.048C592.716 797.932 593.394 797.14 594.549 796.672C595.503 796.285 596.397 796.284 597.232 796.666C598.067 797.049 598.696 797.763 599.122 798.81L601.25 804.043L599.433 804.78L597.353 799.665C597.116 799.079 596.785 798.685 596.363 798.483C595.941 798.28 595.478 798.281 594.973 798.486C594.412 798.713 594.042 799.079 593.862 799.585C593.682 800.09 593.742 800.714 594.044 801.457L595.966 806.183L594.148 806.92L592.069 801.805C591.832 801.22 591.51 800.822 591.105 800.613C590.699 800.404 590.244 800.401 589.74 800.606C589.19 800.828 588.817 801.199 588.622 801.716C588.427 802.235 588.48 802.859 588.777 803.59L590.699 808.317L588.881 809.053L585.451 800.613L587.268 799.877ZM554.473 817.737L556.286 818.212C555.784 819.728 554.689 820.723 552.999 821.198C551.577 821.597 550.306 821.484 549.185 820.858C548.065 820.233 547.316 819.254 546.939 817.922C546.569 816.613 546.69 815.396 547.303 814.272C547.916 813.147 548.898 812.395 550.251 812.015C551.533 811.655 552.712 811.81 553.788 812.48C554.865 813.149 555.584 814.126 555.948 815.412C556.004 815.611 556.055 815.88 556.101 816.22L549.143 818.174C549.471 818.801 549.936 819.222 550.538 819.438C551.14 819.654 551.803 819.66 552.525 819.457C553.527 819.176 554.177 818.602 554.473 817.737ZM552.49 813.828C551.927 813.595 551.336 813.565 550.719 813.738C550.02 813.935 549.491 814.291 549.134 814.808C548.777 815.324 548.629 815.933 548.689 816.636L553.829 815.193C553.499 814.516 553.053 814.061 552.49 813.828ZM542.105 812.659C541.802 812.481 541.607 812.228 541.52 811.899C541.433 811.57 541.478 811.254 541.656 810.95C541.832 810.647 542.083 810.452 542.411 810.367C542.739 810.281 543.055 810.328 543.359 810.505C543.662 810.684 543.858 810.937 543.945 811.266C544.031 811.595 543.986 811.911 543.81 812.215C543.633 812.518 543.38 812.712 543.053 812.798C542.724 812.884 542.409 812.838 542.105 812.659ZM517.863 816.196L519.822 815.803L521.03 816.917L521.692 815.429L523.651 815.036L522.271 817.913L520.258 818.317L517.863 816.196ZM459.716 822.901L462.077 822.806L460.26 825.339L458.372 825.416L459.716 822.901ZM447.769 823.184L449.767 823.148L450.759 824.459L451.675 823.113L453.674 823.077L451.803 825.66L449.75 825.698L447.769 823.184ZM352.335 812.582L354.636 813.129L352.201 815.074L350.36 814.636L352.335 812.582ZM318.63 805.385C318.308 805.279 318.068 805.068 317.909 804.754C317.75 804.44 317.723 804.121 317.828 803.799C317.934 803.476 318.14 803.234 318.448 803.075C318.755 802.914 319.076 802.89 319.41 803C319.744 803.111 319.988 803.322 320.141 803.635C320.294 803.947 320.318 804.265 320.212 804.587C320.107 804.91 319.897 805.151 319.584 805.309C319.271 805.467 318.953 805.492 318.63 805.385ZM310.878 800.331L312.768 800.989L313.247 802.561L314.572 801.616L316.463 802.274L313.814 804.048L311.872 803.372L310.878 800.331ZM305.937 798.524L308.155 799.348L305.5 800.98L303.726 800.321L305.937 798.524Z" fill="#353643"/>
<path id="Text top" fill-rule="evenodd" clip-rule="evenodd" d="M248.782 56.7179L244.422 48.2109L246.26 47.2689L250.62 55.7759L248.782 56.7179ZM243.461 44.4069L245.588 43.3169L245.686 46.2739L243.916 47.1809L243.461 44.4069ZM240.833 48.4649C240.517 48.6319 240.183 48.6599 239.83 48.5499C239.477 48.4409 239.218 48.2279 239.052 47.9119C238.885 47.5969 238.854 47.2639 238.958 46.9139C239.062 46.5639 239.277 46.3029 239.605 46.1309C239.932 45.9589 240.269 45.9289 240.616 46.0409C240.964 46.1539 241.22 46.3679 241.386 46.6839C241.553 46.9999 241.581 47.3339 241.471 47.6869C241.362 48.0399 241.149 48.2989 240.833 48.4649ZM239.236 50.7279L240.305 52.6929C239.586 53.0259 239.071 53.5199 238.76 54.1749C238.449 54.8299 238.528 55.5889 238.997 56.4509L241.299 60.6829L239.485 61.6689L234.918 53.2719L236.732 52.2859L237.499 53.6969C237.392 52.4049 237.971 51.4159 239.236 50.7279ZM236.162 62.1259C235.798 63.4519 235.002 64.4659 233.775 65.1699C232.559 65.8669 231.284 66.0399 229.951 65.6879C228.618 65.3359 227.599 64.5459 226.896 63.3189C226.192 62.0909 226.024 60.8139 226.394 59.4849C226.764 58.1569 227.557 57.1439 228.773 56.4469C230 55.7429 231.278 55.5689 232.605 55.9239C233.933 56.2789 234.949 57.0699 235.652 58.2979C236.356 59.5249 236.526 60.8009 236.162 62.1259ZM233.861 59.3249C233.43 58.5729 232.823 58.0909 232.04 57.8779C231.257 57.6659 230.501 57.7699 229.771 58.1879C229.042 58.6059 228.571 59.2069 228.358 59.9899C228.146 60.7729 228.256 61.5399 228.687 62.2919C229.118 63.0439 229.725 63.5259 230.508 63.7379C231.291 63.9499 232.047 63.8469 232.777 63.4289C233.507 63.0099 233.977 62.4089 234.189 61.6269C234.402 60.8429 234.292 60.0769 233.861 59.3249ZM226.123 69.3829L218.941 57.4169L220.711 56.3549L227.894 68.3209L226.123 69.3829ZM219.159 62.3979L224.247 70.4899L222.499 71.5889L221.766 70.4239C221.684 71.7549 221.029 72.8069 219.799 73.5799C218.687 74.2789 217.478 74.4629 216.172 74.1329C214.865 73.8029 213.839 73.0449 213.093 71.8579C212.34 70.6599 212.099 69.4039 212.371 68.0879C212.643 66.7729 213.335 65.7659 214.446 65.0669C215.676 64.2939 216.905 64.1529 218.133 64.6459L217.411 63.4969L219.159 62.3979ZM215.769 66.5609C215.035 67.0229 214.581 67.6519 214.403 68.4479C214.227 69.2439 214.372 70.0139 214.84 70.7579C215.308 71.5029 215.94 71.9679 216.734 72.1539C217.528 72.3399 218.292 72.2019 219.026 71.7399C219.759 71.2789 220.215 70.6509 220.392 69.8539C220.569 69.0579 220.423 68.2869 219.955 67.5429C219.487 66.7989 218.855 66.3339 218.062 66.1479C217.267 65.9619 216.503 66.0999 215.769 66.5609ZM213.7 77.2029L207.991 75.6969L210.437 79.3739L208.718 80.5169L201.306 69.3749L203.025 68.2309L207.483 74.9329L208.231 69.3609L210.332 67.9629L209.424 74.1919L215.754 75.8379L213.7 77.2029ZM201.501 85.5539L200.785 84.5609C200.853 85.7228 200.339 86.6979 199.243 87.4889C198.354 88.1299 197.431 88.3639 196.473 88.1909C195.515 88.0179 194.678 87.4349 193.962 86.4429L190.529 81.6829L192.203 80.4739L195.514 85.0639C195.931 85.6429 196.407 85.9748 196.941 86.0619C197.475 86.1478 198.01 85.9979 198.548 85.6099C199.137 85.1849 199.48 84.6579 199.577 84.0299C199.674 83.4029 199.45 82.7109 198.906 81.9559L195.908 77.8009L197.583 76.5939L203.176 84.3459L201.501 85.5539ZM193.059 90.2249C192.873 91.5869 192.219 92.6979 191.095 93.5569C189.982 94.4089 188.741 94.7489 187.373 94.5759C186.005 94.4038 184.891 93.7549 184.032 92.6319C183.172 91.5089 182.837 90.2639 183.028 88.8979C183.218 87.5329 183.871 86.4239 184.984 85.5719C186.108 84.7119 187.351 84.3699 188.713 84.5469C190.076 84.7238 191.188 85.3739 192.048 86.4969C192.908 87.6199 193.245 88.8629 193.059 90.2249ZM191.038 89.9899C191.145 89.1859 190.935 88.4399 190.408 87.7519C189.881 87.0639 189.216 86.6659 188.412 86.5589C187.608 86.4519 186.872 86.6549 186.204 87.1659C185.536 87.6769 185.148 88.3349 185.041 89.1389C184.935 89.9429 185.145 90.6889 185.672 91.3769C186.198 92.0649 186.864 92.4629 187.668 92.5699C188.471 92.6769 189.208 92.4739 189.875 91.9629C190.543 91.4519 190.931 90.7939 191.038 89.9899ZM184.047 98.7509L183.178 97.6829C183.258 99.0149 182.735 100.139 181.608 101.056C180.59 101.884 179.413 102.214 178.075 102.045C176.738 101.876 175.627 101.247 174.743 100.16C173.85 99.0629 173.459 97.8449 173.569 96.5059C173.679 95.1669 174.244 94.0839 175.262 93.2549C176.389 92.3379 177.592 92.0499 178.871 92.3889L175.601 88.3709L177.202 87.0679L185.648 97.4479L184.047 98.7509ZM181.744 97.2849C181.823 96.4729 181.585 95.7259 181.03 95.0439C180.476 94.3619 179.792 93.9769 178.982 93.8889C178.171 93.8009 177.429 94.0309 176.757 94.5779C176.084 95.1249 175.709 95.8039 175.63 96.6159C175.551 97.4279 175.789 98.1749 176.344 98.8569C176.899 99.5389 177.582 99.9239 178.393 100.012C179.204 100.1 179.946 99.8699 180.618 99.3229C181.29 98.7759 181.666 98.0969 181.744 97.2849ZM176.045 102.783L177.313 104.265L171.651 109.115L170.755 108.069L170.099 100.425L166.846 103.211L165.578 101.73L170.95 97.1289L171.846 98.1739L172.516 105.806L176.045 102.783ZM163.395 98.5649L164.993 97.1969L166.67 97.5979L166.517 95.8909L168.115 94.5239L168.316 97.8739L166.676 99.2799L163.395 98.5649ZM162.321 104.608L163.853 103.224L170.263 110.315L168.731 111.699L167.808 110.679C167.958 112.003 167.493 113.153 166.415 114.127C165.442 115.008 164.283 115.398 162.939 115.299C161.595 115.199 160.453 114.63 159.513 113.59C158.564 112.54 158.11 111.344 158.151 110.001C158.191 108.659 158.699 107.547 159.673 106.667C160.751 105.693 161.937 105.342 163.231 105.615L162.321 104.608ZM161.234 107.91C160.591 108.491 160.251 109.189 160.215 110.004C160.178 110.819 160.455 111.552 161.044 112.205C161.634 112.857 162.336 113.206 163.15 113.252C163.965 113.298 164.693 113.03 165.336 112.449C165.979 111.867 166.319 111.169 166.356 110.355C166.392 109.54 166.116 108.806 165.526 108.154C164.937 107.502 164.234 107.153 163.42 107.107C162.606 107.061 161.877 107.329 161.234 107.91ZM161.04 118.745L155.156 118.249L158.201 121.447L156.706 122.871L147.479 113.177L148.975 111.754L154.524 117.584L154.297 111.966L156.125 110.227L156.308 116.519L162.826 117.045L161.04 118.745ZM148.906 123.858C149.061 124.009 149.249 124.228 149.469 124.513L144.164 129.967C144.791 130.364 145.435 130.502 146.096 130.38C146.757 130.258 147.363 129.914 147.914 129.347C148.678 128.562 148.968 127.698 148.784 126.753L150.683 126.227C151.021 127.872 150.546 129.357 149.257 130.681C148.173 131.796 146.957 132.365 145.61 132.387C144.263 132.411 143.069 131.915 142.027 130.902C141.004 129.907 140.476 128.736 140.444 127.389C140.412 126.042 140.911 124.839 141.942 123.779C142.92 122.774 144.074 122.292 145.403 122.332C146.734 122.372 147.901 122.881 148.906 123.858ZM143.272 125.099C142.738 125.647 142.445 126.251 142.391 126.909C142.337 127.568 142.521 128.201 142.945 128.808L146.864 124.779C146.209 124.338 145.564 124.159 144.93 124.245C144.296 124.33 143.743 124.615 143.272 125.099ZM144.432 135.265L143.045 136.795L138.754 132.903C138.263 132.459 137.772 132.237 137.28 132.238C136.788 132.24 136.35 132.453 135.965 132.877C135.536 133.35 135.352 133.866 135.411 134.427C135.47 134.988 135.811 135.551 136.434 136.116L140.4 139.712L139.013 141.242L134.722 137.351C134.231 136.906 133.745 136.676 133.267 136.664C132.788 136.651 132.356 136.857 131.971 137.282C131.551 137.745 131.367 138.266 131.418 138.845C131.469 139.425 131.801 139.993 132.415 140.549L136.38 144.145L134.993 145.674L127.912 139.253L129.299 137.724L130.149 138.494C129.87 137.417 130.138 136.429 130.951 135.532C131.773 134.625 132.754 134.293 133.894 134.535C133.576 133.387 133.858 132.327 134.739 131.354C135.467 130.551 136.313 130.14 137.278 130.12C138.242 130.1 139.163 130.488 140.042 131.284L144.432 135.265ZM132.255 148.922L131.202 148.035C131.529 149.328 131.225 150.53 130.289 151.641C129.443 152.645 128.347 153.188 127.002 153.271C125.657 153.354 124.449 152.944 123.376 152.041C122.294 151.129 121.683 150.005 121.542 148.67C121.401 147.334 121.753 146.165 122.599 145.16C123.535 144.05 124.663 143.542 125.983 143.637L124.945 142.762L126.275 141.184L133.585 147.343L132.255 148.922ZM129.72 147.911C129.646 147.099 129.272 146.409 128.6 145.842C127.927 145.275 127.185 145.025 126.372 145.089C125.559 145.154 124.873 145.518 124.314 146.181C123.756 146.844 123.514 147.581 123.587 148.393C123.661 149.206 124.034 149.895 124.707 150.462C125.379 151.028 126.122 151.28 126.935 151.215C127.748 151.15 128.434 150.786 128.992 150.123C129.551 149.461 129.793 148.723 129.72 147.911ZM120.284 142.36L121.886 140.459L122.553 143.672L121.272 145.193L120.284 142.36ZM120.695 150.952L119.21 152.8L122.787 155.674C123.095 155.922 123.372 156.03 123.618 155.998C123.863 155.967 124.103 155.821 124.338 155.56C124.572 155.298 124.843 154.956 125.151 154.533L126.596 155.694C125.755 157.046 124.938 157.845 124.145 158.09C123.351 158.335 122.467 158.066 121.494 157.284L117.917 154.41L116.815 155.781L115.265 154.536L116.367 153.164L114.757 151.871L115.574 149.879L117.66 151.555L119.145 149.707L120.695 150.952ZM121.919 161.557L120.65 163.186L113.111 157.309L114.38 155.68L121.919 161.557ZM110.636 154.265L112.105 152.38L113.44 155.021L112.218 156.589L110.636 154.265ZM107.984 162.152L104.627 162.167L105.889 160.485L107.613 160.511L107.093 158.879L108.355 157.196L109.28 160.423L107.984 162.152ZM105.918 168.912C107.272 168.676 108.526 168.966 109.681 169.783C110.836 170.599 111.528 171.686 111.756 173.041C111.984 174.397 111.689 175.652 110.872 176.806C110.062 177.952 108.979 178.645 107.621 178.886C106.264 179.128 105.007 178.841 103.853 178.024C102.698 177.207 102.008 176.118 101.784 174.758C101.56 173.397 101.852 172.145 102.662 171C103.479 169.845 104.564 169.149 105.918 168.912ZM103.778 174.388C103.915 175.188 104.337 175.838 105.045 176.338C105.753 176.839 106.506 177.021 107.305 176.883C108.105 176.746 108.747 176.334 109.233 175.647C109.719 174.961 109.893 174.218 109.756 173.418C109.619 172.619 109.197 171.969 108.489 171.468C107.782 170.968 107.028 170.786 106.229 170.923C105.429 171.06 104.787 171.472 104.301 172.159C103.815 172.846 103.641 173.589 103.778 174.388ZM101.979 178.873C102.214 180.049 101.981 181.161 101.281 182.211L99.7635 184.486L103.581 187.032L102.361 188.861L91.2275 181.435L93.9645 177.332C94.6645 176.282 95.5995 175.638 96.7695 175.399C97.9395 175.161 99.0445 175.389 100.084 176.082C101.113 176.768 101.745 177.698 101.979 178.873ZM99.9055 179.364C99.7725 178.77 99.4265 178.285 98.8635 177.911C98.3025 177.536 97.7215 177.402 97.1225 177.507C96.5235 177.613 96.0425 177.936 95.6825 178.477L94.1655 180.751L98.0465 183.34L99.5635 181.066C99.9235 180.525 100.038 179.958 99.9055 179.364ZM110.42 168.782C109.278 167.925 108.611 166.824 108.418 165.476C108.225 164.129 108.561 162.879 109.425 161.727C109.983 160.983 110.671 160.438 111.486 160.094C112.302 159.75 113.125 159.651 113.956 159.796L113.716 161.838C113.218 161.736 112.734 161.783 112.261 161.977C111.788 162.172 111.38 162.5 111.035 162.958C110.53 163.631 110.337 164.367 110.456 165.165C110.574 165.962 110.976 166.617 111.659 167.13C112.342 167.642 113.083 167.843 113.882 167.734C114.681 167.624 115.333 167.233 115.838 166.56C116.174 166.111 116.371 165.626 116.429 165.103C116.486 164.581 116.405 164.094 116.186 163.643L118.063 162.828C118.43 163.613 118.563 164.445 118.461 165.325C118.359 166.204 118.028 167.016 117.47 167.761C116.606 168.913 115.498 169.583 114.146 169.772C112.794 169.961 111.551 169.63 110.42 168.782ZM242.415 49.2539L246.866 57.7129L245.039 58.6739L240.587 50.2149L242.415 49.2539Z" fill="#353643"/>
<path id="Dot orange 2" d="M781.501 666C784.539 666 787.001 663.538 787.001 660.5C787.001 657.462 784.539 655 781.501 655C778.463 655 776.001 657.462 776.001 660.5C776.001 663.538 778.463 666 781.501 666Z" fill="#F6BEA8"/>
<path id="Dot orange 1" d="M816.501 245C819.539 245 822.001 242.538 822.001 239.5C822.001 236.462 819.539 234 816.501 234C813.463 234 811.001 236.462 811.001 239.5C811.001 242.538 813.463 245 816.501 245Z" fill="#F6BEA8"/>
<path id="Dot green 2" d="M799.501 213C802.539 213 805.001 210.538 805.001 207.5C805.001 204.462 802.539 202 799.501 202C796.463 202 794.001 204.462 794.001 207.5C794.001 210.538 796.463 213 799.501 213Z" fill="#91D4B4"/>
<path id="Dot green 1" d="M529.502 20C532.54 20 535.002 17.5376 535.002 14.5C535.002 11.4624 532.54 9 529.502 9C526.464 9 524.002 11.4624 524.002 14.5C524.002 17.5376 526.464 20 529.502 20Z" fill="#91D4B4"/>
</g>
<g id="Food_data">
<g id="Tuk_1">
<path id="Tuk_bg" d="M63.5 611.5C79.7924 611.5 93 598.292 93 582C93 565.708 79.7924 552.5 63.5 552.5C47.2076 552.5 34 565.708 34 582C34 598.292 47.2076 611.5 63.5 611.5Z" stroke="#FF8F62"/>
</g>
<g id="Bilk_1">
<path id="Bilk_bg" d="M30.5 503.5C46.7924 503.5 60 490.292 60 474C60 457.708 46.7924 444.5 30.5 444.5C14.2076 444.5 1 457.708 1 474C1 490.292 14.2076 503.5 30.5 503.5Z" stroke="#FF8F62"/>
</g>
<g id="Sach_1">
<path id="Sach_bg" d="M30.5 395.5C46.7924 395.5 60 382.292 60 366C60 349.708 46.7924 336.5 30.5 336.5C14.2076 336.5 1 349.708 1 366C1 382.292 14.2076 395.5 30.5 395.5Z" stroke="#FF8F62"/>
</g>
<g id="Kcal_1">
<path id="Kcal_bg" d="M64.5 287.5C80.7924 287.5 94 274.292 94 258C94 241.708 80.7924 228.5 64.5 228.5C48.2076 228.5 35 241.708 35 258C35 274.292 48.2076 287.5 64.5 287.5Z" stroke="#3DC383"/>
</g>
</g>
</g>
<defs>
<filter id="filter0_d" x="4" y="-20" width="880" height="880" filterUnits="userSpaceOnUse" color-interpolation-filters="sRGB">
<feFlood flood-opacity="0" result="BackgroundImageFix"/>
<feColorMatrix in="SourceAlpha" type="matrix" values="0 0 0 0 0 0 0 0 0 0 0 0 0 0 0 0 0 0 127 0"/>
<feOffset/>
<feGaussianBlur stdDeviation="40"/>
<feColorMatrix type="matrix" values="0 0 0 0 0 0 0 0 0 0 0 0 0 0 0 0 0 0 0.05 0"/>
<feBlend mode="normal" in2="BackgroundImageFix" result="effect1_dropShadow"/>
<feBlend mode="normal" in="SourceGraphic" in2="effect1_dropShadow" result="shape"/>
</filter>
<linearGradient id="paint0_linear" x1="391.843" y1="124.281" x2="508.041" y2="831.043" gradientUnits="userSpaceOnUse">
<stop stop-color="#F8F8F8" stop-opacity="0.14"/>
<stop offset="0.5" stop-color="#EEEEEE"/>
<stop offset="1" stop-color="#F8F8F8" stop-opacity="0.31"/>
</linearGradient>
<clipPath id="clip0">
<rect width="884" height="840" fill="white"/>
</clipPath>
</defs>
</svg>
