<svg fill="none" height="76" viewBox="0 0 76 76" width="76" xmlns="http://www.w3.org/2000/svg" xmlns:xlink="http://www.w3.org/1999/xlink"><clipPath id="a"><path d="m19.3223 14.1694h46.3729v46.3729h-46.3729z"/></clipPath><g clip-path="url(#a)" fill="#fff"><path d="m48.5302 34.7798h-20.6103v1.7175h20.6103z"/><path d="m27.9199 39.9321v1.7174h16.7152l1.7175-1.7174z"/><path d="m27.9199 45.0845v1.7175h11.5623l1.7176-1.7175z"/><path d="m36.5075 50.2373h-8.5876v1.7175h8.5876z"/><path d="m63.464 32.5368-2.429-2.4288c-.6704-.6703-1.7585-.6704-2.4289-.0001-6.1988 6.1989-12.4142 12.4143-18.6625 18.6624v4.9016c4.1348 0 3.0888.0019 4.8214-.0073.8965-.8964 4.8528-4.8526 8.9188-8.9186v12.3613c0 .9485-.7689 1.7175-1.7175 1.7175h-27.4804c-.9486 0-1.7175-.769-1.7175-1.7175v-30.9154c0-.9486.7689-1.7175 1.7175-1.7175h3.4354v3.4351h20.6099v-3.435l3.4351-.0001c.9486 0 1.7175.7689 1.7175 1.7175v6.3791l1.7175-1.7295v-4.6496c0-1.8972-1.5379-3.4351-3.435-3.4351h-3.7318c-.5515-1.5588-1.8292-2.7747-3.429-3.2347-.7908-.2274-1.3995-.836-1.6269-1.6268-.6189-2.1519-2.6018-3.7259-4.9526-3.7259-2.3506 0-4.3335 1.574-4.9523 3.7256-.2277.7917-.8379 1.3996-1.6296 1.6277-1.5991.4609-2.8779 1.6755-3.4288 3.2341h-3.7295c-1.8971 0-3.435 1.5379-3.435 3.4351v30.9154c0 1.8971 1.5379 3.435 3.435 3.435h27.4804c1.8971 0 3.435-1.5379 3.435-3.435v-14.0787c3.6926-3.6924 7.1317-7.1317 8.0627-8.0628.6704-.6704.6704-1.7586.0001-2.429zm-33.8254-8.0899c.0118-1.5099 1.032-2.8561 2.481-3.2736 1.3643-.3931 2.4129-1.4412 2.8047-2.8035.4205-1.462 1.7782-2.4828 3.3017-2.4828 1.5237 0 2.8814 1.0208 3.3017 2.4828.392 1.3631 1.4398 2.4109 2.8029 2.8028 1.4618.4206 2.4829 1.7783 2.4829 3.3019v1.7175h-17.1749zm14.4109 27.5043c-.4454.0024-.6278.0032-1.244.0034l-1.1445-1.1444v-1.3284c.4258-.4257.7202-.7202 1.157-1.157l2.4289 2.4289zm2.4118-2.4119-2.4289-2.4289 10.9303-10.9302 2.4289 2.429zm12.1447-12.1447-2.4289-2.4289 1.2145-1.2145 2.429 2.4289zm2.429-2.4288-2.429-2.429 1.2145-1.2144 2.429 2.4289z"/><path d="m38.251 20.61c.7115 0 1.2882-.5767 1.2882-1.2882 0-.7114-.5767-1.2881-1.2882-1.2881-.7114 0-1.2881.5767-1.2881 1.2881 0 .7115.5767 1.2882 1.2881 1.2882z"/></g><path d="m75.3 38c0 20.6002-16.6998 37.3-37.3 37.3s-37.3-16.6998-37.3-37.3 16.6998-37.3 37.3-37.3 37.3 16.6998 37.3 37.3z" /><path d="m75.3 38c0 20.6002-16.6998 37.3-37.3 37.3s-37.3-16.6998-37.3-37.3 16.6998-37.3 37.3-37.3 37.3 16.6998 37.3 37.3z" stroke="#fff" stroke-width="1.4"/></svg>