<svg fill="none" height="76" viewBox="0 0 76 76" width="76" xmlns="http://www.w3.org/2000/svg"><circle cx="38" cy="38"  r="37.3"/><circle cx="38" cy="38" r="37.3" stroke="#fff" stroke-width="1.4"/><path d="m45.37 27.4585-.086.1443.1678.0069c2.9455.1209 4.7929 1.5915 5.8922 2.9862 1.6069 2.0386 2.4982 5.0854 2.4979 8.5858-.0001 3.2999-.7698 6.7033-2.1663 9.5822-1.0294 2.1222-2.323 3.8172-3.8427 5.041-1.728 1.3917-3.6532 2.0951-5.7242 2.0951-1.1412 0-1.9375-.1036-2.5302-.2437-.5919-.1399-.9839-.3168-1.3195-.4684l-.0412.0912.0412-.0912c-.3473-.1567-.4862-.2149-.7587-.2149s-.4113.0581-.7586.2149c-.3357.1516-.7276.3285-1.3195.4684-.5927.1401-1.3891.2437-2.5303.2437-2.0709 0-3.9962-.7034-5.7243-2.0952-1.5198-1.2239-2.8133-2.9188-3.8427-5.0411-1.3965-2.8788-2.1662-6.2823-2.1663-9.5821-.0001-3.5002.8911-6.5471 2.4979-8.5857l-.0785-.0619.0785.0619c.711-.9021 1.7343-1.8349 3.1628-2.4146 1.4276-.5792 3.2668-.8086 5.6151-.2937 1.4462.3172 2.6892 1.0121 3.7077 1.593l.183.1043-.0348-.2077c-.3714-2.2146-1.2578-4.4162-1.6246-5.2657l1.9081-.8345c.2003.4634.5155 1.2331.8362 2.1753l.0837.2462.1028-.2389c.3261-.7583.7819-1.5036 1.4187-2.1404 1.2151-1.215 2.8251-1.7718 4.1601-2.0223 1.3339-.2503 2.3826-.1928 2.4635-.1877h.0002l.9185.0567.0567.9185c.0087.1417.1636 3.0147-1.2442 5.3741zm-.8736-4.1226.0115-.1206-.1205.0115c-1.0966.1047-2.7847.4503-3.8994 1.5649-1.1145 1.1144-1.4602 2.8022-1.5648 3.8995l-.0115.1205.1205-.0115c.562-.0536 1.2747-.1704 1.9854-.4186l.0001.0001.0051-.0021c.1321-.0545.2668-.1067.4036-.1566v.0001l.0051-.0022c.5399-.2316 1.0637-.5491 1.5001-.9855 1.1145-1.1144 1.4602-2.8022 1.5648-3.8995zm-4.6917 8.0025.0496.0869-.0496-.0869c-.4598.2625-.8652.4938-1.2442.66-.3784.166-.7232.2637-1.0602.2637s-.6818-.0977-1.0602-.2637c-.379-.1662-.7844-.3975-1.2442-.66l-.0495.0869.0495-.0869-.0058-.0033c-.8946-.5106-2.0229-1.1547-3.2017-1.4131-2.9003-.6361-5.1625.0171-6.6962 1.9632-1.3275 1.6842-2.0511 4.2784-2.051 7.2964.0001 2.9476.7132 6.108 1.9575 8.6731 1.2535 2.584 2.7239 4.0763 4.1108 4.9219 1.3866.8456 2.683 1.0407 3.5824 1.0407.9064 0 1.5174-.0692 1.9718-.1706.4552-.1014.7499-.2345 1.0201-.3565l.0008-.0004c.4215-.1903.8856-.3995 1.6157-.3995.73 0 1.1942.2093 1.6157.3996l.0008.0004c.2702.122.5649.255 1.0201.3565.4544.1013 1.0654.1705 1.9718.1705.8994 0 2.1959-.1951 3.5825-1.0406 1.3868-.8457 2.8573-2.338 4.1107-4.9219 1.2443-2.5651 1.9574-5.7254 1.9575-8.6732.0001-3.018-.7234-5.6122-2.0509-7.2964-1.5338-1.946-3.796-2.5993-6.6963-1.9632-1.1784.2583-2.3063.9021-3.2007 1.4125z" fill="#fff" stroke="#2fa037" stroke-width=".2"/></svg>