<svg fill="none" height="76" viewBox="0 0 76 76" width="76" xmlns="http://www.w3.org/2000/svg"><path d="m37.9992 75.3c20.6002 0 37.3-16.6998 37.3-37.3s-16.6998-37.300003-37.3-37.300003-37.299981 16.699803-37.299981 37.300003 16.699781 37.3 37.299981 37.3z" /><path d="m37.9992 75.3c20.6002 0 37.3-16.6998 37.3-37.3s-16.6998-37.300003-37.3-37.300003-37.299981 16.699803-37.299981 37.300003 16.699781 37.3 37.299981 37.3z" stroke="#fff" stroke-width="1.4"/><g fill="#fff"><path d="m59.4248 34.1063c.0004-.0217.0046-.0426.0046-.0643 0-4.7438-10.9559-7.3033-21.2646-7.3033-10.3086 0-21.2644 2.5595-21.2644 7.3032 0 .0082.0017.016.0017.0242-.0077 4.0844 1.4987 8.0268 4.2282 11.0654.702.7625 1.4772 1.4544 2.3144 2.0655l-3.5887 6.8791c-.2682.517-.3197 1.1194-.1434 1.6745.1764.5551.5663 1.0172 1.0836 1.2846.3114.1628.6576.2479 1.0091.2477.8203.001 1.573-.4548 1.9522-1.1823l3.537-6.7708c2.7698 1.0762 5.699 1.6852 8.6683 1.8021v6.6681c0 1.215.9849 2.2 2.2 2.2 1.215 0 2.2-.9849 2.2-2.2v-6.6683c2.8431-.1167 5.6505-.6786 8.3194-1.6655.1117-.0423.2201-.0971.3312-.1417l3.5564 6.8091c.3789.7248 1.1282 1.1801 1.9461 1.1823.355-.0033.7042-.0904 1.0191-.2542 1.0692-.5683 1.4831-1.8904.9288-2.967l-3.6001-6.8889c4.1447-3.0755 6.5804-7.9384 6.5611-13.0995zm-21.26-5.901c11.6618 0 19.79 3.0729 19.7976 5.8327-.0001.0134-.0065.0249-.0058.0383l.0008.0235c-.1123 2.7457-8.2068 5.7787-19.7926 5.7787-11.6672 0-19.7979-3.0759-19.7979-5.8366s8.1309-5.8366 19.7979-5.8366zm-15.7079 27.2172c-.1844.3561-.6217.4966-.979.3143-.1754-.0877-.3079-.2427-.3674-.4296-.0596-.1869-.041-.3899.0513-.5629l3.5098-6.7276c.4134.2509.8414.487 1.2842.7085zm16.4392 2.3776c0 .405-.3283.7333-.7333.7333s-.7333-.3283-.7333-.7333v-9.5334c0-.405.3283-.7333.7333-.7333s.7333.3283.7333.7333zm16.2675-3.0271c.1881.3546.0543.7946-.2993.9846-.1714.0981-.3759.1207-.5647.0627-.1888-.0581-.3451-.1917-.4318-.3692l-3.5141-6.728c.3634-.1811.726-.3655 1.0778-.5703.029-.0171.0568-.0362.0831-.0573.0414-.0245.0792-.0507.1201-.0753zm-4.4722-7.8949c-.0273.0163-.0535.0342-.0784.0537-.7867.4531-1.6082.8427-2.4567 1.1652-2.501.923-5.1301 1.4515-7.7935 1.5665v-1.3968c0-1.215-.985-2.2-2.2-2.2s-2.2.9849-2.2 2.2v1.3843c-6.0693-.3554-10.6986-2.1912-13.7364-5.4942-1.7901-1.9844-3.0103-4.4159-3.5315-7.037 3.5211 2.7622 11.6786 4.2253 19.4699 4.2253 7.7909 0 15.9478-1.4629 19.4694-4.2247-.8011 4.1007-3.3313 7.6568-6.9428 9.7577z"/><path d="m21.8379 35.7787c.2542.0675.5252-.0063.71-.1935l3.6667-3.6667c.1376-.1375.2149-.3239.2149-.5184s-.0773-.381-.2149-.5185c-.1375-.1376-.3239-.2148-.5184-.2148s-.3811.0772-.5185.2148l-3.6667 3.6667c-.1872.1849-.261.4558-.1934.71.0675.2542.266.4528.5203.5204z"/><path d="m24.2512 36.7249c.0675.2543.2661.4529.5203.5204s.5252-.0063.71-.1934l5.8667-5.8667c.1376-.1375.2149-.324.2149-.5185s-.0773-.381-.2149-.5185c-.1375-.1375-.324-.2148-.5184-.2148-.1945 0-.381.0773-.5185.2148l-5.8667 5.8667c-.1872.1849-.261.4558-.1934.71z"/><path d="m27.9172 37.4583c.0675.2542.2661.4528.5203.5203.2542.0676.5252-.0063.71-.1934l7.3334-7.3333c.1375-.1375.2148-.324.2148-.5185s-.0773-.381-.2148-.5185c-.1375-.1376-.324-.2148-.5185-.2148s-.381.0772-.5185.2148l-7.3333 7.3333c-.1871.1849-.261.4559-.1934.7101z"/><path d="m31.5851 38.1916c.0676.2543.2662.4529.5204.5204s.5252-.0063.71-.1934l8.0667-8.0667c.1376-.1375.2149-.324.2149-.5185s-.0773-.381-.2149-.5185c-.1375-.1376-.324-.2148-.5184-.2148-.1945 0-.381.0772-.5185.2148l-8.0667 8.0667c-.1872.1848-.261.4558-.1935.71z"/><path d="m35.9836 38.1916c.0675.2542.2661.4528.5203.5204.2542.0675.5252-.0063.7101-.1935l7.3333-7.3333c.1375-.1375.2148-.3239.2148-.5184s-.0773-.381-.2148-.5185c-.1375-.1376-.324-.2148-.5185-.2148s-.381.0772-.5185.2148l-7.3333 7.3333c-.1871.1848-.261.4558-.1934.71z"/><path d="m40.384 38.1916c.0675.2542.2661.4528.5203.5204.2542.0675.5252-.0063.71-.1934l6.6-6.6001c.1376-.1375.2149-.3239.2149-.5184s-.0773-.381-.2149-.5185c-.1375-.1376-.3239-.2148-.5184-.2148s-.3811.0772-.5185.2148l-6.6 6.6c-.1871.1848-.261.4558-.1934.71z"/><path d="m45.5187 37.4583c.0676.2542.2662.4528.5204.5203.2542.0676.5252-.0063.71-.1934l5.8667-5.8667c.1376-.1375.2148-.324.2148-.5185s-.0772-.381-.2148-.5185c-.1375-.1375-.324-.2148-.5185-.2148-.1944 0-.3809.0773-.5184.2148l-5.8667 5.8667c-.1872.1849-.261.4559-.1935.7101z"/><path d="m50.6474 36.7257c.0675.2548.2665.4538.5213.5212.2548.0675.5261-.007.7107-.1951l2.9334-2.9333c.188-.1846.2625-.456.195-.7107-.0674-.2548-.2664-.4538-.5212-.5213-.2548-.0674-.5261.0071-.7108.1951l-2.9333 2.9333c-.188.1847-.2624.456-.1951.7108z"/><path d="m32.9771 22.1152c.451.539.4512 1.3236.0003 1.8627l-.2943.3517c-.1681.2008-.2163.4761-.1265.7221.0899.2461.3043.4254.5623.4705.2579.0451.5204-.0508.6885-.2516l.2947-.3517c.9025-1.0774.9079-2.6453.0129-3.729l-.0144-.0178c-.4515-.5389-.4515-1.3239 0-1.8627l1.7607-2.1055c.1681-.201.2162-.4763.1262-.7224-.0899-.246-.3044-.4254-.5625-.4705-.2582-.0451-.5206.051-.6887.2519l-1.7606 2.1055c-.903 1.0775-.9082 2.6461-.0126 3.7297z"/><path d="m37.3775 22.1152c.4511.5389.4513 1.3236.0004 1.8627l-.2944.3517c-.1681.2008-.2163.4761-.1264.7221.0899.2461.3042.4254.5622.4705s.5205-.0508.6886-.2516l.2946-.3517c.9026-1.0774.908-2.6453.0129-3.729l-.0143-.0178c-.4515-.5389-.4515-1.3239 0-1.8627l1.7607-2.1055c.2598-.3107.2186-.7732-.0921-1.0331-.3106-.2598-.7732-.2186-1.033.0921l-1.7606 2.1055c-.903 1.0775-.9082 2.6461-.0126 3.7296z"/><path d="m41.7778 22.1152c.4511.5389.4513 1.3236.0004 1.8627l-.2944.3517c-.2598.3105-.2187.7728.0917 1.0327.3105.2599.7729.2188 1.0328-.0917l.2946-.3517c.9025-1.0774.908-2.6453.0129-3.729l-.0143-.0178c-.4515-.5389-.4515-1.3239 0-1.8627l1.7607-2.1055c.2598-.3107.2186-.7732-.0921-1.0331-.3106-.2598-.7732-.2186-1.033.0921l-1.7606 2.1055c-.903 1.0775-.9082 2.6461-.0126 3.7296z"/></g></svg>