<svg fill="none" height="76" viewBox="0 0 76 76" width="76" xmlns="http://www.w3.org/2000/svg"><path d="m37.9992 75.3c20.6002 0 37.3-16.6998 37.3-37.3s-16.6998-37.300003-37.3-37.300003-37.299981 16.699803-37.299981 37.300003 16.699781 37.3 37.299981 37.3z" /><path d="m37.9992 75.3c20.6002 0 37.3-16.6998 37.3-37.3s-16.6998-37.300003-37.3-37.300003-37.299981 16.699803-37.299981 37.300003 16.699781 37.3 37.299981 37.3z" stroke="#fff" stroke-width="1.4"/><g fill="#fff"><path d="m59.5 35.4084-1.2948-5.1793c.354-.0752.6196-.3892.6196-.7655v-.8351c0-1.813-1.4751-3.2881-3.2881-3.2881h-5.8977v-1.7224c0-.8922-.7257-1.618-1.6179-1.618h-30.0629c-.8922 0-1.618.7258-1.618 1.618v14.1963c0 .4324.3505.7829.783.7829.4323 0 .7829-.3505.7829-.7829v-14.1963c0-.0288.0233-.0522.0521-.0522h30.0628c.0288 0 .0521.0234.0521.0522v14.1965c0 .4323.3505.7829.7829.7829.4323 0 .7829-.3505.7829-.7829v-.8875h9.2353c.0008 0 .0014.0002.0021.0002.0008 0 .0014-.0001.0021-.0001 1.1365.0008 2.1014.7467 2.4329 1.7745h-2.4344c-.4324 0-.7829.3505-.7829.7829v1.6702c0 1.3526 1.1004 2.453 2.453 2.453h.8873v3.4446h-2.0471c-.6724-1.9417-2.5182-3.3403-4.6857-3.3403s-4.0134 1.3986-4.6858 3.3403h-.377v-5.8977c0-.4324-.3504-.7829-.7829-.7829-.4323 0-.7829.3505-.7829.7829v5.8976h-16.243c-.6725-1.9417-2.5183-3.3404-4.6858-3.3404s-4.0134 1.3987-4.6858 3.3404h-4.5001c-.0288 0-.0521-.0234-.0521-.0522v-1.7224h3.3925c.4323 0 .7829-.3505.7829-.7829s-.3505-.7829-.7829-.7829h-7.5157c-.4323 0-.7829.3505-.7829.7829s.3505.7829.7829.7829h2.5574v1.7224c0 .8922.7258 1.618 1.618 1.618h4.2289c-.0001.0174-.0013.0347-.0013.0521 0 2.734 2.2243 4.9583 4.9582 4.9583s4.9582-2.2243 4.9582-4.9583c0-.0175-.0011-.0347-.0013-.0521h17.6436c-.0002.0174-.0014.0347-.0014.0521 0 2.734 2.2244 4.9583 4.9583 4.9583s4.9582-2.2243 4.9582-4.9583c0-.0175-.0012-.0347-.0014-.0521h2.5589c.4323 0 .7829-.3505.7829-.7829v-8.3507c.0001-2.0618-1.5211-3.7748-3.5001-4.076zm-9.861-8.5022h5.8977c.9497 0 1.7224.7726 1.7224 1.7223v.0522h-7.6201zm0 8.4551v-5.1149h6.9566l1.2787 5.1149zm-22.4949 16.7015c-1.8706 0-3.3925-1.5218-3.3925-3.3925s1.5219-3.3925 3.3925-3.3925 3.3925 1.5218 3.3925 3.3925-1.5219 3.3925-3.3925 3.3925zm27.5576 0c-1.8707 0-3.3925-1.5218-3.3925-3.3925s1.5218-3.3925 3.3925-3.3925c1.8706 0 3.3925 1.5218 3.3925 3.3925s-1.5219 3.3925-3.3925 3.3925zm6.7328-10.0209h-.8873c-.4893 0-.8873-.3981-.8873-.8873v-.8873h1.7745v1.7746z"/><path d="m27.1434 47.0523c-.8922 0-1.618.7258-1.618 1.618s.7258 1.618 1.618 1.618 1.6179-.7258 1.6179-1.618-.7257-1.618-1.6179-1.618z"/><path d="m54.702 47.0523c-.8922 0-1.618.7258-1.618 1.618s.7258 1.618 1.618 1.618 1.6179-.7258 1.6179-1.618-.7257-1.618-1.6179-1.618z"/><path d="m45.515 43.7121h-11.6911c-.4323 0-.7829.3505-.7829.7829 0 .4325.3505.7829.7829.7829h11.6911c.4323 0 .7829-.3504.7829-.7829 0-.4324-.3505-.7829-.7829-.7829z"/><path d="m25.4738 40.3718h-10.021c-.4323 0-.7829.3505-.7829.7829s.3505.7829.7829.7829h10.021c.4323 0 .7829-.3505.7829-.7829s-.3506-.7829-.7829-.7829z"/><path d="m40.2248 29.745c-.3057-.3057-.8015-.3057-1.1071.0001l-6.9622 6.962-3.6218-3.6218c-.3057-.3058-.8014-.3058-1.1071 0-.3058.3058-.3058.8014 0 1.1071l4.1754 4.1754c.1528.153.3532.2293.5535.2293s.4008-.0763.5535-.2293l7.5157-7.5156c.3058-.3059.3058-.8015.0001-1.1072z"/></g></svg>