<svg fill="none" height="76" viewBox="0 0 76 76" width="76" xmlns="http://www.w3.org/2000/svg"><path d="m37.9992 75.3c20.6002 0 37.3-16.6998 37.3-37.3s-16.6998-37.300003-37.3-37.300003-37.299981 16.699803-37.299981 37.300003 16.699781 37.3 37.299981 37.3z" stroke="#fff" stroke-width="1.4"/><g fill="#fff"><path d="m58.0353 28.3703c-.0169-.0222-.0345-.0438-.0548-.0638l-2.1837-2.1664c-3.9062-3.8754-9.0873-6.0554-14.588-6.1392l-.0789-.0009c-.0025 0-.0052 0-.0077 0-.2197 0-.4265.085-.583.24-.1581.1569-.2453.3658-.2453.5886v4.8671c0 .327.265.5919.5916.5919.327 0 .592-.2649.592-.5919v-4.5051c5.0868.1491 9.8659 2.1985 13.4858 5.7897l.8982.8914h-19.5406c-2.929 0-5.7841.5719-8.4864 1.7-2.6847 1.1206-5.0853 2.734-7.1353 4.7954-.0086.0086-.0166.0181-.0247.0274-1.7344 1.4032-2.6745 3.1327-2.6745 4.9692v8.1453c0 2.1969 1.3453 4.2417 3.7875 5.7574 2.3547 1.4608 5.473 2.2653 8.781 2.2653h.0222.0034c.0015 0 .0031-.0003.0046-.0003 3.2967-.0049 6.4032-.8088 8.7505-2.265 2.4426-1.5157 3.7875-3.5605 3.7875-5.7574v-8.1453c0-.5722-.0918-1.1336-.2699-1.6784h14.0824c.7928 0 1.4377-.6449 1.4377-1.4377v-6.9381c0-.359-.1331-.6872-.3516-.9392zm-16.0821 19.1387c0 1.7724-1.1465 3.46-3.2282 4.7516-.0916.057-.1865.1113-.2807.1661v-3.1746c0-.3266-.265-.5916-.5916-.5916-.327 0-.592.265-.592.5916v3.7758c-.7613.3371-1.5816.6128-2.4456.8236v-1.068c0-.3266-.265-.5916-.5919-.5916-.3266 0-.5916.265-.5916.5916v1.3111c-.7913.1334-1.6093.2163-2.4459.2434v-3.4291c0-.3266-.2647-.5916-.5916-.5916-.3266 0-.5916.265-.5916.5916v3.431c-.8363-.0247-1.6543-.1057-2.4459-.2367v-1.3197c0-.3269-.265-.5916-.5916-.5916-.327 0-.5919.265-.5919.5916v1.0803c-.8634-.2077-1.6837-.48-2.4457-.8134v-3.7983c0-.3266-.2649-.5916-.5919-.5916-.3269 0-.5916.265-.5916.5916v3.2048c-.1121-.0641-.224-.1288-.3324-.1963-2.0817-1.2913-3.228-2.9789-3.228-4.7516v-4.7171c.6317.8603 1.5068 1.6482 2.604 2.3291 2.3544 1.4608 5.473 2.2654 8.7807 2.2654 3.3081 0 6.4263-.8046 8.7807-2.2654 1.0976-.6809 1.9723-1.4688 2.6043-2.3291zm-3.2282-3.3937c-2.1696 1.3462-5.0663 2.0875-8.1565 2.0875-3.0905 0-5.9872-.7413-8.1567-2.0875-2.082-1.2917-3.2283-2.979-3.2283-4.752 0-1.7726 1.1466-3.4599 3.2283-4.7516 2.1695-1.3462 5.0662-2.0876 8.1567-2.0876 3.0902 0 5.9869.7414 8.1565 2.0876 2.082 1.2917 3.2282 2.979 3.2282 4.7516 0 1.773-1.1462 3.4603-3.2282 4.752zm18.4784-7.8677c0 .1402-.114.2545-.2542.2545h-.9109v-1.2335c0-.3269-.265-.5916-.5919-.5916s-.5916.2647-.5916.5916v1.2335h-2.4459v-3.5025c0-.3269-.265-.5919-.5916-.5919-.3269 0-.5916.265-.5916.5919v3.5025h-2.4459v-1.2335c0-.3269-.265-.5916-.5919-.5916-.3267 0-.5916.2647-.5916.5916v1.2335h-2.4457v-3.5025c0-.3269-.2649-.5919-.5919-.5919-.3266 0-.5916.265-.5916.5919v3.5025h-1.6392c-.6388-1.0822-1.6445-2.0682-2.9787-2.8958-2.3544-1.4611-5.4729-2.2657-8.7807-2.2657-1.6793 0-3.3096.208-4.816.6033 3.1839-1.866 6.8481-2.8887 10.5684-2.8887h20.6283c.1402 0 .2542.1141.2542.2543z"/><path d="m30.5686 35.5457c-1.1946 0-2.3387.2326-3.309.6723-.2976.1353-.4295.4859-.2945.7836.1349.2973.4856.4292.7832.2943.8178-.3707 1.793-.5667 2.8203-.5667 2.4977 0 4.6078 1.2063 4.6078 2.6345 0 1.4279-2.1101 2.6345-4.6078 2.6345s-4.6077-1.2066-4.6077-2.6345c0-.1809.0342-.3621.102-.5386.117-.3051-.0352-.6474-.3402-.7645-.3051-.1174-.6474.0352-.7645.3402-.1202.3124-.1809.6363-.1809.9629 0 2.1409 2.5439 3.8177 5.7913 3.8177s5.7913-1.6768 5.7913-3.8177-2.5439-3.818-5.7913-3.818z"/></g></svg>