<svg fill="none" height="76" viewBox="0 0 76 76" width="76" xmlns="http://www.w3.org/2000/svg" xmlns:xlink="http://www.w3.org/1999/xlink"><mask id="a" fill="#fff"><path d="m44.4016 27.8373c-1.6773-1.1626-3.6723-1.7899-5.7184-1.7982-2.0462-.0082-4.0462.603-5.733 1.7521-1.6338 1.1107-2.9024 2.6733-3.6481 4.4936-.4246 1.0473-.6702 2.1575-.7268 3.2849-.0059.119.0126.2379.0545.3496.0418.1116.1061.2137.189.2999.0828.0863.1824.1549.2928.2018s.2292.071.3493.0709h5.0622c.2181-.0006.4284-.0809.5907-.2255.1624-.1445.2654-.3433.2895-.5584.1867-1.6109 1.6102-2.8728 3.2413-2.8728 1.6312 0 3.0546 1.2619 3.2413 2.8728.0241.215.1271.4137.2893.5583.1623.1446.3724.2249.5905.2256h5.0621c.1201.0001.2389-.024.3493-.071.1104-.0469.21-.1156.2928-.2019.0828-.0864.147-.1885.1888-.3002.0417-.1117.0601-.2307.0541-.3497-.055-1.0736-.2808-2.1318-.669-3.1355-.7267-1.8571-1.9947-3.4572-3.6422-4.5963zm-1.4254 7.5364c-.1568-.9232-.6071-1.7725-1.2851-2.4237s-1.5481-1.0702-2.4833-1.1958v-2.7702c0-.1483-.0594-.2905-.1651-.3954-.1057-.1048-.249-.1637-.3985-.1637-.1494 0-.2928.0589-.3985.1637-.1056.1049-.165.2471-.165.3954v2.7702c-.9352.1255-1.8054.5446-2.4834 1.1958s-1.1283 1.5005-1.2851 2.4237h-4.5951c.0714-.9158.2836-1.8155.6291-2.6677.6747-1.6493 1.8333-3.0595 3.3255-4.0478 1.4923-.9883 3.2493-1.509 5.0434-1.4947 1.7942.0143 3.5426.5629 5.0186 1.5748 1.4761 1.0119 2.6117 2.4404 3.2596 4.1003.3145.813.5089 1.6669.5772 2.5351z" fill="#fff"/></mask><circle cx="38" cy="38" r="37.3"/><circle cx="38" cy="38" r="37.3" stroke="#fff" stroke-width="1.4"/><g fill="#fff"><path d="m20.0957 43.8571h.0001c1.095 4.0454 3.5016 7.6206 6.8481 10.1739s7.4469 3.9428 11.6684 3.9544h.0004c1.6887-.0014 3.3699-.2224 5.0007-.6574 3.6683-.9751 6.9628-3.0075 9.467-5.8403s4.1056-6.3388 4.6013-10.0748c.4958-3.7359-.1362-7.5337-1.8161-10.9132-1.6799-3.3794-4.3319-6.1887-7.6209-8.0725-3.289-1.8839-7.0671-2.7578-10.8567-2.5114-3.7895.2464-7.4204 1.6021-10.4334 3.8957-3.0131 2.2937-5.2731 5.4224-6.494 8.9905s-1.3479 7.4153-.3649 11.0551zm13.9341-22.0113.0001-.0001c1.514-.404 3.0749-.6092 4.6427-.6103 3.127.0063 6.1974.8282 8.903 2.3832 2.7058 1.555 4.9516 3.7885 6.5124 6.4762 1.5609 2.6878 2.3818 5.7353 2.3806 8.8371-.0012 3.1017-.8245 6.1487-2.3874 8.8352-1.4656 2.5183-3.5347 4.6393-6.024 6.175-2.4894 1.5357-5.3221 2.4387-8.2474 2.6289-2.9252.1902-5.8526-.3382-8.5228-1.5385-2.6701-1.2002-5.0006-3.0351-6.785-5.3422-1.7845-2.307-2.9678-5.0149-3.4453-7.8839-.4774-2.8689-.2344-5.8104.7078-8.5639.9421-2.7535 2.5542-5.2342 4.6936-7.2221 2.1394-1.988 4.7401-3.4219 7.5717-4.1746z" stroke="#fff" stroke-width=".25"/><path d="m44.4016 27.8373c-1.6773-1.1626-3.6723-1.7899-5.7184-1.7982-2.0462-.0082-4.0462.603-5.733 1.7521-1.6338 1.1107-2.9024 2.6733-3.6481 4.4936-.4246 1.0473-.6702 2.1575-.7268 3.2849-.0059.119.0126.2379.0545.3496.0418.1116.1061.2137.189.2999.0828.0863.1824.1549.2928.2018s.2292.071.3493.0709h5.0622c.2181-.0006.4284-.0809.5907-.2255.1624-.1445.2654-.3433.2895-.5584.1867-1.6109 1.6102-2.8728 3.2413-2.8728 1.6312 0 3.0546 1.2619 3.2413 2.8728.0241.215.1271.4137.2893.5583.1623.1446.3724.2249.5905.2256h5.0621c.1201.0001.2389-.024.3493-.071.1104-.0469.21-.1156.2928-.2019.0828-.0864.147-.1885.1888-.3002.0417-.1117.0601-.2307.0541-.3497-.055-1.0736-.2808-2.1318-.669-3.1355-.7267-1.8571-1.9947-3.4572-3.6422-4.5963zm-1.4254 7.5364c-.1568-.9232-.6071-1.7725-1.2851-2.4237s-1.5481-1.0702-2.4833-1.1958v-2.7702c0-.1483-.0594-.2905-.1651-.3954-.1057-.1048-.249-.1637-.3985-.1637-.1494 0-.2928.0589-.3985.1637-.1056.1049-.165.2471-.165.3954v2.7702c-.9352.1255-1.8054.5446-2.4834 1.1958s-1.1283 1.5005-1.2851 2.4237h-4.5951c.0714-.9158.2836-1.8155.6291-2.6677.6747-1.6493 1.8333-3.0595 3.3255-4.0478 1.4923-.9883 3.2493-1.509 5.0434-1.4947 1.7942.0143 3.5426.5629 5.0186 1.5748 1.4761 1.0119 2.6117 2.4404 3.2596 4.1003.3145.813.5089 1.6669.5772 2.5351z"/><path d="m44.4016 27.8373-2.8483 4.1094.0048.0033zm-11.4514-.0461 2.811 4.135.004-.0027zm-3.6481 4.4936-4.6268-1.8955-.0034.0084-.0034.0084zm-.7268 3.2849-4.9937-.2505-.0002.0033zm.8856.9222v-5h-.0033zm5.0622 0v5h.0075.0075zm.8802-.7839-4.9668-.5756-.0011.0094-.001.0095zm6.4826 0 4.9689-.5571-.0011-.0093-.001-.0092zm.8798.7839-.0177 5h.0089.0088zm5.0621 0 .0031-5h-.0031zm.885-.9228 4.9935-.2538-.0001-.0022zm-.669-3.1355 4.6635-1.8035-.0037-.0093-.0036-.0094zm-5.0676 2.9401-4.9295.8371.7069 4.1629h4.2226zm-3.7684-3.6195h-5v4.3733l4.3344.5822zm-1.1271 0 .6654 4.9555 4.3346-.5821v-4.3734zm-3.7685 3.6195v5h4.2225l.707-4.1629zm-4.5951 0-4.9848-.3885-.4201 5.3885h5.4049zm.6291-2.6677-4.6277-1.8931-.003.0071-.0029.0072zm16.6471.1326 4.6633-1.8039-.0028-.0071-.0028-.0072zm.5772 2.5351v5h5.4089l-.4243-5.3922zm-.3205-11.6458c-2.5107-1.7402-5.4923-2.6764-8.5467-2.6887l-.0402 9.9999c1.0378.0042 2.0462.3226 2.8902.9076zm-8.5467-2.6887c-3.0545-.0123-6.0434.8999-8.5681 2.6197l5.63 8.2646c.849-.5783 1.86-.8886 2.8979-.8844zm-8.5641 2.617c-2.4421 1.6602-4.3442 4.0001-5.4639 6.7331l9.2536 3.7909c.3718-.9075 1.0069-1.6928 1.8323-2.254zm-5.4707 6.7499c-.6347 1.5655-1.0023 3.226-1.0869 4.9131l9.9874.5011c.0285-.5678.1522-1.1277.3668-1.6569zm-1.0871 4.9164c-.0397.8014.0853 1.6017.3665 2.3519l9.3637-3.5102c.1976.5269.2855 1.0894.2576 1.6528zm.3665 2.3519c.2812.7501.7121 1.4329 1.2645 2.0081l7.2128-6.9265c.3866.4027.689.8814.8864 1.4082zm1.2645 2.0081c.5522.575 1.2143 1.0305 1.9447 1.3407l3.909-9.2043c.5097.2164.9724.5345 1.3591.9371zm1.9447 1.3407c.7303.3101 1.5151.4693 2.307.4687l-.0065-10c.5518-.0003 1.0989.1105 1.6085.327zm2.3038.4687h5.0622v-10h-5.0622zm5.0772 0c1.4345-.0043 2.8235-.5318 3.9012-1.4917l-6.651-7.4675c.7531-.6708 1.7216-1.0377 2.7197-1.0407zm3.9012-1.4917c1.0788-.9607 1.7708-2.2891 1.9329-3.7355l-9.9378-1.1134c.1138-1.0162.5999-1.947 1.3539-2.6186zm1.9307-3.7166c-.0583.5033-.3004.8856-.5712 1.1256s-.6689.426-1.1542.426v-10c-4.1477 0-7.7266 3.1425-8.2081 7.2972zm-1.7254 1.5516c-.4854 0-.8835-.186-1.1543-.4261-.2707-.2399-.5128-.6222-.5711-1.1255l9.9335-1.1512c-.4815-4.1544-4.06-7.2972-8.2081-7.2972zm-1.7276-1.5701c.1621 1.4458.8538 2.7736 1.9319 3.7342l6.6527-7.466c.7536.6715 1.2393 1.6019 1.3532 2.6176zm1.9319 3.7342c1.0771.9597 2.4653 1.4875 3.8991 1.4926l.0354-9.9999c.9977.0035 1.9656.3707 2.7182 1.0413zm3.9168 1.4926h5.0621v-10h-5.0621zm5.0589 0c.7925.0005 1.5779-.1588 2.3086-.4695l-3.9122-9.203c.51-.2167 1.0576-.3278 1.6099-.3275zm2.3086-.4695c.7308-.3107 1.3931-.7667 1.9454-1.3426l-7.2174-6.9217c.3867-.4032.8498-.7218 1.3598-.9387zm1.9454-1.3426c.5524-.576.983-1.2597 1.2637-2.0106l-9.3672-3.5008c.1971-.5275.4993-1.0069.8861-1.4103zm1.2637-2.0106c.2806-.7509.4048-1.552.364-2.3539l-9.9871.5076c-.0286-.5639.0587-1.127.2559-1.6545zm.3639-2.3561c-.0822-1.6042-.4195-3.1848-.9989-4.683l-9.3269 3.607c.1969.5091.3111 1.045.3389 1.588zm-1.0062-4.7017c-1.0912-2.7882-2.9924-5.1843-5.4548-6.8868l-5.6871 8.2254c.8325.5756 1.4672 1.3799 1.8296 2.3058zm-4.7944 3.9252c-.3369-1.9838-1.3035-3.8024-2.7509-5.1926l-6.9272 7.212c-.0914-.0877-.1574-.2078-.1808-.3452zm-2.7509-5.1926c-1.4467-1.3896-3.2981-2.279-5.2813-2.5453l-1.3312 9.911c-.1129-.0152-.2239-.0665-.3147-.1537zm-.9469 2.4102v-2.7702h-10v2.7702zm0-2.7702c0-1.4873-.5959-2.9055-1.6436-3.9449l-7.0429 7.099c-.8364-.8297-1.3135-1.9635-1.3135-3.1541zm-1.6436-3.9449c-1.0463-1.0381-2.4571-1.6142-3.92-1.6142v10c-1.1638 0-2.288-.4584-3.1229-1.2868zm-3.92-1.6142c-1.4628 0-2.8736.5761-3.9199 1.6142l7.0429 7.099c-.835.8284-1.9591 1.2868-3.123 1.2868zm-3.9199 1.6142c-1.0477 1.0394-1.6436 2.4576-1.6436 3.9449h10c0 1.1906-.4771 2.3244-1.3135 3.1541zm-1.6436 3.9449v2.7702h10v-2.7702zm4.3345-2.1854c-1.9833.2664-3.8347 1.1557-5.2815 2.5453l6.9272 7.2121c-.0908.0872-.2018.1385-.3148.1537zm-5.2815 2.5453c-1.4474 1.3903-2.414 3.2089-2.7509 5.1927l9.8589 1.6742c-.0234.1374-.0894.2575-.1808.3452zm2.1785 1.0298h-4.5951v10h4.5951zm.3898 5.3886c.0315-.4035.125-.8005.2778-1.1775l-9.2672-3.7576c-.5382 1.3275-.869 2.7297-.9803 4.158zm.272-1.1632c.293-.7163.7989-1.3354 1.4586-1.7722l-5.5217-8.3374c-2.3248 1.5397-4.136 3.741-5.1924 6.3234zm1.4586-1.7722c.66-.4372 1.4415-.67 2.2427-.6636l.0797-9.9997c-2.787-.0222-5.5197.7865-7.8441 2.3259zm2.2427-.6636c.8012.0064 1.5786.2516 2.2312.699l5.6544-8.2479c-2.2995-1.5764-5.0189-2.4286-7.8059-2.4508zm2.2312.699c.6522.4471 1.1478 1.0738 1.4291 1.7944l9.3154-3.6363c-1.0146-2.5991-2.7901-4.8293-5.0901-6.406zm1.4235 1.7801c.1397.3611.2257.7394.2559 1.1236l9.9692-.7845c-.1064-1.3523-.4092-2.6817-.8985-3.9468zm5.2405-4.2687h-4.5943v10h4.5943z" mask="url(#a)"/></g></svg>