<svg width="100" height="100" viewBox="0 0 100 100" fill="none" xmlns="http://www.w3.org/2000/svg">
<path d="M96.9552 56.5416C86.4497 40.4554 87.5663 23.9666 82.5024 16.2138C77.4386 8.46101 62.3469 -4.90566 26.6886 18.386C-8.96978 41.6777 0.0996612 66.9971 5.67188 75.5221C31.7497 115.444 115.564 85.0304 96.9552 56.5416Z" fill="white"/>
<path d="M50.0001 75.6943C64.1908 75.6943 75.6946 64.1905 75.6946 49.9999C75.6946 35.8092 64.1908 24.3054 50.0001 24.3054C35.8095 24.3054 24.3057 35.8092 24.3057 49.9999C24.3057 64.1905 35.8095 75.6943 50.0001 75.6943Z" fill="#F3F3F1"/>
<path d="M30.5557 49.9999C30.5557 36.8693 40.4112 26.0582 53.1251 24.5138C52.0973 24.3888 51.0612 24.3054 50.0001 24.3054C35.8084 24.3054 24.3057 35.8082 24.3057 49.9999C24.3057 64.1915 35.8084 75.6943 50.0001 75.6943C51.0612 75.6943 52.0973 75.611 53.1251 75.486C40.4112 73.9415 30.5557 63.1304 30.5557 49.9999Z" fill="#D5DBE1"/>
<path d="M11.0967 12.8127L13.0609 10.8486L16.9892 14.7769L15.0251 16.7411L11.0967 12.8127Z" fill="#A4AFC1"/>
<path d="M22.3848 24.1035L24.349 22.1393L28.2773 26.0677L26.3131 28.0319L22.3848 24.1035Z" fill="#A4AFC1"/>
<path d="M10.6035 26.0735L14.5319 22.1451L16.4961 24.1093L12.5677 28.0377L10.6035 26.0735Z" fill="#A4AFC1"/>
<path d="M21.8936 14.7798L25.8219 10.8514L27.7861 12.8156L23.8577 16.744L21.8936 14.7798Z" fill="#A4AFC1"/>
<path d="M49.9999 61.8057C56.5199 61.8057 61.8055 56.5202 61.8055 50.0001C61.8055 43.4801 56.5199 38.1946 49.9999 38.1946C43.4799 38.1946 38.1943 43.4801 38.1943 50.0001C38.1943 56.5202 43.4799 61.8057 49.9999 61.8057Z" fill="#2FDF84"/>
<path d="M44.4443 50.0001C44.4443 44.5696 48.1332 40.0418 53.1249 38.6668C52.1221 38.3918 51.0888 38.1946 49.9999 38.1946C43.4804 38.1946 38.1943 43.4807 38.1943 50.0001C38.1943 56.5196 43.4804 61.8057 49.9999 61.8057C51.0888 61.8057 52.1221 61.6112 53.1249 61.3335C48.1332 59.9585 44.4443 55.4307 44.4443 50.0001Z" fill="#3DC383"/>
<path d="M50.0002 63.8886C42.3419 63.8886 36.1113 57.6581 36.1113 49.9997C36.1113 42.3414 42.3419 36.1108 50.0002 36.1108C57.6585 36.1108 63.8891 42.3414 63.8891 49.9997C63.8891 57.6581 57.6585 63.8886 50.0002 63.8886ZM50.0002 40.2775C44.6391 40.2775 40.278 44.6386 40.278 49.9997C40.278 55.3608 44.6391 59.722 50.0002 59.722C55.3613 59.722 59.7224 55.3608 59.7224 49.9997C59.7224 44.6386 55.3613 40.2775 50.0002 40.2775Z" fill="#353643"/>
<path d="M50.0004 77.778C34.6838 77.778 22.2227 65.3169 22.2227 50.0002C22.2227 34.6835 34.6838 22.2224 50.0004 22.2224C65.3171 22.2224 77.7782 34.6835 77.7782 50.0002C77.7782 65.3169 65.3171 77.778 50.0004 77.778ZM50.0004 26.3891C36.981 26.3891 26.3893 36.9807 26.3893 50.0002C26.3893 63.0196 36.981 73.6113 50.0004 73.6113C63.0199 73.6113 73.6115 63.0196 73.6115 50.0002C73.6115 36.9807 63.0199 26.3891 50.0004 26.3891Z" fill="#353643"/>
<path d="M47.917 18.75H52.0836V28.4722H47.917V18.75Z" fill="#353643"/>
<path d="M47.917 71.5278H52.0836V81.2501H47.917V71.5278Z" fill="#353643"/>
<path d="M18.75 47.9167H28.4722V52.0834H18.75V47.9167Z" fill="#353643"/>
<path d="M71.5273 47.9167H81.2496V52.0834H71.5273V47.9167Z" fill="#353643"/>
</svg>
