<svg width="100" height="100" viewBox="0 0 100 100" fill="none" xmlns="http://www.w3.org/2000/svg">
<path d="M88.4247 76.7305C88.4247 57.5166 98.3775 44.3222 98.3775 35.0639C98.3775 25.8055 93.0552 6.36108 50.4636 6.36108C7.87192 6.36108 1.61914 32.5194 1.61914 42.7027C1.61914 90.3889 88.4247 110.758 88.4247 76.7305Z" fill="white"/>
<path d="M74.2803 11.4346L76.2445 9.47038L80.1728 13.3988L78.2086 15.3629L74.2803 11.4346Z" fill="#A4AFC1"/>
<path d="M85.5723 22.7295L87.5365 20.7653L91.4648 24.6937L89.5006 26.6579L85.5723 22.7295Z" fill="#A4AFC1"/>
<path d="M85.084 13.4001L89.0124 9.47178L90.9765 11.436L87.0482 15.3643L85.084 13.4001Z" fill="#A4AFC1"/>
<path d="M13.8893 45.8333C11.5921 45.8333 9.72266 43.9639 9.72266 41.6667C9.72266 39.3694 11.5921 37.5 13.8893 37.5C16.1865 37.5 18.056 39.3694 18.056 41.6667C18.056 43.9639 16.1865 45.8333 13.8893 45.8333ZM13.8893 40.2778C13.1227 40.2778 12.5004 40.9 12.5004 41.6667C12.5004 42.4333 13.1227 43.0556 13.8893 43.0556C14.656 43.0556 15.2782 42.4333 15.2782 41.6667C15.2782 40.9 14.656 40.2778 13.8893 40.2778Z" fill="#A4AFC1"/>
<path d="M43.0556 36.8054L68.0555 81.2499H18.75L43.0556 36.8054Z" fill="#2FDF84"/>
<path d="M60.2031 67.5442L66.667 54.8608L81.2504 81.2497H68.0559L60.2031 67.5442Z" fill="#2FDF84"/>
<path d="M43.0557 18.75H59.0279L54.8612 23.6111L59.0279 28.4722H43.0557V18.75Z" fill="#F3F3F1"/>
<path d="M43.0557 18.75H49.3057V28.4722H43.0557V18.75Z" fill="#D5DBE1"/>
<path d="M43.0556 36.8054L18.75 81.2499H24.6528L46.0472 42.1249L43.0556 36.8054Z" fill="#00B871"/>
<path d="M69.7365 60.4164L66.667 54.8608L60.2031 67.5442L68.0559 81.2497H73.9587L66.1059 67.5442L69.7365 60.4164Z" fill="#00B871"/>
<path d="M68.0555 83.3332H18.75C18.0138 83.3332 17.3333 82.9443 16.9583 82.311C16.5833 81.6776 16.5694 80.8943 16.9222 80.2499L24.8972 65.6665L28.5527 67.6665L22.2638 79.1665H64.4944L43.0833 41.0999L31.2138 62.8054L27.5583 60.8054L41.2305 35.8054C41.5944 35.1415 42.2888 34.7249 43.0472 34.7221C43.7388 34.7026 44.5027 35.1249 44.875 35.7832L69.875 80.2276C70.2361 80.8721 70.2305 81.661 69.8583 82.2999C69.4805 82.9387 68.7972 83.3332 68.0555 83.3332Z" fill="#353643"/>
<path d="M81.2503 83.3334H68.0558V79.1667H77.7197L66.742 59.3028L62.0558 68.4917L58.3447 66.5973L64.8114 53.9139C65.1614 53.2278 65.8614 52.7917 66.6308 52.7778C67.4836 52.7862 68.1197 53.1806 68.4892 53.8528L83.0725 80.2417C83.4281 80.8862 83.4197 81.6723 83.0447 82.3084C82.6697 82.9445 81.9892 83.3334 81.2503 83.3334Z" fill="#353643"/>
<path d="M45.1393 36.8056H40.9727V18.7501C40.9727 17.6001 41.906 16.6667 43.056 16.6667H59.0282C59.8421 16.6667 60.581 17.139 60.9199 17.8806C61.2615 18.6195 61.1393 19.489 60.6088 20.1084L57.606 23.6112L60.6115 27.1167C61.1421 27.7362 61.2615 28.6056 60.9226 29.3445C60.581 30.0834 59.8421 30.5556 59.0282 30.5556H45.1393V36.8056ZM45.1393 26.389H54.4977L53.281 24.9667C52.6115 24.1862 52.6115 23.0362 53.281 22.2529L54.4977 20.8334H45.1393V26.389Z" fill="#353643"/>
<path d="M47.2222 58.3334C46.6889 58.3334 46.1528 58.1278 45.75 57.7223L43.0555 55.0278L40.3611 57.7223C39.6028 58.4834 38.3889 58.5389 37.5611 57.8556L33.5889 54.5778L36.2416 51.3639L38.7528 53.4389L41.5805 50.6111C42.3944 49.7973 43.7139 49.7973 44.5278 50.6111L47.3555 53.4389L49.8666 51.3639L52.5194 54.5778L48.5472 57.8556C48.1611 58.175 47.6916 58.3334 47.2222 58.3334Z" fill="#353643"/>
<path d="M5.55566 79.1663H94.4445V83.3329H5.55566V79.1663Z" fill="#353643"/>
</svg>
