<svg width="100" height="100" viewBox="0 0 100 100" fill="none" xmlns="http://www.w3.org/2000/svg">
<path d="M76.1584 10.8723C56.9501 11.2306 43.5695 1.52509 34.314 1.70009C25.0584 1.87509 5.71399 7.55842 6.51121 50.1445C7.30843 92.7307 33.5779 98.489 43.7612 98.3001C91.4362 97.4084 110.181 10.2362 76.1584 10.8723Z" fill="white"/>
<path d="M55.209 13.8501H60.7645V16.6279H55.209V13.8501Z" fill="#A4AFC1"/>
<path d="M39.2363 13.8501H44.7919V16.6279H39.2363V13.8501Z" fill="#A4AFC1"/>
<path d="M48.959 4.12769H51.7368V9.68324H48.959V4.12769Z" fill="#A4AFC1"/>
<path d="M21.528 36.8055C19.2308 36.8055 17.3613 34.9361 17.3613 32.6388C17.3613 30.3416 19.2308 28.4722 21.528 28.4722C23.8252 28.4722 25.6947 30.3416 25.6947 32.6388C25.6947 34.9361 23.8252 36.8055 21.528 36.8055ZM21.528 31.2499C20.7613 31.2499 20.1391 31.8749 20.1391 32.6388C20.1391 33.4027 20.7613 34.0277 21.528 34.0277C22.2947 34.0277 22.9169 33.4027 22.9169 32.6388C22.9169 31.8749 22.2947 31.2499 21.528 31.2499Z" fill="#A4AFC1"/>
<path d="M75.694 78.4724H24.3051L21.5273 67.3613H78.4718L75.694 78.4724Z" fill="#F3F3F1"/>
<path d="M49.9996 35.4167C34.2718 35.4167 21.5273 49.2667 21.5273 64.6473C21.5273 65.0973 21.5273 65.5223 21.5551 65.9723H78.444C78.4718 65.5223 78.4718 65.0973 78.4718 64.6473C78.4718 49.2667 65.7273 35.4167 49.9996 35.4167Z" fill="#2FDF84"/>
<path d="M49.9996 28.472C51.9172 28.472 53.4718 26.9175 53.4718 24.9998C53.4718 23.0822 51.9172 21.5276 49.9996 21.5276C48.0819 21.5276 46.5273 23.0822 46.5273 24.9998C46.5273 26.9175 48.0819 28.472 49.9996 28.472Z" fill="#2FDF84"/>
<path d="M21.5273 67.3613L24.3051 78.4725H30.5551L27.7773 67.3613H21.5273Z" fill="#D5DBE1"/>
<path d="M53.1246 35.6112C52.0968 35.489 51.0579 35.4167 49.9996 35.4167C34.2718 35.4167 21.5273 49.2667 21.5273 64.6473C21.5273 65.0973 21.5273 65.5223 21.5551 65.9723H27.8051C27.7773 65.5223 27.7773 65.0973 27.7773 64.6473C27.7773 50.3001 38.869 37.2973 53.1246 35.6112Z" fill="#00B871"/>
<path d="M75.6946 80.5556H24.3057C23.3502 80.5556 22.5168 79.9056 22.2835 78.9778L19.5057 67.8667C19.3502 67.2445 19.4891 66.5862 19.8835 66.0778C20.2807 65.5723 20.8863 65.2778 21.528 65.2778H78.4724C79.1141 65.2778 79.7196 65.5723 80.1141 66.0778C80.5085 66.5862 80.6474 67.2445 80.4919 67.8667L77.7141 78.9778C77.4835 79.9056 76.6502 80.5556 75.6946 80.5556ZM25.9307 76.3889H74.0669L75.8057 69.4445H24.1946L25.9307 76.3889Z" fill="#353643"/>
<path d="M80.5249 66.0976L76.3666 65.8476C76.3916 65.4393 76.3888 65.0532 76.3888 64.6449C76.3888 49.931 64.3027 37.5004 49.9999 37.5004C35.6971 37.5004 23.611 49.9337 23.611 64.6449C23.611 65.0504 23.611 65.4365 23.6332 65.8476L19.4749 66.0976C19.4443 65.606 19.4443 65.1393 19.4443 64.6449C19.4443 47.6726 33.4388 33.3337 49.9999 33.3337C66.561 33.3337 80.5555 47.6726 80.5555 64.6449C80.5555 65.1393 80.5555 65.606 80.5249 66.0976Z" fill="#353643"/>
<path d="M47.917 29.1667H52.0837V34.7223H47.917V29.1667Z" fill="#353643"/>
<path d="M49.9999 30.5557C46.936 30.5557 44.4443 28.064 44.4443 25.0001C44.4443 21.9362 46.936 19.4446 49.9999 19.4446C53.0638 19.4446 55.5555 21.9362 55.5555 25.0001C55.5555 28.064 53.0638 30.5557 49.9999 30.5557ZM49.9999 23.6112C49.2332 23.6112 48.611 24.2362 48.611 25.0001C48.611 25.764 49.2332 26.389 49.9999 26.389C50.7666 26.389 51.3888 25.764 51.3888 25.0001C51.3888 24.2362 50.7666 23.6112 49.9999 23.6112Z" fill="#353643"/>
<path d="M72.2224 59.0279H68.0558C68.0558 51.7529 62.1363 45.8334 54.8613 45.8334V41.6667C64.4336 41.6667 72.2224 49.4556 72.2224 59.0279Z" fill="#353643"/>
<path d="M18.75 65.2778H81.25V69.4445H18.75V65.2778Z" fill="#353643"/>
</svg>
