<svg width="100" height="100" viewBox="0 0 100 100" fill="none" xmlns="http://www.w3.org/2000/svg">
<path d="M96.9552 56.5418C86.4497 40.4557 87.5663 23.9668 82.5024 16.214C77.4386 8.46125 62.3469 -4.90542 26.6886 18.3862C-8.96978 41.6779 0.0996612 66.9973 5.67188 75.5223C31.7497 115.445 115.564 85.0307 96.9552 56.5418Z" fill="white"/>
<path d="M29.8612 38.1946L24.3057 67.3613H34.7223H45.8334H55.5557L61.8057 38.1946H29.8612Z" fill="#2FDF84"/>
<path d="M70.139 46.5278H60.0196L55.5557 67.3612H65.2779H76.389H79.1668L81.2501 57.6389C81.2501 51.5001 76.2779 46.5278 70.139 46.5278Z" fill="#2FDF84"/>
<path d="M70.8338 72.9168C73.5185 72.9168 75.6949 70.7404 75.6949 68.0557C75.6949 65.371 73.5185 63.1946 70.8338 63.1946C68.1491 63.1946 65.9727 65.371 65.9727 68.0557C65.9727 70.7404 68.1491 72.9168 70.8338 72.9168Z" fill="#F3F3F1"/>
<path d="M40.2781 72.9168C42.9628 72.9168 45.1392 70.7404 45.1392 68.0557C45.1392 65.371 42.9628 63.1946 40.2781 63.1946C37.5934 63.1946 35.417 65.371 35.417 68.0557C35.417 70.7404 37.5934 72.9168 40.2781 72.9168Z" fill="#F3F3F1"/>
<path d="M29.8612 38.1946L24.3057 67.3613H30.5557L36.1112 38.1946H29.8612Z" fill="#00B871"/>
<path d="M60.0196 46.5278L55.5557 67.3612H61.8057L66.2696 46.5278H60.0196Z" fill="#00B871"/>
<path d="M72.2227 68.0557C72.2227 66.5668 72.906 65.2529 73.9588 64.3612C73.1116 63.6446 72.031 63.1946 70.8338 63.1946C68.1477 63.1946 65.9727 65.3724 65.9727 68.0557C65.9727 70.739 68.1477 72.9168 70.8338 72.9168C72.031 72.9168 73.1116 72.4668 73.9588 71.7501C72.906 70.8585 72.2227 69.5446 72.2227 68.0557Z" fill="#D5DBE1"/>
<path d="M41.667 68.0557C41.667 66.5668 42.3503 65.2529 43.4031 64.3612C42.5559 63.6446 41.4753 63.1946 40.2781 63.1946C37.5948 63.1946 35.417 65.3724 35.417 68.0557C35.417 70.739 37.5948 72.9168 40.2781 72.9168C41.4753 72.9168 42.5559 72.4668 43.4031 71.7501C42.3503 70.8585 41.667 69.5446 41.667 68.0557Z" fill="#D5DBE1"/>
<path d="M15.9723 35.4171C13.6751 35.4171 11.8057 33.5476 11.8057 31.2504C11.8057 28.9532 13.6751 27.0837 15.9723 27.0837C18.2696 27.0837 20.139 28.9532 20.139 31.2504C20.139 33.5476 18.2696 35.4171 15.9723 35.4171ZM15.9723 29.8615C15.2057 29.8615 14.5834 30.4865 14.5834 31.2504C14.5834 32.0143 15.2057 32.6393 15.9723 32.6393C16.739 32.6393 17.3612 32.0143 17.3612 31.2504C17.3612 30.4865 16.739 29.8615 15.9723 29.8615Z" fill="#A4AFC1"/>
<path d="M72.8975 20.4717L74.8616 18.5075L78.79 22.4359L76.8258 24.4001L72.8975 20.4717Z" fill="#A4AFC1"/>
<path d="M84.1904 31.769L86.1546 29.8049L90.083 33.7332L88.1188 35.6974L84.1904 31.769Z" fill="#A4AFC1"/>
<path d="M72.4014 33.7166L76.3297 29.7882L78.2939 31.7524L74.3656 35.6807L72.4014 33.7166Z" fill="#A4AFC1"/>
<path d="M83.6953 22.4241L87.6237 18.4957L89.5879 20.4599L85.6595 24.3883L83.6953 22.4241Z" fill="#A4AFC1"/>
<path d="M24.3057 65.2778H34.7223V69.4445H24.3057V65.2778Z" fill="#353643"/>
<path d="M55.5558 69.4442H45.8336V65.2775H53.8724L59.2308 40.2775H29.8613V36.1108H61.8058C62.4363 36.1108 63.0308 36.397 63.4252 36.8831C63.8224 37.3747 63.9752 38.0136 63.8419 38.6303L57.5919 67.7969C57.3863 68.758 56.5391 69.4442 55.5558 69.4442Z" fill="#353643"/>
<path d="M79.167 69.4446H76.3892V65.2779H77.4837L79.1642 57.4307C79.0531 52.5474 75.0476 48.6112 70.1392 48.6112H61.7031L58.1309 65.2779H65.2781V69.4446H55.5559C54.9254 69.4446 54.3309 69.1585 53.9365 68.6724C53.5392 68.1807 53.3865 67.5418 53.5198 66.9251L57.9837 46.0918C58.1892 45.1307 59.0365 44.4446 60.0198 44.4446H70.1392C77.4142 44.4446 83.3337 50.364 83.3337 57.639C83.3337 57.7862 83.3198 57.9307 83.2865 58.0751L81.2031 67.7974C80.9976 68.7585 80.1504 69.4446 79.167 69.4446Z" fill="#353643"/>
<path d="M70.8331 74.9997C67.0053 74.9997 63.8887 71.8858 63.8887 68.0553C63.8887 64.2247 67.0053 61.1108 70.8331 61.1108C74.6609 61.1108 77.7776 64.2247 77.7776 68.0553C77.7776 71.8858 74.6609 74.9997 70.8331 74.9997ZM70.8331 65.2775C69.3026 65.2775 68.0553 66.5219 68.0553 68.0553C68.0553 69.5886 69.3026 70.8331 70.8331 70.8331C72.3637 70.8331 73.6109 69.5886 73.6109 68.0553C73.6109 66.5219 72.3637 65.2775 70.8331 65.2775Z" fill="#353643"/>
<path d="M40.2775 74.9997C36.4497 74.9997 33.333 71.8858 33.333 68.0553C33.333 64.2247 36.4497 61.1108 40.2775 61.1108C44.1052 61.1108 47.2219 64.2247 47.2219 68.0553C47.2219 71.8858 44.1052 74.9997 40.2775 74.9997ZM40.2775 65.2775C38.7469 65.2775 37.4997 66.5219 37.4997 68.0553C37.4997 69.5886 38.7469 70.8331 40.2775 70.8331C41.808 70.8331 43.0552 69.5886 43.0552 68.0553C43.0552 66.5219 41.808 65.2775 40.2775 65.2775Z" fill="#353643"/>
<path d="M24.3057 41.6667H34.0279V45.8334H24.3057V41.6667Z" fill="#353643"/>
<path d="M21.5273 50H34.0273V54.1667H21.5273V50Z" fill="#353643"/>
<path d="M18.75 58.3333H34.0278V62.4999H18.75V58.3333Z" fill="#353643"/>
</svg>
