<svg width="100" height="100" viewBox="0 0 100 100" fill="none" xmlns="http://www.w3.org/2000/svg">
<path d="M76.7308 88.4252C57.5169 88.4252 44.3224 98.378 35.0641 98.378C25.8058 98.378 6.36133 93.0557 6.36133 50.4641C6.36133 7.87241 32.5197 1.61963 42.703 1.61963C90.3891 1.61963 110.759 88.4252 76.7308 88.4252Z" fill="white"/>
<path d="M62.4997 16.6666C60.2025 16.6666 58.333 14.7971 58.333 12.4999C58.333 10.2027 60.2025 8.33325 62.4997 8.33325C64.7969 8.33325 66.6663 10.2027 66.6663 12.4999C66.6663 14.7971 64.7969 16.6666 62.4997 16.6666ZM62.4997 11.111C61.733 11.111 61.1108 11.736 61.1108 12.4999C61.1108 13.2638 61.733 13.8888 62.4997 13.8888C63.2663 13.8888 63.8886 13.2638 63.8886 12.4999C63.8886 11.736 63.2663 11.111 62.4997 11.111Z" fill="#A4AFC1"/>
<path d="M78.4722 70.1386H21.5278C19.9944 70.1386 18.75 68.8942 18.75 67.3608V32.6386C18.75 31.1053 19.9944 29.8608 21.5278 29.8608H78.4722C80.0056 29.8608 81.25 31.1053 81.25 32.6386V67.3608C81.25 68.8942 80.0056 70.1386 78.4722 70.1386Z" fill="#F3F3F1"/>
<path d="M63.8882 45.139C65.8059 45.139 67.3605 43.5845 67.3605 41.6668C67.3605 39.7491 65.8059 38.1946 63.8882 38.1946C61.9706 38.1946 60.416 39.7491 60.416 41.6668C60.416 43.5845 61.9706 45.139 63.8882 45.139Z" fill="#2FDF84"/>
<path d="M52.7779 59.028C54.6955 59.028 56.2501 57.4734 56.2501 55.5557C56.2501 53.6381 54.6955 52.0835 52.7779 52.0835C50.8602 52.0835 49.3057 53.6381 49.3057 55.5557C49.3057 57.4734 50.8602 59.028 52.7779 59.028Z" fill="#2FDF84"/>
<path d="M36.1109 50.6945C38.0285 50.6945 39.5831 49.1399 39.5831 47.2222C39.5831 45.3046 38.0285 43.75 36.1109 43.75C34.1932 43.75 32.6387 45.3046 32.6387 47.2222C32.6387 49.1399 34.1932 50.6945 36.1109 50.6945Z" fill="#2FDF84"/>
<path d="M25 67.3608V32.6386C25 31.1053 26.2444 29.8608 27.7778 29.8608H21.5278C19.9944 29.8608 18.75 31.1053 18.75 32.6386V67.3608C18.75 68.8942 19.9944 70.1386 21.5278 70.1386H27.7778C26.2444 70.1386 25 68.8942 25 67.3608Z" fill="#D5DBE1"/>
<path d="M66.667 41.6668C66.667 41.139 66.8031 40.6529 67.0142 40.2057C66.4587 39.0251 65.2781 38.1946 63.8892 38.1946C61.9725 38.1946 60.417 39.7501 60.417 41.6668C60.417 43.5835 61.9725 45.139 63.8892 45.139C65.2781 45.139 66.4587 44.3085 67.0142 43.1279C66.8031 42.6807 66.667 42.1946 66.667 41.6668Z" fill="#00B871"/>
<path d="M55.5557 55.5555C55.5557 55.0277 55.6918 54.5416 55.9029 54.0944C55.3473 52.9138 54.1668 52.0833 52.7779 52.0833C50.8612 52.0833 49.3057 53.6388 49.3057 55.5555C49.3057 57.4721 50.8612 59.0277 52.7779 59.0277C54.1668 59.0277 55.3473 58.1971 55.9029 57.0166C55.6918 56.5694 55.5557 56.0833 55.5557 55.5555Z" fill="#00B871"/>
<path d="M38.8887 47.2222C38.8887 46.6944 39.0248 46.2083 39.2359 45.7611C38.6803 44.5806 37.4998 43.75 36.1109 43.75C34.1942 43.75 32.6387 45.3056 32.6387 47.2222C32.6387 49.1389 34.1942 50.6945 36.1109 50.6945C37.4998 50.6945 38.6803 49.8639 39.2359 48.6833C39.0248 48.2361 38.8887 47.75 38.8887 47.2222Z" fill="#00B871"/>
<path d="M63.8886 47.222C60.8247 47.222 58.333 44.7303 58.333 41.6664C58.333 38.6025 60.8247 36.1108 63.8886 36.1108C66.9524 36.1108 69.4441 38.6025 69.4441 41.6664C69.4441 44.7303 66.9524 47.222 63.8886 47.222ZM63.8886 40.2775C63.1219 40.2775 62.4997 40.9025 62.4997 41.6664C62.4997 42.4303 63.1219 43.0553 63.8886 43.0553C64.6552 43.0553 65.2774 42.4303 65.2774 41.6664C65.2774 40.9025 64.6552 40.2775 63.8886 40.2775Z" fill="#353643"/>
<path d="M52.7782 61.1111C49.7143 61.1111 47.2227 58.6195 47.2227 55.5556C47.2227 52.4917 49.7143 50 52.7782 50C55.8421 50 58.3338 52.4917 58.3338 55.5556C58.3338 58.6195 55.8421 61.1111 52.7782 61.1111ZM52.7782 54.1667C52.0115 54.1667 51.3893 54.7917 51.3893 55.5556C51.3893 56.3195 52.0115 56.9445 52.7782 56.9445C53.5449 56.9445 54.1671 56.3195 54.1671 55.5556C54.1671 54.7917 53.5449 54.1667 52.7782 54.1667Z" fill="#353643"/>
<path d="M36.1112 52.7779C33.0473 52.7779 30.5557 50.2862 30.5557 47.2223C30.5557 44.1584 33.0473 41.6667 36.1112 41.6667C39.1751 41.6667 41.6668 44.1584 41.6668 47.2223C41.6668 50.2862 39.1751 52.7779 36.1112 52.7779ZM36.1112 45.8334C35.3446 45.8334 34.7223 46.4584 34.7223 47.2223C34.7223 47.9862 35.3446 48.6112 36.1112 48.6112C36.8779 48.6112 37.5001 47.9862 37.5001 47.2223C37.5001 46.4584 36.8779 45.8334 36.1112 45.8334Z" fill="#353643"/>
<path d="M53.7617 51.0115L59.7053 43.5629L62.9636 46.1629L57.02 53.6115L53.7617 51.0115Z" fill="#353643"/>
<path d="M38.8975 50.9211L40.7529 47.1853L50.0364 51.796L48.181 55.5318L38.8975 50.9211Z" fill="#353643"/>
<path d="M78.4725 72.2223H21.5281C18.8475 72.2223 16.667 70.0417 16.667 67.3612V32.6389C16.667 29.9584 18.8475 27.7778 21.5281 27.7778H78.4725C81.1531 27.7778 83.3336 29.9584 83.3336 32.6389V67.3612C83.3336 70.0417 81.1531 72.2223 78.4725 72.2223ZM21.5281 31.9445C21.1448 31.9445 20.8337 32.2556 20.8337 32.6389V67.3612C20.8337 67.7445 21.1448 68.0556 21.5281 68.0556H78.4725C78.8559 68.0556 79.167 67.7445 79.167 67.3612V32.6389C79.167 32.2556 78.8559 31.9445 78.4725 31.9445H21.5281Z" fill="#353643"/>
<path d="M47.917 70.1387H52.0837V81.2498H47.917V70.1387Z" fill="#353643"/>
<path d="M32.6387 79.1665H67.3609V83.3332H32.6387V79.1665Z" fill="#353643"/>
</svg>
