<svg fill="none" height="100" viewBox="0 0 100 100" width="100" xmlns="http://www.w3.org/2000/svg"><path d="m87.2401 72.4501c0-17.7692-12.5024-32.666-29.1701-36.3748v-4.1392h3.2411c2.6801 0 4.8617-2.1816 4.8617-4.8617s-2.1816-4.8617-4.8617-4.8617h-1.8848l-1.1569-6.4822h-16.6044l-1.1569 6.4822h-1.8849c-2.6801 0-4.8616 2.1816-4.8616 4.8617s2.1815 4.8617 4.8616 4.8617h3.2412v4.1392c-16.6678 3.7088-29.1702 18.6056-29.1702 36.3748v4.8617h-3.24108v1.6206c0 7.4951 5.68308 13.6806 12.96448 14.4893v6.578h55.0991v-6.578c7.2815-.8087 12.9645-6.9942 12.9645-14.4893v-1.6206h-3.2411zm-42.8626-53.4785h11.1793l.5785 3.2411h-12.3362zm-7.3748 8.1028c0-.8934.7256-1.6206 1.6205-1.6206h22.6879c.8942 0 1.6206.7272 1.6206 1.6206 0 .8926-.7264 1.6206-1.6206 1.6206h-22.6879c-.8949 0-1.6205-.728-1.6205-1.6206zm8.1028 4.8617h9.7234v3.5687c-1.5929-.2097-3.2135-.3276-4.8617-.3276-1.6483 0-3.2688.1179-4.8617.3276zm-29.1701 40.514c0-18.7646 15.2671-34.0318 34.0318-34.0318 18.7646 0 34.0318 15.2672 34.0318 34.0318v4.8617h-9.9742l-2.4119-14.1981c-.5816-3.7657-3.6368-6.5242-7.3764-6.8122.1939-.5254.3157-1.0865.3157-1.6775 0-2.6801-2.1816-4.8617-4.8617-4.8617h-9.7233c-1.0113 0-1.9513.3109-2.7308.8427-1.3998-2.4277-3.9944-4.0839-6.9926-4.0839h-4.8617v4.8617c0 1.8311.6338 3.5039 1.6625 4.8617h-.7129c-4.0269 0-7.3946 2.8898-8.0087 6.8692l-.7501 4.8767c-4.3189 1.1648-7.617 4.8158-8.2666 9.3214h-3.3709zm43.7551 3.2412v-1.6206h-3.2411v1.6206c0 .5705.1163 1.1117.2983 1.6205h-3.5394v-9.7234c0-.8949.7256-1.6205 1.6206-1.6205.8941 0 1.6205.7256 1.6205 1.6205v3.2412h3.2411v-3.2412c0-2.6801-2.1815-4.8616-4.8616-4.8616s-4.8617 2.1815-4.8617 4.8616v3.4208c-2.0613-2.108-4.9298-3.4208-8.1028-3.4208-2.0044 0-3.9383.5492-5.6578 1.5446-1.5683-.9139-3.3701-1.4591-5.2953-1.5248l.6141-3.9999c.3695-2.3889 2.3905-4.1227 4.8063-4.1227h27.271c2.1436 0 3.9699 1.369 4.6172 3.363-3.0046.5618-5.2882 3.1937-5.2882 6.3604v6.4823c0 .8941-.7264 1.6205-1.6206 1.6205-.8949 0-1.6206-.7264-1.6206-1.6205zm-29.1701-4.8617c3.9122 0 7.1857 2.7893 7.939 6.4822h-15.878c.7533-3.6929 4.0269-6.4822 7.939-6.4822zm11.2142 6.4822c-.326-2.2591-1.3143-4.2991-2.7679-5.9252.9202-.3545 1.8943-.557 2.8977-.557 3.9121 0 7.1857 2.7893 7.939 6.4822zm-3.1114-25.929v-1.6205h1.6206c2.6801 0 4.8617 2.1816 4.8617 4.8617v1.6205h-1.6206c-2.6801 0-4.8617-2.1816-4.8617-4.8617zm21.0673 4.8617h-9.7233c-.895 0-1.6206-.7264-1.6206-1.6205 0-.895.7256-1.6206 1.6206-1.6206h9.7233c.8942 0 1.6206.7256 1.6206 1.6206 0 .8941-.7264 1.6205-1.6206 1.6205zm6.4823 19.4468v-6.4823c0-1.5834 1.1442-2.9009 2.6461-3.181l1.9157 11.2838h-4.8617c.1836-.5088.2999-1.05.2999-1.6205zm-40.5141 21.0673v-3.2412h48.6169v3.2412zm50.2375-6.4823h-51.858c-5.706 0-10.4395-4.2326-11.2292-9.7234h74.3148c-.7881 5.4908-5.5216 9.7234-11.2276 9.7234z" fill="#424242"/><g fill="#2fa037"><path d="m10.5984 26.8789c-1.78438 1.7828-2.76637 4.155-2.76637 6.6785 0 2.5234.98199 4.8957 2.76637 6.6785l2.5701 2.5701 2.2916-2.2916-2.5701-2.5701c-1.1719-1.1719-1.8168-2.7308-1.8168-4.3869 0-1.6562.6449-3.215 1.8168-4.3869l.2785-.2786c1.7844-1.7828 2.7663-4.155 2.7663-6.6785 0-2.5234-.9819-4.8957-2.7663-6.6784l-2.5701-2.5702-2.29159 2.2916 2.57009 2.5701c1.1719 1.1719 1.8168 2.7308 1.8168 4.3869 0 1.6562-.6449 3.2151-1.8168 4.387z"/><path d="m23.8418 16.2056c1.1719 1.1719 1.8168 2.7308 1.8168 4.3869 0 1.6562-.6449 3.215-1.8168 4.3869l-2.5702 2.5701 2.2916 2.2916 2.5701-2.5701c1.7844-1.7828 2.7664-4.155 2.7664-6.6785 0-2.5234-.982-4.8957-2.7664-6.6785l-.2785-.2785c-1.1719-1.1719-1.8168-2.7307-1.8168-4.3869 0-1.65617.6449-3.21502 1.8168-4.38692l2.5701-2.5701-2.2916-2.29158-2.5701 2.57011c-1.7843 1.78278-2.7663 4.15506-2.7663 6.67849 0 2.5234.982 4.8957 2.7663 6.6785z"/><path d="m87.0429 29.1705c1.1719 1.1719 1.8168 2.7307 1.8168 4.3869 0 1.6561-.6449 3.215-1.8168 4.3869l-2.5701 2.5701 2.2916 2.2916 2.5701-2.5701c1.7844-1.7828 2.7663-4.1551 2.7663-6.6785 0-2.5235-.9819-4.8957-2.7663-6.6785l-.2785-.2785c-1.1719-1.1719-1.8168-2.7308-1.8168-4.387 0-1.6561.6449-3.215 1.8168-4.3869l2.5701-2.5701-2.2916-2.2916-2.5701 2.5702c-1.7844 1.7827-2.7664 4.155-2.7664 6.6784 0 2.5235.982 4.8957 2.7664 6.6785z"/><path d="m73.7995 13.914c-1.7843 1.7828-2.7663 4.1551-2.7663 6.6785 0 2.5235.982 4.8957 2.7663 6.6785l2.5702 2.5701 2.2915-2.2916-2.5701-2.5701c-1.1719-1.1719-1.8168-2.7307-1.8168-4.3869 0-1.6561.6449-3.215 1.8168-4.3869l.2786-.2785c1.7843-1.7828 2.7663-4.1551 2.7663-6.6785 0-2.52343-.982-4.89571-2.7663-6.67849l-2.5702-2.57011-2.2915 2.29158 2.5701 2.5701c1.1719 1.1719 1.8168 2.73075 1.8168 4.38692 0 1.6562-.6449 3.215-1.8168 4.3869z"/><path d="m80.7579 72.4501c0-8.4755-3.3725-16.3741-9.4947-22.2392l-2.2417 2.3407c5.4781 5.2486 8.4953 12.314 8.4953 19.8985z"/></g></svg>