<svg fill="none" height="100" viewBox="0 0 100 100" width="100" xmlns="http://www.w3.org/2000/svg"><path d="m94.6945 67.2319c-2.3877 1.6687-5.1315 2.7533-8.0119 3.1673-2.8803.4138-5.8173.1454-8.5757-.7838-.2499-.0893-.5176-.1168-.7804-.0802s-.5129.1363-.7291.2904l-7.4236 5.2819 1.9104 2.6997 6.7357-4.8002c3.1481.9227 6.4617 1.1291 9.6994.6043 3.2377-.5249 6.3179-1.7679 9.0162-3.6383.9723-.6591 1.8937-1.3905 2.7569-2.1883l-2.2372-2.4331c-.7384.6858-1.5275 1.3143-2.3607 1.8803z" fill="#2fa037"/><path d="m78.0816 42.5292c-2.3612 1.5137-4.2527 3.6606-5.46 6.1977-1.2075 2.5369-1.6825 5.3626-1.3714 8.1565l-20.9131 13.4505-20.9163-13.4422c.3178-2.7949-.155-5.6231-1.3643-8.1611-1.2092-2.538-3.1061-4.683-5.4737-6.1899-3.1426-2.1733-6.9641-3.1296-10.7559-2.6913-1.7886.1756-3.51644.7454-5.06021 1.6685-1.54378.9231-2.86538 2.1768-3.87045 3.6717-1.00507 1.4947-1.66882 3.1938-1.943845 4.9757-.275027 1.782-.154552 3.6029.352825 5.3327 1.01639 3.6899 3.33226 6.8845 6.5179 8.9913 2.28098 1.6406 4.97668 2.6028 7.77778 2.7765 2.8012.1736 5.5943-.4485 8.0592-1.795l16.2345 11.5652-15.4493 9.9397c-.7302.4655-1.3599 1.0735-1.8518 1.7877-.4917.7142-.8357 1.5202-1.0113 2.3702-.1758.8501-.1797 1.7268-.0114 2.5784.1682.8515.5051 1.6605.9906 2.3791.4836.717 1.1052 1.3298 1.8282 1.8024s1.5328.7955 2.3819.9497 1.7204.1366 2.5625-.0518c.8422-.1883 1.6384-.5436 2.3419-1.045l18.6612-13.2784 18.6613 13.2883c.7041.5169 1.5051.8858 2.3549 1.0847.8497.1985 1.7307.2242 2.5902.0728.8595-.1509 1.6798-.4742 2.4118-.9509.732-.4765 1.3605-1.0964 1.848-1.8226.4875-.726.8239-1.5434.989-2.403.1652-.8597.1557-1.744-.028-2.5999-.1835-.8559-.5374-1.6658-1.0404-2.3812-.5029-.7154-1.1447-1.3216-1.8867-1.7822l-15.4674-9.9314 16.246-11.5702c2.4646 1.3471 5.2576 1.9696 8.0587 1.7967 2.8012-.1731 5.497-1.1348 7.7782-2.7749 6.7802-4.5916 8.9943-13.2551 4.931-19.3134-4.0631-6.0581-12.9071-7.2432-19.7021-2.6516zm-48.3161 52.524c-.7048.4762-1.5672.657-2.4031.5038-.8358-.1531-1.579-.6278-2.0707-1.3231-.2382-.3524-.4032-.7491-.4857-1.1667-.0824-.4175-.0803-.8475.006-1.2643s.2551-.812.4965-1.1621.5504-.648.9086-.876l16.5776-10.6664 4.6835 3.3336zm46.0922-3.2492c.1293.628.0671 1.2806-.1782 1.8727-.2455.5922-.6628 1.0964-1.1977 1.4473-.5351.3509-1.1629.5321-1.8019.5201-.639-.0121-1.2596-.2167-1.7811-.5875l-46.2555-32.9393c-.282-.2007-.6198-.3074-.9655-.305s-.6821.1137-.9613.3182c-1.9543 1.2797-4.2522 1.9288-6.5847 1.8597-2.3327-.0689-4.5885-.8524-6.46433-2.2453-2.52386-1.6611-4.3619-4.184-5.17342-7.101-.3883-1.2742-.48777-2.6195-.29111-3.9373.19668-1.3177.68449-2.5748 1.42777-3.679.74327-1.1042 1.72319-2.0277 2.86806-2.703 1.14487-.6751 2.42563-1.085 3.74883-1.1995 2.9992-.3378 6.0187.4267 8.4991 2.1518 1.9884 1.2245 3.5558 3.0301 4.4918 5.1743.9359 2.1443 1.1957 4.5245.7443 6.8212-.0848.3367-.0619.6915.0654 1.0145.1273.3229.3526.5974.644.7847l47.765 30.6915c.3582.2281.6669.5266.9076.8772.2406.3507.4083.7465.4929 1.1637zm15.1441-30.0625c-1.8764 1.3926-4.1326 2.1757-6.4656 2.244-2.3329.0684-4.6308-.5813-6.585-1.8616-.2793-.2045-.6156-.3158-.9613-.3182-.3458-.0024-.6835.1042-.9656.3049l-18.2504 13.0003-4.3749-2.8139 20.5781-13.2419c.2908-.1871.5156-.4612.6429-.7834.1273-.3221.1505-.6764.0665-1.0125-.4425-2.2971-.1778-4.6748.7586-6.8174.9365-2.1425 2.5003-3.9486 4.4841-5.1782 5.279-3.5703 12.0657-2.7825 15.116 1.7513 3.0503 4.5337 1.234 11.1563-4.0434 14.7266z" fill="#424242"/><path d="m18.8735 3.03497-1.8261-2.757626c-3.9851 2.649396-6.9736 6.558746-8.491 11.107156-1.51744 4.5485-1.47679 9.4752.1155 13.9979l3.1096-1.1057c-1.3464-3.8274-1.3796-7.9966-.0944-11.8451 1.2852-3.84852 3.8152-7.15584 7.1881-9.39663z" fill="#2fa037"/><path d="m68.4509 56.61 4.6967-23.5607c3.8184-.3334 7.3604-2.1354 9.8849-5.0293 2.5244-2.8938 3.8357-6.655 3.6595-10.4967-.1763-3.8418-1.8264-7.4663-4.6051-10.11512-2.7788-2.64888-6.4708-4.11689-10.3036-4.09688-3.3358-.01185-6.5759 1.11795-9.1855 3.20289-1.3592-2.00663-3.1869-3.64918-5.3239-4.78445-2.1371-1.135258-4.5185-1.72876344-6.9365-1.72876344-2.4181 0-4.7994.59350544-6.9364 1.72876344-2.137 1.13527-3.9649 2.77782-5.3241 4.78445-2.6095-2.08494-5.8496-3.21474-9.1854-3.20289-3.8197-.00036-7.4926 1.47641-10.2552 4.12328-2.7624 2.64692-4.402 6.26022-4.5776 10.08872-.1757 3.8285 1.1259 7.5777 3.6344 10.4681 2.5084 2.8904 6.0306 4.6995 9.8341 5.0513l4.6967 23.5673 3.2333-.6488-.9237-4.6479h31.6079l-.9239 4.6346zm-7.963-8.6072 1.3808-9.6965-3.2664-.47-1.4468 10.1665h-5.1684v-18.2076h-3.2994v18.2076h-5.1685l-1.4467-10.1665-3.2664.47 1.3808 9.6965h-6.3133l-3.3654-16.8835c-.076-.3738-.2785-.7099-.5732-.9512-.2945-.2413-.6632-.373-1.0435-.3729-3.0627 0-5.9999-1.2208-8.1656-3.3937-2.1655-2.173-3.3821-5.1201-3.3821-8.1931 0-3.0729 1.2166-6.0201 3.3821-8.1929 2.1657-2.17299 5.1029-3.39372 8.1656-3.39372 1.5722-.00405 3.1282.31725 4.571.94381 1.4427.62657 2.7413 1.54492 3.8143 2.69771.1834.1945.4111.3416.6635.4284.2525.0869.5221.111.7858.0703.2638-.0407.5138-.145.7285-.3039.2149-.1589.388-.3678.5046-.60861.9425-1.95826 2.416-3.61021 4.2518-4.76621 1.8357-1.156 3.9591-1.7692 6.1264-1.7692s4.2907.6132 6.1264 1.7692 3.3094 2.80795 4.2517 4.76621c.1167.24081.2898.44971.5046.60861.2147.1589.4647.2632.7285.3039s.5335.0166.7858-.0703c.2525-.0868.4801-.2339.6635-.4284 1.0732-1.15279 2.3717-2.07114 3.8145-2.69771 1.4427-.62656 2.9988-.94786 4.5709-.94381 3.0626 0 5.9999 1.22073 8.1655 3.39372 2.1656 2.1728 3.3823 5.12 3.3823 8.1929 0 3.073-1.2167 6.0201-3.3823 8.1931-2.1656 2.1729-5.1029 3.3937-8.1655 3.3937-.3803-.0001-.7489.1316-1.0436.3729-.2946.2413-.497.5774-.5731.9512l-3.3653 16.8835z" fill="#424242"/></svg>