<svg width="24" height="24" viewBox="0 0 24 24" fill="none" xmlns="http://www.w3.org/2000/svg">
<path d="M5.40879 3.70969C4.20546 8.16103 1.07279 10.5944 0.49279 12.7397C-0.0872101 14.885 -0.0718772 19.723 9.79612 22.391C19.6641 25.059 22.7508 19.3904 23.3881 17.0304C26.3755 5.98236 7.54012 -4.17431 5.40879 3.70969Z" fill="#F8F8F8"/>
<path d="M12 19.5C16.1421 19.5 19.5 16.1421 19.5 12C19.5 7.85786 16.1421 4.5 12 4.5C7.85786 4.5 4.5 7.85786 4.5 12C4.5 16.1421 7.85786 19.5 12 19.5Z" fill="#2FDF84"/>
<path d="M6 12C6 8.11133 8.96 4.914 12.75 4.538C12.5033 4.51333 12.2533 4.5 12 4.5C7.858 4.5 4.5 7.858 4.5 12C4.5 16.142 7.858 19.5 12 19.5C12.2533 19.5 12.5033 19.4867 12.75 19.462C8.96 19.086 6 15.8887 6 12Z" fill="#3DC383"/>
<path d="M11.9997 16.6668C12.3679 16.6668 12.6663 16.3683 12.6663 16.0002C12.6663 15.632 12.3679 15.3335 11.9997 15.3335C11.6315 15.3335 11.333 15.632 11.333 16.0002C11.333 16.3683 11.6315 16.6668 11.9997 16.6668Z" fill="#F3F3F1"/>
<path d="M5.31348 3.77246L6.25629 2.82965L6.72769 3.30106L5.78488 4.24386L5.31348 3.77246Z" fill="#A4AFC1"/>
<path d="M2.60254 6.48291L3.54535 5.5401L4.01675 6.0115L3.07394 6.95432L2.60254 6.48291Z" fill="#A4AFC1"/>
<path d="M2.60352 3.18262L3.07492 2.71121L4.01773 3.65402L3.54632 4.12543L2.60352 3.18262Z" fill="#A4AFC1"/>
<path d="M12 17C11.4487 17 11 16.5513 11 16C11 15.4487 11.4487 15 12 15C12.5513 15 13 15.4487 13 16C13 16.5513 12.5513 17 12 17ZM12 15.6667C11.8167 15.6667 11.6667 15.816 11.6667 16C11.6667 16.184 11.8167 16.3333 12 16.3333C12.1833 16.3333 12.3333 16.184 12.3333 16C12.3333 15.816 12.1833 15.6667 12 15.6667Z" fill="#353643"/>
<path d="M12 20C7.58867 20 4 16.4113 4 12C4 7.58867 7.58867 4 12 4C16.4113 4 20 7.58867 20 12C20 16.4113 16.4113 20 12 20ZM12 5C8.14 5 5 8.14 5 12C5 15.86 8.14 19 12 19C15.86 19 19 15.86 19 12C19 8.14 15.86 5 12 5Z" fill="#353643"/>
<path d="M12.4994 13.3337H11.4994V12.6603C11.4994 12.0257 11.902 11.457 12.5007 11.2457C13.2974 10.965 13.8327 10.1163 13.8327 9.50033C13.8327 8.48899 13.0107 7.66699 11.9994 7.66699C10.988 7.66699 10.166 8.48899 10.166 9.50033H9.16602C9.16602 7.93833 10.4367 6.66699 11.9994 6.66699C13.562 6.66699 14.8327 7.93833 14.8327 9.50033C14.8327 10.6123 13.9547 11.793 12.8334 12.189C12.6334 12.259 12.4994 12.449 12.4994 12.661V13.3337Z" fill="#353643"/>
</svg>
