<svg width="28" height="28" viewBox="0 0 28 28" fill="none" xmlns="http://www.w3.org/2000/svg">
<path d="M6.31074 4.32798C4.90686 9.5212 1.25208 12.3601 0.57541 14.863C-0.101257 17.3659 -0.0833684 23.0102 11.4293 26.1229C22.942 29.2355 26.5431 22.6221 27.2866 19.8688C30.7719 6.97942 8.7973 -4.87003 6.31074 4.32798V4.32798Z" fill="#F8F8F8"/>
<path d="M14 22.75C18.8325 22.75 22.75 18.8325 22.75 14C22.75 9.16751 18.8325 5.25 14 5.25C9.16751 5.25 5.25 9.16751 5.25 14C5.25 18.8325 9.16751 22.75 14 22.75Z" fill="#2FDF84"/>
<path d="M7 14C7 9.46322 10.4533 5.733 14.875 5.29433C14.5872 5.26556 14.2956 5.25 14 5.25C9.16767 5.25 5.25 9.16767 5.25 14C5.25 18.8323 9.16767 22.75 14 22.75C14.2956 22.75 14.5872 22.7344 14.875 22.7057C10.4533 22.267 7 18.5368 7 14Z" fill="#3DC383"/>
<path d="M14.0004 19.4442C14.43 19.4442 14.7782 19.096 14.7782 18.6664C14.7782 18.2369 14.43 17.8887 14.0004 17.8887C13.5709 17.8887 13.2227 18.2369 13.2227 18.6664C13.2227 19.096 13.5709 19.4442 14.0004 19.4442Z" fill="#F3F3F1"/>
<path d="M6.2002 4.40137L7.30014 3.30142L7.85011 3.8514L6.75017 4.95134L6.2002 4.40137Z" fill="#A4AFC1"/>
<path d="M3.03711 7.56299L4.13705 6.46304L4.68702 7.01301L3.58708 8.11296L3.03711 7.56299Z" fill="#A4AFC1"/>
<path d="M3.03809 3.71289L3.58806 3.16292L4.688 4.26286L4.13803 4.81284L3.03809 3.71289Z" fill="#A4AFC1"/>
<path d="M14.0007 19.8333C13.3574 19.8333 12.834 19.3099 12.834 18.6667C12.834 18.0234 13.3574 17.5 14.0007 17.5C14.6439 17.5 15.1673 18.0234 15.1673 18.6667C15.1673 19.3099 14.6439 19.8333 14.0007 19.8333ZM14.0007 18.2778C13.7868 18.2778 13.6118 18.452 13.6118 18.6667C13.6118 18.8813 13.7868 19.0556 14.0007 19.0556C14.2145 19.0556 14.3895 18.8813 14.3895 18.6667C14.3895 18.452 14.2145 18.2778 14.0007 18.2778Z" fill="#353643"/>
<path d="M14.0003 23.3332C8.85377 23.3332 4.66699 19.1464 4.66699 13.9998C4.66699 8.85328 8.85377 4.6665 14.0003 4.6665C19.1469 4.6665 23.3337 8.85328 23.3337 13.9998C23.3337 19.1464 19.1469 23.3332 14.0003 23.3332ZM14.0003 5.83317C9.49699 5.83317 5.83366 9.4965 5.83366 13.9998C5.83366 18.5032 9.49699 22.1665 14.0003 22.1665C18.5037 22.1665 22.167 18.5032 22.167 13.9998C22.167 9.4965 18.5037 5.83317 14.0003 5.83317Z" fill="#353643"/>
<path d="M14.5832 15.5556H13.4166V14.7701C13.4166 14.0296 13.8863 13.3662 14.5848 13.1196C15.5142 12.7922 16.1388 11.8021 16.1388 11.0834C16.1388 9.9035 15.1798 8.9445 13.9999 8.9445C12.82 8.9445 11.861 9.9035 11.861 11.0834H10.6943C10.6943 9.26105 12.1768 7.77783 13.9999 7.77783C15.823 7.77783 17.3054 9.26105 17.3054 11.0834C17.3054 12.3807 16.2811 13.7582 14.9729 14.2202C14.7396 14.3018 14.5832 14.5235 14.5832 14.7708V15.5556Z" fill="#353643"/>
</svg>