<svg fill="none" height="110" viewBox="0 0 110 110" width="110" xmlns="http://www.w3.org/2000/svg" xmlns:xlink="http://www.w3.org/1999/xlink"><clipPath id="a"><path d="m0 0h110v110h-110z"/></clipPath><g clip-path="url(#a)"><g fill="#2fa037"><path d="m42.8885 64.6953c.4121 0 .825-.1579 1.139-.4726.6294-.6294.6294-1.649 0-2.2785l-13.4991-13.499 2.0267-2.0276 3.1664 3.1664c.3139.3147.7267.4725 1.1388.4725.4122 0 .825-.1578 1.1397-.4725l9.0411-9.0411c3.0028-3.0028 3.0028-7.8879 0-10.8899-.6294-.6294-1.6491-.6294-2.2785 0l-13.3463 13.3464s0 0-.0009.0008c0 0-.0009 0-.0009.0009l-3.1656 3.1647-3.9226-3.9226c1.5821-2.6066 1.2489-6.0584-1.0011-8.3084l-4.8709-4.8709c-.6294-.6295-1.65-.6295-2.2794 0-.6285.6294-.6285 1.65 0 2.2785l4.8718 4.8709c.6713.6715 1.0415 1.5643 1.0415 2.5144 0 .95-.3702 1.8429-1.0415 2.5144-.6714.6713-1.5643 1.0415-2.5144 1.0415-.9492 0-1.842-.3702-2.5135-1.0415l-4.8718-4.8709c-.6294-.6295-1.64902-.6295-2.27844 0-.62943.6285-.62943 1.649 0 2.2784l4.87094 4.8709c1.2806 1.2807 2.9827 1.9857 4.7928 1.9857 1.2605 0 2.4682-.3424 3.5173-.9819l19.6993 19.6984c.3147.3147.7268.4726 1.1396.4726zm2.8014-31.4126c.7268 1.6433.4171 3.6365-.9273 4.9809l-7.9023 7.9022-2.0268-2.0268z"/><path d="m17.3918 39.8675c.3147.3147.7275.4716 1.1397.4716.4121 0 .8249-.1569 1.1396-.4716.6287-.6294.6287-1.65 0-2.2785l-4.8717-4.8718c-.6286-.6294-1.6491-.6294-2.2785 0s-.6294 1.65 0 2.2785z"/><path d="m22.4556 51.9603-9.9835 9.9835c-.6295.6295-.6295 1.6499 0 2.2786.3147.3147.7267.4724 1.1396.4724.412 0 .8241-.1577 1.1388-.4724l9.9836-9.9835c.6294-.6287.6294-1.6491 0-2.2786-.6294-.6294-1.65-.6294-2.2785 0z"/></g><path d="m22.0634 73.3691c-2.7871 0-5.0556 2.2685-5.0556 5.0556 0 2.788 2.2685 5.0564 5.0556 5.0564 2.788 0 5.0564-2.2684 5.0564-5.0564 0-2.7871-2.2684-5.0556-5.0564-5.0556zm0 6.8893c-1.0104 0-1.8329-.8224-1.8329-1.8337 0-1.0104.8225-1.8329 1.8329-1.8329 1.0112 0 1.8337.8225 1.8337 1.8329 0 1.0113-.8225 1.8337-1.8337 1.8337z" fill="#424242"/><path d="m90.952 73.3691c-2.7879 0-5.0555 2.2685-5.0555 5.0556 0 2.788 2.2676 5.0564 5.0555 5.0564 2.7871 0 5.0556-2.2684 5.0556-5.0564 0-2.7871-2.2685-5.0556-5.0556-5.0556zm0 6.8893c-1.0113 0-1.8328-.8224-1.8328-1.8337 0-1.0104.8224-1.8329 1.8328-1.8329s1.8329.8225 1.8329 1.8329c0 1.0113-.8225 1.8337-1.8329 1.8337z" fill="#424242"/><path d="m103.903 57.2852-20.3262-2.7098-5.4626-17.7549c-.8812-2.8618-3.4845-4.7845-6.4781-4.7845h-13.5175v-7c0-2.788-2.2676-5.0555-5.0556-5.0555h-48.22231c-2.78709 0-5.055534 2.2675-5.055534 5.0555v49.9445c0 2.7878 2.268444 5.0555 5.055534 5.0555h5.38961c.7888 5.8268 5.7932 10.3335 11.8323 10.3335 6.04 0 11.0434-4.5067 11.8332-10.3335h45.2229c.7897 5.8268 5.7933 10.3335 11.8333 10.3335 6.0391 0 11.043-4.5067 11.832-10.3335h.223c3.738 0 6.778-3.0405 6.778-6.7777v-9.2542c0-3.3829-2.528-6.2716-5.882-6.7189zm-23.7436-2.8601h-15.0407c-.0613 0-.1108-.0504-.1108-.1117v-12.0555c0-.0613.0495-.1108.1108-.1108h11.2624zm-58.0968 32.7217c-4.808 0-8.7196-3.9117-8.7214-8.7196 0-.0009 0-.0018 0-.0025 0-.0009 0-.0018 0-.0026.0018-4.8079 3.9134-8.7197 8.7214-8.7197 1.5342 0 3.0414.4029 4.3598 1.1666.7705.4448 1.7565.1822 2.2021-.5883.4458-.7704.1822-1.7557-.5883-2.2022-1.8085-1.0456-3.8738-1.5987-5.9736-1.5987-6.0391 0-11.0426 4.5067-11.8323 10.3335h-5.38961c-1.01042 0-1.83287-.8225-1.83287-1.8328v-49.9445c0-1.0105.82245-1.8329 1.83287-1.8329h48.22231c1.0105 0 1.8329.8224 1.8329 1.8329v12.0564c0 .8905.7218 1.6113 1.6113 1.6113.8897 0 1.6114-.7208 1.6114-1.6113v-1.8337h13.5175c1.5702 0 2.9356 1.0087 3.3972 2.5101l.3559 1.1565h-10.2705c-1.8388 0-3.3343 1.4947-3.3343 3.3335v12.0555c0 1.8379 1.4955 3.3335 3.3343 3.3335h17.1152l21.2431 2.8324c1.427.1905 2.57 1.2244 2.95 2.5562h-1.697c-.891 0-1.612.721-1.612 1.6114 0 .8896.721 1.6113 1.612 1.6113h1.833v3.6658h-7.2297c-2.1584-2.1274-5.1184-3.4442-8.3813-3.4442-6.04 0-11.0436 4.5067-11.8333 10.3335h-21.0001v-3.6667h16.7947c.8896 0 1.6114-.7209 1.6114-1.6112 0-.8897-.7218-1.6114-1.6114-1.6114h-16.7947v-25.9441c0-.8904-.7217-1.6113-1.6114-1.6113-.8895 0-1.6113.7209-1.6113 1.6113v32.8325h-20.9975c-.1084-.8022-.2964-1.5912-.5665-2.3574-.2955-.8392-1.2161-1.2806-2.0554-.9853-.8392.2963-1.2798 1.2161-.9844 2.0554.3273.9289.4926 1.9042.4926 2.8987 0 4.8096-3.9125 8.7221-8.7221 8.7221zm68.8894 0c-4.8097 0-8.7223-3.9125-8.7223-8.7221 0-4.8097 3.9126-8.7223 8.7223-8.7223 4.8087 0 8.7221 3.9126 8.7221 8.7223 0 4.8096-3.9134 8.7221-8.7221 8.7221zm12.056-10.3335h-.224c-.175-1.2991-.56-2.5328-1.12-3.6658h4.899v.1108c0 1.9604-1.595 3.555-3.555 3.555z" fill="#424242"/></g></svg>