<svg width="64" height="64" viewBox="0 0 64 64" fill="none" xmlns="http://www.w3.org/2000/svg">
<path d="M48.7409 6.95815C36.4476 7.18748 27.884 0.975923 21.9604 1.08792C16.0369 1.19992 3.65644 4.83726 4.16667 32.0924C4.67689 59.3475 21.4893 63.0328 28.0067 62.9119C58.5187 62.3413 70.5151 6.55103 48.7409 6.95815Z" fill="#F8F8F8"/>
<path d="M35.334 8.86377H38.8895V10.6416H35.334V8.86377Z" fill="#A4AFC1"/>
<path d="M25.1113 8.86377H28.6669V10.6416H25.1113V8.86377Z" fill="#A4AFC1"/>
<path d="M31.334 2.6416H33.1118V6.19716H31.334V2.6416Z" fill="#A4AFC1"/>
<path d="M13.778 23.5555C12.3078 23.5555 11.1113 22.3591 11.1113 20.8888C11.1113 19.4186 12.3078 18.2222 13.778 18.2222C15.2482 18.2222 16.4447 19.4186 16.4447 20.8888C16.4447 22.3591 15.2482 23.5555 13.778 23.5555ZM13.778 19.9999C13.2873 19.9999 12.8891 20.3999 12.8891 20.8888C12.8891 21.3777 13.2873 21.7777 13.778 21.7777C14.2687 21.7777 14.6669 21.3777 14.6669 20.8888C14.6669 20.3999 14.2687 19.9999 13.778 19.9999Z" fill="#A4AFC1"/>
<path d="M48.444 50.2224H15.5551L13.7773 43.1113H50.2218L48.444 50.2224Z" fill="#F3F3F1"/>
<path d="M31.9996 22.667C21.9338 22.667 13.7773 31.531 13.7773 41.3745C13.7773 41.6625 13.7773 41.9345 13.7951 42.2225H50.204C50.2218 41.9345 50.2218 41.6625 50.2218 41.3745C50.2218 31.531 42.0653 22.667 31.9996 22.667Z" fill="#2FDF84"/>
<path d="M31.9996 18.2223C33.2269 18.2223 34.2218 17.2274 34.2218 16.0001C34.2218 14.7728 33.2269 13.7778 31.9996 13.7778C30.7723 13.7778 29.7773 14.7728 29.7773 16.0001C29.7773 17.2274 30.7723 18.2223 31.9996 18.2223Z" fill="#2FDF84"/>
<path d="M13.7773 43.1108L15.5551 50.222H19.5551L17.7773 43.1108H13.7773Z" fill="#D5DBE1"/>
<path d="M33.9996 22.7909C33.3418 22.7127 32.6769 22.6665 31.9996 22.6665C21.9338 22.6665 13.7773 31.5305 13.7773 41.3741C13.7773 41.6621 13.7773 41.9341 13.7951 42.2221H17.7951C17.7773 41.9341 17.7773 41.6621 17.7773 41.3741C17.7773 32.1918 24.876 23.8701 33.9996 22.7909Z" fill="#00B871"/>
<path d="M48.4442 51.5556H15.5553C14.9437 51.5556 14.4104 51.1396 14.2611 50.5458L12.4833 43.4347C12.3837 43.0365 12.4726 42.6152 12.7251 42.2898C12.9793 41.9663 13.3668 41.7778 13.7775 41.7778H50.222C50.6326 41.7778 51.0202 41.9663 51.2726 42.2898C51.5251 42.6152 51.614 43.0365 51.5144 43.4347L49.7366 50.5458C49.5891 51.1396 49.0557 51.5556 48.4442 51.5556ZM16.5953 48.8889H47.4024L48.5153 44.4445H15.4842L16.5953 48.8889Z" fill="#353643"/>
<path d="M51.5359 42.3024L48.8746 42.1424C48.8906 41.8811 48.8888 41.6339 48.8888 41.3726C48.8888 31.9557 41.1537 24.0002 31.9999 24.0002C22.8461 24.0002 15.111 31.9575 15.111 41.3726C15.111 41.6322 15.111 41.8793 15.1252 42.1424L12.4639 42.3024C12.4443 41.9877 12.4443 41.6891 12.4443 41.3726C12.4443 30.5104 21.4008 21.3335 31.9999 21.3335C42.599 21.3335 51.5555 30.5104 51.5555 41.3726C51.5555 41.6891 51.5555 41.9877 51.5359 42.3024Z" fill="#353643"/>
<path d="M30.667 18.6665H33.3337V22.2221H30.667V18.6665Z" fill="#353643"/>
<path d="M31.9999 19.5555C30.039 19.5555 28.4443 17.9608 28.4443 15.9999C28.4443 14.039 30.039 12.4443 31.9999 12.4443C33.9608 12.4443 35.5555 14.039 35.5555 15.9999C35.5555 17.9608 33.9608 19.5555 31.9999 19.5555ZM31.9999 15.111C31.5092 15.111 31.111 15.511 31.111 15.9999C31.111 16.4888 31.5092 16.8888 31.9999 16.8888C32.4906 16.8888 32.8888 16.4888 32.8888 15.9999C32.8888 15.511 32.4906 15.111 31.9999 15.111Z" fill="#353643"/>
<path d="M46.2224 37.7776H43.5558C43.5558 33.1216 39.7673 29.3332 35.1113 29.3332V26.6665C41.2376 26.6665 46.2224 31.6514 46.2224 37.7776Z" fill="#353643"/>
<path d="M12 41.7778H52V44.4445H12V41.7778Z" fill="#353643"/>
</svg>
