<svg width="64" height="64" viewBox="0 0 64 64" fill="none" xmlns="http://www.w3.org/2000/svg">
<path d="M14.4254 9.89154C11.2165 21.7618 2.86273 28.2506 1.31606 33.9715C-0.230607 39.6924 -0.189719 52.5938 26.1249 59.7084C52.4396 66.8231 60.6707 51.7066 62.3703 45.4133C70.3365 15.952 20.1089 -11.1325 14.4254 9.89154Z" fill="#F8F8F8"/>
<path d="M51.9998 19.6658C51.9998 25.9787 44.4442 32.4445 44.4442 32.4445C44.4442 32.4445 36.8887 25.9805 36.8887 19.6658C36.8887 15.4311 40.2718 12 44.4442 12C48.6167 12 51.9998 15.4329 51.9998 19.6658Z" fill="#2FDF84"/>
<path d="M44.4439 21.7775C45.6712 21.7775 46.6661 20.7825 46.6661 19.5552C46.6661 18.3279 45.6712 17.333 44.4439 17.333C43.2166 17.333 42.2217 18.3279 42.2217 19.5552C42.2217 20.7825 43.2166 21.7775 44.4439 21.7775Z" fill="#F3F3F1"/>
<path d="M40.8887 19.6658C40.8887 16.1387 43.2496 13.2 46.4442 12.3058C45.8024 12.1262 45.1411 12 44.4442 12C40.2718 12 36.8887 15.4329 36.8887 19.6658C36.8887 25.9787 44.4442 32.4445 44.4442 32.4445C44.4442 32.4445 45.3082 31.6996 46.4442 30.4854C44.206 28.096 40.8887 23.8542 40.8887 19.6658Z" fill="#00B871"/>
<path d="M54.915 13.9229L56.1721 12.6658L58.6863 15.1799L57.4292 16.437L54.915 13.9229Z" fill="#A4AFC1"/>
<path d="M47.6875 6.6958L48.9446 5.43872L51.4587 7.95288L50.2017 9.20996L47.6875 6.6958Z" fill="#A4AFC1"/>
<path d="M55.2285 7.95459L57.7427 5.44043L58.9997 6.69751L56.4856 9.21167L55.2285 7.95459Z" fill="#A4AFC1"/>
<path d="M33.3337 11.7635C31.8634 11.7635 30.667 10.5671 30.667 9.09684C30.667 7.62662 31.8634 6.43018 33.3337 6.43018C34.8039 6.43018 36.0003 7.62662 36.0003 9.09684C36.0003 10.5671 34.8039 11.7635 33.3337 11.7635ZM33.3337 8.20795C32.843 8.20795 32.4448 8.60795 32.4448 9.09684C32.4448 9.58573 32.843 9.98573 33.3337 9.98573C33.8243 9.98573 34.2226 9.58573 34.2226 9.09684C34.2226 8.60795 33.8243 8.20795 33.3337 8.20795Z" fill="#A4AFC1"/>
<path d="M20.8889 31.1111H12V28.4444H19.5556V12H22.2222V29.7778C22.2222 30.5138 21.6249 31.1111 20.8889 31.1111Z" fill="#353643"/>
<path d="M52 38.2222H25.3333C24.5973 38.2222 24 37.6249 24 36.8889V12H26.6667V35.5556H52V38.2222Z" fill="#353643"/>
<path d="M22.2222 51.9998H19.5556V35.5553H12V32.8887H20.8889C21.6249 32.8887 22.2222 33.486 22.2222 34.222V51.9998Z" fill="#353643"/>
<path d="M26.6667 52H24V41.3333C24 40.5973 24.5973 40 25.3333 40H52V42.6667H26.6667V52Z" fill="#353643"/>
<path d="M15.5557 17.7778H20.889V20.4445H15.5557V17.7778Z" fill="#353643"/>
<path d="M39.5561 49.778H35.1117C34.3757 49.778 33.7783 49.1806 33.7783 48.4446V41.3335H36.445V47.1113H39.5561V49.778Z" fill="#353643"/>
<path d="M25.333 25.7778H34.6663V28.4445H25.333V25.7778Z" fill="#353643"/>
<path d="M14.2217 34.2222H16.8884V39.5555H14.2217V34.2222Z" fill="#353643"/>
<path d="M44.4446 33.7781C44.1352 33.7781 43.8277 33.6714 43.5788 33.4581C43.2499 33.1772 35.5557 26.5159 35.5557 19.6661C35.5557 14.7043 39.5432 10.667 44.4446 10.667C49.3459 10.667 53.3334 14.7043 53.3334 19.6661C53.3334 26.5159 45.6392 33.1772 45.3103 33.4581C45.0614 33.6714 44.7539 33.7781 44.4446 33.7781ZM44.4446 13.3337C41.0134 13.3337 38.2223 16.1745 38.2223 19.6661C38.2223 24.0785 42.553 28.7808 44.4446 30.6243C46.3361 28.7808 50.6668 24.0785 50.6668 19.6661C50.6668 16.1745 47.8757 13.3337 44.4446 13.3337Z" fill="#353643"/>
<path d="M44.4442 23.1111C42.4833 23.1111 40.8887 21.5164 40.8887 19.5556C40.8887 17.5947 42.4833 16 44.4442 16C46.4051 16 47.9998 17.5947 47.9998 19.5556C47.9998 21.5164 46.4051 23.1111 44.4442 23.1111ZM44.4442 18.6667C43.9536 18.6667 43.5553 19.0667 43.5553 19.5556C43.5553 20.0444 43.9536 20.4444 44.4442 20.4444C44.9349 20.4444 45.3331 20.0444 45.3331 19.5556C45.3331 19.0667 44.9349 18.6667 44.4442 18.6667Z" fill="#353643"/>
</svg>
