<svg width="64" height="64" viewBox="0 0 64 64" fill="none" xmlns="http://www.w3.org/2000/svg">
<path d="M14.8925 7.40835C27.1894 7.40835 35.6339 1.03857 41.5592 1.03857C47.4845 1.03857 59.929 4.4448 59.929 31.7035C59.929 58.9621 43.1877 62.9621 36.6703 62.9621C6.15122 62.9639 -6.88523 7.40835 14.8925 7.40835Z" fill="#F8F8F8"/>
<path d="M17.2637 14.0762L19.7791 11.5608L21.0362 12.8178L18.5208 15.3332L17.2637 14.0762Z" fill="#A4AFC1"/>
<path d="M10.0342 21.3018L12.5483 18.7876L13.8054 20.0447L11.2913 22.5588L10.0342 21.3018Z" fill="#A4AFC1"/>
<path d="M10.0361 12.5015L11.2932 11.2444L13.8074 13.7585L12.5503 15.0156L10.0361 12.5015Z" fill="#A4AFC1"/>
<path d="M55.8903 34.6664C54.4201 34.6664 53.2236 33.4699 53.2236 31.9997C53.2236 30.5295 54.4201 29.333 55.8903 29.333C57.3605 29.333 58.557 30.5295 58.557 31.9997C58.557 33.4699 57.3623 34.6664 55.8903 34.6664ZM55.8903 31.1108C55.4014 31.1108 55.0014 31.509 55.0014 31.9997C55.0014 32.4903 55.4014 32.8886 55.8903 32.8886C56.3792 32.8886 56.7792 32.4903 56.7792 31.9997C56.7792 31.509 56.381 31.1108 55.8903 31.1108Z" fill="#A4AFC1"/>
<path d="M29.7774 40.5122C29.7774 36.8233 31.6263 34.7611 34.2859 33.8722L34.3552 33.2358C31.7188 29.0118 31.6352 25.7051 31.6352 25.2909C31.6352 25.2731 31.6352 25.2571 31.6352 25.2571C31.6352 21.8651 28.5757 19.1113 24.8086 19.1113C21.0414 19.1113 17.9819 21.8633 17.9819 25.2571V25.2909C17.9819 25.7407 17.8805 29.7229 14.3819 34.5691C14.3659 34.6029 14.3143 34.6384 14.2983 34.6722C12.9294 36.4891 12.1348 38.6704 12.1348 41.042C12.1348 47.3247 17.813 51.9984 24.8086 51.9984C27.749 51.9984 30.4352 51.1682 32.5828 49.7478L32.6681 48.9584C30.901 46.6544 29.7774 43.3993 29.7774 40.5122Z" fill="#F3F3F1"/>
<path d="M40.8883 34.0677C41.8447 33.5948 42.8972 33.3335 44.0012 33.3335C48.4189 33.3335 51.9994 35.3584 51.9994 40.5122C51.9994 45.666 48.4189 52.0002 44.0012 52.0002C42.8954 52.0002 41.8429 51.7388 40.8847 51.266C39.9301 51.7406 38.8776 52.0002 37.7736 52.0002C33.3558 52.0002 29.7754 45.6677 29.7754 40.5122C29.7754 35.3566 33.3558 33.3335 37.7736 33.3335C38.8794 33.3335 39.9318 33.5948 40.8883 34.0677Z" fill="#2FDF84"/>
<path d="M16.1338 41.0436C16.1338 38.6721 16.9285 36.4907 18.2973 34.6739C18.3133 34.6401 18.3649 34.6045 18.3809 34.5707C21.8796 29.7245 21.9809 25.7423 21.9809 25.2925C21.9809 25.2747 21.9809 25.2587 21.9809 25.2587C21.9809 22.4961 24.0218 20.1867 26.8076 19.4134C26.1711 19.2374 25.508 19.1147 24.8076 19.1147C21.0387 19.1147 17.9809 21.8667 17.9809 25.2605V25.2943C17.9809 25.7441 17.8796 29.7263 14.3809 34.5725C14.3649 34.6063 14.3133 34.6419 14.2973 34.6756C12.9285 36.4925 12.1338 38.6739 12.1338 41.0454C12.1338 47.3281 17.812 52.0019 24.8076 52.0019C25.4938 52.0019 26.1622 51.9467 26.8182 51.8596C20.7685 51.065 16.1338 46.7165 16.1338 41.0436Z" fill="#D5DBE1"/>
<path d="M44.8897 34.0679C45.3323 33.8492 45.7999 33.6875 46.2799 33.5648C45.5545 33.4261 44.799 33.3354 44.0025 33.3354C43.6221 33.3354 43.2559 33.4066 42.8896 33.467C43.5848 33.579 44.2639 33.7586 44.8897 34.0679Z" fill="#00B871"/>
<path d="M33.7783 40.5122C33.7783 36.2864 36.1996 34.1904 39.4992 33.5628C38.9428 33.4206 38.3685 33.3335 37.7765 33.3335C33.3588 33.3335 29.7783 35.3584 29.7783 40.5122C29.7783 45.666 33.3588 52.0002 37.7765 52.0002C38.5268 52.0002 39.2396 51.8402 39.9276 51.6144C36.4041 50.1833 33.7783 44.9228 33.7783 40.5122Z" fill="#00B871"/>
<path d="M44.8861 51.2661C44.2603 51.5754 43.5848 51.755 42.8896 51.8706C43.2576 51.931 43.6221 52.0021 44.0025 52.0021C44.639 52.0021 45.2559 51.8581 45.8496 51.6163C45.5243 51.5079 45.1936 51.4172 44.8861 51.2661Z" fill="#00B871"/>
<path d="M24.8069 53.3339C16.9527 53.3339 10.7998 47.9365 10.7998 41.0441C10.7998 38.461 11.6407 35.9792 13.2318 33.8725H13.2336C13.2602 33.8352 13.2851 33.8014 13.3136 33.7694C16.6096 29.1917 16.6469 25.4477 16.6469 25.2912C16.6469 21.133 20.3074 17.7783 24.8069 17.7783C29.3065 17.7783 32.9687 21.133 32.9687 25.2574C32.9687 25.6201 33.0398 28.6121 35.486 32.5321L33.2265 33.9437C30.4442 29.4868 30.302 25.9543 30.302 25.2912C30.302 22.6032 27.8362 20.445 24.8069 20.445C21.7776 20.445 19.3136 22.6032 19.3136 25.2574C19.3136 26.0805 19.1287 30.269 15.4611 35.3499H15.4594C15.4256 35.3943 15.3936 35.4388 15.3598 35.4779C14.1207 37.1205 13.4665 39.0459 13.4665 41.0441C13.4665 46.4397 18.4478 50.6672 24.8069 50.6672C27.4042 50.6672 29.838 49.965 31.8469 48.637L33.3153 50.8628C30.8709 52.4805 27.9287 53.3339 24.8069 53.3339Z" fill="#353643"/>
<path d="M26.2223 19.1114H23.5557C23.5557 14.4554 27.3441 10.667 32.0001 10.667H32.889V13.3337H32.0001C28.8143 13.3337 26.2223 15.9257 26.2223 19.1114Z" fill="#353643"/>
<path d="M42.2223 33.3336H39.5557C39.5557 28.6776 43.3441 24.8892 48.0001 24.8892H48.889V27.5558H48.0001C44.8143 27.5558 42.2223 30.1478 42.2223 33.3336Z" fill="#353643"/>
<path d="M44.0017 53.3333C42.9297 53.3333 41.8861 53.1306 40.887 52.7253C39.8932 53.1306 38.8514 53.3333 37.7759 53.3333C32.5208 53.3333 28.4443 46.4409 28.4443 40.512C28.4443 35.1822 31.9323 32 37.7759 32C38.8479 32 39.8914 32.2044 40.8888 32.6062C41.8861 32.2044 42.9297 32 44.0017 32C49.8452 32 53.3332 35.1822 53.3332 40.512C53.3332 46.4409 49.2568 53.3333 44.0017 53.3333ZM40.8852 49.9324C41.0861 49.9324 41.2888 49.9769 41.4737 50.0693C42.279 50.4658 43.1288 50.6666 44.0017 50.6666C47.527 50.6666 50.6666 44.9884 50.6666 40.512C50.6666 35.68 47.0417 34.6667 44.0017 34.6667C43.1288 34.6667 42.279 34.8658 41.4772 35.2622C41.1057 35.4471 40.6719 35.4471 40.3003 35.2622C39.4986 34.8658 38.6488 34.6667 37.7759 34.6667C34.7359 34.6667 31.111 35.68 31.111 40.512C31.111 44.9884 34.2506 50.6666 37.7759 50.6666C38.6488 50.6666 39.4968 50.4675 40.2932 50.0711C40.4799 49.9786 40.6826 49.9324 40.8852 49.9324Z" fill="#353643"/>
</svg>
