<svg width="64" height="64" viewBox="0 0 64 64" fill="none" xmlns="http://www.w3.org/2000/svg">
<path d="M49.1077 7.40835C36.8108 7.40835 28.3664 1.03857 22.4411 1.03857C16.5157 1.03857 4.07129 4.4448 4.07129 31.7035C4.07129 58.9621 20.8126 62.9621 27.33 62.9621C57.8491 62.9639 70.8855 7.40835 49.1077 7.40835Z" fill="#F8F8F8"/>
<path d="M34.6667 10.6663C33.1964 10.6663 32 9.46989 32 7.99967C32 6.52945 33.1964 5.33301 34.6667 5.33301C36.1369 5.33301 37.3333 6.52945 37.3333 7.99967C37.3333 9.46989 36.1369 10.6663 34.6667 10.6663ZM34.6667 7.11078C34.1778 7.11078 33.7778 7.50901 33.7778 7.99967C33.7778 8.49034 34.1778 8.88856 34.6667 8.88856C35.1556 8.88856 35.5556 8.49034 35.5556 7.99967C35.5556 7.50901 35.1556 7.11078 34.6667 7.11078Z" fill="#A4AFC1"/>
<path d="M44.4439 23.5553C45.6712 23.5553 46.6661 22.5604 46.6661 21.3331C46.6661 20.1058 45.6712 19.1108 44.4439 19.1108C43.2166 19.1108 42.2217 20.1058 42.2217 21.3331C42.2217 22.5604 43.2166 23.5553 44.4439 23.5553Z" fill="#F3F3F1"/>
<path d="M31.9996 50.2223C33.2269 50.2223 34.2218 49.2274 34.2218 48.0001C34.2218 46.7728 33.2269 45.7778 31.9996 45.7778C30.7723 45.7778 29.7773 46.7728 29.7773 48.0001C29.7773 49.2274 30.7723 50.2223 31.9996 50.2223Z" fill="#F3F3F1"/>
<path d="M19.5552 18.2223C20.7825 18.2223 21.7775 17.2274 21.7775 16.0001C21.7775 14.7728 20.7825 13.7778 19.5552 13.7778C18.3279 13.7778 17.333 14.7728 17.333 16.0001C17.333 17.2274 18.3279 18.2223 19.5552 18.2223Z" fill="#F3F3F1"/>
<path d="M46.2217 21.3336C46.2217 20.9958 46.3088 20.6847 46.4439 20.3984C46.0884 19.6429 45.3328 19.1113 44.4439 19.1113C43.2172 19.1113 42.2217 20.1069 42.2217 21.3336C42.2217 22.5602 43.2172 23.5558 44.4439 23.5558C45.3328 23.5558 46.0884 23.0242 46.4439 22.2687C46.3088 21.9824 46.2217 21.6713 46.2217 21.3336Z" fill="#2FDF84"/>
<path d="M33.7783 48.0001C33.7783 47.6623 33.8654 47.3512 34.0006 47.0649C33.645 46.3094 32.8894 45.7778 32.0005 45.7778C30.7739 45.7778 29.7783 46.7734 29.7783 48.0001C29.7783 49.2267 30.7739 50.2223 32.0005 50.2223C32.8894 50.2223 33.645 49.6907 34.0006 48.9352C33.8654 48.649 33.7783 48.3378 33.7783 48.0001Z" fill="#2FDF84"/>
<path d="M21.333 16.0001C21.333 15.6623 21.4201 15.3512 21.5552 15.0649C21.1997 14.3094 20.4441 13.7778 19.5552 13.7778C18.3286 13.7778 17.333 14.7734 17.333 16.0001C17.333 17.2267 18.3286 18.2223 19.5552 18.2223C20.4441 18.2223 21.1997 17.6907 21.5552 16.9352C21.4201 16.6489 21.333 16.3378 21.333 16.0001Z" fill="#2FDF84"/>
<path d="M44.4442 24.8889C42.4833 24.8889 40.8887 23.2943 40.8887 21.3334C40.8887 19.3725 42.4833 17.7778 44.4442 17.7778C46.4051 17.7778 47.9998 19.3725 47.9998 21.3334C47.9998 23.2943 46.4051 24.8889 44.4442 24.8889ZM44.4442 20.4445C43.9553 20.4445 43.5553 20.8427 43.5553 21.3334C43.5553 21.8241 43.9553 22.2223 44.4442 22.2223C44.9331 22.2223 45.3331 21.8241 45.3331 21.3334C45.3331 20.8427 44.9331 20.4445 44.4442 20.4445Z" fill="#353643"/>
<path d="M31.9999 51.5555C30.039 51.5555 28.4443 49.9608 28.4443 47.9999C28.4443 46.039 30.039 44.4443 31.9999 44.4443C33.9608 44.4443 35.5555 46.039 35.5555 47.9999C35.5555 49.9608 33.9608 51.5555 31.9999 51.5555ZM31.9999 47.111C31.511 47.111 31.111 47.5092 31.111 47.9999C31.111 48.4906 31.511 48.8888 31.9999 48.8888C32.4888 48.8888 32.8888 48.4906 32.8888 47.9999C32.8888 47.5092 32.4888 47.111 31.9999 47.111Z" fill="#353643"/>
<path d="M48.8857 33.7778H53.3302V36.4445H48.8857V33.7778Z" fill="#353643"/>
<path d="M47.2655 36.4445H42.4548V33.7778H47.2655V36.4445ZM40.8353 36.4445H36.0264V33.7778H40.8353V36.4445Z" fill="#353643"/>
<path d="M34.4055 36.4445H29.5948V33.7778H34.4055V36.4445ZM27.9735 36.4445H23.1646V33.7778H27.9735V36.4445ZM21.545 36.4445H16.7344V33.7778H21.545V36.4445Z" fill="#353643"/>
<path d="M10.6699 33.7778H15.1144V36.4445H10.6699V33.7778Z" fill="#353643"/>
<path d="M19.5556 19.5555C17.5947 19.5555 16 17.9608 16 15.9999C16 14.039 17.5947 12.4443 19.5556 12.4443C21.5164 12.4443 23.1111 14.039 23.1111 15.9999C23.1111 17.9608 21.5164 19.5555 19.5556 19.5555ZM19.5556 15.111C19.0667 15.111 18.6667 15.5092 18.6667 15.9999C18.6667 16.4906 19.0667 16.8888 19.5556 16.8888C20.0444 16.8888 20.4444 16.4906 20.4444 15.9999C20.4444 15.5092 20.0444 15.111 19.5556 15.111Z" fill="#353643"/>
<path d="M51.556 34.6667H48.8893V27.1111C48.8893 25.952 48.4129 24.8018 47.5826 23.9574C47.1684 23.5414 46.6671 23.2071 46.1035 22.9743L47.124 20.5103C48.0129 20.8783 48.804 21.4063 49.476 22.08C50.8004 23.4258 51.556 25.2569 51.556 27.1111V34.6667Z" fill="#353643"/>
<path d="M34.5905 48.8907L33.7461 46.3609C34.4928 46.112 35.1914 45.6747 35.7692 45.1005C36.7772 44.0925 37.3336 42.7538 37.3336 41.3334V27.1111C37.3336 24.2098 39.0741 21.6196 41.7692 20.5103L42.7825 22.976C41.0919 23.6729 40.0003 25.296 40.0003 27.1129V41.3351C40.0003 43.4685 39.1665 45.4774 37.6554 46.9885C36.7861 47.8542 35.7283 48.512 34.5905 48.8907Z" fill="#353643"/>
<path d="M29.4023 48.8892C26.1721 47.7906 23.9996 44.7541 23.9996 41.3337V21.7781C23.9996 20.619 23.5232 19.4688 22.693 18.6244C22.2788 18.2084 21.7774 17.8741 21.2139 17.6412L22.2343 15.1772C23.1232 15.5452 23.9143 16.0732 24.5863 16.747C25.9108 18.0928 26.6663 19.9239 26.6663 21.7781V41.3337C26.6663 43.6128 28.1099 45.6341 30.2592 46.3648L29.4023 48.8892Z" fill="#353643"/>
<path d="M15.111 34.667H12.4443V21.7781C12.4443 18.8768 14.1848 16.2866 16.8799 15.1772L17.8932 17.643C16.2026 18.3381 15.111 19.963 15.111 21.7781V34.667Z" fill="#353643"/>
</svg>
