<svg width="68" height="58" viewBox="0 0 68 58" fill="none" xmlns="http://www.w3.org/2000/svg">
<g filter="url(#filter0_d)">
<rect x="50" y="12" width="22" height="32" rx="8.20513" transform="rotate(90 50 12)" fill="#F8F8F8"/>
</g>
<g clip-path="url(#clip0)">
<path d="M34.9665 27.8971L42.8078 20.0341C43.0645 19.7765 43.0641 19.3594 42.8064 19.1022C42.5488 18.8452 42.1315 18.8459 41.8745 19.1036L34.5 26.4985L27.1255 19.1033C26.8685 18.8457 26.4514 18.845 26.1937 19.102C26.0646 19.2309 26 19.3998 26 19.5687C26 19.7372 26.0642 19.9054 26.1924 20.0341L34.0335 27.8971C34.1569 28.0212 34.3249 28.0909 34.5 28.0909C34.675 28.0909 34.8428 28.021 34.9665 27.8971Z" fill="#3DC383"/>
</g>
<defs>
<filter id="filter0_d" x="0" y="0" width="68" height="58" filterUnits="userSpaceOnUse" color-interpolation-filters="sRGB">
<feFlood flood-opacity="0" result="BackgroundImageFix"/>
<feColorMatrix in="SourceAlpha" type="matrix" values="0 0 0 0 0 0 0 0 0 0 0 0 0 0 0 0 0 0 127 0"/>
<feMorphology radius="2" operator="erode" in="SourceAlpha" result="effect1_dropShadow"/>
<feOffset dy="6"/>
<feGaussianBlur stdDeviation="10"/>
<feColorMatrix type="matrix" values="0 0 0 0 0 0 0 0 0 0 0 0 0 0 0 0 0 0 0.1 0"/>
<feBlend mode="normal" in2="BackgroundImageFix" result="effect1_dropShadow"/>
<feBlend mode="normal" in="SourceGraphic" in2="effect1_dropShadow" result="shape"/>
</filter>
<clipPath id="clip0">
<rect width="17" height="17" fill="white" transform="translate(43 15) rotate(90)"/>
</clipPath>
</defs>
</svg>
