<svg width="26" height="26" viewBox="0 0 26 26" fill="none" xmlns="http://www.w3.org/2000/svg">
<path d="M25.1875 17.4688H24.7812V17.0625C24.7812 10.7374 19.8499 5.71787 13.8125 5.30928V4.46875H14.625C15.0738 4.46875 15.4375 4.105 15.4375 3.65625C15.4375 3.2075 15.0738 2.84375 14.625 2.84375H11.375C10.9263 2.84375 10.5625 3.2075 10.5625 3.65625C10.5625 4.105 10.9263 4.46875 11.375 4.46875H12.1875V5.30928C6.14641 5.71812 1.21875 10.7406 1.21875 17.0625V17.4688H0.8125C0.363797 17.4688 0 17.8325 0 18.2812C0 18.73 0.363797 19.0938 0.8125 19.0938H1.07494L2.49564 22.6455C2.61899 22.954 2.91779 23.1562 3.25 23.1562H22.75C23.0823 23.1562 23.381 22.954 23.5044 22.6455L24.9251 19.0938H25.1875C25.6363 19.0938 26 18.73 26 18.2812C26 17.8325 25.6363 17.4688 25.1875 17.4688ZM2.84375 17.0625C2.84375 11.4623 7.39984 6.90625 13 6.90625C18.6002 6.90625 23.1562 11.4623 23.1562 17.0625V17.4688H2.84375V17.0625ZM22.1999 21.5312H3.80011L2.82511 19.0938H23.1749L22.1999 21.5312Z" fill="#1A1E20"/>
</svg>