<svg fill="none" height="76" viewBox="0 0 76 76" width="76" xmlns="http://www.w3.org/2000/svg"><path d="m72.8747 20.2266.0001-.0001c.8142-.4963 1.8766-.2383 2.3725.5759l.4271-.2601-.427.2603c.4964.8142.2383 1.8766-.5759 2.3725l-.0002.0001c-1.7128 1.0441-3.5387 1.8563-5.4283 2.4352l-.009.0028-.0089.0031c-.0483.0168-.0991.0316-.152.0446l-.0117.0029-.0115.0034c-2.2207.6601-4.5252.998-6.8387.998-1.9936 0-3.9939-.2493-5.951-.7525l-.82-.2108.2113.8198c2.1077 8.1781-.2493 16.8774-6.2505 22.8786-4.5529 4.5523-10.6584 7.0082-16.911 7.0082-1.99 0-3.9942-.2493-5.9692-.7589l-.8201-.2115.211.8203c1.0915 4.2434.9854 8.6869-.254 12.8318l-.0023.0075-.002.0076c-.0091.0342-.0197.0687-.0327.1063l-.003.0085-.0027.0087c-.5788 1.8946-1.3927 3.725-2.4392 5.4425l.427.2602-.427-.2601c-.3246.5329-.8926.8281-1.4766.8281-.3057 0-.6148-.081-.8961-.2523l-.0001-.0001c-.8144-.4957-1.0723-1.558-.5764-2.3724.6713-1.1011 1.2306-2.2555 1.677-3.4467l.113-.3014-.2276-.2276-14.68784-14.6884-.22772-.2277-.30151.1132c-1.19091.4468-2.34584 1.0061-3.44689 1.6768l-.00027.0001c-.81336.4961-1.87579.2385-2.372397-.576-.496029-.8144-.238221-1.8768.576297-2.3726l.00025-.0001c1.71864-1.0476 3.55076-1.862 5.44655-2.4415l.00002.0001.00822-.0027c.04849-.0158.07921-.0258.10953-.0339l.00005.0001.01325-.0039c4.14546-1.24 8.59006-1.3461 12.83356-.2546l.82.211-.2113-.82c-2.1077-8.1787.2493-16.8786 6.2505-22.8797 6.0017-6.0012 14.7017-8.3588 22.8803-6.2505l.82.2114-.211-.8202c-1.0915-4.2428-.9854-8.6863.254-12.8306l.0029-.00955.0024-.00966c.0074-.02884.0176-.06143.0317-.10217l.003-.00858.0026-.00867c.5789-1.89449 1.3927-3.72482 2.4391-5.44231.4965-.814053 1.5592-1.07192 2.3727-.576163l.0001.000023c.8148.49645 1.0724 1.55841.5765 2.37272-.6713 1.1012-1.23 2.25613-1.6768 3.44622l-.1132.30154.2277.22775 14.6878 14.68835.2277.2278.3015-.1132c1.191-.4469 2.3454-1.0062 3.4464-1.6768zm-21.3196 4.5565-.077-.2617-.2616-.0769-1.9279-.5671c-2.5541-.7513-5.18-.9831-7.7414-.7364l-1.0552.1016.7496.7496 10.7652 10.7658.7494.7495.1018-1.055c.2473-2.562.0155-5.1874-.7358-7.7415zm-20.8088 2.7354-.4368.3489.3953.3953 17.0321 17.0327.3535-.3536.3907.3121c1.354-1.6946 2.4138-3.5741 3.1615-5.5622l.1134-.3016-.2279-.2279-14.6907-14.6907-.2279-.2279-.3016.1134c-1.9883.7477-3.8671 1.8081-5.5616 3.1615zm8.4166 24.0095.2279.2279.3016-.1134c1.9882-.7478 3.8671-1.8082 5.5616-3.1615l.4368-.3489-.3953-.3953-17.0327-17.0327-.3953-.3953-.3489.4368c-1.3534 1.6946-2.4132 3.574-3.1614 5.562l-.1136.3018.228.2279zm-27.3491 1.355-1.0551.1017.7495.7496 10.7571 10.7577.7493.7494.1019-1.0549c.249-2.5779.012-5.2061-.7323-7.738v-.0001l-.5671-1.9274-.077-.2615-.2616-.077-1.9273-.5671h-.0001c-2.5314-.7443-5.1596-.9807-7.7373-.7324zm12.6314-1.6666.0769.2616.2616.077 1.9274.5671.1411-.4797-.1411.4797c2.5541.7513 5.1801.983 7.7415.7358l1.055-.1018-.7495-.7494-10.7652-10.7652-.7494-.7495-.1018 1.055c-.2473 2.5621-.0149 5.1875.7364 7.7414zm29.7374-29.7381.0769.2617.2617.077 1.9279.567c2.5314.745 5.1597.9814 7.7381.7324l1.0549-.1018-.7494-.7494-10.7583-10.7577-.7496-.7495-.1016 1.0551c-.2484 2.5777-.012 5.206.7329 7.7379z" fill="#fff" stroke="#2fa037"/></svg>