<svg width="13" height="12" viewBox="0 0 13 12" fill="none" xmlns="http://www.w3.org/2000/svg">
<path d="M12.4323 0.0851481C11.8457 -0.220629 11.1914 0.369084 10.8078 0.718544C9.92789 1.54851 9.18333 2.50953 8.34848 3.38318C7.42341 4.34419 6.56604 5.3052 5.61841 6.24441C5.07691 6.7686 4.49029 7.33648 4.12929 7.99171C3.31704 7.22723 2.6176 6.39727 1.7151 5.72022C1.06079 5.23972 -0.0222155 4.89026 0.000346992 6.04784C0.045472 7.55492 1.42179 9.17118 2.4371 10.1977C2.86579 10.6345 3.42985 11.0932 4.08416 11.115C4.87385 11.1587 5.6861 10.2414 6.15991 9.73901C6.99476 8.86536 7.67164 7.88247 8.43873 6.98702C9.43148 5.80759 10.4468 4.64997 11.417 3.4487C12.0262 2.7061 13.944 0.871397 12.4323 0.0851481ZM0.993061 5.96048C0.970498 5.96048 0.947936 5.96048 0.902811 5.98228C0.812561 5.96048 0.744873 5.9386 0.654623 5.89492C0.722311 5.85124 0.835123 5.87308 0.993061 5.96048Z" fill="white"/>
</svg>
