<svg width="76" height="76" viewBox="0 0 76 76" fill="none" xmlns="http://www.w3.org/2000/svg">
<g clip-path="url(#clip0)">
<path d="M67.1342 7.59985C62.2449 7.59985 58.2676 12.7134 58.2676 18.9999C58.2676 23.418 60.274 27.4371 63.3342 29.2991V64.5999C63.3342 66.6949 65.0392 68.3999 67.1342 68.3999C69.2293 68.3999 70.9342 66.6949 70.9342 64.5999V29.2991C73.9945 27.4371 76.0009 23.418 76.0009 18.9999C76.0009 12.7134 72.0236 7.59985 67.1342 7.59985ZM69.1267 27.3991C68.6834 27.6081 68.4009 28.054 68.4009 28.5442V64.5999C68.4009 65.2991 67.8322 65.8665 67.1342 65.8665C66.4363 65.8665 65.8676 65.2991 65.8676 64.5999V28.5442C65.8676 28.054 65.5851 27.6081 65.1418 27.3991C62.5451 26.173 60.8009 22.7973 60.8009 18.9999C60.8009 14.1118 63.642 10.1332 67.1342 10.1332C70.6264 10.1332 73.4676 14.1118 73.4676 18.9999C73.4676 22.7973 71.7234 26.173 69.1267 27.3991Z" fill="white"/>
<path d="M13.9333 7.59985C12.9605 7.59985 12.0726 7.96719 11.4 8.57012C10.7274 7.96719 9.83947 7.59985 8.86667 7.59985C7.89387 7.59985 7.00593 7.96719 6.33333 8.57012C5.66073 7.96719 4.7728 7.59985 3.8 7.59985C1.70493 7.59985 0 9.30479 0 11.3999V24.0665C0 26.1616 1.70493 27.8665 3.8 27.8665H5.06667V64.5999C5.06667 66.6949 6.7716 68.3999 8.86667 68.3999C10.9617 68.3999 12.6667 66.6949 12.6667 64.5999V27.8665H13.9333C16.0284 27.8665 17.7333 26.1616 17.7333 24.0665V11.3999C17.7333 9.30479 16.0284 7.59985 13.9333 7.59985ZM15.2 24.0665C15.2 24.7657 14.6313 25.3332 13.9333 25.3332H11.4C10.7008 25.3332 10.1333 25.8994 10.1333 26.5999V64.5999C10.1333 65.2991 9.5646 65.8665 8.86667 65.8665C8.16873 65.8665 7.6 65.2991 7.6 64.5999V26.5999C7.6 25.8994 7.03253 25.3332 6.33333 25.3332H3.8C3.10207 25.3332 2.53333 24.7657 2.53333 24.0665V11.3999C2.53333 10.7007 3.10207 10.1332 3.8 10.1332C4.49793 10.1332 5.06667 10.7007 5.06667 11.3999V18.9999C5.06667 19.7003 5.63413 20.2665 6.33333 20.2665C7.03253 20.2665 7.6 19.7003 7.6 18.9999V11.3999C7.6 10.7007 8.16873 10.1332 8.86667 10.1332C9.5646 10.1332 10.1333 10.7007 10.1333 11.3999V18.9999C10.1333 19.7003 10.7008 20.2665 11.4 20.2665C12.0992 20.2665 12.6667 19.7003 12.6667 18.9999V11.3999C12.6667 10.7007 13.2354 10.1332 13.9333 10.1332C14.6313 10.1332 15.2 10.7007 15.2 11.3999V24.0665Z" fill="white"/>
<path d="M54.5326 46.9413C54.178 46.9045 45.7863 46.0647 40.9628 50.8882C40.2902 51.5608 39.7367 52.3081 39.2668 53.0884V45.5923C39.4732 45.5986 39.7025 45.6024 39.9533 45.6024C42.7615 45.6024 48.1866 45.0995 51.7105 41.5757C56.5352 36.7497 55.6954 28.3593 55.6562 28.0059C55.5928 27.4131 55.1254 26.9444 54.5326 26.8811C54.178 26.8443 45.7876 26.0033 40.9628 30.8267C40.2902 31.5006 39.7367 32.2467 39.2668 33.0269V29.7095C40.8096 28.3314 45.6001 23.5827 45.6001 17.7307C45.6001 10.9071 39.073 5.56812 38.7943 5.34519C38.3307 4.97152 37.6682 4.97152 37.2046 5.34519C36.926 5.57066 30.3988 10.9097 30.3988 17.7332C30.3988 23.5852 35.1894 28.3339 36.7322 29.7121V33.0295C36.2622 32.2492 35.7087 31.5019 35.0361 30.8293C30.2114 26.0033 21.8197 26.8456 21.4663 26.8836C20.8735 26.9469 20.4061 27.4156 20.3428 28.0084C20.3048 28.3618 19.4637 36.7522 24.2884 41.5782C27.8123 45.1021 33.2374 45.6049 36.0456 45.6049C36.2977 45.6049 36.5257 45.6011 36.7322 45.5948V53.0909C36.2622 52.3107 35.7087 51.5646 35.0361 50.8907C30.2114 46.0647 21.821 46.9071 21.4663 46.9438C20.8735 47.0071 20.4061 47.4758 20.3428 48.0686C20.3048 48.422 19.4637 56.8124 24.2884 61.6397C27.811 65.1623 33.2336 65.6651 36.0431 65.6651C36.2964 65.6651 36.5257 65.6613 36.7334 65.655V70.9332H39.2668V65.6512C39.4745 65.6575 39.7038 65.6613 39.9571 65.6613C42.7653 65.6626 48.1879 65.1585 51.7105 61.6371C56.5352 56.8099 55.6954 48.4195 55.6562 48.0661C55.5928 47.4733 55.1254 47.0046 54.5326 46.9413ZM42.7526 32.6203C45.8142 29.5588 50.972 29.3067 53.1938 29.3473C53.2419 31.5665 52.9911 36.7129 49.9194 39.7859C46.8579 42.8461 41.6912 43.0919 39.4783 43.0602C39.4289 40.841 39.681 35.6933 42.7526 32.6203ZM36.5181 43.0602C34.2938 43.0982 29.1398 42.8461 26.0782 39.7859C23.0167 36.7243 22.7608 31.5665 22.8064 29.346C25.0142 29.2903 30.1721 29.5474 33.245 32.6203C36.3053 35.6819 36.5624 40.8372 36.5181 43.0602ZM36.5181 63.1204C34.2964 63.1774 29.1512 62.9177 26.0782 59.8461C23.0167 56.7845 22.7608 51.6254 22.8064 49.4049C25.0168 49.3505 30.1721 49.6076 33.245 52.6805C36.3066 55.7421 36.5637 60.8999 36.5181 63.1204ZM38.8133 26.5999H37.1831C35.4478 24.7455 32.9322 21.4243 32.9322 17.7332C32.9322 13.405 36.3952 9.57839 37.9988 8.03813C39.6024 9.57839 43.0655 13.405 43.0655 17.7332C43.0655 21.4243 40.5499 24.7455 38.8133 26.5999ZM49.9194 59.8461C46.8579 62.9076 41.6975 63.1533 39.4783 63.1191C39.4289 60.8999 39.681 55.7535 42.7526 52.6805C45.8129 49.6203 50.9771 49.3682 53.1912 49.4062C53.2368 51.6292 52.9784 56.7858 49.9194 59.8461Z" fill="white"/>
<path d="M19.7436 4.67261C19.0026 5.08047 18.2667 5.51747 17.5586 5.97094L18.9266 8.10401C19.5903 7.67841 20.2693 7.27434 20.9634 6.89434L19.7436 4.67261Z" fill="white"/>
<path d="M36.7402 0.0214711L36.8251 2.55227C37.6117 2.52567 38.4084 2.5282 39.1963 2.55354L39.2812 0.0227378C38.4363 -0.00639554 37.5851 -0.0076622 36.7402 0.0214711Z" fill="white"/>
<path d="M34.2069 0.187256C33.3671 0.270856 32.5197 0.383589 31.6875 0.524189L32.1068 3.02332C32.882 2.89286 33.666 2.78772 34.4577 2.70919L34.2069 0.187256Z" fill="white"/>
<path d="M41.8153 0.189941L41.5645 2.71061C42.3561 2.78914 43.1389 2.89554 43.9129 3.02474L44.3334 0.526875C43.5012 0.387541 42.6538 0.274808 41.8153 0.189941Z" fill="white"/>
<path d="M29.1991 1.02856C28.3808 1.22236 27.5562 1.4491 26.748 1.69863L27.4979 4.11796C28.2503 3.8849 29.0129 3.6759 29.7855 3.49223L29.1991 1.02856Z" fill="white"/>
<path d="M46.8221 1.03223L46.2344 3.49589C47.0058 3.68083 47.767 3.88983 48.5194 4.12289L49.2731 1.70356C48.4726 1.45529 47.648 1.22983 46.8221 1.03223Z" fill="white"/>
<path d="M24.348 2.5332C23.5602 2.83594 22.7736 3.17034 22.0098 3.525L23.0776 5.82274C23.792 5.49087 24.519 5.1818 25.2588 4.89554L24.348 2.5332Z" fill="white"/>
<path d="M56.2744 4.6853L55.0508 6.90324C55.7449 7.28577 56.4251 7.68984 57.0901 8.11544L58.4556 5.9811C57.7437 5.52637 57.0166 5.09444 56.2744 4.6853Z" fill="white"/>
<path d="M51.6711 2.54077L50.7578 4.9031C51.4963 5.18937 52.2233 5.49844 52.9377 5.83031L54.0093 3.5351C53.2493 3.18044 52.4627 2.84604 51.6711 2.54077Z" fill="white"/>
<path d="M23.0618 70.1694L21.9902 72.4646C22.7502 72.8193 23.5368 73.1537 24.3285 73.459L25.2418 71.0966C24.5033 70.8104 23.7762 70.5013 23.0618 70.1694Z" fill="white"/>
<path d="M43.8919 72.9751C43.118 73.1068 42.3327 73.212 41.541 73.2905L41.7918 75.8112C42.6316 75.7276 43.479 75.6148 44.3112 75.4742L43.8919 72.9751Z" fill="white"/>
<path d="M18.9084 67.8831L17.543 70.0187C18.2548 70.4734 18.9819 70.9053 19.7242 71.3145L20.9478 69.0953C20.2536 68.7127 19.5734 68.3087 18.9084 67.8831Z" fill="white"/>
<path d="M27.4822 71.8757L26.7285 74.2951C27.529 74.5433 28.3536 74.7701 29.1795 74.9664L29.7673 72.5027C28.9959 72.3178 28.2346 72.1088 27.4822 71.8757Z" fill="white"/>
<path d="M39.1748 73.4476C38.3869 73.4729 37.5902 73.4716 36.8023 73.4463L36.7188 75.9771C37.1443 75.9923 37.5725 75.9999 38.0006 75.9999C38.4224 75.9999 38.8417 75.9936 39.2597 75.9784L39.1748 73.4476Z" fill="white"/>
<path d="M57.0739 67.8958C56.4102 68.3214 55.7312 68.7254 55.0371 69.1054L56.2569 71.3272C56.9979 70.9193 57.7339 70.4823 58.4419 70.0288L57.0739 67.8958Z" fill="white"/>
<path d="M32.0872 72.9751L31.668 75.473C32.4989 75.6123 33.3463 75.725 34.1848 75.8099L34.4356 73.2892C33.644 73.2107 32.8612 73.1043 32.0872 72.9751Z" fill="white"/>
<path d="M48.5025 71.8821C47.75 72.1151 46.9875 72.3241 46.2148 72.5078L46.8013 74.9715C47.6196 74.7777 48.4442 74.5509 49.2523 74.3014L48.5025 71.8821Z" fill="white"/>
<path d="M52.9234 70.177C52.209 70.5089 51.4819 70.8179 50.7422 71.1042L51.6529 73.4665C52.4408 73.1638 53.2274 72.8294 53.9912 72.4747L52.9234 70.177Z" fill="white"/>
</g>
<defs>
<clipPath id="clip0">
<rect width="76" height="76" fill="white"/>
</clipPath>
</defs>
</svg>
