<svg width="76" height="76" viewBox="0 0 76 76" fill="none" xmlns="http://www.w3.org/2000/svg">
<g clip-path="url(#clip0)">
<path d="M74.7302 48.1353H1.26857C0.569429 48.1353 0.00195312 48.7014 0.00195312 49.4019C0.00195312 64.0676 11.9332 76.0001 26.6001 76.0001H49.3986C64.0643 76.0001 75.9968 64.0676 75.9968 49.4019C75.9968 48.7014 75.4306 48.1353 74.7302 48.1353ZM49.3986 73.4668H26.6001C13.7557 73.4668 3.22913 63.3519 2.56799 50.6683H73.4306C72.7696 63.3519 62.243 73.4668 49.3986 73.4668Z" fill="white"/>
<path d="M64.6026 17.745C64.6026 17.6525 64.6013 17.56 64.5926 17.4195C64.3975 15.3195 62.9537 13.5944 61.0474 12.9472L62.4812 11.5135C64.9675 9.0779 65.217 5.18187 63.0409 2.43088C60.7105 -0.401155 56.5104 -0.804014 53.6796 1.52526C53.5187 1.65826 53.363 1.79883 53.2071 1.95469L51.6493 3.5354C50.9957 1.63926 49.2669 0.205508 47.1365 0.00793772C44.331 -0.14525 41.9562 2.00783 41.8055 4.79682C41.8005 4.8893 41.7991 4.98177 41.7991 5.07291V7.01462C41.0544 6.58267 40.1918 6.33448 39.2711 6.33315C39.18 6.33315 39.0861 6.33567 38.9456 6.34324C36.2376 6.59529 34.1542 8.92204 34.1997 11.6197V13.3424C33.4397 12.9028 32.5735 12.6673 31.6717 12.6659C31.5806 12.6659 31.4881 12.6684 31.3475 12.676C28.6382 12.9281 26.5548 15.2548 26.6003 17.9527V36.7361C26.6003 37.4365 27.1678 38.0027 27.867 38.0027H49.3988C52.1929 38.0027 54.4651 35.7304 54.4638 32.9389C54.4638 32.0168 54.2168 31.1517 53.7837 30.4058H55.4948C58.2154 30.4805 60.5421 28.3666 60.7967 25.6092C60.8512 24.5782 60.5928 23.6029 60.104 22.7746C61.2413 22.648 62.2939 22.1451 63.1146 21.3269C64.0718 20.3719 64.6013 19.1002 64.6026 17.745ZM61.3259 19.5334C60.8472 20.0096 60.2126 20.2718 59.535 20.2718C59.5337 20.2718 59.5325 20.2718 59.5311 20.2718H55.7314C55.031 20.2718 54.4648 20.8393 54.4648 21.5385C54.4648 22.2376 55.031 22.8051 55.7314 22.8051L55.8708 22.8089C57.2666 22.8836 58.3407 24.0793 58.2697 25.4244C58.1406 26.8202 56.9564 27.9006 55.5162 27.8714H49.3987C48.6982 27.8714 48.1321 28.4389 48.1321 29.138C48.1321 29.8371 48.6982 30.4046 49.3987 30.4046C50.7958 30.4046 51.9319 31.5408 51.9319 32.9379C51.9319 34.3349 50.7958 35.4711 49.3987 35.4711H29.1333V17.9311C29.1092 16.529 30.1858 15.3296 31.5322 15.2029L31.6702 15.199C33.0648 15.2002 34.1982 16.3351 34.1996 17.7284V17.7373C34.1996 18.4364 34.7657 19.0039 35.4649 19.0039C35.4662 19.0039 35.4662 19.0039 35.4662 19.0039C36.1653 19.0039 36.7315 18.4378 36.7328 17.7386V17.7374V11.5982C36.7088 10.1961 37.7854 8.9967 39.1317 8.86994L39.2686 8.86608C40.6643 8.8686 41.7979 10.0034 41.7993 11.398V11.4055C41.7993 12.1047 42.3654 12.6722 43.0646 12.6722C43.0659 12.6722 43.0659 12.6722 43.0659 12.6722C43.765 12.6722 44.3312 12.106 44.3325 11.4069V11.4055V5.07276L44.3364 4.93219C44.4098 3.53763 45.5776 2.46368 46.9506 2.5333C48.3489 2.66378 49.4242 3.86315 49.3976 5.28933V6.34057C49.3976 6.85357 49.708 7.31714 50.1842 7.51218C50.6567 7.70723 51.2063 7.59575 51.566 7.22852L55.0022 3.74158C55.0958 3.6491 55.1922 3.56167 55.2922 3.47944C57.0451 2.03811 59.6429 2.28882 61.0716 4.02153C62.4243 5.7339 62.2685 8.17585 60.7005 9.71232L57.3694 13.0434C57.0073 13.4056 56.8983 13.9502 57.0945 14.424C57.2896 14.8965 57.7532 15.2055 58.2648 15.2055H59.3161C59.3426 15.2055 59.3616 15.2055 59.3832 15.2055C60.7663 15.2055 61.9416 16.2721 62.0657 17.6044L62.0696 17.7438C62.0681 18.4201 61.8048 19.0559 61.3259 19.5334Z" fill="white"/>
<path d="M54.8366 7.97296L19.373 43.4365L21.1642 45.2277L56.6278 9.7641L54.8366 7.97296Z" fill="white"/>
<path d="M49.3965 10.1453H46.8633V16.4782H49.3965V10.1453Z" fill="white"/>
<path d="M41.7969 16.478H39.2637V24.0776H41.7969V16.478Z" fill="white"/>
<path d="M34.1973 22.7986H31.6641V31.6646H34.1973V22.7986Z" fill="white"/>
<path d="M54.4638 15.2117H48.1309V17.7448H54.4638V15.2117Z" fill="white"/>
<path d="M48.1308 22.7986H40.5312V25.3317H48.1308V22.7986Z" fill="white"/>
<path d="M41.7976 30.3979H32.9316V32.9312H41.7976V30.3979Z" fill="white"/>
<path d="M23.644 5.85941C23.6428 5.85688 23.6401 5.85436 23.6389 5.85184C21.8518 3.17551 18.2192 2.44847 15.5442 4.23565C15.4606 4.29013 15.3783 4.34832 15.2846 4.41808L14.8286 4.76513L14.3904 4.4497C12.0726 2.28771 8.42858 2.37514 6.22221 4.66508C5.14189 5.78474 4.56179 7.25902 4.59089 8.81568C4.61998 10.3723 5.25203 11.8238 6.3705 12.9029C6.69602 13.217 7.05821 13.4931 7.4483 13.7236L8.51482 14.5571V15.2056C8.51482 18.6976 11.3558 21.5385 14.8477 21.5385C18.3397 21.5385 21.1807 18.6963 21.1793 15.2044V14.5559L22.3003 13.6807C24.7257 11.8402 25.3147 8.40407 23.644 5.85941ZM20.755 11.6743L19.1337 12.9409C18.8272 13.1803 18.6473 13.5489 18.6473 13.939V15.2056C18.6473 17.3005 16.9425 19.0053 14.8476 19.0053C12.7527 19.0053 11.0479 17.3005 11.0479 15.2056V13.939C11.0479 13.5489 10.8693 13.1803 10.5615 12.9409L8.94025 11.6743C8.89215 11.6363 8.8402 11.6021 8.78706 11.5717C8.54897 11.4362 8.32854 11.2716 8.13097 11.0802C7.49773 10.4697 7.14044 9.64901 7.12397 8.76997C7.10749 7.89092 7.43554 7.05759 8.04606 6.42421C8.69072 5.7555 9.55329 5.41855 10.417 5.41855C11.2403 5.41855 12.0648 5.72374 12.7033 6.34064C12.7463 6.38117 12.7919 6.4205 12.8413 6.45583L14.1079 7.36783C14.5589 7.69335 15.1706 7.68578 15.614 7.34883L16.949 6.3445C17.6836 5.85303 18.5639 5.68084 19.4303 5.85184C20.2941 6.02403 21.0401 6.52188 21.5302 7.25398C22.47 8.69026 22.1356 10.6256 20.755 11.6743Z" fill="white"/>
<path d="M30.3985 1.26636H27.8652V3.79944H30.3985V1.26636Z" fill="white"/>
<path d="M37.9979 41.7971H35.4648V44.3302H37.9979V41.7971Z" fill="white"/>
<path d="M68.3984 7.60571V10.1389C69.7955 10.1389 70.9317 11.2751 70.9317 12.672C70.9317 14.069 69.7955 15.2053 68.3984 15.2053V17.7383C71.1925 17.7383 73.4648 15.4661 73.4648 12.672C73.4648 9.87799 71.1925 7.60571 68.3984 7.60571Z" fill="white"/>
<path d="M5.06629 19.0112H2.5332V21.5445H5.06629V19.0112Z" fill="white"/>
<path d="M2.53503 13.9453H0.00195312V16.4785H2.53503V13.9453Z" fill="white"/>
<path d="M49.3984 40.5356C46.6043 40.5356 44.332 42.8079 44.332 45.602H46.8653C46.8653 44.2049 48.0014 43.0687 49.3984 43.0687C50.7954 43.0687 51.9316 44.2049 51.9316 45.602H54.4647C54.4647 42.8079 52.1924 40.5356 49.3984 40.5356Z" fill="white"/>
<path d="M15.2009 29.1366H15.0413C14.4764 26.9543 12.4916 25.3369 10.1346 25.3369C7.77754 25.3369 5.79145 26.9543 5.22783 29.1366H5.06826C2.27423 29.1366 0.00195312 31.4089 0.00195312 34.2029C0.00195312 36.997 2.27423 39.2692 5.06826 39.2692H15.2009C17.9949 39.2692 20.2672 36.997 20.2672 34.2029C20.2672 31.4089 17.9949 29.1366 15.2009 29.1366ZM15.2009 36.7373H5.06811C3.67102 36.7373 2.53489 35.6012 2.53489 34.2043C2.53489 32.8072 3.67102 31.671 5.06811 31.671H6.33473C7.03387 31.671 7.60134 31.1035 7.60134 30.4044C7.60134 29.0073 8.73748 27.8713 10.1346 27.8713C11.5317 27.8713 12.6678 29.0075 12.6678 30.4044C12.6678 31.1035 13.2353 31.671 13.9344 31.671H15.201C16.5981 31.671 17.7343 32.8072 17.7343 34.2043C17.734 35.6013 16.5978 36.7373 15.2009 36.7373Z" fill="white"/>
<path d="M12.6689 36.7361H7.60255C6.90341 36.7361 6.33594 37.3036 6.33594 38.0027V43.069C6.33594 43.7695 6.90341 44.3356 7.60255 44.3356H12.6689C13.368 44.3356 13.9355 43.7695 13.9355 43.069V38.0027C13.9355 37.3036 13.368 36.7361 12.6689 36.7361ZM11.4022 41.8024H8.86917V39.2693H11.4024V41.8024H11.4022Z" fill="white"/>
<path d="M67.1317 32.936C65.0368 32.936 63.332 34.6408 63.332 36.7357C63.332 38.8306 65.0368 40.5354 67.1317 40.5354C69.2266 40.5354 70.9314 38.8306 70.9314 36.7357C70.9314 34.6408 69.2266 32.936 67.1317 32.936ZM67.1317 38.0035C66.4326 38.0035 65.8651 37.4349 65.8651 36.7369C65.8651 36.039 66.4326 35.4703 67.1317 35.4703C67.8309 35.4703 68.3983 36.0378 68.3983 36.7369C68.3983 37.4362 67.8309 38.0035 67.1317 38.0035Z" fill="white"/>
<path d="M67.1316 27.8701C62.2439 27.8701 58.2656 31.8472 58.2656 36.7361C58.2656 41.6251 62.2439 45.6021 67.1316 45.6021C72.0194 45.6021 75.9976 41.6251 75.9976 36.7361C75.9976 31.8472 72.0194 27.8701 67.1316 27.8701ZM67.1316 43.0703C63.6396 43.0703 60.7987 40.2281 60.7987 36.7373C60.7987 33.2453 63.6396 30.4044 67.1316 30.4044C70.6236 30.4044 73.4646 33.2453 73.4646 36.7373C73.4646 40.2293 70.6236 43.0703 67.1316 43.0703Z" fill="white"/>
</g>
<defs>
<clipPath id="clip0">
<rect width="76" height="76" fill="white"/>
</clipPath>
</defs>
</svg>
