<svg width="76" height="76" viewBox="0 0 76 76" fill="none" xmlns="http://www.w3.org/2000/svg">
<g clip-path="url(#clip0)">
<path d="M58.9889 17.1168C58.5853 16.4178 57.8333 15.9836 57.0261 15.9836H18.4368C17.6296 15.9836 16.8776 16.4178 16.4742 17.1168L13.7202 21.8866C13.4124 22.4197 13.5951 23.1015 14.1283 23.4094C14.6613 23.7172 15.3432 23.5345 15.6511 23.0013L17.772 19.3279L25.8209 33.2689H9.72311L13.1262 27.3744C13.434 26.8413 13.2513 26.1593 12.7181 25.8516C12.1849 25.5435 11.503 25.7265 11.1953 26.2597L7.07676 33.3933C6.68593 34.07 6.77321 34.9164 7.29363 35.4995L36.3544 68.0478C36.6964 68.4309 37.1872 68.6507 37.7009 68.651H37.7018C38.2151 68.651 38.7057 68.4317 39.048 68.0491L68.1679 35.5003C68.6895 34.9173 68.777 34.0705 68.3859 33.3928L58.9889 17.1168ZM40.0833 33.269H29.6825L37.7313 19.3279L45.7802 33.269H45.6836C45.0679 33.269 44.5688 33.7682 44.5688 34.3838C44.5688 34.9995 45.068 35.4986 45.6836 35.4986H46.2203L37.7043 64.402L29.2398 35.4987H40.0833C40.699 35.4987 41.1981 34.9995 41.1981 34.384C41.1982 33.7682 40.699 33.269 40.0833 33.269ZM47.7112 32.1543L39.6624 18.2132H55.7601L47.7112 32.1543ZM48.545 35.4987H65.1776L40.3775 63.219L48.545 35.4987ZM65.7399 33.269H49.6421L57.691 19.3281L65.7399 33.269ZM19.7029 18.2132H35.8006L27.7517 32.1541L19.7029 18.2132ZM26.9165 35.4987L35.0359 63.2233L10.282 35.4987H26.9165Z" fill="white"/>
<path d="M64.7102 64.4957C64.6572 64.4604 64.6012 64.4297 64.5429 64.4038C63.8351 64.0908 63.1824 63.721 62.6029 63.3053C62.1029 62.9463 61.4062 63.0608 61.0472 63.561C60.6882 64.0612 60.8027 64.7577 61.3029 65.1168C61.6428 65.3608 62.0022 65.591 62.3785 65.8061C59.9708 67.1799 58.3011 69.148 57.4833 71.5814C56.6656 69.1485 54.9961 67.1805 52.5891 65.8067C54.9964 64.4329 56.6659 62.4648 57.4835 60.0316C57.4948 60.0652 57.5063 60.0986 57.5178 60.132C57.7202 60.7134 58.3556 61.0205 58.9373 60.8182C59.5187 60.6157 59.8258 59.9803 59.6235 59.3987C59.5387 59.1557 59.4644 58.9032 59.4019 58.6485L58.9385 56.7553C58.7738 56.083 58.1755 55.6135 57.4833 55.6135C56.7912 55.6135 56.1928 56.083 56.0281 56.7555L55.5648 58.6485C54.7749 61.8751 52.333 63.5592 50.4236 64.404C50.3653 64.4298 50.3093 64.4605 50.2562 64.496C49.8168 64.7889 49.5547 65.2789 49.5547 65.8069C49.5547 66.3349 49.817 66.8249 50.2562 67.1177C50.3092 67.1532 50.3652 67.1838 50.4236 67.2098C52.333 68.0544 54.7748 69.7387 55.5648 72.9653L56.0282 74.8584C56.1928 75.5307 56.7912 76.0002 57.4833 76.0002C58.1755 76.0002 58.7738 75.5307 58.9385 74.8583L59.4019 72.9653C60.1917 69.7387 62.6337 68.0545 64.543 67.2098C64.6012 67.1839 64.6572 67.1532 64.7103 67.1179C65.1497 66.8251 65.412 66.335 65.412 65.8069C65.412 65.2787 65.1495 64.7886 64.7102 64.4957Z" fill="white"/>
<path d="M69.9983 15.3866C69.9452 15.3511 69.8892 15.3204 69.8307 15.2945C68.5956 14.7481 67.8289 13.8977 67.5521 12.7669L67.3186 11.8125V11.8123C67.1747 11.2254 66.6522 10.8154 66.0481 10.8154C66.0481 10.8154 66.048 10.8154 66.0478 10.8154C65.4435 10.8156 64.9212 11.2257 64.7776 11.8125L64.544 12.7669C64.2672 13.8977 63.5005 14.7481 62.2653 15.2945C62.207 15.3204 62.1509 15.3511 62.0977 15.3866C61.7222 15.637 61.4979 16.0562 61.498 16.5076C61.498 16.959 61.7225 17.378 62.0982 17.6283C62.1512 17.6636 62.207 17.6943 62.2653 17.7201C63.5006 18.2665 64.2672 19.1169 64.544 20.2479L64.7776 21.202C64.9213 21.7891 65.4437 22.1991 66.048 22.1992H66.0483C66.6525 22.1992 67.1749 21.7894 67.3187 21.2022L67.5524 20.2479C67.8292 19.1171 68.5959 18.2667 69.831 17.7203C69.8892 17.6945 69.9452 17.6639 69.9982 17.6284C70.3739 17.3781 70.5982 16.9591 70.5983 16.5077C70.5982 16.056 70.3739 15.637 69.9983 15.3866ZM66.048 18.111C65.676 17.499 65.1857 16.9612 64.5857 16.5074C65.1858 16.0536 65.6761 15.5158 66.0481 14.9038C66.4201 15.5158 66.9104 16.0536 67.5104 16.5074C66.9102 16.9612 66.4199 17.4988 66.048 18.111Z" fill="white"/>
<path d="M9.75156 12.9144L10.0863 14.2815C10.2392 14.9059 10.7951 15.3422 11.438 15.3422C12.081 15.3422 12.6369 14.9059 12.7896 14.2815L13.1244 12.9144C13.665 10.7065 15.3463 9.54943 16.6618 8.96741C16.7201 8.94158 16.7761 8.91085 16.8291 8.87537C17.2327 8.60641 17.4736 8.1562 17.4736 7.67125C17.4736 7.18616 17.2328 6.73595 16.8292 6.46683C16.7761 6.43135 16.7201 6.40062 16.6616 6.3748C15.3463 5.79292 13.665 4.63585 13.1244 2.42799L12.7896 1.06088C12.6367 0.436258 12.0808 0 11.4378 0C10.7949 0 10.239 0.436258 10.0861 1.06073L9.75141 2.42784C9.2111 4.6357 7.5296 5.79277 6.2143 6.37465C6.15596 6.40048 6.09985 6.4312 6.04686 6.46668C5.64311 6.73595 5.40234 7.18616 5.40234 7.67125C5.40234 8.15634 5.64341 8.60655 6.04701 8.87552C6.1 8.91085 6.15596 8.94158 6.21415 8.96741C7.5296 9.54928 9.2111 10.7065 9.75156 12.9144ZM11.4378 4.34373C12.0522 5.68857 13.0445 6.81284 14.3752 7.6711C13.0446 8.52937 12.0522 9.65378 11.4378 10.9986C10.8234 9.65378 9.83098 8.52952 8.50038 7.6711C9.83098 6.81284 10.8234 5.68842 11.4378 4.34373Z" fill="white"/>
</g>
<defs>
<clipPath id="clip0">
<rect width="76" height="76" fill="white"/>
</clipPath>
</defs>
</svg>
