<svg width="76" height="76" viewBox="0 0 76 76" fill="none" xmlns="http://www.w3.org/2000/svg">
<path d="M58.3336 56.1545L46.151 51.1706C44.8056 50.6208 43.9375 49.3264 43.9375 47.8729V47.0203C47.5914 44.4956 50.3821 40.9331 51.9638 36.8125H52.25C55.5239 36.8125 58.1875 34.1489 58.1875 30.875C58.1875 30.134 58.0343 29.431 57.7849 28.7755L58.2908 28.2862C59.4106 27.2306 60.1243 25.8626 60.2953 25.517C61.8046 23.1301 62.1597 20.2457 61.2679 17.5881C60.4485 15.1406 58.6566 13.1432 56.2982 12.0151C55.9146 9.48694 54.5086 7.22 52.3676 5.71306C50.2265 4.20494 47.5701 3.61 44.9813 4.05056C43.1478 2.223 40.6422 1.1875 38 1.1875C35.3578 1.1875 32.8522 2.223 31.0175 4.05056C28.4311 3.61475 25.7735 4.20612 23.6324 5.71306C21.4902 7.22 20.0854 9.48694 19.7006 12.0151C17.3434 13.1432 15.5515 15.1418 14.7309 17.5869C13.8391 20.2445 14.1954 23.1301 15.7035 25.517C15.8709 25.8566 16.5609 27.1807 17.6451 28.2269L18.2459 28.6698C17.9728 29.3538 17.8125 30.0948 17.8125 30.875C17.8125 34.1489 20.4761 36.8125 23.75 36.8125H24.0362C25.6179 40.9343 28.4086 44.4956 32.0625 47.0203V47.8729C32.0625 49.3264 31.1944 50.6196 29.849 51.1694L17.6664 56.1533C10.5414 59.0686 5.9375 65.9276 5.9375 73.625V74.8125H70.0625V73.625C70.0625 65.9276 65.4586 59.0686 58.3336 56.1545ZM48.5854 60.0447L43.7582 63.6654L46.9573 54.0669L47.633 54.3436L48.5854 60.0447ZM28.3658 54.3436L29.0415 54.0669L32.2406 63.6654L27.4134 60.0447L28.3658 54.3436ZM32.3629 64.0324L35.1654 72.4375H34.9291L30.0283 67.5367L32.3629 64.0324ZM31.2312 53.1288C31.4961 52.991 31.7478 52.8366 31.9853 52.6644L38 58.6791L44.0147 52.6644C44.2522 52.8366 44.5028 52.991 44.7688 53.1288L38.3325 72.4375H37.6675L31.2312 53.1288ZM43.6371 64.0324L45.9717 67.5367L41.0709 72.4375H40.8346L43.6371 64.0324ZM50.8333 31.8844C50.7478 32.4437 50.635 33.0066 50.4878 33.6003C50.0341 34.1347 49.3881 34.4375 48.6875 34.4375H43.7641C42.8581 34.4375 42.0446 33.934 41.6397 33.1253L41.1089 32.0625H34.8911L34.3603 33.1253C33.9554 33.934 33.1408 34.4375 32.2359 34.4375H27.3125C26.6119 34.4375 25.9659 34.1347 25.5122 33.6003C25.365 33.0066 25.2522 32.4425 25.1667 31.8844H25.1643C25.0171 30.913 24.9375 29.9214 24.9375 28.9168V26.125H51.0625V28.9168C51.0625 29.9226 50.9817 30.913 50.8333 31.8844ZM51.0625 23.75H43.2416L46.4966 20.4951L51.0625 23.2346V23.75ZM24.9375 23.75V23.2346L29.5034 20.4939L32.7584 23.75H24.9375ZM33.6454 23.75L38 20.4844L42.3546 23.75H33.6454ZM52.7416 34.3876C52.8117 34.1145 52.8711 33.8366 52.9304 33.5599C52.9744 33.3569 53.0147 33.155 53.0516 32.9543C53.2962 31.6386 53.4375 30.2919 53.4375 28.9168V27.5322C54.8162 28.0238 55.8125 29.3301 55.8125 30.8762C55.8125 32.6717 54.4718 34.1454 52.7416 34.3876ZM19.2399 26.4634C18.3718 25.5989 17.8268 24.4482 17.822 24.4387L17.7436 24.2951C16.5929 22.5067 16.3163 20.3371 16.9848 18.3421C17.6558 16.3376 19.2066 14.7309 21.2384 13.9341L21.9355 13.6622L21.9889 12.9153C22.1421 10.8122 23.2394 8.89438 25.0004 7.65462C26.7734 6.40656 29.0189 5.98381 31.1541 6.50038L31.8571 6.669L32.3297 6.12394C33.7404 4.49587 35.8067 3.5625 38 3.5625C40.1933 3.5625 42.2596 4.49587 43.6703 6.12394L44.1429 6.669L44.8459 6.50038C46.9799 5.98263 49.2254 6.40656 51.0008 7.65462C52.7606 8.89438 53.8579 10.811 54.0111 12.9153L54.0645 13.6622L54.7616 13.9341C56.7934 14.7309 58.3442 16.3376 59.0152 18.3433C59.6838 20.3371 59.4071 22.5067 58.2564 24.2951L58.178 24.4387C58.1721 24.4506 57.5831 25.6916 56.6509 26.5703L56.487 26.7282C55.6724 25.8958 54.6203 25.2985 53.4363 25.0574V21.8904L46.1273 17.5061L42.6384 20.995L38 17.5156L33.3616 20.995L29.8727 17.5061L22.5625 21.8904V25.0574C21.3976 25.2949 20.3561 25.8744 19.5462 26.6867L19.2399 26.4634ZM20.1875 30.875C20.1875 29.3289 21.1838 28.0226 22.5625 27.531V28.9156C22.5625 30.2896 22.7038 31.6374 22.9473 32.9519C22.9853 33.1526 23.0244 33.3557 23.0696 33.5599C23.1289 33.8366 23.1883 34.1133 23.2584 34.3864C21.5282 34.1454 20.1875 32.6717 20.1875 30.875ZM26.5715 36.746C26.8149 36.7852 27.0619 36.8125 27.3125 36.8125H32.2359C33.9518 36.8125 35.5039 35.9088 36.3506 34.4375H39.6506C40.4973 35.9088 42.0494 36.8125 43.7653 36.8125H48.6875C48.9381 36.8125 49.1851 36.7852 49.4285 36.746C47.3041 41.6385 43.2393 45.5691 38 47.4311C32.7607 45.5691 28.6947 41.6385 26.5715 36.746ZM37.6248 49.8133L38 49.9391L38.3753 49.8144C39.4998 49.4392 40.5781 48.9808 41.6041 48.4464C41.6896 49.3347 41.9674 50.1707 42.4092 50.9117L38 55.3209L33.5896 50.9105C34.0314 50.1695 34.3092 49.3335 34.3947 48.4452C35.4207 48.9796 36.5002 49.4392 37.6248 49.8133ZM18.5666 58.3537L25.7818 55.4016L24.8354 61.0802L29.2636 64.4017L26.9705 67.8395L31.5709 72.4375H20.1875V65.3125H17.8125V72.4375H8.35406C8.797 66.1972 12.7063 60.7501 18.5666 58.3537ZM58.1875 72.4375V65.3125H55.8125V72.4375H44.4291L49.0283 67.8383L46.7352 64.4005L51.1634 61.0791L50.217 55.4004L57.4322 58.3526C63.2926 60.7501 67.2018 66.196 67.6448 72.4363L58.1875 72.4375Z" fill="white"/>
<path d="M42.75 38H40.375C40.375 39.3098 39.3098 40.375 38 40.375C36.6902 40.375 35.625 39.3098 35.625 38H33.25C33.25 40.6196 35.3804 42.75 38 42.75C40.6196 42.75 42.75 40.6196 42.75 38Z" fill="white"/>
</svg>
