<svg width="76" height="76" viewBox="0 0 76 76" fill="none" xmlns="http://www.w3.org/2000/svg">
<path d="M75.2483 20.9505L75.2482 20.9504C74.752 20.1357 73.689 19.8775 72.8743 20.3741L72.8741 20.3742C71.7732 21.0448 70.6189 21.604 69.428 22.0509L69.1271 22.1639L68.8998 21.9366L54.212 7.2482L53.9847 7.02089L54.0977 6.71994C54.5445 5.52984 55.1032 4.37492 55.7745 3.27371M75.2483 20.9505L56.2006 3.53346M75.2483 20.9505C75.7449 21.7652 75.4867 22.8282 74.672 23.3244L74.6719 23.3245C72.9589 24.3686 71.133 25.1808 69.2433 25.7598L69.2343 25.7625L69.2254 25.7656C69.1771 25.7825 69.1262 25.7973 69.0733 25.8103L69.0617 25.8131L69.0502 25.8166C66.8294 26.4767 64.5248 26.8146 62.2112 26.8146C60.2175 26.8146 58.2171 26.5653 56.2599 26.0621L55.4415 25.8517L55.6524 26.6699C57.7602 34.8483 55.4031 43.548 49.4017 49.5494C44.8486 54.1019 38.7429 56.5579 32.49 56.5579C30.5 56.5579 28.4956 56.3086 26.5206 55.799L25.702 55.5879L25.9126 56.4065C27.0042 60.6502 26.8981 65.0938 25.6586 69.2389L25.6564 69.2464L25.6543 69.254C25.6453 69.2882 25.6346 69.3227 25.6216 69.3603L25.6186 69.3689L25.616 69.3775C25.0371 71.2722 24.2231 73.1026 23.1767 74.8203L23.1766 74.8203C22.8518 75.3536 22.2835 75.6489 21.6992 75.6489C21.3934 75.6489 21.084 75.5679 20.8026 75.3965L20.8025 75.3964C19.9875 74.9003 19.7296 73.8373 20.2259 73.0225C20.897 71.9215 21.4564 70.7671 21.9027 69.5761L22.0154 69.2753L21.7883 69.0481L7.10047 54.3598L6.8732 54.1325L6.57228 54.2454C5.38142 54.6923 4.22654 55.2516 3.12555 55.9221L3.12528 55.9223C2.31146 56.4187 1.24842 56.1609 0.75154 55.346L75.2483 20.9505ZM55.7745 3.27371L56.2006 3.53346M55.7745 3.27371C55.7745 3.27377 55.7744 3.27382 55.7744 3.27388L56.2006 3.53346M55.7745 3.27371C56.2706 2.45897 56.0128 1.39652 55.1976 0.899825L55.1976 0.899802C54.3836 0.403764 53.3203 0.661777 52.8235 1.47629M56.2006 3.53346C56.8401 2.48338 56.5079 1.11381 55.4572 0.473667C54.4077 -0.165891 53.0376 0.166935 52.3974 1.21644M52.8235 1.47629C52.8235 1.47622 52.8236 1.47615 52.8236 1.47608L52.3974 1.21644M52.8235 1.47629L52.3974 1.21644M52.8235 1.47629C51.7771 3.19385 50.9632 5.02426 50.3843 6.91882L50.3817 6.92748L50.3787 6.93603C50.3646 6.97679 50.3544 7.00941 50.347 7.03828L50.3445 7.04792L50.3417 7.05746C49.1022 11.2019 48.9961 15.6456 50.0877 19.8886L50.2982 20.7072L49.4798 20.4962C41.3009 18.3878 32.6006 20.7455 26.5986 26.7469C26.5986 26.7469 26.5986 26.7469 26.5986 26.7469M52.3974 1.21644C51.3288 2.97044 50.4979 4.83925 49.9071 6.773M49.9071 6.773L26.5986 26.7469M49.9071 6.773C49.8908 6.81996 49.8757 6.86693 49.8636 6.91448L49.9071 6.773ZM26.5986 26.7469C20.5972 32.7483 18.2401 41.4486 20.3479 49.6276L20.5588 50.4459L19.7403 50.2354C15.4967 49.1438 11.0519 49.2499 6.90626 50.49L6.89303 50.4939L6.89299 50.4938C6.86336 50.5017 6.83336 50.5115 6.78685 50.5266L6.78341 50.5277L6.7752 50.5304L6.77518 50.5303C4.87932 51.1098 3.04712 51.9243 1.32841 52.9719L1.32816 52.972C0.513241 53.4681 0.255265 54.531 0.751435 55.3458L26.5986 26.7469ZM20.543 75.8227C20.9049 76.043 21.3044 76.148 21.6992 76.148C22.4501 76.148 23.1836 75.7682 23.6028 75.0799C24.6715 73.3259 25.5024 71.4571 26.0932 69.5233C26.1095 69.4764 26.124 69.43 26.1367 69.3819L20.543 75.8227ZM51.5542 24.9318L51.4774 24.6707L51.2162 24.5939L49.2883 24.0268C46.7343 23.2755 44.1085 23.0438 41.5473 23.2904L40.4941 23.3918L41.2422 24.14L52.0075 34.9058L52.7555 35.6538L52.8571 34.6008C53.1043 32.0389 52.8725 29.4137 52.1212 26.8597L51.5542 24.9318ZM47.7376 45.4431L48.132 45.8376L48.4803 45.4018C49.8343 43.7072 50.894 41.8278 51.6417 39.8398L51.7549 39.5387L51.5274 39.3113L36.8367 24.6206L36.6093 24.3931L36.3082 24.5064C34.3201 25.2541 32.4413 26.3144 30.7469 27.6677L30.3109 28.0159L30.7055 28.4104L47.7376 45.4431ZM39.1636 51.6758L39.391 51.9032L39.6921 51.79C41.6802 51.0423 43.5589 49.9819 45.2533 48.6287L45.6894 48.2805L45.2948 47.8859L28.2621 30.8532L27.8676 30.4587L27.5193 30.8947C26.166 32.5892 25.1063 34.4685 24.3581 36.4564L24.2447 36.7575L24.4723 36.9851L39.1636 51.6758ZM11.8139 53.0324L10.7608 53.1339L11.5089 53.882L22.266 64.6397L23.0139 65.3876L23.1156 64.3348C23.3645 61.7571 23.1275 59.129 22.3833 56.5972L22.3832 56.5971L21.8161 54.6698L21.7393 54.4087L21.4783 54.3319L19.5509 53.7648L19.5508 53.7648C17.0196 53.0205 14.3915 52.7841 11.8139 53.0324ZM26.7114 52.2696L26.7114 52.2696C29.2654 53.0208 31.8912 53.2526 34.4525 53.0054L35.5054 52.9038L34.7574 52.1558L23.9922 41.3906L23.2442 40.6426L23.1426 41.6955C22.8954 44.2575 23.1278 46.8827 23.879 49.4366L24.4461 51.3646L24.5229 51.6257L24.784 51.7025L26.7114 52.2696ZM54.1835 21.6265L54.2603 21.8877L54.5215 21.9645L56.4494 22.5315C58.9807 23.2764 61.6089 23.5129 64.1871 23.2639L65.2399 23.1622L64.492 22.4143L53.7337 11.6566L52.9856 10.9086L52.8841 11.9616C52.6358 14.5392 52.8722 17.1674 53.6171 19.6992L54.1835 21.6265Z" fill="white" stroke="#2FA037" stroke-width="0.998049"/>
</svg>
