<svg width="76" height="76" viewBox="0 0 76 76" fill="none" xmlns="http://www.w3.org/2000/svg">
<g clip-path="url(#clip0)">
<path d="M42.8502 36.9963H34.2901C32.8185 36.9963 32.8162 39.2229 34.2901 39.2229H42.8502C44.3218 39.2229 44.3242 36.9963 42.8502 36.9963Z" fill="white"/>
<path d="M42.8502 42.4143H34.2901C32.8185 42.4143 32.8162 44.6409 34.2901 44.6409H42.8502C44.3218 44.6409 44.3242 42.4143 42.8502 42.4143Z" fill="white"/>
<path d="M2.22656 40.4376V12.0959C2.22656 11.9742 2.32571 11.875 2.44748 11.875H16.3803V27.5323C16.3803 29.4086 18.5466 30.4511 20.013 29.2886L24.4771 25.7516C24.4823 25.7475 24.4899 25.7475 24.4951 25.751L28.9598 29.2892C30.4268 30.4506 32.5925 29.4092 32.5925 27.5323V11.875H47.5267C47.6479 11.875 47.747 11.9742 47.747 12.0959V15.9594C47.747 17.431 49.9736 17.4333 49.9736 15.9594V12.0959C49.9736 10.7461 48.8759 9.64844 47.5267 9.64844H2.44748C1.09763 9.64844 0 10.7461 0 12.0959V40.4376C0 41.9092 2.22656 41.9116 2.22656 40.4376ZM30.3676 27.5386C30.3387 27.5717 30.4807 27.6349 25.878 24.0063C25.0587 23.3569 23.9141 23.3569 23.0948 24.0063L18.6266 27.5491C18.5901 27.5479 18.6161 22.3167 18.6069 11.875H30.3659L30.3676 27.5386Z" fill="white"/>
<path d="M14.0009 54.9797C11.9825 54.9797 10.3398 56.6218 10.3398 58.6408C10.3398 60.6598 11.9819 62.3019 14.0009 62.3019C16.0199 62.3019 17.662 60.6598 17.662 58.6408C17.662 56.6218 16.0199 54.9797 14.0009 54.9797ZM14.0009 60.0753C12.1025 60.0753 12.1049 57.2063 14.0009 57.2063C15.8999 57.2063 15.8976 60.0753 14.0009 60.0753Z" fill="white"/>
<path d="M53.1209 43.7774H63.5921C64.3343 43.7774 65.0214 43.3756 65.3856 42.7291C65.7497 42.0826 65.7369 41.287 65.3525 40.6521L61.554 34.3824C61.1829 33.7712 60.5086 33.3909 59.7936 33.3909H53.1209C51.9862 33.3909 51.0625 34.3145 51.0625 35.4493V41.719C51.0625 42.8538 51.9862 43.7774 53.1209 43.7774ZM53.2891 35.6174H59.6985L63.2935 41.5509H53.2891V35.6174Z" fill="white"/>
<path d="M73.6192 40.3981L69.7384 39.3405C69.721 39.3359 69.7042 39.3312 69.6862 39.3278C69.4659 39.2791 69.2774 39.1474 69.1556 38.9573L63.602 30.2963C63.0338 29.4103 62.066 28.8815 61.0136 28.8815H49.9736V20.4124C49.9736 18.9408 47.747 18.9379 47.747 20.4124V48.1146H2.22656V44.8907C2.22656 43.4191 0 43.4168 0 44.8907V56.6497C0 58.3614 1.39276 59.7542 3.10443 59.7542H6.25989C6.80203 63.5411 10.0671 66.4617 14.0013 66.4617C17.936 66.4617 21.201 63.5411 21.7432 59.7542H51.2463C51.7885 63.5411 55.0535 66.4617 58.9883 66.4617C62.9224 66.4617 66.188 63.5411 66.7296 59.7542H72.9251C74.6206 59.7542 76 58.3747 76 56.6793V43.3936C76 41.9498 75.0224 40.7223 73.6192 40.3981ZM61.0136 31.108C61.3041 31.108 61.5708 31.2536 61.728 31.4983L67.2816 40.1592C67.7177 40.84 68.3897 41.3131 69.1759 41.4952L73.0568 42.5528C73.0742 42.5574 73.0916 42.5615 73.1089 42.5656C73.5003 42.652 73.774 42.9929 73.774 43.3936V52.6669H71.1677C69.4415 52.6669 68.0366 54.0718 68.0366 55.7985V57.5276H66.7302C66.188 53.7407 62.923 50.8201 58.9883 50.8201C55.0541 50.8201 51.789 53.7401 51.2469 57.5276H49.9742V31.108H61.0136ZM2.22656 56.6497V50.3411H47.747V57.5276H21.7432C21.201 53.7407 17.936 50.8201 14.0013 50.8201C10.0671 50.8201 6.80145 53.7401 6.25989 57.5276H3.10443C2.62027 57.5276 2.22656 57.1339 2.22656 56.6497ZM14.0013 64.2345C10.9171 64.2345 8.40701 61.7256 8.40701 58.6409C8.40701 55.5562 10.9165 53.0466 14.0013 53.0466C17.086 53.0466 19.5955 55.5562 19.5955 58.6409C19.5955 61.7256 17.086 64.2345 14.0013 64.2345ZM58.9883 64.2345C55.9035 64.2345 53.394 61.7256 53.394 58.6409C53.394 55.5562 55.9035 53.0466 58.9883 53.0466C62.073 53.0466 64.5825 55.5562 64.5825 58.6409C64.5825 61.7256 62.073 64.2345 58.9883 64.2345ZM72.9251 57.5276H70.2631V55.7985C70.2631 55.2999 70.669 54.8934 71.1677 54.8934H73.7734V56.6793C73.7734 57.1472 73.3931 57.5276 72.9251 57.5276Z" fill="white"/>
<path d="M58.9892 54.9797C56.9702 54.9797 55.3281 56.6218 55.3281 58.6408C55.3281 60.6598 56.9702 62.3019 58.9892 62.3019C61.0082 62.3019 62.6503 60.6598 62.6503 58.6408C62.6503 56.6218 61.0082 54.9797 58.9892 54.9797ZM58.9892 60.0753C57.0902 60.0753 57.0926 57.2063 58.9892 57.2063C60.8882 57.2063 60.8858 60.0753 58.9892 60.0753Z" fill="white"/>
</g>
<defs>
<clipPath id="clip0">
<rect width="76" height="76" fill="white"/>
</clipPath>
</defs>
</svg>
