<svg width="67" height="89" viewBox="0 0 67 89" fill="none" xmlns="http://www.w3.org/2000/svg">
<path fill-rule="evenodd" clip-rule="evenodd" d="M33.288 0L0 6.08914V55.5386C0.82415 72.3525 20.9064 84.646 33.2815 89C45.6566 84.6781 65.7389 72.3525 66.563 55.5706V6.08914L33.288 0Z" fill="white"/>
<path d="M44.0487 23.0043C39.43 23.0047 35.1703 25.497 32.9076 29.5238C30.645 25.497 26.3853 23.0047 21.7665 23.0043C14.7022 23.0043 8.97485 29.5569 8.97485 36.6212C8.97485 54.3645 32.9076 66.7435 32.9076 66.7435C32.9076 66.7435 56.8404 54.3645 56.8404 36.6212C56.8404 29.5569 51.1131 23.0043 44.0487 23.0043Z" fill="#FF6243"/>
</svg>
