<svg width="199" height="53" viewBox="0 0 199 53" fill="none" xmlns="http://www.w3.org/2000/svg">
<path d="M63.4603 52.2718C63.4603 52.2718 55.6917 52.7008 53.1725 43.2995H50.4423V42.0376H74.3809V52.297L63.4603 52.2718Z" fill="#CCCCCC"/>
<path d="M84.4528 52.2719C84.4528 52.2719 92.2174 52.7009 94.7353 43.2996H97.464V42.0377H73.5254V52.2971L84.4528 52.2719Z" fill="#CCCCCC"/>
<path d="M136.986 40.3027C136.986 40.3027 129.217 40.7317 126.698 31.3304H123.968V30.0685H147.906V40.3279L136.986 40.3027Z" fill="#CCCCCC"/>
<path d="M157.979 40.3025C157.979 40.3025 165.743 40.7315 168.261 31.3302H170.99V30.0683H147.051V40.3277L157.979 40.3025Z" fill="#CCCCCC"/>
<path d="M113.047 28.3332C113.047 28.3332 105.279 28.7622 102.759 19.3609H100.029V18.099H123.968V28.3584L113.047 28.3332Z" fill="#CCCCCC"/>
<path d="M134.04 28.3332C134.04 28.3332 141.805 28.7623 144.323 19.3609H147.051V18.099H123.113V28.3584L134.04 28.3332Z" fill="#CCCCCC"/>
<path d="M88.2537 16.3639C88.2537 16.3639 80.4851 16.793 77.9659 7.39168H75.2358V6.12976H99.1744V16.3892L88.2537 16.3639Z" fill="#CCCCCC"/>
<path d="M109.247 16.3639C109.247 16.3639 117.011 16.7929 119.529 7.39162H122.258V6.1297H98.3192V16.3891L109.247 16.3639Z" fill="#CCCCCC"/>
<path d="M88.2537 40.3027C88.2537 40.3027 80.4851 40.7317 77.9659 31.3304H75.2358V30.0685H99.1744V40.3279L88.2537 40.3027Z" fill="#CCCCCC"/>
<path d="M109.247 40.3025C109.247 40.3025 117.011 40.7315 119.529 31.3302H122.258V30.0683H98.3192V40.3277L109.247 40.3025Z" fill="#CCCCCC"/>
<path d="M64.315 28.3332C64.315 28.3332 56.5464 28.7622 54.0272 19.3609H51.2971V18.099H75.2357V28.3584L64.315 28.3332Z" fill="#CCCCCC"/>
<path d="M85.3081 28.3332C85.3081 28.3332 93.0726 28.7623 95.5905 19.3609H98.3193V18.099H74.3807V28.3584L85.3081 28.3332Z" fill="#CCCCCC"/>
<path d="M39.5212 40.3027C39.5212 40.3027 31.7526 40.7317 29.2334 31.3304H26.5032V30.0685H50.4418V40.3279L39.5212 40.3027Z" fill="#CCCCCC"/>
<path d="M60.5145 40.3025C60.5145 40.3025 68.279 40.7315 70.7969 31.3302H73.5256V30.0683H49.587V40.3277L60.5145 40.3025Z" fill="#CCCCCC"/>
<path d="M13.0179 52.2718C13.0179 52.2718 5.24937 52.7008 2.73017 43.2995H0V42.0376H23.9386V52.297L13.0179 52.2718Z" fill="#CCCCCC"/>
<path d="M34.0112 52.2719C34.0112 52.2719 41.7757 52.7009 44.2936 43.2996H47.0223V42.0377H23.0837V52.2971L34.0112 52.2719Z" fill="#CCCCCC"/>
<path d="M164.344 52.2718C164.344 52.2718 156.576 52.7008 154.056 43.2995H151.326V42.0376H175.265V52.297L164.344 52.2718Z" fill="#CCCCCC"/>
<path d="M185.337 52.2719C185.337 52.2719 193.102 52.7009 195.62 43.2996H198.349V42.0377H174.41V52.2971L185.337 52.2719Z" fill="#CCCCCC"/>
<path d="M113.902 52.2718C113.902 52.2718 106.133 52.7008 103.614 43.2995H100.884V42.0376H124.823V52.297L113.902 52.2718Z" fill="#CCCCCC"/>
<path d="M134.895 52.2719C134.895 52.2719 142.66 52.7009 145.178 43.2996H147.906V42.0377H123.968V52.2971L134.895 52.2719Z" fill="#CCCCCC"/>
<path d="M29.0681 42.0376H17.0988V52.297H29.0681V42.0376Z" fill="#359E3D"/>
<path d="M81.2202 42.0376H69.2509V52.297H81.2202V42.0376Z" fill="#359E3D"/>
<path d="M129.952 42.0376H117.983V52.297H129.952V42.0376Z" fill="#359E3D"/>
<path d="M181.249 42.0376H169.28V52.297H181.249V42.0376Z" fill="#359E3D"/>
<path d="M153.891 30.0684H141.922V40.3278H153.891V30.0684Z" fill="#359E3D"/>
<path d="M105.159 30.0684H93.1893V40.3278H105.159V30.0684Z" fill="#359E3D"/>
<path d="M55.5717 30.0684H43.6024V40.3278H55.5717V30.0684Z" fill="#359E3D"/>
<path d="M80.3652 18.099H68.3959V28.3584H80.3652V18.099Z" fill="#359E3D"/>
<path d="M129.952 18.099H117.983V28.3584H129.952V18.099Z" fill="#359E3D"/>
<path d="M104.304 6.12976H92.3346V16.3892H104.304V6.12976Z" fill="#359E3D"/>
<path d="M98.3192 6.98468C98.3192 6.98468 101.866 -1.5928 104.772 1.78986C107.079 4.44767 98.3192 6.98468 98.3192 6.98468Z" stroke="#2FA037" stroke-width="1.7099" stroke-miterlimit="10"/>
<path d="M98.3192 6.98468C98.3192 6.98468 94.7665 -1.5928 91.8558 1.78986C89.5872 4.44767 98.3192 6.98468 98.3192 6.98468Z" stroke="#2FA037" stroke-width="1.7099" stroke-miterlimit="10"/>
</svg>
