<svg width="96" height="41" viewBox="0 0 96 41" fill="none" xmlns="http://www.w3.org/2000/svg">
<path d="M61.7502 28.3331C61.7502 28.3331 53.9817 28.7622 51.4625 19.3609H48.7323V18.099H72.6709V28.3584L61.7502 28.3331Z" fill="#CCCCCC"/>
<path d="M82.7433 28.3332C82.7433 28.3332 90.5078 28.7622 93.0257 19.3609H95.7545V18.099H71.8159V28.3584L82.7433 28.3332Z" fill="#CCCCCC"/>
<path d="M36.9567 16.3639C36.9567 16.3639 29.1882 16.793 26.669 7.39167H23.9388V6.12975H47.8774V16.3891L36.9567 16.3639Z" fill="#CCCCCC"/>
<path d="M57.9497 16.3639C57.9497 16.3639 65.7142 16.7929 68.2321 7.3916H70.9609V6.12968H47.0223V16.3891L57.9497 16.3639Z" fill="#CCCCCC"/>
<path d="M61.7505 40.3027C61.7505 40.3027 53.9819 40.7317 51.4627 31.3304H48.7325V30.0685H72.6712V40.3279L61.7505 40.3027Z" fill="#CCCCCC"/>
<path d="M82.7433 40.3025C82.7433 40.3025 90.5078 40.7315 93.0257 31.3302H95.7545V30.0683H71.8159V40.3277L82.7433 40.3025Z" fill="#CCCCCC"/>
<path d="M13.018 28.3331C13.018 28.3331 5.24943 28.7622 2.73023 19.3609H6.10352e-05V18.099H23.9387V28.3584L13.018 28.3331Z" fill="#CCCCCC"/>
<path d="M34.0112 28.3332C34.0112 28.3332 41.7758 28.7622 44.2937 19.3609H47.0224V18.099H23.0838V28.3584L34.0112 28.3332Z" fill="#CCCCCC"/>
<path d="M13.018 40.3027C13.018 40.3027 5.24943 40.7317 2.73023 31.3304H6.10352e-05V30.0685H23.9387V40.3279L13.018 40.3027Z" fill="#CCCCCC"/>
<path d="M34.0112 40.3025C34.0112 40.3025 41.7758 40.7315 44.2937 31.3302H47.0224V30.0683H23.0838V40.3277L34.0112 40.3025Z" fill="#CCCCCC"/>
<path d="M78.6555 30.0684H66.6862V40.3278H78.6555V30.0684Z" fill="#359E3D"/>
<path d="M29.0684 30.0684H17.0991V40.3278H29.0684V30.0684Z" fill="#359E3D"/>
<path d="M29.0682 18.099H17.0989V28.3584H29.0682V18.099Z" fill="#359E3D"/>
<path d="M78.6552 18.099H66.6859V28.3584H78.6552V18.099Z" fill="#359E3D"/>
<path d="M53.0069 6.12975H41.0376V16.3891H53.0069V6.12975Z" fill="#359E3D"/>
<path d="M47.0222 6.98467C47.0222 6.98467 50.5689 -1.59282 53.4746 1.78985C55.7821 4.44766 47.0222 6.98467 47.0222 6.98467Z" stroke="#2FA037" stroke-width="1.7099" stroke-miterlimit="10"/>
<path d="M47.0222 6.98467C47.0222 6.98467 43.4694 -1.59282 40.5588 1.78985C38.2902 4.44766 47.0222 6.98467 47.0222 6.98467Z" stroke="#2FA037" stroke-width="1.7099" stroke-miterlimit="10"/>
</svg>
