<svg width="998" height="744" viewBox="0 0 998 744" fill="none" xmlns="http://www.w3.org/2000/svg">
<g clip-path="url(#clip0)">
<path d="M997.383 653.399H-3.05176e-05V653.897H997.383V653.399Z" fill="#DDDBDC"/>
<path d="M897.446 685.504H831.379V686.003H897.446V685.504Z" fill="#DDDBDC"/>
<path d="M660.707 690.932H643.373V691.431H660.707V690.932Z" fill="#DDDBDC"/>
<path d="M829.384 666.987H791.104V667.485H829.384V666.987Z" fill="#DDDBDC"/>
<path d="M190.799 670.339H104.645V670.838H190.799V670.339Z" fill="#DDDBDC"/>
<path d="M221.199 670.339H208.572V670.838H221.199V670.339Z" fill="#DDDBDC"/>
<path d="M449.121 678.76H262.251V679.259H449.121V678.76Z" fill="#DDDBDC"/>
<path d="M252.557 112.302H133.57V289.734H252.557V112.302Z" fill="#DDDBDC"/>
<path d="M252.557 289.734H254.432L254.432 112.302H252.557L252.557 289.734Z" fill="#E0E0E0"/>
<path d="M245.835 283.01V119.047H140.312V283.01H245.835Z" fill="#FAFAFA"/>
<path d="M213.014 187.558C224.029 176.539 224.029 158.675 213.014 147.656C201.999 136.637 184.14 136.637 173.125 147.656C162.11 158.675 162.11 176.539 173.125 187.558C184.14 198.577 201.999 198.577 213.014 187.558Z" fill="#F0F0F0"/>
<path d="M227.862 212.152H158.264V219.276H227.862V212.152Z" fill="#DDDBDC"/>
<path d="M227.862 231.109H158.264V238.232H227.862V231.109Z" fill="#DDDBDC"/>
<path d="M227.862 250.045H158.264V257.169H227.862V250.045Z" fill="#DDDBDC"/>
<path d="M402.085 137.863H283.097V315.295H402.085V137.863Z" fill="#DDDBDC"/>
<path d="M402.085 315.275H403.96V137.843H402.085V315.275Z" fill="#E0E0E0"/>
<path d="M395.363 308.551V144.588H289.84V308.551H395.363Z" fill="#FAFAFA"/>
<path d="M370.042 199.635C373.62 184.469 364.23 169.272 349.069 165.693C333.908 162.113 318.716 171.506 315.138 186.672C311.56 201.838 320.949 217.035 336.111 220.614C351.272 224.194 366.463 214.801 370.042 199.635Z" fill="#DDDBDC"/>
<path d="M377.39 237.713H307.792V244.837H377.39V237.713Z" fill="#DDDBDC"/>
<path d="M377.39 256.65H307.792V263.774H377.39V256.65Z" fill="#DDDBDC"/>
<path d="M377.39 275.586H307.792V282.71H377.39V275.586Z" fill="#DDDBDC"/>
<path d="M821.705 389.205H301.689V394.752H821.705V389.205Z" fill="#DDDBDC"/>
<path d="M821.685 394.732H863.794V389.185H821.685V394.732Z" fill="#E0E0E0"/>
<path d="M821.684 394.753H308.809V653.398H821.684V394.753Z" fill="#F5F5F5"/>
<path d="M423.848 394.753H420.975V653.398H423.848V394.753Z" fill="#E6E6E6"/>
<path d="M559.492 447.332H556.619V653.378H559.492V447.332Z" fill="#E6E6E6"/>
<path d="M422.412 602.216V599.342H308.83V602.216H422.412Z" fill="#E6E6E6"/>
<path d="M422.412 551.073V548.2H308.829V551.073H422.412Z" fill="#E6E6E6"/>
<path d="M422.412 499.911V497.037H308.83V499.911H422.412Z" fill="#E6E6E6"/>
<path d="M821.684 448.768V445.895L308.81 445.895V448.768L821.684 448.768Z" fill="#E6E6E6"/>
<path d="M821.705 653.378H858.548V394.733H821.705V653.378Z" fill="#DDDBDC"/>
<path d="M830.361 43.4198H648.837V301.985H830.361V43.4198Z" fill="#FAFAFA"/>
<path d="M832.356 46.5332H646.842C646.435 46.5332 646.031 46.4525 645.655 46.2959C645.278 46.1392 644.937 45.9096 644.649 45.6203C644.362 45.3309 644.134 44.9876 643.98 44.6101C643.826 44.2325 643.748 43.8282 643.751 43.4203V43.4203C643.748 43.0134 643.826 42.6101 643.981 42.2336C644.135 41.8572 644.363 41.5152 644.65 41.2274C644.938 40.9397 645.28 40.712 645.656 40.5575C646.032 40.403 646.436 40.3248 646.842 40.3275H832.356C832.763 40.3248 833.168 40.4029 833.545 40.5571C833.923 40.7114 834.266 40.9388 834.555 41.2263C834.844 41.5137 835.074 41.8556 835.23 42.2321C835.387 42.6087 835.468 43.0125 835.468 43.4203V43.4203C835.468 44.2459 835.14 45.0377 834.556 45.6215C833.973 46.2052 833.181 46.5332 832.356 46.5332V46.5332Z" fill="#DDDBDC"/>
<path d="M832.356 305.099H646.842C646.435 305.099 646.031 305.018 645.655 304.862C645.278 304.705 644.937 304.475 644.649 304.186C644.362 303.897 644.134 303.553 643.98 303.176C643.826 302.798 643.748 302.394 643.751 301.986V301.986C643.748 301.579 643.826 301.176 643.981 300.799C644.135 300.423 644.363 300.081 644.65 299.793C644.938 299.505 645.28 299.278 645.656 299.123C646.032 298.969 646.436 298.89 646.842 298.893H832.356C832.763 298.891 833.168 298.969 833.545 299.123C833.923 299.277 834.266 299.504 834.555 299.792C834.844 300.079 835.074 300.421 835.23 300.798C835.387 301.174 835.468 301.578 835.468 301.986V301.986C835.468 302.812 835.14 303.603 834.556 304.187C833.973 304.771 833.181 305.099 832.356 305.099V305.099Z" fill="#DDDBDC"/>
<path d="M746.401 107.273H732.797C721.13 107.273 711.672 116.734 711.672 128.404V170.947C711.672 182.617 721.13 192.078 732.797 192.078H746.401C758.068 192.078 767.526 182.617 767.526 170.947V128.404C767.526 116.734 758.068 107.273 746.401 107.273Z" fill="#E4E4E4"/>
<path d="M723.641 278.22C720.466 278.22 717.422 276.959 715.178 274.714C712.933 272.468 711.672 269.423 711.672 266.248V175.776C711.672 172.601 712.933 169.555 715.178 167.31C717.422 165.065 720.466 163.803 723.641 163.803C726.815 163.803 729.859 165.065 732.104 167.31C734.348 169.555 735.609 172.601 735.609 175.776V266.248C735.609 269.423 734.348 272.468 732.104 274.714C729.859 276.959 726.815 278.22 723.641 278.22Z" fill="#E4E4E4"/>
<path d="M700.303 117.55H700.283C696.339 117.55 693.142 120.748 693.142 124.694V178.73C693.142 182.675 696.339 185.873 700.283 185.873H700.303C704.247 185.873 707.445 182.675 707.445 178.73V124.694C707.445 120.748 704.247 117.55 700.303 117.55Z" fill="#E4E4E4"/>
<path d="M778.917 185.873C777.025 185.868 775.211 185.114 773.873 183.775C772.535 182.436 771.781 180.623 771.776 178.73V124.714C771.776 122.817 772.527 120.998 773.866 119.655C775.205 118.313 777.021 117.555 778.917 117.55V117.55C780.815 117.555 782.633 118.312 783.975 119.654C785.317 120.996 786.073 122.815 786.078 124.714V178.73C786.068 180.624 785.309 182.438 783.968 183.776C782.627 185.114 780.811 185.868 778.917 185.873V185.873Z" fill="#E4E4E4"/>
<path d="M755.557 278.22C752.383 278.22 749.339 276.959 747.094 274.714C744.849 272.468 743.588 269.423 743.588 266.248V175.776C743.588 172.601 744.849 169.555 747.094 167.31C749.339 165.065 752.383 163.803 755.557 163.803C758.731 163.803 761.776 165.065 764.02 167.31C766.265 169.555 767.526 172.601 767.526 175.776V266.248C767.526 269.423 766.265 272.468 764.02 274.714C761.776 276.959 758.731 278.22 755.557 278.22Z" fill="#E4E4E4"/>
<path d="M752.065 94.1269C758.944 87.246 758.944 76.0899 752.066 69.2091C745.187 62.3283 734.034 62.3283 727.156 69.2091C720.277 76.09 720.277 87.246 727.156 94.1268C734.034 101.008 745.187 101.008 752.065 94.1269Z" fill="#E4E4E4"/>
<path d="M760.324 338.642H676.764V389.185H760.324V338.642Z" fill="#F5F5F5"/>
<path d="M760.326 389.205H780.912V338.661H760.326V389.205Z" fill="#DDDBDC"/>
<path d="M734.513 359.094H723.362V347.96H713.727V359.094H702.596V368.752H713.727V379.887H723.362V368.752H734.513V359.094Z" fill="white"/>
<path d="M603.597 389.205H595.618V299.791C595.618 295.831 594.838 291.911 593.323 288.253C591.809 284.595 589.588 281.271 586.79 278.471C583.991 275.671 580.668 273.45 577.011 271.935C573.354 270.42 569.435 269.64 565.477 269.64C561.519 269.64 557.599 270.42 553.942 271.935C550.285 273.45 546.963 275.671 544.164 278.471C541.365 281.271 539.145 284.595 537.63 288.253C536.115 291.911 535.336 295.831 535.336 299.791H527.357C527.357 289.677 531.373 279.978 538.522 272.827C545.671 265.676 555.367 261.658 565.477 261.658C575.587 261.658 585.283 265.676 592.432 272.827C599.58 279.978 603.597 289.677 603.597 299.791V389.205Z" fill="#DDDBDC"/>
<path d="M618.457 376.116H610.478V389.206H618.457V376.116Z" fill="#DDDBDC"/>
<path d="M364.703 384.536H356.724V389.185H364.703V384.536Z" fill="#DDDBDC"/>
<path d="M350.561 384.536H342.582V389.185H350.561V384.536Z" fill="#DDDBDC"/>
<path d="M274.899 507.473H171.032V653.398H274.899V507.473Z" fill="#F5F5F5"/>
<path d="M270.849 503.802H175.06V507.473H270.849V503.802Z" fill="#E6E6E6"/>
<path d="M203.925 470.918H241.985C246.307 470.915 250.586 471.764 254.579 473.417C258.573 475.069 262.201 477.492 265.258 480.548C268.314 483.604 270.739 487.232 272.393 491.225C274.048 495.219 274.899 499.499 274.899 503.822H171.032C171.032 495.095 174.497 486.726 180.666 480.555C186.835 474.384 195.201 470.918 203.925 470.918V470.918Z" fill="#F5F5F5"/>
<path d="M498.692 743.511C712.297 743.511 885.458 733.399 885.458 720.923C885.458 708.448 712.297 698.335 498.692 698.335C285.088 698.335 111.927 708.448 111.927 720.923C111.927 733.399 285.088 743.511 498.692 743.511Z" fill="#F5F5F5"/>
<path d="M595.125 766.336C591.16 782.807 586.551 798.814 581.335 814.177C579.197 820.411 574.939 825.698 569.303 829.115C563.668 832.533 557.012 833.864 550.496 832.878C543.98 831.892 538.016 828.65 533.644 823.718C529.272 818.786 526.768 812.476 526.57 805.888L525.463 766.336L521.211 612.31L520.211 575.759C520.223 565.508 523.744 555.57 530.188 547.598C536.633 539.626 545.612 534.101 555.632 531.943C565.652 529.784 576.109 531.121 585.264 535.732C594.418 540.344 601.718 547.951 605.949 557.288C608.593 563.087 609.957 569.386 609.951 575.759C616.059 636.748 610.093 704.561 595.125 766.336Z" fill="#D7B1B1"/>
<path d="M514.245 576.653L513.352 609.488L508.994 766.336L507.886 806.638C507.704 813.233 505.208 819.554 500.837 824.494C496.466 829.435 490.496 832.681 483.974 833.665C477.451 834.648 470.79 833.307 465.157 829.875C459.523 826.443 455.275 821.139 453.157 814.892C447.762 799.314 443.19 782.986 439.188 766.336C424.327 704.776 418.433 637.249 424.541 576.653C424.534 574.536 424.689 572.422 425.006 570.329C426.439 558.95 432.177 548.554 441.04 541.276C449.902 533.999 461.216 530.395 472.655 531.205C484.093 532.015 494.786 537.177 502.536 545.631C510.285 554.084 514.501 565.186 514.317 576.653H514.245Z" fill="#D7B1B1"/>
<path d="M459.194 531.528L492.954 561.683C492.954 561.683 495.705 573.545 471.305 555.645C471.305 555.645 471.626 580.047 479.343 595.482C480.263 597.213 480.817 599.115 480.971 601.07C481.124 603.025 480.874 604.99 480.236 606.844C478.235 612.132 472.734 615.74 457.837 600.663C457.837 600.663 440.654 583.835 447.977 548.142L459.194 531.528Z" fill="#D7B1B1"/>
<path d="M331.873 380.967C335.712 385.14 341.047 387.622 346.711 387.87C352.376 388.118 357.907 386.111 362.096 382.289C396.427 355.314 426.899 328.267 450.799 301.113C454.977 297.279 457.465 291.946 457.72 286.281C457.974 280.615 455.974 275.08 452.157 270.887V270.887C432.008 252.201 364.596 316.369 333.23 350.669C331.151 352.569 329.467 354.859 328.273 357.411C327.079 359.962 326.4 362.723 326.274 365.537C326.148 368.35 326.578 371.161 327.538 373.809C328.499 376.457 329.972 378.889 331.873 380.967V380.967Z" fill="#DDDBDC"/>
<path d="M446.262 459.392L456.479 442.456L358.452 348.811C351.057 341.666 338.66 344.881 331.801 355.564C325.371 365.639 326.55 378.395 334.481 383.718L446.262 459.392Z" fill="#DDDBDC"/>
<path d="M606.629 559.932L521.212 612.31L520.569 612.703L513.424 609.487L512.924 609.273L425.078 570.329C425.828 565.755 426.757 561.146 427.829 556.537C435.759 521.523 451.478 486.652 463.053 463.893C467.054 455.925 470.626 449.601 473.163 444.957C475.699 440.312 477.271 437.811 477.271 437.811H558.508C559.937 440.062 561.33 442.42 562.723 444.957C566.046 450.816 569.261 457.212 572.369 463.893C585.709 494.109 596.883 525.236 605.807 557.038C605.807 557.038 605.807 557.395 605.807 557.609C605.807 557.824 605.807 558.038 605.807 558.288C605.916 558.513 605.988 558.755 606.021 559.003C606.241 559.301 606.443 559.611 606.629 559.932V559.932Z" fill="#28354D"/>
<path d="M595.125 766.336H439.188C424.327 704.776 418.433 637.248 424.541 576.653C424.534 574.536 424.689 572.422 425.006 570.329V570.329C425.756 565.755 426.685 561.146 427.757 556.537C435.687 521.523 451.406 486.652 462.981 463.893C466.982 455.925 470.554 449.602 473.091 444.957H562.687C566.01 450.816 569.225 457.212 572.333 463.893C585.672 494.109 596.846 525.236 605.771 557.038C605.771 557.038 605.771 557.395 605.771 557.609C608.431 563.296 609.856 569.482 609.95 575.759C616.059 636.748 610.093 704.561 595.125 766.336Z" fill="#3D485F"/>
<path d="M599.09 271.066L590.659 316.012C589.778 320.776 588.778 325.54 587.658 330.304C586.479 335.592 585.122 341.022 583.693 346.06L562.473 422.805L561.544 426.378L558.507 437.704L556.4 445.35H479.2L477.128 437.704L474.055 426.378L471.912 418.446L453.014 348.883C451.37 342.809 449.977 336.628 448.798 330.447C447.619 324.266 446.762 318.263 446.119 312.154L441.332 267.207L452.621 262.276L474.448 252.701L503.456 239.91H535.608L551.363 247.842L574.833 259.311L599.09 271.066Z" fill="#BFDAD6"/>
<path d="M486.024 247.056L500.742 408.8C507.44 482.702 507.727 557.045 501.599 630.996L495.169 708.67C490.525 764.872 456.622 807.246 416.29 807.246H410.217C397.499 635.748 429.401 531.706 448.584 486.367C456.963 466.646 460.172 445.113 457.909 423.806L441.332 267.207L486.024 247.056Z" fill="#DDDBDC"/>
<path d="M486.023 247.056L471.447 257.775C467.635 260.588 465.083 264.788 464.341 269.467C463.599 274.146 464.727 278.93 467.482 282.785L490.846 314.94L479.914 328.982C478.068 331.337 476.834 334.114 476.323 337.063C475.811 340.012 476.039 343.042 476.985 345.881L501.992 420.912C501.992 420.912 499.741 278.068 486.023 247.056Z" fill="#F8F2F6"/>
<path d="M549.183 244.983L534.286 408.799C527.612 482.703 527.349 557.047 533.5 630.996L539.931 708.67C544.611 764.871 578.513 807.246 618.81 807.246H624.919C639.53 624.35 614.773 533.564 594.768 491.618C581.793 464.455 577.466 433.963 582.371 404.262L601.662 271.423L549.183 244.983Z" fill="#DDDBDC"/>
<path d="M549.184 244.983L565.867 257.989C569.419 260.766 571.755 264.814 572.381 269.279C573.008 273.745 571.876 278.279 569.225 281.927L545.147 314.94L556.329 329.232C558.116 331.492 559.311 334.163 559.804 337.002C560.296 339.841 560.072 342.758 559.151 345.488L533.93 421.054C533.93 421.054 535.466 275.996 549.184 244.983Z" fill="#F8F2F6"/>
<path d="M586.158 371.177C586.158 374.599 585.143 377.944 583.242 380.788C581.34 383.633 578.638 385.849 575.476 387.157C572.315 388.465 568.836 388.805 565.481 388.135C562.126 387.465 559.046 385.814 556.629 383.392C554.212 380.97 552.568 377.886 551.905 374.529C551.242 371.172 551.59 367.694 552.904 364.535C554.218 361.376 556.44 358.677 559.288 356.782C562.136 354.886 565.482 353.877 568.904 353.885C571.173 353.885 573.419 354.332 575.515 355.202C577.611 356.071 579.514 357.345 581.117 358.952C582.72 360.558 583.99 362.464 584.855 364.562C585.72 366.66 586.163 368.908 586.158 371.177V371.177Z" fill="#3D485F"/>
<path d="M583.515 371.177C583.515 374.004 582.677 376.767 581.106 379.117C579.536 381.467 577.305 383.299 574.693 384.381C572.082 385.463 569.209 385.746 566.437 385.194C563.665 384.643 561.119 383.282 559.121 381.283C557.122 379.284 555.761 376.738 555.21 373.965C554.659 371.193 554.941 368.32 556.023 365.708C557.105 363.097 558.936 360.865 561.286 359.294C563.636 357.724 566.399 356.886 569.225 356.886C573.015 356.886 576.65 358.392 579.329 361.072C582.009 363.752 583.515 367.387 583.515 371.177Z" fill="#98B2B5"/>
<path d="M481.7 423.055L478.878 419.483C492.846 408.514 501.884 383.004 501.884 354.456C501.884 353.635 501.884 352.849 501.884 352.027H506.493V354.528C506.457 384.29 496.74 411.408 481.7 423.055Z" fill="#98B2B5"/>
<path d="M501.849 351.991C501.206 314.583 484.702 284.107 465.053 284.107C446.691 284.107 430.651 311.367 428.507 346.167L423.935 345.917C426.328 308.116 443.94 279.569 465.053 279.569C487.524 279.569 505.707 311.332 506.458 351.92L501.849 351.991Z" fill="#3D485F"/>
<path d="M449.549 423.913C433.83 412.551 423.648 385.29 423.648 354.42C423.648 351.562 423.648 348.739 423.934 345.953L428.507 346.203C428.328 348.918 428.257 351.669 428.257 354.42C428.257 383.396 437.902 409.836 452.228 420.197L449.549 423.913Z" fill="#98B2B5"/>
<path d="M572.583 366.854H568.01V314.94C568.975 291.753 566.26 272.531 559.901 257.775C554.79 245.804 545.214 236.297 533.207 231.274C521.2 226.251 507.709 226.106 495.597 230.871C489.188 233.232 483.565 237.336 479.362 242.721C475.158 248.105 472.541 254.556 471.805 261.347C470.873 268.221 471.2 275.206 472.769 281.963L468.34 283.142C468.34 282.713 457.622 241.375 493.811 226.619C507.051 221.377 521.814 221.509 534.958 226.987C548.102 232.465 558.589 242.858 564.188 255.952C570.833 271.459 573.655 291.36 572.654 315.155L572.583 366.854Z" fill="#3D485F"/>
<path d="M575.906 371.177C575.906 372.591 575.487 373.972 574.702 375.147C573.917 376.322 572.801 377.238 571.495 377.779C570.19 378.32 568.753 378.461 567.367 378.186C565.981 377.91 564.708 377.229 563.709 376.23C562.71 375.231 562.029 373.957 561.754 372.571C561.478 371.185 561.619 369.748 562.16 368.443C562.701 367.137 563.617 366.021 564.792 365.236C565.967 364.451 567.348 364.031 568.761 364.031C570.656 364.031 572.473 364.784 573.813 366.124C575.153 367.465 575.906 369.282 575.906 371.177Z" fill="#3D485F"/>
<path d="M446.084 425.413C446.814 425.914 447.705 426.126 448.583 426.007C449.461 425.888 450.264 425.447 450.835 424.77L453.657 421.197C454.162 420.471 454.38 419.582 454.268 418.704C454.156 417.826 453.722 417.021 453.05 416.445V416.445C452.319 415.944 451.428 415.732 450.55 415.851C449.672 415.97 448.87 416.411 448.299 417.088L445.441 420.661C444.94 421.392 444.728 422.283 444.847 423.161C444.966 424.039 445.406 424.842 446.084 425.413Z" fill="#3D485F"/>
<path d="M482.951 425.413C482.22 425.914 481.329 426.126 480.451 426.007C479.573 425.888 478.771 425.447 478.199 424.77L475.377 421.197C474.872 420.471 474.654 419.582 474.767 418.704C474.879 417.826 475.313 417.021 475.985 416.445V416.445C476.715 415.944 477.606 415.732 478.484 415.851C479.362 415.97 480.165 416.411 480.736 417.088L483.594 420.661C484.095 421.392 484.307 422.283 484.188 423.161C484.069 424.039 483.628 424.842 482.951 425.413V425.413Z" fill="#3D485F"/>
<path d="M530.143 191.712C530.606 191.625 531.017 191.359 531.284 190.97C531.552 190.582 531.655 190.104 531.572 189.64C531.538 189.405 531.456 189.179 531.332 188.977C531.208 188.775 531.044 188.6 530.85 188.463C530.656 188.326 530.437 188.23 530.205 188.18C529.972 188.131 529.733 188.129 529.5 188.175" fill="#543F3C"/>
<path d="M492.025 224.047C497.12 225.002 502.136 226.339 507.029 228.048Z" fill="#944A36"/>
<path d="M487.417 492.226C487.417 492.226 465.053 493.441 457.801 466.823H449.942V463.25H518.854V492.298L487.417 492.226Z" fill="#1E1E1E"/>
<path d="M549.112 492.226C549.112 492.226 571.476 493.441 578.728 466.823H586.587V463.25H517.639V492.298L549.112 492.226Z" fill="#1E1E1E"/>
<path d="M586.587 463.214H449.942V466.859H586.587V463.214Z" fill="black"/>
<path d="M486.809 463.214C486.809 463.214 464.445 464.393 457.193 437.811H449.334V434.238H518.246V463.286L486.809 463.214Z" fill="#1E1E1E"/>
<path d="M548.505 463.214C548.505 463.214 570.868 464.393 578.12 437.811H585.98V434.238H517.032V463.286L548.505 463.214Z" fill="#1E1E1E"/>
<path d="M585.979 434.167H449.334V437.811H585.979V434.167Z" fill="black"/>
<path d="M486.809 434.167C486.809 434.167 464.445 435.382 457.193 408.764H449.334V405.191H518.246V434.239L486.809 434.167Z" fill="#1E1E1E"/>
<path d="M548.505 434.167C548.505 434.167 570.868 435.382 578.12 408.764H585.98V405.191H517.032V434.239L548.505 434.167Z" fill="#1E1E1E"/>
<path d="M585.979 405.12H449.334V408.764H585.979V405.12Z" fill="black"/>
<path d="M486.809 405.12C486.809 405.12 464.445 406.334 457.193 379.717H449.334V376.144H518.246V405.155L486.809 405.12Z" fill="#1E1E1E"/>
<path d="M548.505 405.12C548.505 405.12 570.868 406.334 578.12 379.717H585.98V376.144H517.032V405.155L548.505 405.12Z" fill="#1E1E1E"/>
<path d="M585.979 376.108H449.334V379.752H585.979V376.108Z" fill="black"/>
<path d="M535.823 376.108H500.456V492.262H535.823V376.108Z" fill="#359E3D"/>
<path d="M435.33 424.735L480.2 442.599C480.2 442.599 487.345 453.318 456.265 444.207C456.265 444.207 465.374 468.217 478.735 480.757C480.281 482.131 481.522 483.814 482.377 485.697C483.233 487.58 483.684 489.622 483.701 491.69C483.701 497.621 479.378 503.088 458.944 493.405C458.944 493.405 435.58 482.687 430.043 444.993L435.33 424.735Z" fill="#D7B1B1"/>
<path d="M712.372 380.252C708.563 384.456 703.243 386.978 697.578 387.266C691.913 387.554 686.365 385.584 682.149 381.789C647.675 355.028 617.024 328.196 592.839 301.185C588.636 297.375 586.114 292.055 585.826 286.389C585.538 280.723 587.508 275.175 591.303 270.958V270.958C611.344 252.165 679.113 315.869 710.729 350.026C714.947 353.821 717.488 359.133 717.796 364.799C718.104 370.465 716.154 376.022 712.372 380.252V380.252Z" fill="#DDDBDC"/>
<path d="M588.909 458.212L580.228 440.348L693.652 353.67C702.226 347.132 714.801 351.241 720.66 362.46C726.197 373.178 723.446 385.79 714.551 390.578L588.909 458.212Z" fill="#DDDBDC"/>
<path d="M603.127 422.484L558.151 440.348C558.151 440.348 551.006 451.067 582.086 442.099C582.086 442.099 572.833 466.037 559.401 478.506C557.87 479.853 556.63 481.499 555.758 483.342C554.886 485.185 554.399 487.187 554.328 489.225C554.328 495.156 558.579 500.658 579.085 491.119C579.085 491.119 602.52 480.686 608.307 442.885L603.127 422.484Z" fill="#D7B1B1"/>
<path d="M619.632 233.693C616.56 217.973 603.878 206.218 591.053 197.072C585.944 193.499 567.439 182.78 563.688 180.422C563.688 180.422 561.366 180.136 558.401 180.1C554.916 180.833 551.781 182.721 549.505 185.46C546.712 189.841 544.907 194.779 544.218 199.93C542.399 207.845 541.928 216.011 542.825 224.082C543.84 234.062 546.084 243.879 549.505 253.309C551.851 259.609 551.736 266.561 549.184 272.781C562.187 268.851 560.616 248.985 565.938 239.517C569.511 254.666 566.724 270.708 562.366 285.393C558.794 297.148 551.649 303.9 541.789 310.403C549.47 313.976 562.938 310.76 570.368 308.081C578.497 305.236 586.119 301.111 592.946 295.861C599.555 290.895 605.557 287.429 610.201 280.391C619.286 266.64 622.668 249.894 619.632 233.693V233.693Z" fill="#944A36"/>
<path d="M502.957 265.599V265.92C504.477 268.601 506.692 270.822 509.369 272.347C512.047 273.873 515.086 274.648 518.167 274.589C521.247 274.53 524.255 273.641 526.872 272.015C529.49 270.388 531.619 268.085 533.036 265.349C534.286 262.918 534.935 260.222 534.93 257.489V210.577H500.706V257.024C500.692 260.03 501.468 262.987 502.957 265.599V265.599Z" fill="#C89699"/>
<path d="M585.98 156.591C584.864 158.875 583.273 160.895 581.314 162.516C579.355 164.136 577.073 165.32 574.62 165.987C573.444 166.258 572.223 166.258 571.047 165.987C569.911 178.524 565.954 190.64 559.473 201.43C547.898 220.652 530.322 232.371 517.389 231.621H514.389C500.492 231.621 484.523 220.902 473.556 203.574C466.849 192.92 462.534 180.937 460.909 168.453H459.873C457.312 167.961 454.893 166.904 452.792 165.358C450.691 163.813 448.96 161.819 447.727 159.521C447.237 158.689 446.796 157.83 446.405 156.948C445.888 155.802 445.493 154.604 445.226 153.375C444.518 151.41 444.485 149.265 445.132 147.278C445.779 145.292 447.069 143.578 448.799 142.407H449.12C450.953 141.797 452.917 141.695 454.804 142.11C456.69 142.525 458.43 143.442 459.838 144.765C462.767 104.141 485.523 68.1981 513.96 67.5907C522.708 67.5306 531.255 70.2174 538.395 75.2724C555.614 86.9914 568.332 115.253 570.976 144.05C572.531 142.293 574.427 140.871 576.549 139.87C577.684 139.234 578.946 138.86 580.243 138.773C581.541 138.686 582.842 138.89 584.051 139.37C589.088 141.621 589.945 149.338 585.98 156.591Z" fill="#D7B1B1"/>
<path d="M517.96 194.928C512.844 194.932 507.874 193.22 503.845 190.066C499.817 186.911 496.963 182.496 495.74 177.528C495.621 177.04 495.702 176.525 495.963 176.096C496.224 175.667 496.645 175.36 497.133 175.241C497.62 175.132 498.131 175.217 498.557 175.477C498.984 175.736 499.293 176.152 499.419 176.635C500.426 180.764 502.78 184.44 506.11 187.081C509.439 189.723 513.554 191.179 517.804 191.22C522.053 191.261 526.195 189.884 529.575 187.308C532.955 184.731 535.379 181.101 536.465 176.992C536.528 176.754 536.636 176.531 536.785 176.336C536.934 176.141 537.12 175.977 537.333 175.854C537.545 175.731 537.78 175.651 538.024 175.62C538.267 175.588 538.515 175.605 538.752 175.67C539.234 175.804 539.644 176.123 539.892 176.558C540.14 176.993 540.205 177.509 540.074 177.992C538.767 182.857 535.892 187.154 531.893 190.216C527.894 193.279 522.997 194.935 517.96 194.928V194.928Z" fill="#543F3C"/>
<path d="M479.915 137.154C480.284 137.167 480.65 137.077 480.972 136.894C481.294 136.711 481.558 136.443 481.736 136.118C482.379 134.646 483.307 133.317 484.468 132.207C485.629 131.097 486.999 130.23 488.499 129.655C489.998 129.079 491.597 128.808 493.202 128.857C494.807 128.905 496.386 129.272 497.848 129.937C498.322 130.15 498.861 130.167 499.347 129.982C499.832 129.798 500.225 129.428 500.438 128.955C500.651 128.481 500.668 127.942 500.483 127.456C500.299 126.97 499.929 126.578 499.456 126.364C497.553 125.479 495.494 124.98 493.397 124.897C491.3 124.813 489.207 125.147 487.24 125.878C485.273 126.609 483.471 127.723 481.937 129.156C480.404 130.589 479.17 132.311 478.307 134.225C478.189 134.45 478.117 134.696 478.094 134.949C478.072 135.202 478.1 135.457 478.176 135.699C478.252 135.942 478.376 136.167 478.539 136.361C478.703 136.556 478.903 136.716 479.129 136.833C479.373 136.979 479.638 137.087 479.915 137.154V137.154Z" fill="#543F3C"/>
<path d="M532.178 128.222C532.401 128.438 532.681 128.585 532.984 128.649C533.288 128.712 533.603 128.688 533.893 128.58C535.106 127.996 536.424 127.66 537.768 127.59C539.112 127.521 540.457 127.72 541.724 128.175C542.991 128.631 544.154 129.334 545.147 130.244C546.139 131.154 546.94 132.252 547.504 133.474C547.587 133.673 547.708 133.853 547.862 134.004C548.015 134.154 548.198 134.273 548.398 134.352C548.598 134.431 548.812 134.469 549.027 134.464C549.242 134.459 549.453 134.411 549.649 134.322C549.846 134.234 550.022 134.107 550.168 133.949C550.314 133.791 550.427 133.605 550.5 133.403C550.573 133.201 550.605 132.986 550.594 132.771C550.582 132.556 550.528 132.346 550.434 132.152C549.71 130.533 548.67 129.074 547.375 127.861C546.08 126.649 544.556 125.707 542.892 125.092C541.228 124.476 539.458 124.199 537.686 124.276C535.914 124.354 534.175 124.784 532.571 125.543C532.37 125.618 532.186 125.732 532.03 125.88C531.874 126.027 531.749 126.204 531.662 126.401C531.576 126.597 531.529 126.809 531.526 127.024C531.523 127.238 531.562 127.452 531.643 127.651C531.767 127.885 531.952 128.083 532.178 128.222Z" fill="#543F3C"/>
<path d="M501.92 154.376L501.349 154.161C500.818 154.019 500.366 153.672 500.091 153.196C499.817 152.721 499.742 152.155 499.884 151.625C500.177 150.503 500.024 149.312 499.455 148.302C498.914 147.404 498.07 146.729 497.074 146.399C496.079 146.069 494.999 146.106 494.028 146.502C493.058 146.899 492.261 147.63 491.783 148.563C491.304 149.496 491.174 150.569 491.417 151.589C491.511 152.104 491.407 152.636 491.125 153.077C490.843 153.518 490.405 153.836 489.898 153.967C489.391 154.099 488.854 154.033 488.393 153.784C487.933 153.535 487.584 153.121 487.416 152.625C487.034 150.864 487.219 149.028 487.944 147.379C488.669 145.729 489.898 144.352 491.453 143.443C492.905 142.597 494.575 142.202 496.252 142.309C497.929 142.415 499.536 143.018 500.869 144.041C502.202 145.064 503.201 146.46 503.738 148.053C504.275 149.645 504.326 151.361 503.885 152.982C503.748 153.393 503.484 153.75 503.131 154.001C502.777 154.251 502.353 154.383 501.92 154.376V154.376Z" fill="#543F3C"/>
<path d="M544.968 154.376H544.433C543.902 154.233 543.45 153.886 543.175 153.411C542.901 152.935 542.826 152.37 542.968 151.839C543.262 150.718 543.108 149.526 542.539 148.516C541.998 147.618 541.154 146.943 540.159 146.613C539.163 146.283 538.083 146.32 537.113 146.717C536.142 147.114 535.345 147.844 534.867 148.777C534.388 149.71 534.258 150.783 534.501 151.803C534.595 152.318 534.491 152.85 534.209 153.291C533.927 153.732 533.489 154.051 532.982 154.182C532.476 154.313 531.938 154.248 531.477 153.999C531.017 153.75 530.668 153.335 530.5 152.839C530.065 151.051 530.22 149.17 530.941 147.477C531.662 145.784 532.911 144.369 534.501 143.443C535.953 142.597 537.624 142.202 539.3 142.309C540.977 142.415 542.584 143.018 543.917 144.041C545.25 145.064 546.249 146.46 546.786 148.053C547.323 149.645 547.374 151.361 546.933 152.982C546.797 153.393 546.532 153.75 546.179 154.001C545.826 154.251 545.402 154.383 544.968 154.376V154.376Z" fill="#543F3C"/>
<path d="M472.198 173.348C465.446 171.74 453.55 170.99 451.406 178.921C449.263 186.853 462.052 192.034 468.768 193.785C468.963 193.841 469.171 193.819 469.349 193.722C469.527 193.624 469.658 193.461 469.715 193.267C469.772 193.072 469.749 192.863 469.652 192.686C469.555 192.508 469.391 192.377 469.197 192.32C466.376 191.646 463.634 190.675 461.016 189.426C457.158 187.604 452.478 184.674 452.728 180.208C453.121 172.312 465.875 173.419 471.626 174.777C471.723 174.805 471.823 174.814 471.923 174.803C472.023 174.792 472.119 174.762 472.207 174.714C472.295 174.666 472.372 174.601 472.435 174.523C472.498 174.445 472.545 174.355 472.573 174.259C472.601 174.163 472.61 174.062 472.599 173.962C472.589 173.863 472.558 173.766 472.51 173.678C472.462 173.59 472.397 173.513 472.319 173.45C472.241 173.387 472.151 173.34 472.055 173.312L472.198 173.348Z" fill="#D3E3EA"/>
<path d="M574.369 173.848L573.94 180.315C573.396 187.35 570.924 194.1 566.795 199.823C565.064 202.235 563.089 204.462 560.901 206.468L539.216 226.262C533.632 231.267 526.387 234.018 518.889 233.979H515.638C508.14 234.018 500.895 231.267 495.311 226.262L473.626 206.468C471.438 204.462 469.463 202.235 467.732 199.823C463.604 194.1 461.132 187.35 460.587 180.315L460.158 173.848H475.877C482.934 173.853 489.757 171.316 495.097 166.702L498.026 164.13C503.402 159.607 510.202 157.127 517.228 157.127C524.253 157.127 531.053 159.607 536.43 164.13L539.395 166.702C544.719 171.32 551.532 173.857 558.579 173.848H574.369Z" fill="#F8F2F6"/>
<path d="M566.867 199.822C565.136 202.234 563.161 204.461 560.973 206.468L539.288 226.262C533.704 231.267 526.459 234.018 518.961 233.979H515.639C508.14 234.018 500.895 231.267 495.311 226.262L473.627 206.468C471.439 204.461 469.463 202.234 467.732 199.822C474.27 202.466 488.524 206.075 517.318 206.075C546.111 206.075 560.33 202.466 566.867 199.822Z" fill="#F8F2F6"/>
<path d="M500.956 173.741C501.453 174.07 502.052 174.208 502.644 174.13C503.235 174.051 503.777 173.76 504.171 173.312C505.097 172.306 506.183 171.461 507.386 170.811C510.474 169.178 513.914 168.324 517.407 168.324C520.899 168.324 524.339 169.178 527.427 170.811C528.265 171.291 529.044 171.867 529.749 172.526C529.937 172.695 530.116 172.874 530.285 173.062V173.062C530.678 173.51 531.221 173.801 531.812 173.88C532.403 173.958 533.003 173.82 533.5 173.49C533.737 173.341 533.94 173.143 534.095 172.909C534.25 172.676 534.355 172.413 534.402 172.137C534.449 171.861 534.438 171.578 534.369 171.306C534.299 171.035 534.174 170.781 534 170.561V170.561C532.809 169.138 531.383 167.93 529.785 166.988C525.91 164.877 521.569 163.771 517.156 163.771C512.744 163.771 508.403 164.877 504.528 166.988C502.939 167.943 501.515 169.149 500.312 170.561C500.098 170.793 499.941 171.074 499.856 171.379C499.77 171.684 499.758 172.005 499.821 172.315C499.884 172.626 500.019 172.917 500.217 173.164C500.414 173.412 500.667 173.61 500.956 173.741V173.741Z" fill="#DDDBDC"/>
<path d="M580.692 101.676C576.406 91.9377 568.688 84.1166 559.008 79.7028C557.124 78.7621 555.095 78.1461 553.006 77.8806C552.389 77.8094 551.765 77.8094 551.148 77.8806C551.151 76.1261 550.959 74.3766 550.577 72.6642C547.79 59.659 534.679 51.0126 522.319 50.5482C506.743 50.0122 491.06 57.6939 478.985 67.2692C464.053 79.1311 456.3 94.423 449.227 111.93C447.422 114.971 446.54 118.472 446.691 122.006C449.251 119.201 451.637 116.242 453.835 113.145C455.407 111.537 459.373 106.785 461.695 107.25C459.408 106.785 453.585 118.897 452.728 120.791C450.447 126.055 448.665 131.522 447.405 137.119C443.011 155.34 443.833 173.526 453.371 190.319C461.894 205.067 475.906 215.843 492.346 220.295C497.449 221.267 502.475 222.604 507.386 224.297C498.777 220.724 491.346 208.505 487.238 200.359C477.984 182.046 476.229 160.849 482.343 141.263C484.808 133.403 489.024 122.113 495.276 116.896C494.74 119.433 493.918 121.934 493.275 124.435C492.346 128.008 489.488 133.01 490.31 136.69C489.953 135.082 498.026 128.151 499.312 126.936C502.639 123.664 506.223 120.665 510.03 117.968C518.068 112.395 527.177 108.786 535.251 103.284C537.584 101.695 539.761 99.8889 541.753 97.8887C543.067 99.6649 544.474 101.37 545.968 102.998C549.687 107.19 552.934 111.779 555.65 116.682C567.974 138.869 567.188 164.273 561.401 188.139C598.34 158.02 589.409 121.148 580.692 101.676Z" fill="#944A36"/>
<path d="M529.929 197.714C529.934 197.776 529.926 197.837 529.908 197.895C529.889 197.954 529.858 198.007 529.818 198.054C529.779 198.101 529.73 198.139 529.675 198.166C529.621 198.194 529.561 198.211 529.5 198.215" fill="#B3CADA"/>
<path d="M517.176 375.339C517.176 375.339 527.739 348.847 536.393 359.295C543.265 367.503 517.176 375.339 517.176 375.339Z" stroke="#2FA037" stroke-width="3.46989" stroke-miterlimit="10"/>
<path d="M517.176 375.339C517.176 375.339 506.791 348.847 498.283 359.295C491.651 367.503 517.176 375.339 517.176 375.339Z" stroke="#2FA037" stroke-width="3.46989" stroke-miterlimit="10"/>
<path fill-rule="evenodd" clip-rule="evenodd" d="M518.446 418.79L505.803 421.116V440.007C506.116 446.43 513.744 451.126 518.444 452.79C523.144 451.139 530.772 446.43 531.085 440.019V421.116L518.446 418.79Z" fill="white"/>
<path d="M522.705 427.508C520.939 427.508 519.31 428.452 518.444 429.977C517.579 428.452 515.949 427.508 514.183 427.508C511.481 427.508 509.29 429.989 509.29 432.665C509.29 439.384 518.444 444.072 518.444 444.072C518.444 444.072 527.598 439.384 527.598 432.665C527.598 429.989 525.407 427.508 522.705 427.508Z" fill="#FF6243"/>
</g>
<defs>
<clipPath id="clip0">
<rect width="997.383" height="743.511" fill="white"/>
</clipPath>
</defs>
</svg>
