<svg width="118" height="110" viewBox="0 0 118 110" fill="none" xmlns="http://www.w3.org/2000/svg">
<path d="M63.0109 74.6835C62.6324 74.379 62.149 74.2364 61.6658 74.2868C61.1827 74.3372 60.7391 74.5766 60.4317 74.9527C60.0904 75.4052 59.651 75.7744 59.1465 76.0326C58.642 76.2908 58.0855 76.4313 57.5189 76.4436C56.4192 76.4436 55.3861 75.9144 54.6062 74.9527C54.285 74.63 53.8558 74.4378 53.4012 74.4132C52.9467 74.3885 52.4991 74.5332 52.145 74.8193C51.7909 75.1053 51.5553 75.5124 51.4838 75.962C51.4123 76.4116 51.5099 76.8717 51.7578 77.2535C52.4353 78.1385 53.3074 78.8556 54.3067 79.3491C55.306 79.8426 56.4056 80.0993 57.5201 80.0993C58.6346 80.0993 59.7341 79.8426 60.7334 79.3491C61.7327 78.8556 62.6049 78.1385 63.2823 77.2535C63.5838 76.8753 63.7243 76.3937 63.6735 75.9128C63.6227 75.4319 63.3846 74.9903 63.0109 74.6835V74.6835Z" fill="#359E3D"/>
<path d="M48.8405 63.4282C48.3523 63.4282 47.8842 63.6221 47.539 63.9673C47.1938 64.3124 46.9999 64.7806 46.9999 65.2688V67.4384C46.9759 67.6935 47.0055 67.9508 47.0867 68.1938C47.1679 68.4368 47.299 68.6601 47.4715 68.8496C47.644 69.039 47.8541 69.1904 48.0885 69.2939C48.3228 69.3975 48.5762 69.451 48.8324 69.451C49.0886 69.451 49.342 69.3975 49.5764 69.2939C49.8107 69.1904 50.0209 69.039 50.1934 68.8496C50.3659 68.6601 50.4969 68.4368 50.5781 68.1938C50.6594 67.9508 50.6889 67.6935 50.665 67.4384V65.2688C50.665 64.7834 50.4733 64.3177 50.1316 63.9729C49.7899 63.6282 49.3258 63.4324 48.8405 63.4282Z" fill="#359E3D"/>
<path d="M66.1928 63.4282C65.7046 63.4282 65.2365 63.6221 64.8913 63.9673C64.5461 64.3124 64.3522 64.7806 64.3522 65.2688V67.4384C64.3282 67.6935 64.3578 67.9508 64.439 68.1938C64.5202 68.4368 64.6513 68.6601 64.8238 68.8496C64.9963 69.039 65.2064 69.1904 65.4408 69.2939C65.6751 69.3975 65.9285 69.451 66.1847 69.451C66.4409 69.451 66.6943 69.3975 66.9287 69.2939C67.163 69.1904 67.3732 69.039 67.5457 68.8496C67.7182 68.6601 67.8492 68.4368 67.9304 68.1938C68.0116 67.9508 68.0412 67.6935 68.0173 67.4384V65.2688C68.0173 64.7834 67.8256 64.3177 67.4839 63.9729C67.1422 63.6282 66.6781 63.4324 66.1928 63.4282Z" fill="#359E3D"/>
<path d="M117.077 41.1612L59.9027 0.322591C59.6103 0.11282 59.2594 0 58.8996 0C58.5397 0 58.1889 0.11282 57.8964 0.322591L34.0789 17.3344V9.57857H34.3964C34.8541 9.57857 35.293 9.39677 35.6166 9.07316C35.9402 8.74955 36.122 8.31064 36.122 7.85299C36.122 7.39534 35.9402 6.95644 35.6166 6.63283C35.293 6.30922 34.8541 6.12742 34.3964 6.12742H16.0202C15.5626 6.12742 15.1237 6.30922 14.8001 6.63283C14.4764 6.95644 14.2946 7.39534 14.2946 7.85299C14.2946 8.31064 14.4764 8.74955 14.8001 9.07316C15.1237 9.39677 15.5626 9.57857 16.0202 9.57857H16.3354V30.0094L0.72244 41.1612C0.498922 41.3206 0.316744 41.5312 0.191079 41.7753C0.0654149 42.0194 -9.72551e-05 42.2901 1.08367e-07 42.5646V52.7754C0.00092244 53.0921 0.0888603 53.4024 0.254207 53.6725C0.419554 53.9426 0.655949 54.1621 0.937569 54.3069C1.21919 54.4518 1.5352 54.5164 1.85108 54.4939C2.16696 54.4713 2.47056 54.3623 2.72871 54.1789L6.12694 51.7516V105.162C6.12503 106.118 6.48818 107.04 7.14231 107.738C7.79644 108.436 8.69228 108.858 9.6471 108.919C9.65631 108.646 9.67241 108.374 9.69542 108.104C9.67395 107.842 9.65784 107.58 9.6471 107.317C9.62233 106.679 9.63693 106.04 9.69082 105.403C9.65449 105.374 9.62538 105.338 9.6058 105.296C9.58623 105.254 9.57673 105.208 9.57808 105.162V49.2875L58.8996 14.0559L96.685 41.0461C97.0572 41.3137 97.5205 41.4224 97.9729 41.3484C98.4253 41.2744 98.8298 41.0238 99.0974 40.6515C99.3649 40.2793 99.4737 39.816 99.3997 39.3636C99.3257 38.9112 99.075 38.5068 98.7028 38.2392L59.9027 10.5311C59.6099 10.3223 59.2592 10.2101 58.8996 10.2101C58.5399 10.2101 58.1893 10.3223 57.8964 10.5311L3.45115 49.4209V43.4527L58.8996 3.84736L114.348 43.4527V49.4209L104.821 42.6152C104.636 42.4835 104.427 42.3894 104.207 42.3383C103.986 42.2872 103.757 42.28 103.533 42.3173C103.31 42.3546 103.096 42.4356 102.904 42.5556C102.711 42.6756 102.545 42.8323 102.413 43.0167C102.281 43.2012 102.187 43.4098 102.136 43.6306C102.085 43.8514 102.078 44.0802 102.115 44.3037C102.152 44.5273 102.233 44.7414 102.353 44.9337C102.473 45.126 102.63 45.2927 102.814 45.4245L108.223 49.2875V105.233C108.224 105.281 108.213 105.329 108.191 105.373C108.169 105.417 108.138 105.454 108.099 105.484C108.059 105.514 108.011 105.535 107.961 105.543C107.961 105.573 107.961 105.601 107.961 105.631C107.973 105.898 107.961 106.16 107.961 106.425C107.961 106.689 107.961 106.988 107.961 107.267C107.961 107.545 107.961 107.777 107.961 108.031C107.961 108.357 107.961 108.679 107.961 108.999C108.95 108.984 109.893 108.581 110.587 107.876C111.281 107.171 111.67 106.222 111.67 105.233V51.7516L115.068 54.1789C115.326 54.3631 115.63 54.4726 115.947 54.4954C116.263 54.5182 116.58 54.4535 116.862 54.3083C117.144 54.1631 117.381 53.943 117.546 53.6723C117.711 53.4015 117.799 53.0904 117.799 52.7731V42.5646C117.799 42.2901 117.734 42.0194 117.608 41.7753C117.482 41.5312 117.3 41.3206 117.077 41.1612ZM30.6301 19.7986L19.7866 27.5429V9.57857H30.6301V19.7986Z" fill="#359E3D"/>
<path d="M36.046 60.214V51.2525C36.0125 48.3604 36.7733 45.5146 38.2455 43.025C40.6889 38.9527 44.193 35.5314 53.7228 35.6925C63.2525 35.8535 69.2828 35.6925 69.2828 35.6925C69.2828 35.6925 73.9281 36.1871 74.7425 41.074C74.7425 41.074 74.0891 41.564 75.8814 42.3785C77.6737 43.193 78.7137 44.578 79.3326 47.5115C79.8686 50.0423 79.9653 50.0285 79.3326 70.809C79.3326 70.809 80.1977 82.2968 66.6784 87.7542C53.1591 93.2116 44.591 85.2003 44.591 85.2003C44.591 85.2003 38.7241 80.5045 38.3168 72.7647C32.0588 73.9979 28.8837 63.1268 36.046 60.214Z" stroke="#359E3D" stroke-width="4.31253" stroke-miterlimit="10"/>
<path d="M36.0458 59.7998L41.0016 59.8504C41.0016 59.8504 43.1321 60.0437 43.6222 56.3786C43.6222 56.3786 42.4005 55.4813 50.0643 54.913C57.7282 54.3447 67.3362 52.9573 69.8509 50.7578" stroke="#359E3D" stroke-width="4.31253" stroke-miterlimit="10" stroke-linecap="round"/>
<path d="M46.581 86.7119V95.9909C46.581 95.9909 46.6592 97.093 41.5975 98.7035C36.5358 100.314 9.23267 107.018 9.23267 107.018" stroke="#359E3D" stroke-width="4.31253" stroke-miterlimit="10"/>
<path d="M71.0036 86.5485V95.9425C71.0036 95.9425 70.9277 97.0584 75.9894 98.6897C81.051 100.321 108.366 107.11 108.366 107.11" stroke="#359E3D" stroke-width="4.31253" stroke-miterlimit="10"/>
</svg>
