<svg width="221" height="79" viewBox="0 0 221 79" fill="none" xmlns="http://www.w3.org/2000/svg">
<g clip-path="url(#clip0)">
<rect x="56.1383" y="19.8971" width="52.5852" height="30.5563" fill="#CCCCCC"/>
<path d="M56.1383 57.5618V74.4014C56.1392 75.5889 56.6122 76.7275 57.4532 77.5669C58.2942 78.4063 59.4345 78.8778 60.6234 78.8778H104.242C105.43 78.8778 106.57 78.4062 107.411 77.5667C108.251 76.7272 108.723 75.5886 108.723 74.4014V57.5618H56.1383Z" fill="#2FA037"/>
<path d="M105.712 40.9728V34.8936H108.723V4.47997C108.723 3.29242 108.251 2.15346 107.411 1.3134C106.571 0.473344 105.431 0.000935816 104.242 0H60.6234C59.4339 0 58.2931 0.471995 57.4519 1.31215C56.6108 2.15231 56.1383 3.29181 56.1383 4.47997V34.8936H59.1531V40.9728H56.1383V71.39C56.1383 72.5782 56.6108 73.7177 57.4519 74.5578C58.2931 75.398 59.4339 75.87 60.6234 75.87H104.242C105.431 75.869 106.571 75.3966 107.411 74.5566C108.251 73.7165 108.723 72.5776 108.723 71.39V40.9728H105.712Z" fill="#75BB65"/>
<g style="mix-blend-mode:multiply" opacity="0.45">
<path d="M59.1531 38.1274H105.712V34.8936H108.723V4.47997C108.723 3.29242 108.251 2.15346 107.411 1.3134C106.571 0.473344 105.431 0.000935816 104.242 0H60.6234C59.4339 0 58.2931 0.471995 57.4519 1.31215C56.6108 2.15231 56.1383 3.29181 56.1383 4.47997V34.8936H59.1531V38.1274Z" fill="#2FA037"/>
</g>
</g>
<g clip-path="url(#clip1)">
<rect x="112.277" y="19.8971" width="52.5852" height="30.5563" fill="#CCCCCC"/>
<path d="M112.277 57.5618V74.4014C112.277 75.5889 112.75 76.7275 113.591 77.5669C114.432 78.4063 115.573 78.8778 116.762 78.8778H160.38C161.569 78.8778 162.709 78.4062 163.549 77.5667C164.39 76.7272 164.862 75.5886 164.862 74.4014V57.5618H112.277Z" fill="#2FA037"/>
<path d="M161.85 40.9728V34.8936H164.862V4.47997C164.862 3.29242 164.39 2.15346 163.549 1.3134C162.709 0.473344 161.569 0.000935816 160.38 0H116.762C115.572 0 114.431 0.471995 113.59 1.31215C112.749 2.15231 112.277 3.29181 112.277 4.47997V34.8936H115.291V40.9728H112.277V71.39C112.277 72.5782 112.749 73.7177 113.59 74.5578C114.431 75.398 115.572 75.87 116.762 75.87H160.38C161.569 75.869 162.709 75.3966 163.549 74.5566C164.39 73.7165 164.862 72.5776 164.862 71.39V40.9728H161.85Z" fill="#75BB65"/>
<g style="mix-blend-mode:multiply" opacity="0.45">
<path d="M115.291 38.1274H161.85V34.8936H164.862V4.47997C164.862 3.29242 164.39 2.15346 163.549 1.3134C162.709 0.473344 161.569 0.000935816 160.38 0H116.762C115.572 0 114.431 0.471995 113.59 1.31215C112.749 2.15231 112.277 3.29181 112.277 4.47997V34.8936H115.291V38.1274Z" fill="#2FA037"/>
</g>
</g>
<g clip-path="url(#clip2)">
<rect x="168.415" y="19.8971" width="52.5852" height="30.5563" fill="#CCCCCC"/>
<path d="M168.415 57.5618V74.4014C168.416 75.5889 168.889 76.7275 169.73 77.5669C170.571 78.4063 171.711 78.8778 172.9 78.8778H216.518C217.707 78.8778 218.847 78.4062 219.687 77.5667C220.528 76.7272 221 75.5886 221 74.4014V57.5618H168.415Z" fill="#2FA037"/>
<path d="M217.989 40.9728V34.8936H221V4.47997C221 3.29242 220.528 2.15346 219.688 1.3134C218.847 0.473344 217.707 0.000935816 216.518 0H172.9C171.71 0 170.57 0.471995 169.728 1.31215C168.887 2.15231 168.415 3.29181 168.415 4.47997V34.8936H171.43V40.9728H168.415V71.39C168.415 72.5782 168.887 73.7177 169.728 74.5578C170.57 75.398 171.71 75.87 172.9 75.87H216.518C217.707 75.869 218.847 75.3966 219.688 74.5566C220.528 73.7165 221 72.5776 221 71.39V40.9728H217.989Z" fill="#75BB65"/>
<g style="mix-blend-mode:multiply" opacity="0.45">
<path d="M171.43 38.1274H217.989V34.8936H221V4.47997C221 3.29242 220.528 2.15346 219.688 1.3134C218.847 0.473344 217.707 0.000935816 216.518 0H172.9C171.71 0 170.57 0.471995 169.728 1.31215C168.887 2.15231 168.415 3.29181 168.415 4.47997V34.8936H171.43V38.1274Z" fill="#2FA037"/>
</g>
</g>
<g clip-path="url(#clip3)">
<rect y="19.8971" width="52.5852" height="30.5563" fill="#CCCCCC"/>
<path d="M0 57.5618V74.4014C0.000936906 75.5889 0.473896 76.7275 1.31493 77.5669C2.15596 78.4063 3.29625 78.8778 4.48519 78.8778H48.1036C49.2922 78.8778 50.4321 78.4062 51.2726 77.5667C52.113 76.7272 52.5852 75.5886 52.5852 74.4014V57.5618H0Z" fill="#2FA037"/>
<path d="M49.5739 40.9728V34.8936H52.5852V4.47997C52.5852 3.29242 52.1132 2.15346 51.2728 1.3134C50.4324 0.473344 49.2925 0.000935816 48.1036 0H4.48519C3.29564 0 2.15482 0.471995 1.31368 1.31215C0.472545 2.15231 0 3.29181 0 4.47997L0 34.8936H3.01487V40.9728H0V71.39C0 72.5782 0.472545 73.7177 1.31368 74.5578C2.15482 75.398 3.29564 75.87 4.48519 75.87H48.1036C49.2925 75.869 50.4324 75.3966 51.2728 74.5566C52.1132 73.7165 52.5852 72.5776 52.5852 71.39V40.9728H49.5739Z" fill="#75BB65"/>
<g style="mix-blend-mode:multiply" opacity="0.45">
<path d="M3.01487 38.1274H49.5739V34.8936H52.5852V4.47997C52.5852 3.29242 52.1132 2.15346 51.2728 1.3134C50.4324 0.473344 49.2925 0.000935816 48.1036 0H4.48519C3.29564 0 2.15482 0.471995 1.31368 1.31215C0.472545 2.15231 0 3.29181 0 4.47997L0 34.8936H3.01487V38.1274Z" fill="#2FA037"/>
</g>
<rect x="1" y="37" width="52" height="2" fill="#CCCCCC"/>
</g>
<rect x="57" y="37" width="52" height="2" fill="#CCCCCC"/>
<rect x="113" y="37" width="52" height="2" fill="#CCCCCC"/>
<rect x="169" y="37" width="52" height="2" fill="#CCCCCC"/>
<defs>
<clipPath id="clip0">
<rect x="56.1383" width="52.5852" height="78.8778" fill="white"/>
</clipPath>
<clipPath id="clip1">
<rect x="112.277" width="52.5852" height="78.8778" fill="white"/>
</clipPath>
<clipPath id="clip2">
<rect x="168.415" width="52.5852" height="78.8778" fill="white"/>
</clipPath>
<clipPath id="clip3">
<rect width="52.5852" height="78.8778" fill="white"/>
</clipPath>
</defs>
</svg>
