<svg width="118" height="110" viewBox="0 0 118 110" fill="none" xmlns="http://www.w3.org/2000/svg">
<path d="M43.7259 82.2704C42.9844 81.6694 41.8959 81.7825 41.2946 82.5242C40.5594 83.4306 39.5834 83.9301 38.5463 83.9301C37.5092 83.9301 36.5331 83.4306 35.7979 82.5242C35.1969 81.7828 34.1083 81.6694 33.3667 82.2704C32.6253 82.8717 32.5119 83.9605 33.1132 84.7017C34.4972 86.4081 36.4776 87.3869 38.5465 87.3869C40.6154 87.3869 42.5956 86.4081 43.9798 84.7017C44.5807 83.9605 44.467 82.872 43.7259 82.2704Z" fill="#359E3D"/>
<path d="M30.3645 71.6576C29.4099 71.6576 28.636 72.4313 28.636 73.3861V75.4315C28.636 76.3861 29.4099 77.16 30.3645 77.16C31.3191 77.16 32.093 76.3861 32.093 75.4315V73.3861C32.093 72.4313 31.3191 71.6576 30.3645 71.6576Z" fill="#359E3D"/>
<path d="M46.7278 71.6576C45.7732 71.6576 44.9993 72.4313 44.9993 73.3861V75.4315C44.9993 76.3861 45.7732 77.16 46.7278 77.16C47.6824 77.16 48.4563 76.3861 48.4563 75.4315V73.3861C48.4563 72.4313 47.6824 71.6576 46.7278 71.6576Z" fill="#359E3D"/>
<path d="M84.6343 84.3159C83.8929 83.7146 82.8044 83.828 82.2031 84.5696C81.4679 85.476 80.4918 85.9755 79.4547 85.9755C78.4176 85.9755 77.4416 85.476 76.7064 84.5696C76.1053 83.8282 75.0166 83.7148 74.2751 84.3159C73.5337 84.9172 73.4203 86.0059 74.0216 86.7471C75.4056 88.4535 77.386 89.4323 79.455 89.4323C81.5239 89.4323 83.5041 88.4535 84.8883 86.7471C85.4891 86.0059 85.3755 84.9174 84.6343 84.3159Z" fill="#359E3D"/>
<path d="M71.2727 73.703C70.3181 73.703 69.5442 74.4767 69.5442 75.4315V77.4769C69.5442 78.4315 70.3181 79.2055 71.2727 79.2055C72.2273 79.2055 73.0012 78.4315 73.0012 77.4769V75.4315C73.0012 74.4767 72.2273 73.703 71.2727 73.703Z" fill="#359E3D"/>
<path d="M87.636 73.703C86.6814 73.703 85.9075 74.4767 85.9075 75.4315V77.4769C85.9075 78.4315 86.6814 79.2055 87.636 79.2055C88.5906 79.2055 89.3645 78.4315 89.3645 77.4769V75.4315C89.3645 74.4767 88.5906 73.703 87.636 73.703Z" fill="#359E3D"/>
<path d="M117.277 41.2302L60.0049 0.321851C59.4038 -0.107284 58.5967 -0.107284 57.9954 0.321851L34.1381 17.3628V9.59341H34.455C35.4096 9.59341 36.1835 8.8195 36.1835 7.86489C36.1835 6.91006 35.4096 6.13637 34.455 6.13637H16.0465C15.0918 6.13637 14.3179 6.91006 14.3179 7.86489C14.3179 8.8195 15.0918 9.59341 16.0465 9.59341H16.3633V30.0594L0.723905 41.2302C0.26965 41.5547 0 42.0786 0 42.637V52.8641C0 53.5115 0.361837 54.1047 0.937551 54.4009C1.51326 54.6972 2.20606 54.6468 2.73314 54.2704L6.13625 51.8397V105.341C6.13625 106.546 6.69076 107.65 7.65735 108.369C8.32065 108.862 9.10148 109.118 9.89913 109.118C10.264 109.118 10.6325 109.064 10.9946 108.956L25.9002 104.484C28.3807 103.74 30.0472 101.5 30.0472 98.9099V95.6605C32.631 96.8684 35.5103 97.5462 38.5458 97.5462C41.5558 97.5462 44.4415 96.8732 47.0442 95.66V98.9096C47.0442 101.499 48.7107 103.739 51.1912 104.484C54.0202 105.332 56.9385 105.757 59.859 105.757C62.526 105.757 65.195 105.403 67.7968 104.693L68.7127 104.443C71.2375 103.755 73.0008 101.446 73.0008 98.829V98.5224C75.0681 99.2219 77.2488 99.5914 79.454 99.5914C81.6591 99.5914 83.8398 99.2219 85.9071 98.5224V98.8292C85.9071 101.446 87.6704 103.755 90.1952 104.443L107.097 109.053C107.429 109.143 107.766 109.188 108.099 109.188C108.915 109.188 109.712 108.922 110.38 108.411C111.323 107.691 111.864 106.598 111.864 105.412V51.8397L115.267 54.2704C115.566 54.4838 115.918 54.5924 116.272 54.5924C116.542 54.5924 116.813 54.529 117.062 54.4006C117.638 54.1043 118 53.5113 118 52.8639V42.6368C118 42.0786 117.731 41.5547 117.277 41.2302ZM19.8204 9.59341H30.6813V19.8323L19.8204 27.5899V9.59341ZM38.5458 94.0891C29.3485 94.0894 21.8658 86.6065 21.8658 77.4091C21.8658 76.4543 21.0919 75.6806 20.1373 75.6806C18.8347 75.6806 17.775 74.6207 17.775 73.3183C17.775 72.0157 18.8347 70.956 20.1373 70.956H22.7538C24.3809 70.956 25.8197 69.9188 26.3342 68.3754L27.525 64.8031C31.5886 64.7135 44.3954 64.1447 51.5916 60.5463C52.4454 60.1193 52.7916 59.0812 52.3645 58.2271C51.9377 57.3732 50.8997 57.0271 50.0456 57.4541C42.3269 61.3136 26.433 61.3624 26.2733 61.3624C25.5294 61.3627 24.8688 61.8386 24.6337 62.5443L23.0546 67.282C23.0112 67.4118 22.8905 67.4987 22.7538 67.4987H20.1373C20.031 67.4987 19.9255 67.5019 19.8204 67.5077V59.0001C19.8204 52.0581 25.468 46.4107 32.4098 46.4107H48.7731C50.9414 46.4107 52.7633 47.9731 53.1051 50.1261C53.1878 50.647 53.5038 51.1017 53.9631 51.3607C56.0039 52.5115 57.2715 54.6551 57.2715 56.9547V57.4442C55.9576 60.426 55.2261 63.7197 55.2261 67.1818C55.2261 72.0055 54.9887 77.0918 54.6762 81.697C52.7282 88.9732 46.0923 94.0891 38.5458 94.0891ZM52.1848 101.173C51.1779 100.87 50.5014 99.9613 50.5014 98.9099V93.6072C51.7787 92.6651 52.944 91.574 53.9702 90.3541C53.5586 94.7038 53.2028 97.5807 53.1945 97.6487C53.1346 98.1276 53.2777 98.6098 53.589 98.9785C53.6782 99.0841 54.5153 100.044 56.4381 101.246C56.9949 101.594 57.5858 101.926 58.2065 102.245C56.1754 102.119 54.1553 101.764 52.1848 101.173ZM69.5442 98.8292C69.5442 99.8914 68.8284 100.829 67.8035 101.108L66.8876 101.358C66.6497 101.423 66.4108 101.482 66.1718 101.54C60.6094 100.063 57.782 98.0887 56.7285 97.2067C56.9981 94.8884 57.7338 88.2156 58.2217 80.4462C58.5838 80.6481 58.9673 80.8159 59.3713 80.9374C59.445 81.9466 59.5937 82.9478 59.8163 83.9282C60.8103 88.3083 63.2918 92.2841 66.8039 95.1228C67.6666 95.8202 68.5845 96.4399 69.5442 96.9815V98.8292V98.8292ZM79.4544 96.1348C75.595 96.1348 71.972 94.855 68.9773 92.4344C66.0667 90.0817 64.0106 86.789 63.1876 83.1628C62.9134 81.9542 62.7742 80.7064 62.7742 79.4543C62.7742 78.4995 62.0003 77.7258 61.0457 77.7258C59.743 77.7258 58.6833 76.6658 58.6833 75.3635C58.6833 74.0609 59.743 73.0012 61.0457 73.0012C66.2872 73.0012 70.089 68.2549 71.8058 65.5992C75.837 68.1947 80.4475 69.1101 84.5734 69.9292C92.1703 71.4374 96.1347 72.546 96.1347 79.4543C96.1347 80.7064 95.9955 81.9542 95.7212 83.163C94.8984 86.7888 92.8422 90.0815 89.9316 92.4344C86.9366 94.855 83.3139 96.1348 79.4544 96.1348ZM91.1049 101.109C90.0804 100.829 89.3646 99.8917 89.3646 98.8294V96.9815C90.3243 96.4399 91.2422 95.8202 92.1049 95.1228C95.617 92.2841 98.0985 88.3083 99.0925 83.9282C99.4239 82.4688 99.5917 80.9636 99.5917 79.4545C99.5917 69.3865 92.2989 67.9387 85.2466 66.5385C80.7363 65.6432 76.0725 64.7174 72.3525 61.7416C71.9455 61.4159 71.4129 61.2926 70.9038 61.4035C70.3946 61.5145 69.9623 61.8503 69.7277 62.3159C69.718 62.335 68.7496 64.2415 67.1116 66.0979C65.7244 67.6702 63.5458 69.5446 61.0454 69.5446C60.1945 69.5446 59.3863 69.7296 58.6571 70.0592C58.6739 69.094 58.6831 68.1332 58.6831 67.182C58.6831 55.7288 68.001 46.4109 79.4542 46.4109C90.9074 46.4109 100.225 55.7288 100.225 67.182C100.225 79.5626 101.762 93.6088 102.18 97.2051C101.115 98.0975 98.2812 100.072 92.7122 101.547L91.1049 101.109ZM114.543 49.505L104.999 42.6877C104.223 42.133 103.143 42.313 102.588 43.0896C102.033 43.8666 102.213 44.9461 102.99 45.5008L108.407 49.3704V105.412C108.407 105.542 108.34 105.621 108.283 105.664C108.226 105.707 108.132 105.752 108.007 105.718L98.6837 103.175C103.409 101.184 105.223 99.094 105.32 98.9785C105.631 98.6098 105.775 98.1276 105.715 97.6487C105.694 97.4863 103.683 81.2229 103.683 67.1818C103.683 53.8224 92.8138 42.9537 79.4544 42.9537C71.411 42.9537 64.2718 46.8947 59.8627 52.9459C59.1127 51.2801 57.9053 49.8251 56.348 48.7737C55.4388 45.3561 52.3733 42.9537 48.7731 42.9537H32.4098C23.5616 42.9537 16.3633 50.1519 16.3633 59.0001V68.8937C15.1128 69.962 14.3179 71.5485 14.3179 73.318C14.3179 75.9449 16.0677 78.171 18.4627 78.892C18.9031 84.9123 22.005 90.2018 26.5904 93.5973V98.9101C26.5904 99.9615 25.9138 100.871 24.9069 101.173L10.0012 105.645C9.87562 105.682 9.77929 105.639 9.72098 105.595C9.66267 105.552 9.5933 105.473 9.5933 105.341V49.3704L59.0002 14.0797L96.8514 41.1164C97.6283 41.6711 98.7078 41.4911 99.2626 40.7144C99.8176 39.9377 99.6376 38.858 98.8607 38.3033L60.0049 10.5489C59.4038 10.1198 58.5967 10.1198 57.9954 10.5489L3.45704 49.505V43.5264L59.0002 3.85265L114.543 43.5264V49.505Z" fill="#359E3D"/>
</svg>
