<svg width="81" height="65" viewBox="0 0 81 65" fill="none" xmlns="http://www.w3.org/2000/svg">
<path d="M80.5881 56.6332L72.478 48.5231L76.4555 44.5456C76.8001 44.201 76.9418 43.7025 76.8298 43.2282C76.7177 42.7538 76.3682 42.3713 75.9058 42.2172L52.041 34.2622C51.5358 34.0937 50.9786 34.2252 50.602 34.6019C50.2253 34.9786 50.0938 35.5357 50.2622 36.041L58.2172 59.9059C58.3714 60.3683 58.7539 60.7179 59.2282 60.8298C59.7025 60.942 60.201 60.8003 60.5457 60.4556L64.5232 56.4781L72.6333 64.5882C72.9079 64.8627 73.2678 65.0001 73.6276 65.0001C73.9874 65.0001 74.3474 64.8628 74.6219 64.5882L80.5882 58.6219C81.1374 58.0727 81.1374 57.1824 80.5881 56.6332ZM73.6275 61.605L65.5174 53.495C64.9683 52.9458 64.0778 52.9458 63.5287 53.495L60.1658 56.8579L53.8198 37.8198L72.8578 44.1658L69.4949 47.5288C68.9462 48.0774 68.9458 48.9684 69.4949 49.5175L77.6051 57.6276L73.6275 61.605Z" fill="#2FA037"/>
<path d="M51.2812 28.25C52.0579 28.25 52.6875 27.6204 52.6875 26.8438V18.4062C52.6875 17.6296 52.0579 17 51.2812 17C50.5046 17 49.875 17.6296 49.875 18.4062V26.8438C49.875 27.6204 50.5046 28.25 51.2812 28.25Z" fill="#2FA037"/>
<path d="M40.3432 22.3544C39.7941 21.8053 38.9036 21.8053 38.3545 22.3544C37.8053 22.9036 37.8053 23.794 38.3545 24.3432L44.3207 30.3094C44.8698 30.8586 45.7603 30.8586 46.3094 30.3094C46.8586 29.7602 46.8586 28.8699 46.3094 28.3207L40.3432 22.3544Z" fill="#2FA037"/>
<path d="M44.3207 40.2531L38.3545 46.2194C37.8053 46.7685 37.8053 47.6589 38.3545 48.2081C38.9036 48.7573 39.7941 48.7573 40.3432 48.2081L46.3094 42.2418C46.8586 41.6926 46.8586 40.8023 46.3094 40.2531C45.7602 39.7039 44.8698 39.7039 44.3207 40.2531Z" fill="#2FA037"/>
<path d="M58.2418 30.3094L64.208 24.3432C64.7572 23.794 64.7572 22.9036 64.208 22.3544C63.659 21.8053 62.7685 21.8053 62.2193 22.3544L56.2531 28.3207C55.7039 28.8699 55.7039 29.7602 56.2531 30.3094C56.8022 30.8586 57.6927 30.8586 58.2418 30.3094Z" fill="#2FA037"/>
<path d="M44.25 35.2812C44.25 34.5046 43.6204 33.875 42.8438 33.875H34.4062C33.6296 33.875 33 34.5046 33 35.2812C33 36.0579 33.6296 36.6875 34.4062 36.6875H42.8438C43.6204 36.6875 44.25 36.0579 44.25 35.2812Z" fill="#2FA037"/>
<path d="M24 48C37.2548 48 48 37.2548 48 24C48 10.7452 37.2548 0 24 0C10.7452 0 0 10.7452 0 24C0 37.2548 10.7452 48 24 48Z" fill="#2FA037"/>
<path d="M30.0331 24.9395H25.7506V40.6286H19.2623V24.9395H16.1764V19.4257H19.2623V15.8577C19.2623 13.3062 20.4743 9.31073 25.8084 9.31073L30.6145 9.33083V14.6829H27.1274C26.5554 14.6829 25.7511 14.9687 25.7511 16.1858V19.4309H30.6L30.0331 24.9395Z" fill="white"/>
<path d="M40.3432 22.3544C39.7941 21.8053 38.9036 21.8053 38.3545 22.3544C37.8053 22.9036 37.8053 23.794 38.3545 24.3432L44.3207 30.3094C44.8698 30.8586 45.7603 30.8586 46.3094 30.3094C46.8586 29.7602 46.8586 28.8699 46.3094 28.3207L40.3432 22.3544Z" fill="#F8F5F0"/>
<path d="M44.25 35.2812C44.25 34.5046 43.6204 33.875 42.8438 33.875H34.4062C33.6296 33.875 33 34.5046 33 35.2812C33 36.0579 33.6296 36.6875 34.4062 36.6875H42.8438C43.6204 36.6875 44.25 36.0579 44.25 35.2812Z" fill="#F8F5F0"/>
</svg>
