<svg width="125" height="136" viewBox="0 0 125 136" fill="none" xmlns="http://www.w3.org/2000/svg">
<g clip-path="url(#clip0)">
<path d="M34.0909 64.9091C34.0909 63.2006 32.8202 61.8181 31.2499 61.8181C29.6796 61.8181 28.4089 63.2006 28.4089 64.9091C28.4089 73.0257 36.6376 84.17 37.5753 85.4166C38.1386 86.1593 38.9542 86.5456 39.7753 86.5456C40.4078 86.5456 41.046 86.3161 41.5757 85.8452C42.7881 84.7615 42.9628 82.8148 41.9696 81.4925C38.9238 77.454 34.0909 69.3823 34.0909 64.9091Z" fill="#359E3D"/>
<path d="M93.7501 61.8181C92.1798 61.8181 90.9091 63.2006 90.9091 64.9091C90.9091 69.3673 86.0761 77.4479 83.0301 81.4957C82.0369 82.8148 82.2143 84.7617 83.4269 85.8452C83.954 86.3161 84.5921 86.5456 85.2273 86.5456C86.0484 86.5456 86.8613 86.1593 87.4246 85.4166C88.3624 84.17 96.5911 73.0259 96.5911 64.9091C96.5911 63.2006 95.3204 61.8181 93.7501 61.8181Z" fill="#359E3D"/>
<path d="M62.5001 61.8181C60.9297 61.8181 59.6591 63.2006 59.6591 64.9091V83.4546C59.6591 85.1631 60.9297 86.5456 62.5001 86.5456C64.0704 86.5456 65.3411 85.1631 65.3411 83.4546V64.9091C65.3408 63.2006 64.0701 61.8181 62.5001 61.8181Z" fill="#359E3D"/>
<path d="M93.7501 12.3637C92.0285 12.3637 90.2294 12.6115 88.361 12.9891C82.104 5.05335 72.8417 0 62.5001 0C52.1586 0 42.896 5.05335 36.6392 12.9888C34.7706 12.6115 32.9715 12.3635 31.2502 12.3635C14.0186 12.3637 0 27.6159 0 46.3637C0 59.2102 6.65838 70.8886 17.112 76.6629L17.0567 123.374C17.054 126.745 18.2578 129.915 20.4468 132.299C22.6385 134.687 25.5488 136 28.6478 136H96.3636C102.756 136 107.955 130.343 107.955 123.389V76.6177C118.37 70.8283 125 59.1679 125 46.3637C125 27.6159 110.981 12.3637 93.7501 12.3637ZM102.273 123.389C102.273 126.933 99.6206 129.819 96.3633 129.819H28.6476C27.069 129.819 25.5847 129.148 24.4666 127.932C23.3512 126.716 22.7355 125.101 22.7381 123.38L22.753 111.273H102.273V123.389ZM104.032 71.8063C103.882 71.8727 103.74 71.9512 103.607 72.0448C103.249 72.2862 102.955 72.6064 102.736 72.9744C102.514 73.3395 102.364 73.7623 102.303 74.2149C102.278 74.387 102.27 74.5592 102.273 74.7342V105.091H22.7602L22.7967 74.7762C22.7994 74.6073 22.7911 74.4351 22.769 74.2691C22.708 73.8011 22.5498 73.3664 22.3194 72.9892C22.1029 72.6359 21.8201 72.3282 21.476 72.0926C21.3345 71.9961 21.1846 71.9115 21.0293 71.842C11.7049 67.4055 5.68173 57.4142 5.68173 46.3637C5.68173 31.0237 17.1509 18.5455 31.2499 18.5455C31.801 18.5455 32.3827 18.6179 32.9534 18.6669C30.0791 24.1019 28.4089 30.3824 28.4089 37.0909C28.4089 38.7994 29.6796 40.1819 31.2499 40.1819C32.8202 40.1819 34.0909 38.7994 34.0909 37.0909C34.0909 20.0485 46.8361 6.18173 62.5001 6.18173C78.1641 6.18173 90.9091 20.0485 90.9091 37.0909C90.9091 38.7994 92.1797 40.1819 93.7501 40.1819C95.3204 40.1819 96.5911 38.7994 96.5911 37.0909C96.5911 30.3824 94.9209 24.1022 92.0466 18.6669C92.6173 18.6179 93.199 18.5455 93.7501 18.5455C107.849 18.5455 119.318 31.024 119.318 46.3637C119.318 57.375 113.32 67.354 104.032 71.8063Z" fill="#359E3D"/>
</g>
<defs>
<clipPath id="clip0">
<rect width="125" height="136" fill="white"/>
</clipPath>
</defs>
</svg>
