<svg width="24" height="24" viewBox="0 0 24 24" fill="none" xmlns="http://www.w3.org/2000/svg">
<circle cx="12" cy="12" r="10.5" fill="white"/>
<path d="M15.5764 6.38513H8.42325C7.28152 6.38513 6.35262 7.31403 6.35262 8.45577V15.6089C6.35262 16.7506 7.28152 17.6798 8.42325 17.6798H15.5764C16.7181 17.6798 17.6473 16.7509 17.6473 15.6089V8.45577C17.6473 7.31403 16.7184 6.38513 15.5764 6.38513ZM11.9998 15.7506C9.94976 15.7506 8.28181 14.0826 8.28181 12.0323C8.28181 9.98228 9.94976 8.31432 11.9998 8.31432C14.0501 8.31432 15.7181 9.98228 15.7181 12.0323C15.7181 14.0824 14.0498 15.7506 11.9998 15.7506ZM15.8376 9.08306C15.3523 9.08306 14.9576 8.6884 14.9576 8.20336C14.9576 7.71832 15.3523 7.32366 15.8376 7.32366C16.3226 7.32366 16.7173 7.71832 16.7173 8.20336C16.7173 8.6884 16.3226 9.08306 15.8376 9.08306Z" fill="#2FA037"/>
<path d="M12 9.88562C10.8165 9.88562 9.85287 10.8487 9.85287 12.0322C9.85287 13.2162 10.8165 14.1795 12 14.1795C13.184 14.1795 14.1468 13.2162 14.1468 12.0322C14.1468 10.849 13.1837 9.88562 12 9.88562Z" fill="#2FA037"/>
<path d="M12 0C5.37285 0 0 5.37285 0 12C0 18.6272 5.37285 24 12 24C18.6272 24 24 18.6272 24 12C24 5.37285 18.6272 0 12 0ZM19.2183 15.6089C19.2183 17.6172 17.5849 19.2507 15.5765 19.2507H8.42345C6.41538 19.2507 4.78166 17.6172 4.78166 15.6089V8.4558C4.78166 6.44774 6.41538 4.81401 8.42345 4.81401H15.5765C17.5849 4.81401 19.2183 6.44774 19.2183 8.4558V15.6089Z" fill="#2FA037"/>
</svg>
