<svg fill="none" height="1772" viewBox="0 0 5667 1772" width="5667" xmlns="http://www.w3.org/2000/svg"><g fill="#2fa037"><path d="m.421875 1368.37c0-126.28 0-252.55 0-378.828 0-11.376 0-11.376 12.547125-11.376h331.929c25.094 0 50.188 2.276 74.142 6.826 63.876 13.651 119.768 39.818 161.972 88.738 18.25 21.61 34.219 45.5 42.204 72.8 4.562 13.65 10.266 26.17 12.547 39.82 6.844 34.13 9.125 69.39 3.422 104.66-5.703 38.68-18.25 73.95-39.923 106.94-21.672 31.85-50.188 56.88-83.267 76.22-28.516 17.06-60.454 28.44-92.393 36.4-12.547 3.41-26.235 4.55-39.922 6.83-50.189 7.96-101.518 3.41-152.847 4.55-14.829 0-29.657 0-43.345 0-6.844 0-9.125 2.27-9.125 9.1v215.01c0 12.51 0 12.51-12.547 12.51-51.329 0-102.6585 0-153.9876 0-11.406525 0-11.406525 0-11.406525-10.24 0-126.27 0-253.69 0-379.96zm176.800125-117.18v111.49c0 6.83 2.282 9.1 9.126 9.1h136.877c28.517 0 57.033-4.55 82.127-20.48 22.813-14.78 41.063-32.99 49.048-58.01 7.984-22.76 9.125-46.65 4.562-70.54-4.562-22.75-14.828-43.23-33.078-58.01-27.376-23.89-60.455-33-96.955-33-47.908-1.13-95.815 0-143.722 0-7.985 0-10.266 2.28-10.266 10.24 2.281 35.27 2.281 72.81 2.281 109.21zm1839.868 119.45c1.14 213.88-180.22 394.76-407.21 393.62-224.71-1.14-403.79-176.33-403.79-392.48 0-219.56 181.36-393.619 406.07-393.619 222.42-1.132 406.07 175.199 404.93 392.479zm-406.07-210.46c-117.49 0-216.73 94.43-216.73 210.46 0 116.04 99.24 209.32 212.16 210.46 124.34 2.28 222.43-95.56 222.43-210.46-1.14-117.17-98.09-210.46-217.86-210.46z"/><path d="m782.906 1565.18c0-19.34 0-37.55 1.141-56.88 1.141-15.93 0-31.86 2.281-47.78 2.282-18.21 2.282-36.41 4.563-54.61 2.281-13.65 2.281-27.3 4.563-39.82 3.422-15.92 6.843-31.85 11.406-46.64 6.844-20.48 15.969-39.82 27.376-58.02 14.828-23.89 34.219-44.36 57.032-61.43 23.954-18.2 50.189-31.85 77.564-44.37 14.829-6.82 29.657-11.37 44.488-19.33 2.28-1.14 4.56-1.14 5.7 1.13 12.55 25.03 17.11 50.06 18.25 77.36 0 10.24 0 19.34-1.14 29.58s-2.28 20.48-4.56 29.58c-5.71 19.34-12.55 38.68-23.96 55.74-13.684 21.61-30.793 38.68-52.466 52.33-17.109 10.24-37.641 15.93-55.891 23.89-17.11 6.83-34.22 13.65-49.048 23.89-15.969 10.24-26.235 25.03-28.516 44.37-1.141 14.79-1.141 29.57 0 44.36 19.391-18.2 50.188-25.02 78.704-28.44 21.673-2.27 43.345-2.27 63.877-1.13-7.985-5.69-12.548-10.24-11.407-13.66 5.703-12.51 92.397 2.28 128.897-4.55 23.95-4.55 46.76-14.78 46.76-14.78 5.71-2.28 11.41-5.69 15.97-7.97 38.78-21.61 63.88-54.6 78.71-94.42 7.98-22.75 12.54-45.5 14.83-69.39 2.28-26.17 1.14-52.34-4.57-78.5-4.56-19.34-11.4-37.54-20.53-54.61-17.11-31.85-41.06-56.88-71.86-77.35-29.66-20.48-63.88-34.13-99.24-42.1-22.81-4.55-45.622-7.96-68.435-7.96s-45.626 1.14-69.58 5.69c-18.25 3.41-35.36 7.96-52.47 13.65-31.938 11.38-61.595 26.17-88.97 45.51 14.828 7.96 25.094 25.02 25.094 40.95 20.532 13.65 31.938 43.23 9.125 67.12-49.048 52.33-67.298 125.14-103.799 185.43-5.703 10.24-14.828 17.06-23.953 19.34-1.141 5.69-3.422 11.38-4.563 17.06 21.672 1.14 39.923 14.79 37.641 40.96-2.281 15.92-4.562 32.99-6.843 48.92 11.406 3.41 20.531 10.23 25.094 21.61 13.688-2.28 29.657 0 41.063 10.24 7.985 7.96 15.969 15.93 21.672 25.03z"/><path d="m833.095 1395.67c-2.281-5.69 0-11.37 0-15.92 2.281-13.66 5.703-27.31 12.547-39.82 9.125-15.93 20.532-29.58 34.22-42.09 15.969-14.79 35.36-27.31 52.469-40.96 19.391-15.92 37.642-32.99 50.189-53.47 3.422-5.68 7.985-12.51 10.266-19.33 1.14-1.14 1.14-2.28 3.422-3.42 1.14 5.69-2.282 11.38-3.422 17.07-5.703 22.75-17.11 43.23-33.079 61.43-17.11 20.47-37.641 36.4-58.173 52.33-20.532 17.06-42.204 32.99-55.892 55.74-4.562 7.96-9.125 15.93-10.266 23.89 0 0 0 2.28-2.281 4.55z"/><path d="m1423.95 1599.3c-6.84 7.97-14.83 15.93-22.81 22.76-18.25 15.92-39.92 27.3-63.88 29.57-20.53 1.14-41.06 1.14-61.59-2.27-33.08-6.83-65.02-17.06-95.82-31.85-46.76-22.76-90.11-51.2-132.31-83.05-26.24-19.34-52.473-39.82-84.411-46.64 10.266-2.28 25.094-4.55 44.481-6.83 66.16-10.24 74.15-10.24 86.69-13.65 45.63-12.51 71.86-53.47 90.11-81.91 7.99-12.51 65.02-103.52 33.08-204.77-13.68-44.37-38.78-72.81-46.76-80.77-25.1-25.03-55.89-40.95-87.83-55.74-57.04-26.17-117.49-37.54-180.225-36.41-58.173 0-116.347 2.28-175.66 2.28-15.969 0-31.938-3.41-46.767-10.239-28.516-12.514-50.188-32.991-67.298-59.156-1.141-1.138-2.281-4.551-4.563-4.551-3.422 0-2.281 3.413-2.281 5.689-1.141 14.789 1.141 28.44 4.563 43.229 5.703 31.858 14.828 63.708 27.375 93.288 11.407 26.16 25.094 51.19 46.767 71.67 30.797 27.3 68.439 37.54 107.221 43.23 6.844 1.13 12.547 1.13 19.391 2.27v-1.14c12.547-37.54 52.47-60.29 92.392-60.29 9.125 0 17.11 2.27 25.094 4.55 2.282 0 3.422-1.14 5.704-1.14 1.14-1.14 2.281-1.14 2.281-2.27-17.11-6.83-35.36-13.65-54.751-19.34 23.954 0 45.626 2.27 66.158 5.69 2.281 0 4.562 1.13 6.843 1.13 6.844-3.41 13.688-7.96 20.532-10.24 22.813-10.23 46.764-5.68 61.594 15.93 5.7 7.96 6.85 20.48 4.56 30.72 45.63 34.13 58.18 95.56 39.93 145.61-7.99 22.75-21.68 39.82-37.65 53.47 1.15 15.93-6.84 32.99-21.67 40.95-6.84 3.42-13.69 6.83-20.53 11.38-2.28 1.14-7.983 3.41-9.124 5.69 4.562-3.41 5.703-4.55 2.281-1.14-1.141 1.14-3.422 2.28-4.563 3.41-10.265 7.97-22.813 12.52-34.219 12.52-3.422 10.24-10.266 19.34-20.532 25.02-5.703 3.42-11.406 5.69-18.25 7.97-2.281 1.14-5.703 2.27-7.984 3.41-3.422 1.14-12.548 7.96-2.282 0-10.266 7.96-19.391 12.51-31.938 12.51-6.844 0-12.547-1.13-18.25-3.41-2.282 12.52-10.266 22.75-22.813 28.44-6.844 7.97-18.251 12.52-31.938 12.52-42.204 0-53.611-45.51-34.22-70.54-11.406-13.65-12.547-32.99-3.422-48.91 1.141-2.28 2.281-3.42 2.281-5.69-7.984-31.85-4.562-64.85 14.829-93.29 1.141-2.27 2.281-3.41 3.422-5.68-2.281-9.11-4.563-19.34-4.563-27.31-1.14-22.75 13.688-36.4 30.798-39.81-1.141-2.28-2.282-5.69-3.422-7.97-20.532-2.27-41.064-4.55-60.455-10.24-45.626-12.51-83.267-35.26-109.502-76.22-1.14-2.27-2.281-6.82-5.703-5.68-3.422 1.13-2.281 5.68-2.281 7.96v604.07c0 10.24 1.14 11.38 12.547 12.52h52.47c27.375-1.14 53.61-5.69 77.564-20.48 19.391-11.38 35.36-26.17 47.907-43.23 12.547-18.2 18.25-34.13 20.532-39.82 19.391-59.15 2.281-147.89 9.125-154.71 1.14-1.14 2.281-2.28 2.281-2.28 3.422-1.13 7.985 1.14 12.547 1.14 29.657-3.41 50.189 10.24 67.298 32.99 13.688 19.34 27.376 39.82 43.345 58.02 18.25 21.61 39.924 39.82 62.734 55.74-57.031-20.47-100.375-58.02-134.595-110.35-1.14 5.69 0 9.11 0 11.38 6.844 28.44 17.11 56.88 26.235 84.18 14.829 44.37 37.642 80.77 76.42 108.08 34.22 23.89 73.01 36.4 115.21 39.81 22.81 2.28 44.48 0 67.3-3.41 25.09-3.41 49.05-9.1 71.86-19.34 59.31-26.16 110.64-64.84 149.42-118.31 7.99-11.38 17.11-23.89 20.53-37.54-3.42 3.41-5.7 4.55-6.84 6.82z"/><path d="m1284.79 24.8447c57.03-10.2385 143.72-10.2385 199.62 0v461.8723c0 245.724-125.48 352.66-339.92 352.66s-339.911-106.936-339.911-352.66v-461.8723c55.892-10.2385 143.721-10.2385 199.611 0v492.5873c0 92.147 47.91 159.266 140.3 159.266s140.3-67.119 140.3-159.266zm868.03 0c10.27 56.8808 10.27 106.9363 0 162.6793h-215.58v632.514c-57.03 10.238-140.3 10.238-196.19 0v-632.514h-216.72c-10.27-56.881-10.27-106.9362 0-162.6793zm361.59 0c177.94 0 301.13 106.9363 301.13 262.7893 0 108.073-58.17 192.257-151.7 234.349l193.91 299.192c-55.9 10.239-157.41 10.239-213.31 0l-175.66-269.614h-77.56v269.614c-55.89 10.239-140.3 10.239-196.19 0v-796.3303zm-123.19 364.0373h123.19c53.61 0 100.38-31.854 100.38-100.111 0-68.256-46.77-100.11-100.38-100.11h-123.19zm715.19 432.293c-55.9 10.239-140.3 10.239-196.19 0v-796.3303c55.89-10.2385 140.29-10.2385 196.19 0zm670.7-796.3303c10.26 56.8808 10.26 106.9363 0 162.6793h-215.58v632.514c-57.04 10.238-140.3 10.238-196.2 0v-632.514h-215.58c-10.26-56.881-10.26-106.9362 0-162.6793zm239.53 796.3303c-55.89 10.239-140.3 10.239-196.19 0v-796.3303c55.89-10.2385 140.3-10.2385 196.19 0zm879.44-398.165c0 228.661-171.09 416.367-423.18 416.367-253.22 0-423.18-187.706-423.18-416.367s171.1-416.36715 423.18-416.36715c253.23 0 423.18 186.56915 423.18 416.36715zm-646.74 0c0 159.266 102.65 253.688 223.56 253.688s223.57-94.422 223.57-253.688-102.66-253.688-223.57-253.688-223.56 94.422-223.56 253.688zm1416.68 398.165c-57.03 10.239-96.95 10.239-153.99 0l-371.85-466.422v466.422c-57.03 10.239-140.3 10.239-196.19 0v-796.3303c57.03-10.2385 96.96-10.2385 153.99 0l371.85 466.4223v-466.4223c57.03-10.2385 140.3-10.2385 196.19 0zm-4928.739-17.064c-57.033 10.239-96.956 10.239-153.988 0l-371.851-466.422v466.422c-57.033 10.239-140.3 10.239-196.1918 0v-796.33053c57.0325-10.23854 96.9548-10.23854 153.9878 0l371.851 466.42253v-466.42253c57.032-10.23854 140.3-10.23854 196.192 0z"/></g></svg>