<svg fill="none" height="107" viewBox="0 0 107 107" width="107" xmlns="http://www.w3.org/2000/svg"><path d="m57.8932 58.226c0-.9161-.6991-1.6589-1.5615-1.6589h-6.0631c-.8624 0-1.5616.7428-1.5616 1.6589 0 .9162.6992 1.659 1.5616 1.659h6.0631c.8624 0 1.5615-.7428 1.5615-1.659z" fill="#36ac65"/><path d="m87.6578 77.9937h-6.0631c-.8624 0-1.5615.7427-1.5615 1.6588s.6991 1.6588 1.5615 1.6588h6.0631c.8624 0 1.5615-.7427 1.5615-1.6588s-.6991-1.6588-1.5615-1.6588z" fill="#36ac65"/><path d="m72.7018 34.283c-7.2098 0-13.9017 2.3991-19.4018 6.4841-5.5003-4.085-12.1919-6.4841-19.402-6.4841-3.9861 0-7.8151.7339-11.3706 2.0797-.0017-.14-.0025-.2804-.0025-.4209 0-17.989 13.8057-32.62409 30.7751-32.62409 15.9736 0 29.1451 12.69489 30.6386 29.52919.081.9121.8415 1.5816 1.701 1.4958.8586-.0858 1.4891-.8949 1.4081-1.807-.7866-8.8676-4.6463-17.0765-10.8678-23.11385-6.2609-6.07583-14.3864-9.42185-22.8799-9.42185-18.6914 0-33.8982 16.1234-33.8982 35.9418 0 .5939.0138 1.1864.0408 1.7755-11.48237 5.7626-19.4426 18.1675-19.4426 32.5075 0 19.8185 15.2067 35.9422 33.898 35.9422 5.4078 0 10.5769-1.311 15.3633-3.896.7689-.414 1.0752-1.413.6846-2.23-.3906-.8168-1.3309-1.1421-2.0996-.7272-4.3441 2.3462-9.037 3.5352-13.9483 3.5352-16.9692 0-30.77495-14.6351-30.77495-32.6242 0-12.5924 6.76598-23.542 16.64565-28.9782 1.4139 10.1412 6.8461 19.1965 15.1266 24.8828.7239.4973 1.6908.277 2.159-.4925.4683-.7693.2607-1.7962-.4636-2.2937-7.7723-5.3375-12.7804-13.9408-13.8505-23.5241 3.4611-1.4323 7.224-2.2184 11.1578-2.2184 6.1946 0 11.9683 1.9506 16.8022 5.3026-7.2761 6.5971-11.8963 16.3987-11.8963 27.3215 0 19.8185 15.2065 35.9422 33.8979 35.9422 18.6915 0 33.8982-16.1237 33.8982-35.9422 0-19.8184-15.2067-35.9418-33.8982-35.9418zm0 3.3177c3.9338 0 7.6975.7865 11.1587 2.2189-1.2336 11.1293-7.5751 20.3548-16.4243 25.1604-1.2174-8.7884-5.4472-16.5556-11.5364-22.0767 4.8339-3.352 10.6076-5.3026 16.802-5.3026zm-19.4018 7.3178c6.0533 5.2251 10.2032 12.8373 11.1616 21.4699-3.4606 1.4092-7.2249 2.1776-11.1616 2.1776-3.8567 0-7.6063-.743-11.158-2.2098.965-8.6195 5.112-16.219 11.158-21.4377zm.0113 50.6222c-6.9426-5.9867-11.3844-15.1115-11.3844-25.3159 0-.1382.0008-.2749.0025-.4129 3.639 1.3757 7.4551 2.0718 11.3706 2.0718 3.918 0 7.7573-.7118 11.3706-2.0745.0017.138.0025.2774.0025.4156 0 9.8967-4.1328 19.0846-11.3618 25.3159zm19.3905 7.3083c-6.1884 0-11.9569-1.947-16.7876-5.2927 7.5713-6.8486 11.8822-16.7195 11.8822-27.3315 0-.5914-.0138-1.1804-.0404-1.765 3.0672-1.5341 5.9252-3.5632 8.4736-6.046 5.7494-5.6016 9.4689-13.0554 10.6015-21.1672 9.8797 5.436 16.6459 16.3858 16.6459 28.9782 0 17.9891-13.8058 32.6242-30.7752 32.6242z" fill="#424242"/><g fill="#36ac65"><path d="m61.9342 19.6576c0-.9161-.6991-1.6588-1.5615-1.6588h-14.1471c-.8624 0-1.5615.7427-1.5615 1.6588 0 .9162.6991 1.6589 1.5615 1.6589h14.1471c.8624 0 1.5615-.7427 1.5615-1.6589z"/><path d="m50.2686 24.4269c-.8624 0-1.5616.7428-1.5616 1.659 0 .9161.6992 1.6589 1.5616 1.6589h6.0631c.8624 0 1.5615-.7428 1.5615-1.6589 0-.9162-.6991-1.659-1.5615-1.659z"/><path d="m30.6084 73.2248c0-.9161-.6991-1.6588-1.5615-1.6588h-14.1475c-.8624 0-1.5615.7427-1.5615 1.6588s.6991 1.6588 1.5615 1.6588h14.1473c.8626 0 1.5617-.7427 1.5617-1.6588z"/><path d="m91.699 71.566h-14.1472c-.8624 0-1.5616.7427-1.5616 1.6588s.6992 1.6588 1.5616 1.6588h14.1472c.8624 0 1.5616-.7427 1.5616-1.6588s-.6992-1.6588-1.5616-1.6588z"/><path d="m18.9424 77.9937c-.8624 0-1.5615.7427-1.5615 1.6588s.6991 1.6588 1.5615 1.6588h6.0631c.8624 0 1.5615-.7427 1.5615-1.6588s-.6991-1.6588-1.5615-1.6588z"/></g></svg>