<svg width="73" height="83" viewBox="0 0 73 83" fill="none" xmlns="http://www.w3.org/2000/svg">
<path d="M66.5789 35.8529C67.3727 37.1021 69.0863 35.7059 68.2899 34.453C64.142 27.9269 66.0445 18.8677 66.0673 18.7626C66.3948 17.2654 64.3493 16.6879 64.0201 18.1846C63.9293 18.5985 61.8467 28.4073 66.5789 35.8529Z" fill="#2FA037"/>
<path d="M3.74072 36.1235C4.20735 36.5055 4.87705 36.3815 5.21317 35.8529C9.94542 28.4074 7.86289 18.5985 7.7719 18.1846C7.44253 16.6873 5.39586 17.266 5.72495 18.7637C5.74492 18.8543 7.66783 27.8987 3.50206 34.453C3.1613 34.989 3.26818 35.737 3.74072 36.1235Z" fill="#2FA037"/>
<path d="M0.437889 30.3493C0.904658 30.7311 1.57422 30.6073 1.91034 30.0785C4.07275 26.6763 3.12923 22.2314 3.08816 22.0439C2.75978 20.5501 0.719863 21.1245 1.04051 22.6198C1.04811 22.6552 1.78152 26.1891 0.199371 28.6786C-0.141388 29.2146 -0.0346459 29.9627 0.437889 30.3493Z" fill="#2FA037"/>
<path d="M70.9518 30.5753C71.7942 30.5753 72.2986 29.4528 71.8064 28.6786C70.2313 26.2002 70.9511 22.6867 70.9651 22.6206C71.2908 21.1239 69.2467 20.548 68.9176 22.0441C68.8764 22.2316 67.933 26.6764 70.0954 30.0786C70.3016 30.4028 70.6244 30.5753 70.9518 30.5753Z" fill="#2FA037"/>
<path d="M36.3552 34.7647C36.3552 35.2752 35.9996 35.6114 35.6505 35.6114C35.3014 35.6114 34.9457 35.2753 34.9457 34.7647V30.6737C34.9457 30.372 35.0464 30.1763 35.1697 30.056C35.297 29.9319 35.4707 29.8661 35.6505 29.8661C35.8303 29.8661 36.004 29.9319 36.1312 30.056C36.2546 30.1763 36.3552 30.372 36.3552 30.6737V34.7647Z" fill="#424242" stroke="white" stroke-width="0.7"/>
<path d="M61.3878 34.174C59.7192 27.9712 59.7097 21.3126 60.7281 14.9695C61.4009 10.7787 62.4524 6.47639 64.1343 2.64703C64.7448 1.26776 62.8597 0.193902 62.2492 1.57301C60.5813 5.34046 59.521 9.56665 58.7963 13.681C57.8314 19.159 57.6088 24.8412 58.4363 30.3616C58.8242 32.9489 59.4643 35.4665 60.2984 37.9135C54.6741 40.0148 48.6524 40.9992 42.7629 41.4752C35.3322 42.0756 27.8162 41.6973 20.4736 40.2519C17.5242 39.6714 14.5685 38.9472 11.727 37.8668C15.2957 27.3637 14.5037 15.6862 11.1193 5.25653C10.7151 4.01081 10.2856 2.76096 9.76016 1.57317C9.1498 0.1947 7.26599 1.26728 7.87466 2.64671C9.66607 6.69579 10.7487 11.2965 11.4 15.7433C12.4207 22.7113 12.1048 29.8513 9.92639 36.5057C8.80468 39.9319 7.25741 43.1257 5.66724 46.294C1.54464 54.5081 -2.34928 62.267 1.74604 81.3808C2.06654 82.8775 4.11729 82.3157 3.7958 80.8155C0.87775 67.1963 2.11942 59.839 4.63961 53.59C5.50396 53.6801 8.51103 54.111 12.5803 55.9814C17.0344 58.0287 23.7119 62.2712 30.2297 70.856C31.3257 72.2994 32.9776 73.1879 34.9497 73.42V81.4127C34.9497 82.9562 37.0592 82.9562 37.0592 81.4127V73.4087C38.8616 73.1609 40.5225 72.2865 41.726 70.9211C49.8021 61.758 56.4665 57.5267 60.6354 55.5906C64.1024 53.9804 66.458 53.6505 67.3671 53.5841C69.889 59.8343 71.1322 67.1918 68.2131 80.8152C67.8916 82.3154 69.9423 82.8772 70.263 81.3805C74.3584 62.2667 70.4646 54.5078 66.342 46.2932C64.5472 42.717 62.6911 39.0188 61.3878 34.174ZM40.2342 69.2288C39.1918 70.4116 37.6502 71.0899 36.0046 71.0899C34.217 71.0899 32.6947 70.4352 31.8282 69.2939C24.9972 60.2964 17.9633 55.8553 13.2654 53.714C9.79982 52.1345 7.07978 51.535 5.62941 51.3097C7.36499 47.5476 9.38959 43.9683 10.9163 40.0826C16.5484 42.2835 22.6514 43.279 28.5692 43.8057C36.3341 44.4968 44.1968 44.1354 51.876 42.6416C54.9899 42.0359 58.1138 41.2779 61.1109 40.13C62.6314 43.9892 64.6418 47.547 66.3679 51.2843C62.8011 51.7884 53.1774 54.5439 40.2342 69.2288Z" fill="#424242"/>
</svg>
