<svg fill="none" height="94" viewBox="0 0 94 94" width="94" xmlns="http://www.w3.org/2000/svg"><path d="m91.3819 89.8285c-13.7303 1.4679-24.6193-4.3935-24.7279-4.4527-.3702-.203-.8078-.2579-1.2184-.1489-.1731.0448-17.4454 4.5077-31.3556 1.5315-8.6717-1.8587-16.8519-7.7483-22.8246-12.0479-.8025-.5779-1.56235-1.1248-2.27569-1.6283-.97485-.6869-2.52442-1.2591-3.89116-1.7633-.61368-.2261-1.4544-.536-1.63424-.6451-.1566-.1177-.24202-.2918-.24202-.4898v-3.5895c.07717-2.8404 12.43031-46.5453 14.34551-52.1055.0472-.0657.2315-.1943.3672-.2564l24.4461-10.76356 7.903 9.91906c.3896.5143.3529 1.2324-.0862 1.7063l-7.8093 8.4403c-.511.5533-1.3712.6133-1.9055.1835l-3.1575-2.8065c-.3695-.3287-.8955-.4378-1.39-.3503-.4946.0852-.9374.4254-1.1652.8574-.2645.5006-2.6548 1.1154-5.0945 1.1327l-.795-.0773c-.6332-.0729-1.2544.2471-1.5661.7889-.3117.5403-.2593 1.2085.1334 1.699.6781.8452 1.2064 1.5242 1.5061 1.9136l1.563 25.615c-.9688 3.6379-1.8567 4.6717-2.077 4.8783-.6512.1986-1.1233.7845-1.1233 1.4772 0 .8553.7194 1.5488 1.6066 1.5488 1.8215 0 3.3704-2.308 4.6127-6.8135 12.7765-9.2162 23.9269-.5187 24.8014.1972 4.0575 3.9262 4.3092 6.5347 4.3175 6.6503.0195.8394.7313 1.5148 1.6065 1.5148.8872 0 1.6065-.6935 1.6065-1.5488 0-.3561-.1334-3.4118-4.2913-7.8263 3.9204-4.6478 8.3855-7.3242 13.3017-7.9072 8.4747-1.0063 15.6051 4.4889 15.6756 4.5438.6878.5403 1.6987.4414 2.2591-.2218.5598-.6617.4586-1.6354-.227-2.1765-.3312-.2608-8.2184-6.3787-18.0666-5.2236-5.7562.6733-10.9234 3.6748-15.378 8.9272-3.6139-2.3701-13.9791-7.7338-25.5717-.7187l-1.4379-23.5569c-.0142-.2543-.0952-.5014-.233-.7181 1.4371-.164 3.1493-.5259 4.3909-1.3133l2.0704 1.8385c1.9249 1.5589 4.7491 1.3653 6.4238-.445l7.81-8.4403c1.4402-1.5561 1.5608-3.9081.2608-5.6245l-8.7055-10.927509c-.4541-.5706826-1.2581-.764281-1.9414-.465214l-25.5882 11.267723c-.2675.1134-1.6245.7462-2.0711 2.0407-.9096 2.6324-14.5388 49.4913-14.5388 53.1415v3.5953c0 1.1536.537254 2.2206 1.47314 2.9271.46832.3539 1.16742.6212 2.46822 1.1001 1.06102.3923 2.51393.9283 3.14185 1.3704.70585.4977 1.45741 1.0388 2.25018 1.6095 6.20581 4.4686 14.70441 10.5872 24.05131 12.5897 13.304 2.8505 28.9225-.596 32.269-1.4087 2.2359 1.1132 10.4378 4.7938 21.1747 4.7938 1.5847 0 3.225-.0802 4.9087-.2608.8819-.0939 1.5166-.8597 1.4192-1.7099-.0982-.851-.8955-1.4686-1.7744-1.3675z" fill="#424242"/><path d="m83.5197 74.5263c-.0884-.7751-.7696-1.3784-1.5968-1.3784-.8872 0-1.6065.6936-1.6065 1.5489 0 1.0344.792 4.5366 10.9795 6.1736.0892.0137.1791.0209.266.0209.7711 0 1.4514-.5367 1.5826-1.2938.1453-.8437-.4459-1.6413-1.3203-1.7821-7.1244-1.145-8.2094-3.0832-8.3045-3.2891z" fill="#424242"/><g fill="#36ac65"><path d="m65.782 20.755h4.8945v4.3877c0 .8553.7194 1.5488 1.6066 1.5488h12.8499c.8872 0 1.6065-.6935 1.6065-1.5488v-4.3877h4.8196c.6151 0 1.1771-.3388 1.4454-.8734.2682-.5345.1971-1.1695-.1843-1.6354l-12.8889-15.74292c-.61-.74477-1.9123-.74477-2.5222 0l-12.8881 15.74362c-.3814.4652-.4526 1.1009-.1844 1.6347.2683.5346.8295.8734 1.4454.8734zm12.8882-14.79223 9.5747 11.69463h-3.1119c-.8872 0-1.6065.6935-1.6065 1.5488v4.3885h-9.6377v-4.3885c0-.8553-.7193-1.5488-1.6065-1.5488h-3.1868z"/><path d="m86.7394 29.7886c0-.8546-.7193-1.5481-1.6065-1.5481h-12.8506c-.8872 0-1.6065.6935-1.6065 1.5481v4.6464c0 .8553.7193 1.5487 1.6065 1.5487h12.8506c.8872 0 1.6065-.6934 1.6065-1.5487zm-3.213 3.0976h-9.6376v-1.5488h9.6376z"/><path d="m85.1341 37.5315h-12.8498c-.8872 0-1.6066.6939-1.6066 1.5498s.7194 1.5498 1.6066 1.5498h12.8498c.8872 0 1.6066-.6939 1.6066-1.5498s-.7194-1.5498-1.6066-1.5498z"/></g><path d="m52.6719 82.4749c-21.0398 4.3436-30.0413-9.5336-30.4144-10.1253-.4586-.7317-1.4447-.9672-2.2022-.528-.7606.4406-1.0071 1.392-.5508 2.1245.1064.1704 2.6623 4.2156 8.1285 7.6613 3.7653 2.3737 9.508 4.7914 17.2761 4.7914 2.5866 0 5.3987-.268 8.4357-.895.8669-.1791 1.4199-1.0026 1.2341-1.8391-.1858-.8358-1.043-1.3711-1.907-1.1898z" fill="#424242"/></svg>