<svg fill="none" height="119" viewBox="0 0 104 119" width="104" xmlns="http://www.w3.org/2000/svg"><path d="m88.3989 48.0876c-2.4028-8.966-2.4164-18.5907-.95-27.7595.9689-6.0576 2.4831-12.27638 4.905-17.81157.8791-1.993678-1.8355-3.5459-2.7146-1.552459-2.4018 5.445699-3.9286 11.554529-4.9721 17.501629-1.3895 7.9182-1.7101 16.1316-.5185 24.1111.5586 3.7399 1.4804 7.379 2.6815 10.9161-8.099 3.0373-16.7703 4.4602-25.2512 5.1482-10.7001.8679-21.5231.321-32.0965-1.7681-4.2471-.8391-8.5034-1.886-12.5952-3.4477 5.139-15.1818 3.9984-32.0611-.8751-47.13684-.582-1.80063-1.2005-3.60725-1.9571-5.324158-.8789-1.992522-3.5916-.442142-2.7151 1.551768 2.5796 5.85278 4.1386 12.50293 5.0764 18.93063 1.4699 10.072 1.015 20.3925-2.1219 30.0113-1.6153 4.9523-3.8434 9.5689-6.13321 14.1485-5.93653 11.8732-11.54378 23.0885-5.64653 50.7165.46153 2.164 3.41461 1.352 2.95166-.817-4.20199-19.686-2.41398-30.3207 1.21509-39.3534 1.24466.1303 5.57489.7531 11.43459 3.4567 6.4139 2.9593 16.0295 9.0917 25.4151 21.5007 1.5782 2.086 3.957 3.371 6.7968 3.706v11.553c0 2.231 3.0378 2.231 3.0378 0v-11.569c2.5954-.358 4.9871-1.622 6.7201-3.596 11.6296-13.2448 21.2264-19.361 27.2296-22.1596 4.9924-2.3274 8.3845-2.8044 9.6936-2.9003 3.6319 9.0345 5.4219 19.6694 1.2183 39.3619-.4629 2.168 2.4896 2.98 2.9516.817 5.898-27.6285.29-38.8437-5.6461-50.7177l-.0003-.0007c-2.5844-5.1689-5.2571-10.5144-7.1337-17.517zm-30.4611 50.6703c-1.5011 1.7101-3.721 2.6901-6.0907 2.6901-2.5742 0-4.7662-.946-6.0141-2.596-9.8366-13.0055-19.9654-19.4249-26.7304-22.5202-4.9904-2.2831-8.9072-3.1496-10.99578-3.4753.92166-2.0053 1.89988-3.9748 2.87798-5.9438 1.674-3.3702 3.3474-6.7391 4.7352-10.2844 8.1101 3.1812 16.8985 4.6202 25.4201 5.3815 11.1815.999 22.5037.4766 33.5619-1.6827 4.4839-.8755 8.9824-1.9711 13.2982-3.6303 1.3822 3.5215 3.0456 6.8694 4.7096 10.2186.9719 1.9561 1.944 3.9126 2.8604 5.9044-5.1362.7286-18.9943 4.7116-37.6324 25.9381z" fill="#424242"/><path d="m88.3989 48.0876c-2.4028-8.966-2.4164-18.5907-.95-27.7595.9689-6.0576 2.4831-12.27638 4.905-17.81157.8791-1.993678-1.8355-3.5459-2.7146-1.552459-2.4018 5.445699-3.9286 11.554529-4.9721 17.501629-1.3895 7.9182-1.7101 16.1316-.5185 24.1111.5586 3.7399 1.4804 7.379 2.6815 10.9161-8.099 3.0373-16.7703 4.4602-25.2512 5.1482-10.7001.8679-21.5231.321-32.0965-1.7681-4.2471-.8391-8.5034-1.886-12.5952-3.4477 5.139-15.1818 3.9984-32.0611-.8751-47.13684-.582-1.80063-1.2005-3.60725-1.9571-5.324158-.8789-1.992522-3.5916-.442142-2.7151 1.551768 2.5796 5.85278 4.1386 12.50293 5.0764 18.93063 1.4699 10.072 1.015 20.3925-2.1219 30.0113-1.6153 4.9523-3.8434 9.5689-6.13321 14.1485-5.93653 11.8732-11.54378 23.0885-5.64653 50.7165.46153 2.164 3.41461 1.352 2.95166-.817-4.20199-19.686-2.41398-30.3207 1.21509-39.3534 1.24466.1303 5.57489.7531 11.43459 3.4567 6.4139 2.9593 16.0295 9.0917 25.4151 21.5007 1.5782 2.086 3.957 3.371 6.7968 3.706v11.553c0 2.231 3.0378 2.231 3.0378 0v-11.569c2.5954-.358 4.9871-1.622 6.7201-3.596 11.6296-13.2448 21.2264-19.361 27.2296-22.1596 4.9924-2.3274 8.3845-2.8044 9.6936-2.9003 3.6319 9.0345 5.4219 19.6694 1.2183 39.3619-.4629 2.168 2.4896 2.98 2.9516.817 5.898-27.6285.29-38.8437-5.6461-50.7177l-.0003-.0007c-2.5844-5.1689-5.2571-10.5144-7.1337-17.517zm-30.4611 50.6703c-1.5011 1.7101-3.721 2.6901-6.0907 2.6901-2.5742 0-4.7662-.946-6.0141-2.596-9.8366-13.0055-19.9654-19.4249-26.7304-22.5202-4.9904-2.2831-8.9072-3.1496-10.99578-3.4753.92166-2.0053 1.89988-3.9748 2.87798-5.9438 1.674-3.3702 3.3474-6.7391 4.7352-10.2844 8.1101 3.1812 16.8985 4.6202 25.4201 5.3815 11.1815.999 22.5037.4766 33.5619-1.6827 4.4839-.8755 8.9824-1.9711 13.2982-3.6303 1.3822 3.5215 3.0456 6.8694 4.7096 10.2186.9719 1.9561 1.944 3.9126 2.8604 5.9044-5.1362.7286-18.9943 4.7116-37.6324 25.9381z" stroke="#fff"/><g fill="#36ac65"><path d="m95.8733 50.5141c1.143 1.8057 3.6107-.2124 2.4638-2.0234-5.973-9.4333-3.2334-22.528-3.2006-22.68.4717-2.1641-2.4739-2.9988-2.948-.8354-.1306.5983-3.1297 14.7766 3.6848 25.5388z"/><path d="m5.38655 50.9055c.67195.5521 1.63633.3729 2.12034-.3912 6.81441-10.7623 3.81561-24.9406 3.68461-25.5388-.4743-2.1644-3.42154-1.3279-2.94766.837.02876.131 2.79776 13.2043-3.20095 22.6784-.4907.7747-.33679 1.8559.34366 2.4146z"/><path d="m.630562 42.5591c.672148.5519 1.636328.3729 2.120338-.3914 3.11388-4.9178 1.7552-11.3426 1.69606-11.6136-.47287-2.1592-3.41035-1.3289-2.94862.8324.01094.0512 1.06705 5.1593-1.211245 8.7577-.490694.7748-.3369852 1.856.343467 2.4149z"/><path d="m102.171 42.886c1.213 0 1.94-1.6226 1.231-2.7417-2.268-3.5823-1.232-8.6611-1.212-8.7565.469-2.1635-2.4742-2.9959-2.9481-.8333-.0593.271-1.4178 6.6957 1.6961 11.6135.297.4687.762.718 1.233.718z"/></g><path d="m52.3561 48.9417c0 .7423-.5151 1.2298-1.0189 1.2298-.5036 0-1.0188-.4874-1.0188-1.2298v-5.9135c0-.438.1457-.7227.3244-.8977.1842-.1803.4352-.2755.6944-.2755.2593 0 .5102.0952.6944.2755.1787.175.3245.4597.3245.8977z" stroke="#424242"/></svg>