<svg width="99" height="114" viewBox="0 0 99 114" fill="none" xmlns="http://www.w3.org/2000/svg">
<path d="M25.1057 51.8057C26.11 51.8057 26.9957 52.7162 26.9957 53.9371C26.9957 55.9222 28.0388 58.6262 29.3486 61.202C30.6694 63.7994 32.3052 66.3491 33.5738 68.0546C34.2585 68.9791 34.13 70.3432 33.3091 71.0878C32.9545 71.4072 32.536 71.5566 32.1278 71.5566C31.5982 71.5566 31.0585 71.3049 30.6767 70.795C30.2952 70.2808 28.4225 67.7138 26.6467 64.4375C24.8603 61.1418 23.2156 57.2059 23.2156 53.9371C23.2156 52.7162 24.1013 51.8057 25.1057 51.8057Z" fill="#2FA037" stroke="white" stroke-width="0.9"/>
<path d="M65.2559 68.0576L65.256 68.0575C66.5247 66.3481 68.1608 63.7945 69.4818 61.1956C70.7915 58.6188 71.8348 55.916 71.8348 53.9371C71.8348 52.7163 72.7205 51.8057 73.725 51.8057C74.7294 51.8057 75.6152 52.7163 75.6152 53.9371C75.6152 57.206 73.9704 61.1419 72.1839 64.4376C70.4082 67.7134 68.5357 70.2801 68.1538 70.7948C67.7717 71.3052 67.2339 71.5566 66.7046 71.5566C66.2936 71.5566 65.8755 71.4069 65.5237 71.0882C64.7014 70.3433 64.5719 68.9786 65.2559 68.0576Z" fill="#2FA037" stroke="white" stroke-width="0.9"/>
<path d="M47.7668 53.9371C47.7668 53.2827 47.9672 52.7023 48.277 52.2922C48.5866 51.8823 48.9924 51.6557 49.4168 51.6557C49.8411 51.6557 50.2468 51.8822 50.5564 52.2922C50.8663 52.7023 51.0667 53.2828 51.0668 53.9371C51.0668 53.9372 51.0668 53.9372 51.0668 53.9372V69.4252C51.0668 70.0796 50.8664 70.66 50.5566 71.0702C50.2469 71.4801 49.8412 71.7066 49.4168 71.7066C48.9924 71.7066 48.5866 71.4801 48.277 71.0702C47.9672 70.66 47.7668 70.0796 47.7668 69.4252V53.9371Z" fill="#2FA037" stroke="white" stroke-width="0.6"/>
<path d="M81.8105 60.0219C81.6936 60.077 81.5833 60.1422 81.4794 60.2199C81.2002 60.4203 80.9709 60.686 80.7999 60.9915C80.6268 61.2946 80.5099 61.6455 80.4623 62.0213C80.4428 62.1641 80.4363 62.307 80.4384 62.4523L81.8105 60.0219ZM81.8105 60.0219C89.0555 56.3261 93.7341 48.0428 93.7341 38.9024C93.7341 26.1691 84.7883 15.8109 73.7909 15.8109C73.4659 15.8109 73.1273 15.8453 72.789 15.8796C72.7865 15.8799 72.784 15.8802 72.7814 15.8804L81.8105 60.0219ZM69.3464 11.3772L69.4615 11.5326L69.6506 11.4919C71.097 11.1809 72.4774 10.9796 73.7909 10.9796C87.0259 10.9796 97.8658 23.4631 97.866 38.9024C97.866 49.4392 92.7384 59.0128 84.7178 63.7576L84.5706 63.8447V64.0158V102.84C84.5706 108.49 80.6098 113.008 75.8295 113.008H23.0113C20.6891 113.008 18.4995 111.962 16.8417 110.04L16.6145 110.236L16.8417 110.04C15.1848 108.119 14.2681 105.56 14.2702 102.828L14.3134 64.0536L14.3136 63.8818L14.1654 63.7947C6.11511 59.0624 0.966016 49.4743 0.966016 38.9024C0.966016 23.4631 11.8059 10.9796 25.0411 10.9793C26.3544 10.9793 27.7348 11.1809 29.1815 11.4917L29.3705 11.5323L29.4856 11.377C34.3186 4.85376 41.4593 0.716626 49.416 0.716626C57.3728 0.716626 64.5133 4.85376 69.3464 11.3772ZM19.5227 106.807L19.5229 106.807C20.4466 107.876 21.6846 108.477 23.0111 108.477H75.8293C78.5754 108.477 80.7386 105.904 80.7386 102.84V92.7824V92.4824H80.4386H18.4133H18.1137L18.1133 92.7821L18.1017 102.832C18.0995 104.327 18.6024 105.739 19.5227 106.807ZM81.9384 60.2933L81.9384 60.2935L81.9469 60.2892C89.3067 56.5347 94.0341 48.1384 94.0341 38.9024C94.0341 26.0462 84.9938 15.5109 73.7909 15.5109C73.4492 15.5109 73.0889 15.5475 72.7473 15.5823C72.641 15.5931 72.5365 15.6037 72.4349 15.613L71.9985 15.6528L72.1935 16.0452C74.4151 20.516 75.7069 25.6835 75.7069 31.2052C75.7069 32.5005 74.8103 33.471 73.7909 33.471C72.7715 33.471 71.8749 32.5005 71.8749 31.2052C71.8749 16.9357 61.8394 5.24798 49.416 5.24798C36.9927 5.24798 26.9569 16.9357 26.9569 31.2052C26.9569 32.5005 26.0603 33.471 25.0409 33.471C24.0215 33.471 23.1249 32.5005 23.1249 31.2052C23.1249 25.6835 24.4167 20.5158 26.6383 16.0452L26.8333 15.6528L26.3969 15.613C26.2953 15.6037 26.1908 15.5931 26.0845 15.5823C25.7429 15.5475 25.3826 15.5109 25.0409 15.5109C13.8383 15.5109 4.79776 26.046 4.79776 38.9024C4.79776 48.171 9.54483 56.5781 16.9333 60.3192L16.9333 60.3192L16.9398 60.3223C17.0433 60.3717 17.1444 60.4322 17.2406 60.502C17.4715 60.6703 17.6649 60.8927 17.8151 61.1534C17.9748 61.4318 18.0853 61.7542 18.128 62.1027L18.1281 62.1035C18.1434 62.2255 18.1493 62.3543 18.1474 62.4827L18.1474 62.4868L18.119 87.6505L18.1186 87.9509H18.419H80.4384H80.7384V87.6508L80.7384 62.4523L80.7384 62.448C80.7365 62.3144 80.7425 62.1869 80.7596 62.0619L80.7599 62.0589C80.8028 61.7206 80.9078 61.4076 81.0604 61.1403L81.0617 61.138C81.2132 60.8673 81.4141 60.636 81.6544 60.4637L81.6591 60.4601C81.7456 60.3954 81.8384 60.3404 81.9384 60.2933Z" fill="#424242" stroke="white" stroke-width="0.6"/>
</svg>
