<svg fill="none" height="113" viewBox="0 0 98 113" width="98" xmlns="http://www.w3.org/2000/svg" xmlns:xlink="http://www.w3.org/1999/xlink"><mask id="a" fill="#fff"><path d="m26.7797 53.5205c0-1.4268-1.0466-2.5814-2.34-2.5814-1.2935 0-2.3401 1.1546-2.3401 2.5814 0 6.7785 6.7778 16.0856 7.5502 17.1267.464.6202 1.1357.9428 1.812.9428.521 0 1.0466-.1917 1.483-.5849.9986-.9051 1.1425-2.5309.3244-3.6351-2.5087-3.3728-6.4895-10.1137-6.4895-13.8495z" fill="#fff"/></mask><mask id="b" fill="#fff"><path d="m73.0589 50.9391c-1.2935 0-2.3401 1.1546-2.3401 2.5814 0 3.7232-3.981 10.4716-6.4902 13.8521-.818 1.1016-.6719 2.7276.3269 3.6325.4342.3932.9598.5849 1.4831.5849.6764 0 1.3459-.3226 1.8099-.9428.7725-1.0411 7.5506-10.348 7.5506-17.1267 0-1.4268-1.0467-2.5814-2.3402-2.5814z" fill="#fff"/></mask><mask id="c" fill="#fff"><path d="m48.7508 50.9391c-1.0779 0-1.95 1.1546-1.95 2.5814v15.4881c0 1.4268.8721 2.5814 1.95 2.5814 1.0778 0 1.95-1.1546 1.95-2.5814v-15.4881c-.0002-1.4268-.8724-2.5814-1.95-2.5814z" fill="#fff"/></mask><mask id="d" fill="#fff"><path d="m73.1249 10.2629c-1.3428 0-2.7461.2057-4.2034.5191-4.8805-6.58729-12.1051-10.782-20.1715-10.782s-15.2912 4.19471-20.1715 10.7818c-1.4575-.3132-2.8608-.5191-4.2034-.5191-13.4406.0002-24.3751 12.6609-24.3751 28.2231 0 10.6636 5.19353 20.3577 13.3474 25.1509l-.0432 38.7743c-.0021 2.798.9369 5.429 2.6443 7.409 1.7095 1.982 3.9795 3.071 6.3968 3.071h52.8182c4.9857 0 9.0411-4.695 9.0411-10.468v-38.8238c8.1235-4.8057 13.2954-14.4849 13.2954-25.1134-.0002-15.5622-10.9347-28.2229-24.3751-28.2229zm6.6477 92.1601c0 2.942-2.0687 5.337-4.6093 5.337h-52.8182c-1.2313 0-2.3891-.556-3.2612-1.566-.87-1.009-1.3503-2.35-1.3482-3.778l.0116-10.0502h62.0253zm1.3719-42.8177c-.1169.0551-.2272.1203-.3311.198-.2792.2003-.5086.4661-.6795.7716-.1731.3031-.29.654-.3376 1.0297-.0195.1429-.026.2858-.0239.4311v25.1985h-62.0195l.0285-25.1636c.0021-.1403-.0044-.2832-.0216-.421-.0476-.3884-.171-.7492-.3507-1.0624-.1689-.2932-.3895-.5487-.6579-.7443-.1103-.08-.2273-.1503-.3484-.208-7.27299-3.6826-11.97106-11.9763-11.97106-21.1491 0-12.7335 8.94596-23.0915 19.94316-23.0915.4298 0 .8835.0601 1.3287.1008-2.2419 4.5115-3.5447 9.7249-3.5447 15.2935 0 1.4182.9912 2.5658 2.216 2.5658s2.216-1.1476 2.216-2.5658c0-14.1466 9.9412-25.65725 22.1591-25.65725s22.1589 11.51065 22.1589 25.65725c0 1.4182.9912 2.5658 2.216 2.5658s2.216-1.1476 2.216-2.5658c0-5.5686-1.3028-10.7818-3.5447-15.2935.4452-.0407.8989-.1008 1.3287-.1008 10.9974 0 19.9431 10.3582 19.9431 23.0915 0 9.1403-4.6785 17.4237-11.9235 21.1195z" fill="#fff"/></mask><g stroke="#fff"><g fill="#2fa037"><path d="m26.7797 53.5205c0-1.4268-1.0466-2.5814-2.34-2.5814-1.2935 0-2.3401 1.1546-2.3401 2.5814 0 6.7785 6.7778 16.0856 7.5502 17.1267.464.6202 1.1357.9428 1.812.9428.521 0 1.0466-.1917 1.483-.5849.9986-.9051 1.1425-2.5309.3244-3.6351-2.5087-3.3728-6.4895-10.1137-6.4895-13.8495z" mask="url(#a)" stroke-width="1.8"/><path d="m73.0589 50.9391c-1.2935 0-2.3401 1.1546-2.3401 2.5814 0 3.7232-3.981 10.4716-6.4902 13.8521-.818 1.1016-.6719 2.7276.3269 3.6325.4342.3932.9598.5849 1.4831.5849.6764 0 1.3459-.3226 1.8099-.9428.7725-1.0411 7.5506-10.348 7.5506-17.1267 0-1.4268-1.0467-2.5814-2.3402-2.5814z" mask="url(#b)" stroke-width="1.8"/><path d="m48.7508 50.9391c-1.0779 0-1.95 1.1546-1.95 2.5814v15.4881c0 1.4268.8721 2.5814 1.95 2.5814 1.0778 0 1.95-1.1546 1.95-2.5814v-15.4881c-.0002-1.4268-.8724-2.5814-1.95-2.5814z" mask="url(#c)" stroke-width="1.2"/></g><path d="m73.1249 10.2629c-1.3428 0-2.7461.2057-4.2034.5191-4.8805-6.58729-12.1051-10.782-20.1715-10.782s-15.2912 4.19471-20.1715 10.7818c-1.4575-.3132-2.8608-.5191-4.2034-.5191-13.4406.0002-24.3751 12.6609-24.3751 28.2231 0 10.6636 5.19353 20.3577 13.3474 25.1509l-.0432 38.7743c-.0021 2.798.9369 5.429 2.6443 7.409 1.7095 1.982 3.9795 3.071 6.3968 3.071h52.8182c4.9857 0 9.0411-4.695 9.0411-10.468v-38.8238c8.1235-4.8057 13.2954-14.4849 13.2954-25.1134-.0002-15.5622-10.9347-28.2229-24.3751-28.2229zm6.6477 92.1601c0 2.942-2.0687 5.337-4.6093 5.337h-52.8182c-1.2313 0-2.3891-.556-3.2612-1.566-.87-1.009-1.3503-2.35-1.3482-3.778l.0116-10.0502h62.0253zm1.3719-42.8177c-.1169.0551-.2272.1203-.3311.198-.2792.2003-.5086.4661-.6795.7716-.1731.3031-.29.654-.3376 1.0297-.0195.1429-.026.2858-.0239.4311v25.1985h-62.0195l.0285-25.1636c.0021-.1403-.0044-.2832-.0216-.421-.0476-.3884-.171-.7492-.3507-1.0624-.1689-.2932-.3895-.5487-.6579-.7443-.1103-.08-.2273-.1503-.3484-.208-7.27299-3.6826-11.97106-11.9763-11.97106-21.1491 0-12.7335 8.94596-23.0915 19.94316-23.0915.4298 0 .8835.0601 1.3287.1008-2.2419 4.5115-3.5447 9.7249-3.5447 15.2935 0 1.4182.9912 2.5658 2.216 2.5658s2.216-1.1476 2.216-2.5658c0-14.1466 9.9412-25.65725 22.1591-25.65725s22.1589 11.51065 22.1589 25.65725c0 1.4182.9912 2.5658 2.216 2.5658s2.216-1.1476 2.216-2.5658c0-5.5686-1.3028-10.7818-3.5447-15.2935.4452-.0407.8989-.1008 1.3287-.1008 10.9974 0 19.9431 10.3582 19.9431 23.0915 0 9.1403-4.6785 17.4237-11.9235 21.1195z" fill="#424242" mask="url(#d)" stroke-width="1.2"/></g></svg>