<svg width="107" height="108" viewBox="0 0 107 108" fill="none" xmlns="http://www.w3.org/2000/svg">
<path d="M58.0924 59.1427C58.0924 58.2265 57.3933 57.4838 56.5309 57.4838H50.4678C49.6054 57.4838 48.9062 58.2265 48.9062 59.1427C48.9062 60.0588 49.6054 60.8016 50.4678 60.8016H56.5309C57.3933 60.8016 58.0924 60.0588 58.0924 59.1427Z" fill="#36AC65"/>
<path d="M87.857 78.9103H81.7939C80.9316 78.9103 80.2324 79.653 80.2324 80.5691C80.2324 81.4853 80.9316 82.228 81.7939 82.228H87.857C88.7194 82.228 89.4185 81.4853 89.4185 80.5691C89.4185 79.653 88.7194 78.9103 87.857 78.9103Z" fill="#36AC65"/>
<path d="M72.9011 35.1996C65.6912 35.1996 58.9993 37.5988 53.4992 41.6837C47.9989 37.5988 41.3073 35.1996 34.0972 35.1996C30.1111 35.1996 26.2821 35.9335 22.7266 37.2794C22.7249 37.1394 22.7241 36.9989 22.7241 36.8585C22.7241 18.8694 36.5298 4.23433 53.4992 4.23433C69.4728 4.23433 82.6443 16.9292 84.1378 33.7635C84.2188 34.6756 84.9793 35.3451 85.8388 35.2593C86.6974 35.1735 87.3279 34.3644 87.2469 33.4523C86.4603 24.5847 82.6006 16.3758 76.3791 10.3385C70.1182 4.26265 61.9927 0.916626 53.4992 0.916626C34.8078 0.916626 19.601 17.04 19.601 36.8585C19.601 37.4523 19.6148 38.0449 19.6419 38.6339C8.15945 44.3965 0.199219 56.8014 0.199219 71.1414C0.199219 90.9599 15.406 107.083 34.0972 107.083C39.5051 107.083 44.6741 105.773 49.4605 103.188C50.2294 102.773 50.5357 101.774 50.1451 100.958C49.7545 100.141 48.8142 99.8155 48.0456 100.23C43.7014 102.576 39.0085 103.766 34.0972 103.766C17.128 103.766 3.32227 89.1305 3.32227 71.1414C3.32227 58.549 10.0882 47.5994 19.9679 42.1633C21.3818 52.3044 26.814 61.3597 35.0945 67.0461C35.8184 67.5433 36.7853 67.323 37.2536 66.5535C37.7218 65.7842 37.5142 64.7573 36.7899 64.2599C29.0177 58.9223 24.0095 50.3191 22.9394 40.7358C26.4005 39.3034 30.1634 38.5173 34.0972 38.5173C40.2919 38.5173 46.0655 40.4679 50.8994 43.8199C43.6233 50.4171 39.0031 60.2187 39.0031 71.1414C39.0031 90.9599 54.2096 107.083 72.9011 107.083C91.5925 107.083 106.799 90.9599 106.799 71.1414C106.799 51.323 91.5925 35.1996 72.9011 35.1996ZM72.9011 38.5173C76.8349 38.5173 80.5985 39.3038 84.0597 40.7362C82.8261 51.8656 76.4847 61.091 67.6354 65.8966C66.418 57.1082 62.1882 49.341 56.0991 43.8199C60.9329 40.4679 66.7066 38.5173 72.9011 38.5173ZM53.4992 45.8351C59.5525 51.0602 63.7024 58.6724 64.6608 67.3051C61.2003 68.7142 57.4359 69.4826 53.4992 69.4826C49.6425 69.4826 45.8929 68.7396 42.3412 67.2728C43.3062 58.6534 47.4532 51.0538 53.4992 45.8351ZM53.5105 96.4573C46.5679 90.4706 42.1261 81.3458 42.1261 71.1414C42.1261 71.0032 42.127 70.8665 42.1286 70.7285C45.7676 72.1042 49.5838 72.8003 53.4992 72.8003C57.4172 72.8003 61.2565 72.0885 64.8698 70.7259C64.8715 70.8639 64.8723 71.0032 64.8723 71.1414C64.8723 81.0382 60.7395 90.226 53.5105 96.4573ZM72.9011 103.766C66.7126 103.766 60.9442 101.819 56.1134 98.473C63.6847 91.6243 67.9956 81.7535 67.9956 71.1414C67.9956 70.55 67.9818 69.961 67.9552 69.3764C71.0224 67.8423 73.8805 65.8132 76.4289 63.3305C82.1782 57.7288 85.8977 50.2751 87.0303 42.1633C96.91 47.5992 103.676 58.549 103.676 71.1414C103.676 89.1305 89.8705 103.766 72.9011 103.766Z" fill="#424242"/>
<path d="M62.1335 20.5743C62.1335 19.6581 61.4343 18.9154 60.5719 18.9154H46.4248C45.5624 18.9154 44.8633 19.6581 44.8633 20.5743C44.8633 21.4904 45.5624 22.2331 46.4248 22.2331H60.5719C61.4343 22.2331 62.1335 21.4904 62.1335 20.5743Z" fill="#36AC65"/>
<path d="M50.4678 25.3435C49.6054 25.3435 48.9062 26.0863 48.9062 27.0025C48.9062 27.9187 49.6054 28.6614 50.4678 28.6614H56.5309C57.3933 28.6614 58.0924 27.9187 58.0924 27.0025C58.0924 26.0863 57.3933 25.3435 56.5309 25.3435H50.4678Z" fill="#36AC65"/>
<path d="M30.8076 74.1415C30.8076 73.2254 30.1085 72.4827 29.2461 72.4827H15.0986C14.2363 72.4827 13.5371 73.2254 13.5371 74.1415C13.5371 75.0575 14.2363 75.8002 15.0986 75.8002H29.2459C30.1085 75.8002 30.8076 75.0575 30.8076 74.1415Z" fill="#36AC65"/>
<path d="M91.8982 72.4827H77.751C76.8886 72.4827 76.1895 73.2254 76.1895 74.1415C76.1895 75.0575 76.8886 75.8002 77.751 75.8002H91.8982C92.7606 75.8002 93.4598 75.0575 93.4598 74.1415C93.4598 73.2254 92.7606 72.4827 91.8982 72.4827Z" fill="#36AC65"/>
<path d="M19.1416 78.9103C18.2792 78.9103 17.5801 79.653 17.5801 80.5691C17.5801 81.4853 18.2792 82.228 19.1416 82.228H25.2047C26.0671 82.228 26.7663 81.4853 26.7663 80.5691C26.7663 79.653 26.0671 78.9103 25.2047 78.9103H19.1416Z" fill="#36AC65"/>
</svg>
