<svg width="94" height="94" viewBox="0 0 94 94" fill="none" xmlns="http://www.w3.org/2000/svg">
<path d="M91.5811 89.9119C77.8508 91.3798 66.9618 85.5184 66.8532 85.4591C66.483 85.2561 66.0454 85.2012 65.6348 85.3103C65.4617 85.3551 48.1894 89.818 34.2793 86.8418C25.6075 84.9831 17.4273 79.0935 11.4546 74.7939C10.6521 74.216 9.89227 73.6691 9.17893 73.1656C8.20408 72.4786 6.65451 71.9065 5.28777 71.4023C4.67409 71.1762 3.83336 70.8663 3.65353 70.7572C3.49692 70.6394 3.4115 70.4653 3.4115 70.2674V66.6779C3.48868 63.8375 15.8418 20.1326 17.757 14.5724C17.8042 14.5066 17.9885 14.3781 18.1242 14.3159L42.5704 3.55242L50.4733 13.4715C50.863 13.9858 50.8262 14.7038 50.3871 15.1777L42.5779 23.6181C42.0668 24.1714 41.2066 24.2314 40.6724 23.8015L37.5148 20.9951C37.1454 20.6664 36.6194 20.5573 36.1248 20.6447C35.6303 20.73 35.1874 21.0702 34.9596 21.5022C34.6951 22.0028 32.3048 22.6176 29.8651 22.6349L29.0701 22.5576C28.4369 22.4846 27.8157 22.8047 27.504 23.3464C27.1923 23.8868 27.2448 24.555 27.6374 25.0455C28.3155 25.8907 28.8438 26.5697 29.1435 26.9591L30.7066 52.5741C29.7377 56.212 28.8498 57.2457 28.6295 57.4523C27.9783 57.651 27.5063 58.2368 27.5063 58.9296C27.5063 59.7849 28.2256 60.4784 29.1128 60.4784C30.9343 60.4784 32.4832 58.1704 33.7255 53.6649C46.502 44.4487 57.6524 53.1462 58.5269 53.8621C62.5844 57.7882 62.8362 60.3968 62.8444 60.5123C62.8639 61.3518 63.5757 62.0272 64.4509 62.0272C65.3381 62.0272 66.0574 61.3337 66.0574 60.4784C66.0574 60.1223 65.9241 57.0666 61.7661 52.6521C65.6865 48.0043 70.1516 45.3278 75.0679 44.7449C83.5425 43.7386 90.673 49.2338 90.7434 49.2887C91.4313 49.829 92.4421 49.7301 93.0026 49.0669C93.5623 48.4052 93.4611 47.4314 92.7755 46.8904C92.4443 46.6296 84.5571 40.5117 74.7089 41.6668C68.9528 42.3401 63.7855 45.3416 59.3309 50.594C55.717 48.2239 45.3518 42.8602 33.7592 49.8753L32.3213 26.3183C32.3071 26.064 32.2262 25.817 32.0883 25.6003C33.5255 25.4363 35.2376 25.0744 36.4792 24.287L38.5496 26.1255C40.4745 27.6844 43.2987 27.4908 44.9734 25.6805L52.7834 17.2401C54.2236 15.6841 54.3442 13.332 53.0442 11.6157L44.3387 0.688165C43.8846 0.117482 43.0806 -0.0761162 42.3973 0.222951L16.8091 11.4907C16.5416 11.6041 15.1846 12.2369 14.738 13.5314C13.8284 16.1638 0.199219 63.0226 0.199219 66.6728V70.2681C0.199219 71.4218 0.736473 72.4887 1.67236 73.1952C2.14068 73.5492 2.83978 73.8165 4.14058 74.2954C5.2016 74.6877 6.65451 75.2237 7.28243 75.6658C7.98828 76.1635 8.73984 76.7046 9.5326 77.2753C15.7384 81.7439 24.237 87.8625 33.5839 89.865C46.8879 92.7155 62.5065 89.269 65.8529 88.4563C68.0888 89.5695 76.2907 93.25 87.0276 93.25C88.6124 93.25 90.2526 93.1699 91.9363 92.9893C92.8182 92.8953 93.4529 92.1296 93.3555 91.2794C93.2573 90.4284 92.4601 89.8108 91.5811 89.9119Z" fill="#424242"/>
<path d="M83.7189 74.6097C83.6305 73.8345 82.9494 73.2313 82.1221 73.2313C81.235 73.2313 80.5156 73.9248 80.5156 74.7801C80.5156 75.8146 81.3076 79.3168 91.4951 80.9538C91.5843 80.9675 91.6742 80.9747 91.7611 80.9747C92.5322 80.9747 93.2125 80.438 93.3437 79.6809C93.489 78.8371 92.8978 78.0396 92.0234 77.8987C84.899 76.7537 83.8141 74.8155 83.7189 74.6097Z" fill="#424242"/>
<path d="M65.9813 20.8384H70.8758V25.2261C70.8758 26.0814 71.5951 26.7749 72.4823 26.7749H85.3322C86.2194 26.7749 86.9387 26.0814 86.9387 25.2261V20.8384H91.7583C92.3735 20.8384 92.9354 20.4996 93.2037 19.965C93.472 19.4304 93.4008 18.7955 93.0194 18.3295L80.1305 2.58666C79.5206 1.84188 78.2183 1.84188 77.6083 2.58666L64.7202 18.3302C64.3388 18.7955 64.2676 19.4312 64.5358 19.965C64.8041 20.4996 65.3653 20.8384 65.9813 20.8384ZM78.8694 6.04614L88.4441 17.7408H85.3322C84.445 17.7408 83.7257 18.4343 83.7257 19.2896V23.678H74.0881V19.2896C74.0881 18.4343 73.3687 17.7408 72.4815 17.7408H69.2947L78.8694 6.04614Z" fill="#36AC65"/>
<path d="M86.9386 29.8718C86.9386 29.0172 86.2193 28.3237 85.3321 28.3237H72.4815C71.5943 28.3237 70.875 29.0172 70.875 29.8718V34.5182C70.875 35.3735 71.5943 36.067 72.4815 36.067H85.3321C86.2193 36.067 86.9386 35.3735 86.9386 34.5182V29.8718ZM83.7256 32.9694H74.088V31.4206H83.7256V32.9694Z" fill="#36AC65"/>
<path d="M85.3334 37.6149H72.4835C71.5963 37.6149 70.877 38.3088 70.877 39.1647C70.877 40.0205 71.5963 40.7145 72.4835 40.7145H85.3334C86.2205 40.7145 86.9399 40.0205 86.9399 39.1647C86.9399 38.3088 86.2205 37.6149 85.3334 37.6149Z" fill="#36AC65"/>
<path d="M52.8711 82.5583C31.8313 86.9019 22.8299 73.0246 22.4567 72.433C21.9981 71.7013 21.012 71.4658 20.2545 71.905C19.4939 72.3456 19.2474 73.297 19.7037 74.0294C19.8101 74.1999 22.366 78.2451 27.8322 81.6908C31.5975 84.0644 37.3402 86.4822 45.1083 86.4822C47.6949 86.4822 50.5071 86.2142 53.544 85.5872C54.411 85.408 54.964 84.5845 54.7781 83.748C54.5923 82.9123 53.7351 82.377 52.8711 82.5583Z" fill="#424242"/>
</svg>
