<svg fill="none" height="60" viewBox="0 0 60 60" width="60" xmlns="http://www.w3.org/2000/svg"><path d="m59.1827 30c0 16.3011-12.9706 29.5-28.9512 29.5-15.9807 0-28.95123-13.1989-28.95123-29.5s12.97053-29.5 28.95123-29.5c15.9806 0 28.9512 13.1989 28.9512 29.5z" fill="#fff" stroke="#2fa037"/><g fill="#2fa037"><path d="m42.7225 21.7331.7623-.9135.7429.658c.1.0886.2273.1369.3584.1369.0137 0 .0275-.0005.0413-.0016.1453-.0113.2804-.0816.3755-.1955l1.1802-1.4142c.1978-.2371.1717-.5946-.0585-.7985l-4.059-3.5949c-.1106-.0979-.2544-.1471-.3998-.1353-.1453.0113-.2804.0817-.3754.1955l-1.1802 1.4141c-.1979.2372-.1717.5947.0585.7985l.7428.658-.8206.9833c-1.681-1.106-3.5939-1.8697-5.6455-2.1939v-1.711h1.8931c.8835 0 1.6023-.7405 1.6023-1.6508v-1.3175c0-.9102-.7188-1.6507-1.6023-1.6507h-8.2586c-.8836 0-1.6024.7405-1.6024 1.6507v1.3175c0 .9103.7188 1.6508 1.6024 1.6508h1.8932v1.711c-2.0921.3307-4.0397 1.1186-5.7445 2.2602l-.8759-1.0496.743-.658c.1105-.0979.1787-.237.1897-.3868.0109-.1497-.0363-.2978-.1313-.4117l-1.1802-1.4142c-.198-.237-.5449-.2641-.7752-.0601l-4.059 3.5949c-.1105.0979-.1787.237-.1897.3867-.0109.1498.0363.2979.1313.4118l1.1802 1.4142c.1087.1302.2625.197.417.197.1269 0 .2544-.045.3581-.1369l.7429-.6579.8346.9999c-.7222.776-1.3649 1.631-1.915 2.5508-.0185-.002-.0373-.003-.0565-.003h-3.4712c-.3036 0-.5497.2535-.5497.5663 0 .3127.2461.5662.5497.5662h2.9154c-.2894.592-.5421 1.2059-.7552 1.8389h-5.5538c-.3036 0-.5497.2535-.5497.5663 0 .3127.2461.5662.5497.5662h5.2201c-.1984.7849-.3362 1.5947-.4097 2.4234h-7.4233c-.30356 0-.54967.2535-.54967.5662 0 .3128.24611.5663.54967.5663h7.3641c-.0014.0846-.0031.1691-.0031.2541 0 .7365.0524 1.4606.1516 2.1692h-5.4128c-.3035 0-.5496.2536-.5496.5663s.2461.5662.5496.5662h5.6145c.1363.6285.3104 1.2424.5203 1.8389h-2.7411c-.3036 0-.5497.2535-.5497.5662s.2461.5663.5497.5663h3.191c2.3182 5.2185 7.4345 8.8532 13.3599 8.8532 3.0948 0 6.0548-.9803 8.56-2.8349.2464-.1825.3027-.5364.1256-.7903-.1774-.2541-.5207-.3118-.7672-.1293-2.3171 1.7154-5.0553 2.622-7.9184 2.622-7.4903 0-13.5841-6.2775-13.5841-13.9937s6.0938-13.9938 13.5841-13.9938c3.6259 0 6.9245 1.4711 9.3631 3.8643.005.0055.0105.0104.0157.0157 2.5897 2.5497 4.2052 6.141 4.2052 10.1138 0 3.7424-1.416 7.2597-3.9871 9.9037-.2149.221-.2152.5795-.0007.8009.2145.2212.5625.2216.7773.0006 2.7793-2.858 4.3099-6.6599 4.3099-10.7053 0-4.0988-1.5914-7.8212-4.1702-10.5481zm-.9568-4.8954 3.2254 2.8566-.4634.5553-3.2255-2.8566zm-.0204 2.4412.9059.8024-.7256.8695c-.2983-.2718-.6068-.532-.9259-.7785zm-11.967-4.7924v-2.354h.8877v2.354zm1.9871-2.354h.8877v2.354h-.8877zm1.987 2.354v-2.354h.8878v2.354zm3.0892-1.8358v1.3175c0 .2858-.2257.5183-.503.5183h-.599v-2.354h.599c.2773 0 .503.2325.503.5182zm-9.2647 1.3175v-1.3175c0-.2857.2257-.5182.5031-.5182h.599v2.354h-.599c-.2774 0-.5031-.2325-.5031-.5183zm-7.8402 6.2815-.4635-.5553 3.2254-2.8566.4635.5553-.7428.6579-1.7397 1.5407zm1.8929-.183.8894-.7878.8069.9668c-.3171.249-.6243.5108-.9205.785l-.7923-.9493zm9.4428-2.8669v-1.5808h2.2737v1.5809c-.3752-.0298-.7544-.045-1.1369-.045s-.7615.0152-1.1368.0449z"/><path d="m27.606 21.9649c-.1407-.2772-.4728-.3844-.7418-.2396-3.3419 1.7995-5.6275 5.1707-6.1141 9.0178-.8234 6.5094 3.6474 12.4953 9.9662 13.3435.5048.0678 1.0054.1007 1.5014.1007 5.7129-.0006 10.6937-4.3782 11.4513-10.3676.3989-3.1533-.4181-6.2778-2.3005-8.7981s-4.6048-4.1346-7.6658-4.5455c-1.4934-.2005-2.9827-.1038-4.4269.2871-.2936.0795-.4691.3892-.392.6916.0772.3025.3779.4831.6713.4038.6917-.1872 1.3953-.2991 2.1047-.3366v1.4878c0 .3127.246.5662.5497.5662.3036 0 .5497-.2535.5497-.5662v-1.4864c.2668.0148.534.0398.8015.0756 2.1407.2874 4.098 1.2257 5.6633 2.6898l-.9955 1.0254c-.2147.2212-.2147.5796-.0001.8008.1074.1106.248.1659.3888.1659.1406 0 .2813-.0553.3886-.1659l.9927-1.0226c.1726.1992.3391.4058.4988.6196 1.3143 1.7597 2.0539 3.8451 2.1577 6.0166h-1.3635c-.3036 0-.5497.2536-.5497.5663s.2461.5663.5497.5663h1.3605c-.0145.2701-.0388.5409-.0731.812-.2832 2.2385-1.2186 4.2278-2.5828 5.7924l-.9417-.9702c-.2147-.2211-.5627-.2211-.7774 0-.2147.2212-.2147.5797 0 .8008l.9427.9712c-1.7313 1.6104-3.9732 2.6211-6.3919 2.7677v-1.3843c0-.3127-.246-.5663-.5496-.5663-.3037 0-.5497.2536-.5497.5663v1.3913c-.2886-.0139-.5787-.0395-.8701-.0787-2.1491-.2885-4.0618-1.2339-5.5728-2.6142l.9735-1.003c.2147-.2212.2147-.5796 0-.8008-.2146-.2211-.5627-.2211-.7773 0l-.9791 1.0086c-1.5868-1.7872-2.5848-4.112-2.7313-6.6222h1.4248c.3036 0 .5497-.2536.5497-.5663s-.2461-.5663-.5497-.5663h-1.4329c.0134-.3017.0383-.6052.0769-.91.2752-2.1752 1.1861-4.1824 2.5687-5.7796l1.0244 1.0553c.1073.1106.248.1659.3887.1659.1406 0 .2813-.0553.3886-.1659.2147-.2212.2147-.5797 0-.8008l-1.0272-1.0582c.6548-.613 1.3884-1.1454 2.19-1.5771.2691-.1446.3732-.4868.2326-.7639z"/><path d="m32.2093 27.0872c-.3036 0-.5496.2535-.5496.5662v3.3636c-.4687.2172-.7964.7017-.7964 1.2645 0 .7646.6038 1.3867 1.346 1.3867.2035 0 .3958-.0481.5689-.1317l3.6672 3.7778c.1074.1107.248.1659.3887.1659s.2814-.0552.3888-.1659c.2146-.2211.2146-.5797 0-.8007l-3.724-3.8365c.0363-.1255.0565-.2581.0565-.3956 0-.5628-.3277-1.0473-.7963-1.2644v-3.3636c-.0001-.3128-.2462-.5663-.5498-.5663zm-.2467 5.1943c0-.1402.1107-.2542.2467-.2542s.2466.114.2466.2542c0 .1401-.1106.2541-.2466.2541-.1361 0-.2467-.114-.2467-.2541z"/></g></svg>