<svg fill="none" height="12" viewBox="0 0 12 12" width="12" xmlns="http://www.w3.org/2000/svg"><path d="m11.3475.235623c-.5355-.3025726-1.1327.28096-1.48278.626757-.80312.82127-1.48271 1.77221-2.24472 2.6367-.84434.95094-1.6269 1.90189-2.49184 2.83125-.49425.5187-1.02969 1.08062-1.35919 1.72899-.74137-.75647-1.37978-1.57774-2.20353-2.24768-.597217-.47548-1.585717-.82127-1.56512329.32418.04118749 1.49129 1.29740329 3.0906 2.22412329 4.10638.39128.4322.90613.8861 1.50335.9077.72078.0432 1.46215-.8645 1.89462-1.3616.762-.86449 1.37981-1.83708 2.07997-2.72315.90612-1.16707 1.83284-2.31255 2.71842-3.50123.556-.73482 2.3065-2.55029.9267-3.328297zm-10.441092 5.813747c-.020594 0-.041187 0-.082375.02158-.082375-.02158-.144156-.04323-.226531-.08645.061781-.04323.16475-.02161.308906.06487z" fill="#fff"/></svg>