<svg fill="none" height="64" viewBox="0 0 60 64" width="60" xmlns="http://www.w3.org/2000/svg" xmlns:xlink="http://www.w3.org/1999/xlink"><clipPath id="a"><path d="m14 12h36v36h-36z"/></clipPath><path d="m59.1827 30c0 16.3011-12.9706 29.5-28.9512 29.5-15.9807 0-28.95123-13.1989-28.95123-29.5s12.97053-29.5 28.95123-29.5c15.9806 0 28.9512 13.1989 28.9512 29.5z" fill="#fff" stroke="#2fa037"/><g clip-path="url(#a)" fill="#2fa037"><path d="m34.2968 29.5247h-4.0548c-.6971 0-.6982 1.0546 0 1.0546h4.0548c.697 0 .6981-1.0546 0-1.0546z"/><path d="m34.2968 32.0911h-4.0548c-.6971 0-.6982 1.0547 0 1.0547h4.0548c.697 0 .6981-1.0547 0-1.0547z"/><path d="m15.0547 31.1547v-13.4251c0-.0576.047-.1046.1046-.1046h6.5998v7.4166c0 .8888 1.0261 1.3826 1.7207.8319l2.1146-1.6754c.0025-.0019.0061-.0019.0085-.0003l2.1149 1.676c.6949.5502 1.7207.0569 1.7207-.8322v-7.4166h7.0741c.0574 0 .1044.047.1044.1046v1.8301c0 .6971 1.0547.6982 1.0547 0v-1.8301c0-.6394-.5199-1.1593-1.1591-1.1593h-21.3533c-.6394 0-1.1593.5199-1.1593 1.1593v13.4251c0 .697 1.0547.6981 1.0547 0zm13.33-6.1101c-.0138.0157.0535.0456-2.1267-1.6732-.3881-.3076-.9303-.3076-1.3184 0l-2.1165 1.6782c-.0173-.0006-.0049-2.4786-.0093-7.4246h5.5701z"/><path d="m20.6317 38.043c-.9561 0-1.7342.7778-1.7342 1.7342 0 .9563.7778 1.7342 1.7342 1.7342.9563 0 1.7341-.7779 1.7341-1.7342 0-.9564-.7778-1.7342-1.7341-1.7342zm0 2.4137c-.8993 0-.8982-1.359 0-1.359.8995 0 .8984 1.359 0 1.359z"/><path d="m39.1625 32.7366h4.9601c.3516 0 .677-.1903.8495-.4966.1725-.3062.1665-.6831-.0156-.9838l-1.7993-2.9699c-.1758-.2895-.4952-.4696-.8339-.4696h-3.1608c-.5375 0-.975.4375-.975.975v2.9699c0 .5375.4375.975.975.975zm.0797-3.8653h3.0361l1.7028 2.8106h-4.7389z"/><path d="m48.8723 31.136-1.8383-.501c-.0083-.0022-.0162-.0044-.0248-.006-.1043-.0231-.1936-.0854-.2513-.1755l-2.6306-4.1026c-.2692-.4197-.7276-.6702-1.2261-.6702h-5.2295v-4.0116c0-.6971-1.0547-.6985-1.0547 0v13.122h-21.5623v-1.5271c0-.697-1.0547-.6981-1.0547 0v5.5701c0 .8108.6597 1.4705 1.4705 1.4705h1.4947c.2568 1.7938 1.8034 3.1773 3.667 3.1773 1.8638 0 3.4104-1.3835 3.6672-3.1773h13.9752c.2568 1.7938 1.8034 3.1773 3.6672 3.1773 1.8636 0 3.4104-1.3835 3.667-3.1773h2.9347c.8031 0 1.4565-.6534 1.4565-1.4565v-6.2932c0-.6839-.4631-1.2654-1.1277-1.4189zm-5.9711-4.4006c.1376 0 .2639.069.3384.1849l2.6306 4.1025c.2066.3225.5249.5466.8973.6328l1.8383.501c.0083.0022.0165.0041.0248.0061.1853.0409.315.2024.315.3922v4.3926h-1.2346c-.8177 0-1.4832.6655-1.4832 1.4834v.819h-.6188c-.2568-1.7937-1.8034-3.1772-3.6672-3.1772-1.8636 0-3.4102 1.3832-3.667 3.1772h-.6028v-12.5145zm-27.8465 12.0987v-2.9883h21.5623v3.4041h-12.3176c-.2568-1.7937-1.8034-3.1772-3.6672-3.1772-1.8636 0-3.4105 1.3832-3.667 3.1772h-1.4947c-.2293 0-.4158-.1864-.4158-.4158zm5.5775 3.5928c-1.4609 0-2.6499-1.1884-2.6499-2.6496s1.1887-2.6499 2.6499-2.6499 2.6499 1.1887 2.6499 2.6499-1.1887 2.6496-2.6499 2.6496zm21.3096 0c-1.4612 0-2.6499-1.1884-2.6499-2.6496s1.1887-2.6499 2.6499-2.6499 2.6499 1.1887 2.6499 2.6499-1.1887 2.6496-2.6499 2.6496zm6.6017-3.177h-1.261v-.819c0-.2362.1923-.4287.4285-.4287h1.2343v.8459c0 .2217-.1802.4018-.4018.4018z"/><path d="m41.9412 38.043c-.9563 0-1.7342.7778-1.7342 1.7342 0 .9563.7779 1.7342 1.7342 1.7342.9564 0 1.7342-.7779 1.7342-1.7342 0-.9564-.7778-1.7342-1.7342-1.7342zm0 2.4137c-.8995 0-.8984-1.359 0-1.359.8995 0 .8984 1.359 0 1.359z"/></g></svg>