<svg fill="none" height="60" viewBox="0 0 60 60" width="60" xmlns="http://www.w3.org/2000/svg"><g fill="#2fa037"><path d="m14.1063 18.6411h-1.1053v1.2136h1.1053z"/><path d="m45.6071 35.0195h-32.0544c-.3051 0-.5527.2712-.5527.6068 0 7.0256 5.2061 12.7419 11.6059 12.7419h9.948c6.3993 0 11.6059-5.7163 11.6059-12.7419 0-.3356-.247-.6068-.5527-.6068zm-11.0532 12.1351h-9.948c-5.6045 0-10.1977-4.8456-10.4862-10.9216h30.9204c-.2884 6.076-4.8816 10.9216-10.4862 10.9216z"/><path d="m41.1878 20.4611c0-.0443-.0005-.0886-.0044-.156-.0851-1.0059-.7151-1.8324-1.5469-2.1424l.6256-.6868c1.0849-1.1668 1.1938-3.0332.2443-4.3511-1.0169-1.3566-2.8495-1.5496-4.0848-.4338-.0702.0637-.1381.1311-.2061.2057l-.6798.7573c-.2852-.9084-1.0395-1.5952-1.9691-1.6899-1.2242-.0733-2.2604.9581-2.3261 2.2942-.0022.0443-.0028.0886-.0028.1322v.9302c-.325-.2069-.7014-.3258-1.1031-.3265-.0398 0-.0807.0012-.1421.0049-1.1815.1207-2.0907 1.2353-2.0708 2.5277v.8252c-.3316-.2106-.7096-.3234-1.1031-.3241-.0397 0-.0801.0013-.1414.0049-1.1822.1207-2.0913 1.2354-2.0714 2.5278v8.9982c0 .3355.2476.6067.5527.6067h9.3952c1.2192 0 2.2107-1.0885 2.2101-2.4258 0-.4417-.1078-.8561-.2968-1.2135h.7467c1.1871.0358 2.2024-.9769 2.3134-2.2978.0238-.4939-.089-.9611-.3022-1.3579.4962-.0606.9555-.3015 1.3136-.6935.4177-.4575.6488-1.0667.6493-1.7159zm-1.4298.8567c-.2088.2281-.4857.3538-.7814.3538-.0006 0-.0011 0-.0017 0h-1.658c-.3056 0-.5526.2718-.5526.6067 0 .335.247.6068.5526.6068l.0609.0019c.609.0357 1.0777.6085 1.0467 1.2529-.0563.6686-.5731 1.1862-1.2015 1.1722h-2.6693c-.3057 0-.5527.2719-.5527.6068s.247.6068.5527.6068c.6096 0 1.1053.5442 1.1053 1.2135s-.4957 1.2136-1.1053 1.2136h-8.8427v-8.4025c-.0105-.6717.4593-1.2463 1.0468-1.307l.0602-.0019c.6085.0006 1.1031.5443 1.1037 1.2117v.0043c0 .3349.247.6068.5521.6068h.0005c.3051 0 .5521-.2713.5527-.6062v-.0005-2.941c-.0105-.6717.4593-1.2463 1.0468-1.307l.0597-.0019c.609.0012 1.1037.5449 1.1042 1.2129v.0037c0 .3349.2471.6067.5521.6067h.0006c.3051 0 .5521-.2712.5527-.6061v-.0006-3.0338l.0017-.0673c.032-.6681.5416-1.1825 1.1407-1.1492.6101.0625 1.0793.6371 1.0677 1.3203v.5036c0 .2457.1355.4678.3432.5612.2062.0935.446.0401.603-.1358l1.4993-1.6705c.0409-.0443.0829-.0861.1266-.1255.7649-.6905 1.8984-.5704 2.5218.2596.5902.8204.5222 1.9902-.1619 2.7262l-1.4535 1.5958c-.1581.1735-.2056.4344-.12.6614.0851.2263.2874.3743.5107.3743h.4587.0292c.6036 0 1.1164.511 1.1706 1.1492l.0016.0668c-.0006.324-.1155.6285-.3245.8573z"/><path d="m36.9264 15.7797-15.4743 16.9889.7816.858 15.4743-16.9889z"/><path d="m34.5526 16.8203h-1.1053v3.0338h1.1053z"/><path d="m31.2372 19.854h-1.1054v3.6406h1.1054z"/><path d="m27.9208 22.8818h-1.1054v4.2473h1.1054z"/><path d="m36.7633 19.2473h-2.7633v1.2135h2.7633z"/><path d="m34.0006 22.8818h-3.316v1.2135h3.316z"/><path d="m31.2368 26.5225h-3.8686v1.2135h3.8686z"/><path d="m23.3151 14.7672c-.0005-.0012-.0017-.0024-.0022-.0036-.7798-1.2821-2.3648-1.6304-3.5321-.7743-.0364.0261-.0724.054-.1132.0874l-.199.1663-.1912-.1511c-1.0114-1.0357-2.6014-.9938-3.5642.1031-.4713.5364-.7245 1.2427-.7118 1.9884s.2885 1.441.7766 1.9579c.142.1505.3.2828.4702.3932l.4654.3993v.3106c0 1.6729 1.2396 3.0338 2.7633 3.0338s2.7634-1.3616 2.7628-3.0343v-.3107l.4891-.4193c1.0583-.8816 1.3153-2.5277.5863-3.7467zm-1.2606 2.7856-.7074.6067c-.1338.1147-.2123.2913-.2123.4782v.6067c0 1.0036-.7438 1.8203-1.6579 1.8203s-1.658-.8167-1.658-1.8203v-.6067c0-.1869-.0779-.3635-.2122-.4782l-.7075-.6067c-.0209-.0182-.0436-.0346-.0668-.0492-.1039-.0649-.2001-.1437-.2863-.2354-.2763-.2925-.4322-.6856-.4394-1.1067s.136-.8203.4024-1.1238c.2813-.3203.6576-.4817 1.0345-.4817.3592 0 .719.1462.9976.4417.0188.0194.0387.0383.0603.0552l.5526.4369c.1968.1559.4637.1523.6572-.0091l.5825-.4811c.3206-.2355.7046-.318 1.0827-.236.3769.0824.7024.3209.9163.6716.4101.6881.2641 1.6152-.3383 2.1176z"/><path d="m26.2626 12.5669h-1.1054v1.2135h1.1054z"/><path d="m29.5789 31.9832h-1.1053v1.2135h1.1053z"/><path d="m42.8438 15.604v1.2135c.6096 0 1.1053.5443 1.1053 1.2135s-.4957 1.2135-1.1053 1.2135v1.2135c1.2191 0 2.2106-1.0885 2.2106-2.427s-.9915-2.427-2.2106-2.427z"/><path d="m15.2098 21.0674h-1.1053v1.2135h1.1053z"/><path d="m34.5534 31.3789c-1.2191 0-2.2106 1.0885-2.2106 2.427h1.1053c0-.6693.4958-1.2135 1.1053-1.2135.6096 0 1.1054.5442 1.1054 1.2135h1.1053c0-1.3385-.9915-2.427-2.2107-2.427z"/><path d="m19.6319 25.9181h-.0696c-.2465-1.0454-1.1125-1.8202-2.141-1.8202s-1.8951.7748-2.141 1.8202h-.0697c-1.2191 0-2.2106 1.0886-2.2106 2.427 0 1.3385.9915 2.4271 2.2106 2.4271h4.4213c1.2192 0 2.2107-1.0886 2.2107-2.4271 0-1.3384-.9915-2.427-2.2107-2.427zm0 3.6412h-4.4213c-.6096 0-1.1054-.5443-1.1054-1.2135 0-.6693.4958-1.2136 1.1054-1.2136h.5527c.305 0 .5526-.2718.5526-.6067 0-.6693.4958-1.2135 1.1054-1.2135s1.1054.5443 1.1054 1.2135c0 .3349.2476.6067.5526.6067h.5527c.6096 0 1.1054.5443 1.1054 1.2136-.0002.6693-.4959 1.2135-1.1055 1.2135z"/><path d="m18.527 29.5588h-2.2106c-.3051 0-.5527.2719-.5527.6068v2.427c0 .3356.2476.6068.5527.6068h2.2106c.3051 0 .5527-.2712.5527-.6068v-2.427c0-.3349-.2476-.6068-.5527-.6068zm-.5527 2.4271h-1.1053v-1.2135h1.1054v1.2135z"/><path d="m42.2908 27.7383c-.9141 0-1.658.8167-1.658 1.8202 0 1.0036.7439 1.8203 1.658 1.8203s1.658-.8167 1.658-1.8203c0-1.0035-.7439-1.8202-1.658-1.8202zm0 2.4276c-.3051 0-.5527-.2724-.5527-.6068s.2476-.6068.5527-.6068c.305 0 .5527.2719.5527.6068 0 .335-.2477.6068-.5527.6068z"/><path d="m42.2915 25.3115c-2.1328 0-3.8686 1.9052-3.8686 4.2473 0 2.342 1.7358 4.2472 3.8686 4.2472 2.1327 0 3.8686-1.9052 3.8686-4.2472 0-2.3421-1.7359-4.2473-3.8686-4.2473zm0 7.2816c-1.5237 0-2.7634-1.3615-2.7634-3.0338 0-1.6728 1.2397-3.0337 2.7634-3.0337s2.7633 1.3609 2.7633 3.0337c0 1.6729-1.2396 3.0338-2.7633 3.0338z"/></g><circle cx="30" cy="30" r="29.5" stroke="#2fa037"/></svg>