<svg fill="none" height="60" viewBox="0 0 60 60" width="60" xmlns="http://www.w3.org/2000/svg"><path d="m59.1095 30c0 16.3011-12.9706 29.5-28.9512 29.5-15.9807 0-28.95127-13.1989-28.95127-29.5s12.97057-29.5 28.95127-29.5c15.9806 0 28.9512 13.1989 28.9512 29.5z" fill="#fff" stroke="#2fa037"/><g fill="#2fa037"><path d="m23.4857 27.7522c.2485-.2152.2801-.5975.0706-.8538-.2095-.2553-.5809-.2879-.8288-.0718-.0612.0522-.1244.1038-.1884.1531-2.3686 1.7999-5.7782.0809-5.7782-3.0012 0-3.6135 4.4801-5.1012 6.5432-2.2235.746 1.0414.8872 2.3514.4918 3.4843-.1095.3152.0501.6623.3552.7752.3068.1128.643-.051.7526-.3659.6395-1.8375.1904-3.925-1.2563-5.3103-3.03-2.9097-8.0634-.699-8.0634 3.6402 0 4.2364 4.8304 6.4687 7.9017 3.7737z"/><path d="m45.1502 19.202h-18.9558c-.1816-.2342-.378-.4591-.5891-.6729-1.3357-1.356-3.0787-2.1289-4.9378-2.1992v-1.9155c0-.7796-.6156-1.4144-1.373-1.4144h-.781c-.3045 0-.5515.2545-.5515.5682s.247.5682.5515.5682h.781c.1492 0 .2698.1249.2698.278v1.9556c-1.9316.2202-3.696 1.2142-4.9471 2.7948-.775-.1419-1.4086-.6618-1.7401-1.3311 0 0 0 0 0-.0009-.863-1.7032.3785-3.6964 2.1738-3.6964h1.2563c.3043 0 .5516-.2545.5516-.5682s-.2473-.5682-.5516-.5682h-1.2563c-2.0623 0-3.6433 1.8032-3.5403 3.8207-.0008.0014-.0008.0029 0 .0047-.0045.0375-.0031 23.3354-.0031 23.3732 0 2.2306 1.7615 4.045 3.926 4.045h21.7564v1.6864c0 .7805.6165 1.4147 1.373 1.4147h6.7043c1.9143 0 3.5435-1.5906 3.5435-3.6694v-20.7027c0-2.0788-1.6417-3.7706-3.6605-3.7706zm-11.4241 1.1365h11.4241c1.1613 0 2.144.8013 2.4543 1.8946h-13.8784zm-18.5767.0035c.0009 0 .0009-.0006.0009-.0006.2743-.4152.5942-.7972.9509-1.1364h.0008c4.0836-3.901 10.6144-.8427 10.6144 4.7768 0 2.2198-1.081 4.2669-2.8917 5.476-.3612.2416-.6626.5688-.87.9477-2.6729 4.8632-2.4742 4.5557-2.569 4.5557-.0947 0 .0999.2999-2.568-4.5557-.2081-.3789-.5089-.7061-.8692-.9471-2.9979-2.0011-3.7874-6.1076-1.7991-9.1164zm-2.5387-1.0054c.3352.302.8006.6767 1.3371.8245-1.938 3.4389-1.0036 7.9785 2.4004 10.2514.4323.2882.2858.1463 2.9808 5.0503.4647.8462 1.6482.8477 2.1138 0 2.6887-4.8923 2.5453-4.7609 2.9822-5.0512 3.3297-2.2236 4.3073-6.6497 2.5034-10.0734h2.5564v5.6323c0 .5222.4121.9471.9193.9471h3.0519v2.9926h-7.2681c-.5072 0-.9193.4246-.9193.9471v2.7229c0 .5114.3956.947.9278.947.481-.0046 1.3172-.0117 1.8668-.0102v2.7176c0 .1739-.1372.3152-.306.3152h-15.1465zm35.0959 24.3587c0 1.3815-1.0909 2.513-2.4394 2.513h-6.7043c-.1483 0-.2698-.1243-.2698-.2783 0-.8749 0-3.5524 0-4.5434 0-.3137-.2471-.5682-.5516-.5682-.3046 0-.5516.2545-.5516.5682v1.7205h-21.7564c-.9105 0-1.7211-.4462-2.2374-1.1379h10.8008c.3051 0 .5516-.2545.5516-.5682 0-.3134-.2465-.5682-.5516-.5682h-11.3185c-.0874-.4052-.0677-.5328-.0677-2.1462h15.1465c.777 0 1.4091-.6512 1.4091-1.4517v-2.9064c0-.5184-.4095-.9433-.9127-.9471-.4804-.0035-1.3223.0027-1.8819.0079v-2.3426h7.2682c.5069 0 .9193-.4249.9193-.947v-3.3715c0-.5222-.4124-.9471-.9193-.9471h-3.0519v-5.4426h2.035v2.4628c0 .3141.2467.5683.5516.5683h14.4931c-.2067 1.1886-1.2156 2.0676-2.4005 2.0676h-6.7043c-.7574 0-1.373.6348-1.373 1.4153v6.5556h-4.1992c-.5069 0-.9193.4251-.9193.947v6.4777h-5.8682c-.3045 0-.5515.2548-.5515.5682 0 .3137.247.5682.5515.5682h6.0521c.5066 0 .9193-.4248.9193-.947v-6.4777h4.0153v4.564c0 .3137.247.5682.5516.5682.3045 0 .5516-.2545.5516-.5682v-12.256c0-.154.1206-.2789.2698-.2789h6.7043c.9384 0 1.8011-.3797 2.4394-1.0048z"/></g></svg>