<svg fill="none" height="60" viewBox="0 0 60 60" width="60" xmlns="http://www.w3.org/2000/svg"><path d="m59.1642 30c0 16.3011-12.9706 29.5-28.9513 29.5-15.9806 0-28.95118-13.1989-28.95118-29.5s12.97058-29.5 28.95118-29.5c15.9807 0 28.9513 13.1989 28.9513 29.5z" fill="#fff" stroke="#2fa037"/><path d="m47.9271 46.6682-3.9216-9.7354c-.0007-.0017-.0013-.0034-.002-.0051l-1.1802-2.9297c-.0803-.1992-.2686-.329-.4774-.329h-10.605v-7.2833l8.6475-3.8388c.2624-.1165.3837-.4307.271-.7018-.1128-.2712-.4168-.3964-.6793-.28l-8.2391 3.6576v-10.58l11.9165 5.29-1.7708.7861c-.2625.1165-.3838.4307-.271.7018.1127.2712.4169.3965.6793.28l2.8766-1.277c.1899-.0843.313-.2774.313-.4909 0-.2136-.1231-.4067-.313-.4909l-13.4307-5.9622v-.9467c0-.8452-.6655-1.5329-1.4837-1.5329h-.0136c-.8181 0-1.4837.6877-1.4837 1.5329v21.1361h-10.5784c-.2088 0-.3971.1298-.4774.329l-2.168 5.3821c-.1098.2724.0151.5851.2787.6985.2637.1135.5664-.0155.6761-.2879l.4646-1.1533c.52-.0105 1.5372-.0786 2.732-.4096 2.1702-.6011 3.935-1.8059 5.1247-3.4902h3.9478v3.5535c-2.0424.297-3.3363 1.1559-3.3363 2.2472 0 .7179.564 1.3507 1.588 1.7819.877.3693 2.0318.5726 3.2518.5726s2.3748-.2034 3.2517-.5726c1.0241-.4312 1.5881-1.064 1.5881-1.7819 0-1.0977-1.3041-1.9581-3.3624-2.2511v-1.2169c2.7952.2887 5.0269 1.3816 5.6578 2.708.0085.0225.0185.0444.03.0658.0979.2259.1497.4582.1497.6942 0 1.2288-1.4638 2.4352-3.7294 3.0734-.2755.0775-.438.3713-.3629.6559.0626.2377.2711.3939.4985.3939.0451 0 .0908-.0061.1364-.0189 2.7706-.7805 4.4916-2.3531 4.4916-4.1043 0-.2747-.0416-.5432-.1209-.804.6277-.5524 2.4082-1.9265 4.6954-2.0524l1.3743 3.4118c-.0781.1298-.2021.3192-.3829.5492-.3464.4407-.9667 1.1114-1.9543 1.8037-.2364.1657-.2979.498-.1376.7421.1.1523.2627.2344.4284.2344.0999 0 .2009-.0299.2899-.0922 1.0907-.7646 1.7943-1.5185 2.2239-2.0768l1.6454 4.085h-7.9912c.7956-.262 1.5449-.5635 2.2429-.9056.258-.1264.3679-.4451.2455-.7117s-.4307-.3801-.6888-.2537c-1.9427.9523-4.3111 1.5817-7.0395 1.871h-19.5901l.9053-2.2474c.5001.1817 1.3425.4295 2.4036.5192.2446.0206.5084.0332.7888.0332 1.4466 0 3.3314-.3345 5.2539-1.6093 1.4679 1.2811 4.0544 2.1154 7.0588 2.1154.2856 0 .5171-.2392.5171-.5343 0-.295-.2315-.5343-.5171-.5343-2.0128 0-3.8969-.4038-5.3054-1.1372-1.2771-.6648-2.0096-1.5419-2.0096-2.4061 0-1.1131 1.2094-2.222 3.1561-2.8941.2709-.0935.4171-.3962.3265-.6761-.0905-.2798-.3833-.4308-.6543-.3374-2.4186.835-3.8625 2.2958-3.8625 3.9076 0 .605.2007 1.1793.5681 1.7042-1.5963 1.015-3.3409 1.4547-5.1946 1.3068-.9331-.0743-1.6829-.2886-2.131-.4467l.5384-1.3365c.1097-.2724-.0151-.5852-.2787-.6986-.2636-.1133-.5664.0155-.6761.288l-2.14 5.3127c-.0665.1648-.0488.3531.0471.5017.096.1486.2574.2378.4302.2378h34.372c.1729 0 .3343-.0892.4302-.2378.096-.1486.1137-.3369.0473-.5017zm-28.476-9.4814c-.8124.2279-1.5427.3217-2.056.3593l1.1313-2.8086h4.9575c-1.0152 1.16-2.3672 1.9821-4.0328 2.4493zm10.343-24.6539c0-.2561.2016-.4644.4495-.4644h.0136c.2479 0 .4495.2083.4495.4644v27.3426c0 .256-.2016.4643-.4495.4643h-.0136c-.2479 0-.4495-.2083-.4495-.4643zm4.2749 28.0054c0 .4365-1.3432 1.2859-3.8056 1.2859s-3.8056-.8494-3.8056-1.2859c0-.3497.8142-.9185 2.302-1.1659v.5031c0 .8453.6655 1.533 1.4837 1.533h.0137c.8181 0 1.4837-.6877 1.4837-1.533v-.5075c1.5046.2447 2.3281.8172 2.3281 1.1703zm3.9293-1.7733c-1.0473-1.4341-3.3505-2.492-6.2574-2.7685v-1.259h10.2601l.7679 1.9064c-2.2439.2335-3.9711 1.449-4.7706 2.1211z" fill="#2fa037"/></svg>