<svg fill="none" height="60" viewBox="0 0 60 60" width="60" xmlns="http://www.w3.org/2000/svg"><g fill="#2fa037"><path d="m39.3826 19.9154c-.1912-.3348-.5474-.5428-.9297-.5428h-18.2791c-.3824 0-.7386.208-.9297.5428l-1.3045 2.2849c-.1458.2554-.0592.582.1933.7295s.5755.06.7214-.1955l1.0046-1.7597 3.8126 6.6784h-7.6252l1.6119-2.8237c.1459-.2554.0593-.5821-.1932-.7295-.2526-.1476-.5756-.06-.7214.1954l-1.9509 3.4174c-.1851.3242-.1438.7296.1028 1.0089l13.7655 15.5922c.162.1835.3945.2888.6378.289.2432 0 .476-.1051.6381-.2884l13.7936-15.5923c.2471-.2794.2886-.685.1033-1.0096zm-8.9552 7.7377h-4.9267l3.8126-6.6785 3.8126 6.6785h-.0458c-.2917 0-.528.2391-.528.534s.2364.534.528.534h.2543l-4.0339 13.8461-4.0095-13.846h5.1364c.2916 0 .528-.2392.528-.534.0001-.295-.2364-.5341-.528-.5341zm3.6132-.5341-3.8126-6.6784h7.6252zm.3949 1.6022h7.8786l-11.7474 13.2793zm8.1449-1.0681h-7.6252l3.8126-6.6784zm-21.8069-7.2125h7.6252l-3.8126 6.6784zm3.417 8.2806 3.846 13.2813-11.7255-13.2813z"/><path d="m42.0939 42.6119c-.0251-.0169-.0516-.0316-.0792-.044-.3353-.15-.6444-.3271-.9189-.5263-.2369-.1719-.5669-.1171-.737.1225-.17.2397-.1158.5733.1212.7453.161.1169.3312.2272.5095.3303-1.1405.6581-1.9315 1.6009-2.3188 2.7666-.3874-1.1655-1.1782-2.1082-2.3183-2.7664 1.1403-.6581 1.9311-1.6009 2.3184-2.7665.0053.0161.0108.0321.0162.0481.0959.2785.3969.4256.6724.3287.2754-.097.4209-.4014.3251-.68-.0402-.1164-.0754-.2374-.105-.3594l-.2195-.9069c-.078-.3221-.3614-.547-.6893-.547s-.6113.2249-.6893.5471l-.2195.9068c-.3741 1.5457-1.5308 2.3525-2.4353 2.7572-.0276.0123-.0541.0271-.0793.0441-.2081.1403-.3323.375-.3323.6279 0 .253.1243.4877.3323.628.0251.017.0516.0316.0793.0441.9045.4046 2.0611 1.2114 2.4353 2.7571l.2195.9069c.078.3221.3614.547.6893.547s.6113-.2249.6893-.547l.2195-.9069c.3741-1.5457 1.5308-2.3525 2.4352-2.7571.0276-.0124.0541-.0271.0793-.0441.2081-.1402.3324-.375.3324-.628s-.1244-.4878-.3325-.6281z"/><path d="m44.5977 19.0865c-.0252-.017-.0517-.0318-.0794-.0441-.585-.2618-.9482-.6691-1.0793-1.2108l-.1106-.4572v-.0001c-.0682-.2812-.3157-.4776-.6018-.4776 0 0-.0001 0-.0002 0-.2862.0001-.5336.1966-.6016.4777l-.1107.4572c-.1311.5417-.4943.949-1.0794 1.2108-.0276.0123-.0542.0271-.0793.0441-.1779.1199-.2842.3207-.2841.537 0 .2162.1063.4169.2843.5368.0251.0169.0515.0317.0791.044.5852.2618.9483.6691 1.0794 1.2109l.1107.4571c.068.2812.3155.4776.6017.4777h.0001c.2863 0 .5337-.1963.6018-.4776l.1107-.4572c.1311-.5417.4943-.9491 1.0794-1.2108.0275-.0124.054-.027.0791-.044.178-.1199.2842-.3206.2843-.5369-.0001-.2163-.1063-.4171-.2842-.537zm-1.8712 1.3051c-.1762-.2932-.4084-.5508-.6926-.7682.2842-.2174.5165-.475.6927-.7682.1762.2932.4084.5508.6926.7682-.2843.2174-.5165.4749-.6927.7682z"/><path d="m16.0601 17.9021.1586.6549c.0724.2992.3357.5082.6403.5082s.5679-.209.6402-.5082l.1586-.6549c.2561-1.0576 1.0525-1.6119 1.6756-1.8907.0276-.0124.0541-.0271.0792-.0441.1912-.1289.3053-.3445.3053-.5768 0-.2324-.114-.4481-.3052-.577-.0252-.017-.0517-.0317-.0794-.0441-.623-.2788-1.4194-.833-1.6755-1.8907l-.1586-.6549c-.0724-.2992-.3357-.5082-.6403-.5082-.3045 0-.5678.209-.6403.5081l-.1585.6549c-.256 1.0577-1.0525 1.612-1.6755 1.8907-.0276.0124-.0542.0271-.0793.0441-.1913.129-.3053.3447-.3053.5771 0 .2323.1142.448.3054.5769.0251.0169.0516.0316.0791.044.6231.2787 1.4196.8331 1.6756 1.8907zm.7988-4.1057c.291.6443.7611 1.1828 1.3914 1.594-.6303.4111-1.1004.9498-1.3914 1.594-.291-.6442-.7611-1.1828-1.3914-1.594.6303-.4112 1.1004-.9498 1.3914-1.594z"/></g><circle cx="30" cy="30" r="29.5" stroke="#2fa037"/></svg>