<svg fill="none" height="60" viewBox="0 0 60 60" width="60" xmlns="http://www.w3.org/2000/svg"><g fill="#2fa037"><path d="m33.2245 19.4952c0 .2946-.2382.5332-.5322.5332-.2938 0-.5321-.2386-.5321-.5332 0-.2944.2383-.5333.5321-.5333.294 0 .5322.2389.5322.5333z"/><path d="m35.0654 15.6279c-.2938 0-.5322.2387-.5322.5333 0 .2944.2384.5333.5322.5333.294 0 .5321-.2389.5321-.5333s-.2381-.5333-.5321-.5333z"/><path d="m37.4305 18.6737c0 .2944-.2383.5333-.5321.5333-.294 0-.5322-.2389-.5322-.5333s.2382-.5333.5322-.5333c.2938 0 .5321.2389.5321.5333z"/><path d="m47.7162 24.1113-1.9853-1.9886v-3.6683c.0067-.0749.0111-.1507.0111-.228-.0006-.7787-.3492-1.5126-.9572-2.0133-.3326-.2764-.4138-.7342-.273-1.1255.1005-.2853.1524-.5847.1524-.8911 0-.0004 0-.0004-.0009-.0013.0359-.914-.5694-1.9902-1.6437-2.4186-.5936-.2344-1.254-.2516-1.8635-.0282-.4027.148-.8599.0044-1.1404-.3187-.5129-.5857-1.2466-.9231-2.0136-.9251h-.0109c-.6725 0-1.3149.2754-1.8093.7751-.3874.3876-.6393.8775-.7286 1.4166-.0646.3989-.4003.7353-.7983.7991-1.0969.1856-1.9584 1.0484-2.1435 2.1475-.0648.3989-.4003.7353-.7992.8-.9432.1571-1.677.8135-1.9994 1.6008-.1259.3067-.1889.6271-.1873.9526.0004.3934.0871.7745.2574 1.1336.1645.3493.408.6655.7023.915.2186.1842.3492.4667.3492.756 0 .3504-.1778.4573-.2193 1.0753l-5.4044 5.416c-1.0328 1.0351-1.3583 2.5655-.8661 3.9172l-11.5391 10.4296c-1.0874.9845-1.0626 2.6795.0057 3.6428.4539.4091 1.0309.6304 1.6362.6304.6854 0 1.3417-.2804 1.8156-.8084l10.4526-11.6138c1.3225.4249 2.764.0833 3.7636-.9184l6.8088-6.8233c.1898-.0042-.4967-.0025 3.8283-.0025l1.9852 1.9886c.408.4089.9437.6129 1.4796.6129.536 0 1.0719-.2044 1.4797-.6129l1.6553-1.6581c.3955-.396.6131-.9224.6131-1.4826 0-.56-.2176-1.0864-.6131-1.4824zm-17.9895 8.7063c-.7803.7818-1.938 1.0004-2.9495.5567-.21-.092-.4553-.0394-.6087.1313l-10.6963 11.8842c-.5129.5718-1.3859.6067-1.9491.0989-.602-.5426-.6211-1.4993-.0044-2.0577l11.8207-10.6843c.1767-.16.2262-.4184.1206-.6324-.5064-1.0259-.3042-2.2586.5036-3.0677l4.8849-4.8953c.1512.336.3687.6328.6368.8695l-2.5114 2.5172c-.2078.2082-.2078.5458 0 .7542.208.2082.5446.2082.7526 0l2.7331-2.7388c.498.1456 1.0164.1427 1.4991.0058l-3.4794 3.487c-.208.2084-.208.5462 0 .7542.2077.2084.5445.2084.7523 0l3.995-4.0032c.0056.0064.0118.012.0171.0184.2308.2745.5107.4938.82.6514zm17.2371-6.4957-1.6555 1.6583c-.4007.4014-1.0532.4016-1.4543-.0002l-2.1411-2.1448c-.0998-.1-.2353-.156-.3761-.156h-1.9881c.2346-.3222.3943-.6933.4634-1.0866.059-.3251-.1911-.6278-.5237-.6278-.2574 0-.4774.1842-.5235.438-.2439 1.3066-1.8626 1.7251-2.7079.7244-.4017-.4755-.9827-.7486-1.5951-.7493-.5974 0-.7151.2178-1.244.2178-.3335 0-.6592-.1011-.916-.2853-.5388-.3889-.7776-1.1353-.5308-1.8013.2927-.782.0774-1.7062-.6005-2.2797-.3603-.3022-.5831-.7744-.5809-1.2331.0053-.7642.592-1.3815 1.2987-1.5015.855-.146 1.5269-.8195 1.6723-1.6755.1078-.6522.6182-1.1633 1.2701-1.2715.8544-.1457 1.5262-.8191 1.6719-1.6755.0539-.3191.2029-.6093.432-.8388.3102-.3089.6592-.4593 1.0674-.4622h.0064c.444 0 .9061.2148 1.2063.5604.58.6635 1.4998.9144 2.306.6184.3553-.1293.7473-.1235 1.1076.0187.7266.2853 1.1732 1.1357.8805 1.9601-.0842.2371-.1277.4845-.1277.7356-.0013.6171.2632 1.1895.7273 1.5719.3619.2989.5692.7324.5692 1.1897 0 .692-.4563 1.38-1.2779 1.5338-.4208.0762-.8027.274-1.1058.5711-.3086.3028-.5102.687-.5825 1.1106-.0984.5789-.5184 1.0597-1.0907 1.2297-.2829.0827-.4437.3804-.3603.6618.0796.2722.369.446.6605.3615.9267-.2731 1.6697-1.0619 1.8402-2.0744.0666-.4075.3994-.733.8273-.8099.3905-.0694.7581-.2274 1.0781-.4598v1.9926c0 .1418.0561.2773.1561.3773l2.1409 2.1446c.1942.1947.3013.4533.3013.7284s-.1071.534-.3011.7285z"/><rect height="1.2" rx=".6" transform="matrix(.90628566 .42266572 -.42266572 .90628566 9.033964 -2.744529)" width="41.1251" x="10.7061" y="19"/></g><circle cx="30" cy="30" r="29.5" stroke="#2fa037"/></svg>