<svg fill="none" height="68" viewBox="0 0 121 68" width="121" xmlns="http://www.w3.org/2000/svg"><path d="m95.1439 34c-2.2851 0-4.1439 1.8665-4.1439 4.16s1.8593 4.1595 4.1439 4.1595c2.2842 0 4.1425-1.866 4.143-4.1595 0-2.294-1.8588-4.16-4.143-4.16zm0 7.383c-1.7706 0-3.211-1.446-3.211-3.223 0-1.7775 1.4404-3.2235 3.211-3.2235 1.7697 0 3.2096 1.446 3.2101 3.2235 0 1.7775-1.4404 3.223-3.2101 3.223z" fill="#424242"/><path d="m41.9605 8.18287c.6662 0 1.2062-.5421 1.2062-1.21082s-.54-1.21082-1.2062-1.21082c-.6661 0-1.2061.5421-1.2061 1.21082s.54 1.21082 1.2061 1.21082z" fill="#36ac65"/><path d="m94.386 10c-12.9078 0-23.4092 10.5422-23.4092 23.5s10.5014 23.5 23.4092 23.5c12.908 0 23.409-10.5422 23.409-23.5s-10.501-23.5-23.409-23.5zm0 46.254c-12.4983 0-22.666-10.2072-22.666-22.754s10.1677-22.754 22.666-22.754c12.498 0 22.666 10.2072 22.666 22.754s-10.168 22.754-22.666 22.754z" fill="#424242"/><path d="m68.3 62c16.0162 0 29-12.9837 29-29s-12.9838-29-29-29c-16.0163 0-29 12.9837-29 29s12.9837 29 29 29z" fill="#fff"/><path d="m68.386 4c-16.2034 0-29.386 13.2338-29.386 29.5s13.1826 29.5 29.386 29.5c16.2033 0 29.3859-13.2338 29.3859-29.5s-13.1826-29.5-29.3859-29.5zm0 58.0635c-15.6893 0-28.4531-12.8133-28.4531-28.5635s12.7638-28.56349 28.4531-28.56349 28.453 12.81329 28.453 28.56349-12.7637 28.5635-28.453 28.5635z" fill="#424242"/><path d="m34 65c17.6731 0 32-14.3269 32-32s-14.3269-32-32-32-32 14.3269-32 32 14.3269 32 32 32z" fill="#fff"/><g fill="#424242"><path d="m57.8066 21.9359c-3.3374 0-6.0521 2.7257-6.0521 6.0756s2.7151 6.0751 6.0521 6.0751c3.3369 0 6.0516-2.7252 6.0516-6.0751 0-3.3503-2.7147-6.0756-6.0516-6.0756zm0 11.2147c-2.823 0-5.1193-2.3052-5.1193-5.1386 0-2.8339 2.2968-5.1391 5.1193-5.1391 2.8224 0 5.1187 2.3052 5.1187 5.1391 0 2.8334-2.2963 5.1386-5.1187 5.1386z"/><path d="m90.0002 24c-2.7573 0-5.0002 2.2432-5.0002 5.0002s2.2432 4.9998 5.0002 4.9998c2.7569 0 4.9998-2.2428 4.9998-4.9998 0-2.7573-2.2429-5.0002-4.9998-5.0002zm0 9.2297c-2.3323 0-4.2295-1.8972-4.2295-4.2291 0-2.3323 1.8976-4.2295 4.2295-4.2295s4.229 1.8972 4.229 4.2295c0 2.3319-1.8971 4.2291-4.229 4.2291z"/><path d="m112 26c-1.654 0-3 1.3459-3 3.0001s1.346 2.9999 3 2.9999 3-1.3457 3-2.9999c0-1.6544-1.346-3.0001-3-3.0001zm0 5.5378c-1.399 0-2.538-1.1383-2.538-2.5374 0-1.3994 1.139-2.5377 2.538-2.5377s2.538 1.1383 2.538 2.5377c0 1.3991-1.139 2.5374-2.538 2.5374z"/><path d="m73.1439 35c-2.2851 0-4.1439 1.8665-4.1439 4.16s1.8593 4.1595 4.1439 4.1595c2.2842 0 4.1425-1.866 4.143-4.1595 0-2.294-1.8588-4.16-4.143-4.16zm0 7.383c-1.7706 0-3.211-1.446-3.211-3.223 0-1.7775 1.4404-3.2235 3.211-3.2235 1.7697 0 3.2096 1.446 3.2101 3.2235 0 1.7775-1.4404 3.223-3.2101 3.223z"/><path d="m72.035 52.1416c-.2575 0-.4665.2098-.4665.4683 0 1.0961-1.4702 2.0228-3.2105 2.0228-1.7408 0-3.211-.9262-3.211-2.0228 0-.2585-.209-.4683-.4664-.4683-.2575 0-.4665.2098-.4665.4683 0 1.6594 1.8205 2.9593 4.1439 2.9593s4.1434-1.3003 4.1434-2.9593c0-.2585-.209-.4683-.4664-.4683z"/><path d="m102.662 47c-.186 0-.337.1836-.337.4098 0 .9595-1.065 1.7705-2.325 1.7705-1.2601 0-2.3246-.8106-2.3246-1.7705 0-.2262-.1513-.4098-.3377-.4098s-.3377.1836-.3377.4098c0 1.4525 1.3181 2.5902 3 2.5902 1.682 0 3-1.1381 3-2.5902 0-.2262-.151-.4098-.338-.4098z"/><path d="m86.9663 16.2551c-1.2244-1.2287-2.8784-1.4942-3.7642-.6054-.1819.1831-.1819.4795 0 .6626.1824.1826.4776.1826.66 0 .4991-.5011 1.6191-.2238 2.4451.605.8261.8288 1.1022 1.9531.6027 2.4546-.1824.183-.1824.4794 0 .6625.0909.0909.2103.1368.3297.1368.1195 0 .2389-.0455.3294-.1372.8867-.8907.6217-2.5502-.6027-3.7789z"/><path d="m109.187 19.7626c-.975-.9788-2.293-1.1903-2.998-.4823-.145.1458-.145.382 0 .5278.145.1455.38.1455.525 0 .398-.3991 1.29-.1783 1.948.4819.658.6603.878 1.5559.48 1.9554-.145.1458-.145.382 0 .5278.073.0724.168.1089.263.1089s.19-.0362.262-.1093c.707-.7094.496-2.0314-.48-3.0102z"/><path d="m86.7648 56.1087c-.1414-.2163-.4306-.2767-.6461-.1348-.2155.1418-.2756.4322-.1343.6485.2076.3175.0695.7398-.0308.9632-.2029.4505-.6087.899-1.1139 1.2315-.5046.3325-1.0765.5268-1.5686.5338-.2449-.0009-.6852-.0384-.8923-.3559-.1409-.2163-.4296-.2767-.6456-.1353-.2159.1414-.2761.4317-.1348.6481.3284.5038.9115.7796 1.6442.7796.0136 0 .0276-.0004.0411-.0004.6749-.0094 1.4091-.2534 2.0673-.687.6591-.4336 1.1749-1.0119 1.4525-1.629.3097-.6884.2957-1.3495-.0387-1.8623z"/><path d="m82.3438 5.63746c-.6889-.3849-1.4408-.57501-2.1116-.53474-.7505.04401-1.3275.36336-1.6246.89904-.125.22617-.0438.51087.181.63683.2253.12549.5089.04401.6344-.18168.1837-.33153.6203-.40504.8638-.41956.4907-.02763 1.0756.12362 1.6032.41815 1.1096.62091 1.5752 1.60845 1.299 2.10668-.1255.22616-.0448.51086.1805.63682.0714.0398.1493.059.2263.059.1637 0 .3227-.08709.4081-.24021.5821-1.04936-.1469-2.53419-1.6601-3.38033z"/><path d="m105.505 11.3045c-.549-.3066-1.148-.4581-1.682-.426-.598.0351-1.058.2895-1.294.7162-.1.1801-.035.4069.144.5073.179.1.405.035.505-.1447.147-.2641.494-.3227.688-.3343.391-.022.857.0985 1.277.3331.884.4947 1.255 1.2813 1.035 1.6782-.1.1802-.035.407.144.5073.057.0317.119.047.18.047.131 0 .257-.0693.325-.1913.464-.836-.117-2.0188-1.322-2.6928z"/><path d="m79.6629 20c-2.0201 0-3.6629 1.6497-3.6629 3.6777s1.6432 3.6772 3.6629 3.6772c2.0202 0 3.6635-1.6492 3.6635-3.6772s-1.6433-3.6777-3.6635-3.6777zm0 6.4188c-1.5056 0-2.7301-1.2296-2.7301-2.7407 0-1.5115 1.2249-2.7411 2.7301-2.7411 1.5057 0 2.7306 1.2296 2.7306 2.7411 0 1.5116-1.2249 2.7407-2.7306 2.7407z"/><path d="m102.429 22.8322c-1.61 0-2.9183 1.3141-2.9183 2.9296 0 1.6156 1.3093 2.9293 2.9183 2.9293s2.918-1.3137 2.918-2.9293c0-1.6155-1.309-2.9296-2.918-2.9296zm0 5.1133c-1.2 0-2.175-.9796-2.175-2.1833 0-1.2041.976-2.1836 2.175-2.1836s2.175.9795 2.175 2.1836-.976 2.1833-2.175 2.1833z"/><path d="m87.9682 42.4357c-.4361-.4378-1.0294-.6691-1.7155-.6691-.9842 0-2.0193.4725-2.8402 1.2966-.6726.6747-1.1167 1.5068-1.2501 2.3422-.1427.8911.0798 1.6834.625 2.2308.4357.4378 1.029.6691 1.7151.6691.9842 0 2.0193-.4725 2.8402-1.2971.6726-.6747 1.1167-1.5068 1.2501-2.3422.1427-.8906-.0798-1.6829-.6246-2.2303zm-.2966 2.0824c-.1031.6419-.4539 1.2914-.9889 1.8285-.6376.6401-1.4525 1.0222-2.1802 1.0222-.3022 0-.7304-.0684-1.0555-.3947-.3284-.3292-.4576-.8335-.3638-1.4198.103-.6424.4538-1.2919.9888-1.8285.6376-.6401 1.4525-1.0222 2.1807-1.0222.3022 0 .7309.0683 1.0555.3947.3279.3292.4571.8335.3634 1.4198z"/><path d="m109.985 40.6182c-.347-.3487-.82-.533-1.366-.533-.784 0-1.609.3764-2.263 1.0329-.536.5375-.889 1.2004-.996 1.8658-.113.7099.064 1.341.498 1.7771.347.3487.82.533 1.367.533.784 0 1.608-.3764 2.262-1.0333.536-.5375.89-1.2003.996-1.8658.114-.7095-.064-1.3406-.498-1.7767zm-.236 1.6588c-.082.5115-.361 1.0288-.788 1.4567-.508.5099-1.157.8143-1.736.8143-.241 0-.582-.0545-.841-.3145-.262-.2622-.365-.664-.29-1.131.082-.5117.361-1.0291.788-1.4566.508-.5099 1.157-.8143 1.737-.8143.241 0 .582.0545.841.3145.261.2622.364.6639.289 1.1309z"/></g><path d="m105.015 1c-.333 0-.603.27122-.603.60541v1.81623h-1.809c-.333 0-.603.27123-.603.60541 0 .33419.27.60541.603.60541h1.809v1.81623c0 .33419.27.60541.603.60541s.603-.27122.603-.60541v-1.81623h1.81c.333 0 .603-.27122.603-.60541 0-.33418-.27-.60541-.603-.60541h-1.81v-1.81623c0-.33419-.27-.60541-.603-.60541z" fill="#36ac65"/><path d="m116.015 52c-.333 0-.603.2712-.603.6054v1.8162h-1.809c-.333 0-.603.2713-.603.6055 0 .3341.27.6054.603.6054h1.809v1.8162c0 .3342.27.6054.603.6054s.603-.2712.603-.6054v-1.8162h1.81c.333 0 .603-.2713.603-.6054 0-.3342-.27-.6055-.603-.6055h-1.81v-1.8162c0-.3342-.27-.6054-.603-.6054z" fill="#36ac65"/><path d="m3.375 4.75c.75939 0 1.375-.61561 1.375-1.375s-.61561-1.375-1.375-1.375-1.375.61561-1.375 1.375.61561 1.375 1.375 1.375z" fill="#36ac65"/><path d="m119.375 20.75c.759 0 1.375-.6156 1.375-1.375s-.616-1.375-1.375-1.375-1.375.6156-1.375 1.375.616 1.375 1.375 1.375z" fill="#36ac65"/><path d="m33.5 0c-18.4718 0-33.5 15.0282-33.5 33.5s15.0282 33.5 33.5 33.5 33.5-15.0282 33.5-33.5-15.0282-33.5-33.5-33.5zm0 65.9365c-17.8858 0-32.43651-14.5507-32.43651-32.4365s14.55071-32.43651 32.43651-32.43651 32.4365 14.55071 32.4365 32.43651-14.5507 32.4365-32.4365 32.4365z" fill="#424242"/><path d="m21.4395 20.3679c-3.8046 0-6.8994 3.0953-6.8994 6.8994s3.0953 6.8989 6.8994 6.8989 6.8989-3.0948 6.8989-6.8989c0-3.8046-3.0948-6.8994-6.8989-6.8994zm0 12.7353c-3.2181 0-5.8359-2.6177-5.8359-5.8353 0-3.2182 2.6183-5.836 5.8359-5.836s5.8354 2.6178 5.8354 5.836c0 3.2176-2.6178 5.8353-5.8354 5.8353z" fill="#424242"/><path d="m35.5919 36.6426c-2.605 0-4.724 2.1195-4.724 4.724s2.1195 4.7235 4.724 4.7235c2.604 0 4.7224-2.119 4.723-4.7235 0-2.605-2.119-4.724-4.723-4.724zm0 8.384c-2.0185 0-3.6605-1.642-3.6605-3.66 0-2.0185 1.642-3.6605 3.6605-3.6605 2.0174 0 3.6589 1.642 3.6595 3.6605 0 2.0185-1.6421 3.66-3.6595 3.66z" fill="#424242"/><path d="m37.6599 54.6693c-.2936 0-.5318.2382-.5318.5318 0 1.2448-1.676 2.2971-3.66 2.2971-1.9845 0-3.6605-1.0518-3.6605-2.2971 0-.2936-.2383-.5318-.5318-.5318s-.5317.2382-.5317.5318c0 1.8845 2.0754 3.3606 4.724 3.3606s4.7235-1.4767 4.7235-3.3606c0-.2936-.2382-.5318-.5317-.5318z" fill="#424242"/><path d="m54.6816 13.9168c-1.3958-1.3953-3.2814-1.6968-4.2912-.6875-.2074.2079-.2074.5445 0 .7524.2079.2074.5445.2074.7524 0 .569-.569 1.8457-.2542 2.7874.687.9418.9412 1.2565 2.2179.687 2.7874-.2079.2079-.2079.5445 0 .7524.1037.1032.2399.1553.376.1553s.2722-.0516.3754-.1558c1.0109-1.0114.7088-2.8959-.687-4.2912z" fill="#424242"/><path d="m23.8706 9.50284c-.5583-.55833-1.3495-.80506-2.2243-.69659-.8268.10263-1.6388.51633-2.2865 1.164-1.3719 1.37345-1.5819 3.39675-.4674 4.51085.1037.1031.2398.1552.376.1552.1361 0 .2728-.0516.3759-.1547.2079-.2079.2079-.5445 0-.7524-.6998-.6993-.4897-2.0478.4679-3.0065.4813-.4818 1.0726-.78702 1.666-.86093.5413-.0686 1.0194.07178 1.3405.39293.208.2079.544.2079.7519 0s.2079-.54395 0-.75186z" fill="#424242"/><path d="m10.5716 9.59847c-.5354-.44454-1.27987-.54344-2.0961-.28023-.73168.2361-1.45007.74706-2.02329 1.43886-.57322.6913-.94172 1.4921-1.03797 2.2552-.10741.8508.12921 1.5638.66521 2.0079.09891.0818.21908.1217.33873.1217.15261 0 .30469-.0659.41104-.193.18717-.226.15527-.561-.07073-.7487-.33181-.2744-.32277-.7785-.2882-1.055.07019-.5567.36212-1.1794.80134-1.7095.43922-.5302.99702-.9333 1.5309-1.1055.26427-.0862.75827-.1883 1.09061.0872.22546.1871.56156.1563.74866-.0702.1872-.226.1558-.56102-.0702-.74873z" fill="#424242"/><path d="m54.4519 59.1743c-.1611-.2457-.4908-.3143-.7365-.1532-.2457.1612-.3143.4908-.1531.7365.2366.3605.0792.8402-.0351 1.0938-.2313.5115-.694 1.021-1.2698 1.3985-.5754.3775-1.2273.5982-1.7883.6062-.2792-.0011-.7811-.0436-1.0172-.4041-.1606-.2457-.4898-.3143-.736-.1537s-.3148.4903-.1537.7359c.3744.5722 1.0391.8854 1.8745.8854.0154 0 .0313-.0005.0468-.0005.7694-.0107 1.6064-.2877 2.3567-.7801.7513-.4924 1.3394-1.1491 1.6558-1.85.3531-.7816.3371-1.5325-.0441-2.1147z" fill="#424242"/><path d="m49.4119 1.85949c-.7854-.43709-1.6425-.65298-2.4072-.60725-.8556.04998-1.5133.41263-1.8521 1.02095-.1425.25683-.0499.58014.2064.72318.2568.1425.5801.04998.7231-.20632.2095-.37648.7072-.45996.9848-.47645.5594-.03137 1.2262.14038 1.8276.47485 1.2651.7051 1.7957 1.82655 1.4809 2.39233-.143.25683-.051.58013.2058.72317.0814.0452.1702.067.2579.067.1867 0 .368-.0989.4653-.27278.6636-1.19165-.1675-2.87781-1.8925-3.83868z" fill="#424242"/><path d="m45.0097 18.2926c-2.303 0-4.1758 1.8733-4.1758 4.1763s1.8733 4.1758 4.1758 4.1758c2.303 0 4.1763-1.8728 4.1763-4.1758s-1.8733-4.1763-4.1763-4.1763zm0 7.2892c-1.7165 0-3.1123-1.3964-3.1123-3.1123 0-1.7165 1.3963-3.1129 3.1123-3.1129 1.7164 0 3.1128 1.3964 3.1128 3.1129 0 1.7164-1.3964 3.1123-3.1128 3.1123z" fill="#424242"/><path d="m55.8238 43.6473c-.4972-.4972-1.1736-.7598-1.9558-.7598-1.122 0-2.3019.5365-3.2378 1.4724-.7668.7662-1.273 1.7111-1.4251 2.6597-.1627 1.012.0909 1.9116.7125 2.5332.4967.4972 1.1731.7598 1.9553.7598 1.122 0 2.3019-.5364 3.2378-1.4728.7668-.7662 1.273-1.7111 1.4251-2.6598.1627-1.0114-.091-1.9111-.712-2.5327zm-.3382 2.3647c-.1175.729-.5174 1.4665-1.1273 2.0765-.7269.7269-1.6559 1.1607-2.4854 1.1607-.3446 0-.8327-.0777-1.2034-.4483-.3743-.3738-.5216-.9464-.4147-1.6122.1175-.7295.5174-1.467 1.1273-2.0764.7269-.7269 1.6558-1.1608 2.4859-1.1608.3446 0 .8332.0776 1.2033.4482.3739.3739.5211.9465.4143 1.6123z" fill="#424242"/><path d="m18.7376 47.0196c-.152-.9486-.6583-1.8935-1.425-2.6597-.9354-.9359-2.1159-1.4724-3.2378-1.4724-.7822 0-1.4586.2626-1.9553.7598-.6216.6222-.8747 1.5212-.7125 2.5332.1521.9481.6583 1.8931 1.4251 2.6598.9353.9359 2.1153 1.4723 3.2372 1.4723.7822 0 1.4586-.2621 1.9558-.7598.6216-.6216.8747-1.5212.7125-2.5332zm-1.4644 1.7818c-.3706.3707-.8588.4484-1.2033.4484-.8296 0-1.7585-.4339-2.4854-1.1608-.6099-.6099-1.0103-1.3469-1.1273-2.0765-.1069-.6657.0404-1.2384.4147-1.6128.3701-.3706.8583-.4482 1.2029-.4482.8295 0 1.759.4339 2.4859 1.1608.6099.6099 1.0103 1.3469 1.1273 2.0764.1063.6663-.0404 1.2384-.4148 1.6127z" fill="#424242"/><path d="m3.4375 60.5c-.3795 0-.6875.308-.6875.6875v2.0625h-2.0625c-.3795 0-.6875.308-.6875.6875s.308.6875.6875.6875h2.0625v2.0625c0 .3795.308.6875.6875.6875s.6875-.308.6875-.6875v-2.0625h2.0625c.3795 0 .6875-.308.6875-.6875s-.308-.6875-.6875-.6875h-2.0625v-2.0625c0-.3795-.308-.6875-.6875-.6875z" fill="#36ac65"/></svg>