<svg fill="none" height="67" viewBox="0 0 114 67" width="114" xmlns="http://www.w3.org/2000/svg" xmlns:xlink="http://www.w3.org/1999/xlink"><clipPath id="a"><path d="m0 0h114v67h-114z"/></clipPath><clipPath id="b"><path d="m43 0h67v67h-67z"/></clipPath><g clip-path="url(#a)"><path d="m0 0h114v67h-114z" fill="#fff"/><g clip-path="url(#b)"><g fill="#424242"><path d="m76.5 0c-18.4718 0-33.5 15.0282-33.5 33.5s15.0282 33.5 33.5 33.5 33.5-15.0282 33.5-33.5-15.0282-33.5-33.5-33.5zm0 65.9365c-17.8858 0-32.4365-14.5507-32.4365-32.4365s14.5507-32.43651 32.4365-32.43651 32.437 14.55071 32.437 32.43651-14.5512 32.4365-32.437 32.4365z"/><path d="m64.4395 20.3679c-3.8047 0-6.8994 3.0953-6.8994 6.8994s3.0953 6.8989 6.8994 6.8989 6.8989-3.0948 6.8989-6.8989c0-3.8046-3.0948-6.8994-6.8989-6.8994zm0 12.7353c-3.2181 0-5.8359-2.6177-5.8359-5.8353 0-3.2182 2.6183-5.836 5.8359-5.836s5.8354 2.6178 5.8354 5.836c0 3.2176-2.6178 5.8353-5.8354 5.8353z"/><path d="m78.5919 36.6426c-2.605 0-4.7241 2.1195-4.7241 4.724s2.1196 4.7235 4.7241 4.7235c2.6039 0 4.7224-2.119 4.723-4.7235 0-2.605-2.1191-4.724-4.723-4.724zm0 8.384c-2.0185 0-3.6606-1.642-3.6606-3.66 0-2.0185 1.6421-3.6605 3.6606-3.6605 2.0174 0 3.6589 1.642 3.6595 3.6605 0 2.0185-1.6421 3.66-3.6595 3.66z"/><path d="m80.6598 54.6693c-.2935 0-.5317.2382-.5317.5318 0 1.2448-1.6761 2.2971-3.66 2.2971-1.9845 0-3.6605-1.0518-3.6605-2.2971 0-.2936-.2383-.5318-.5318-.5318s-.5317.2382-.5317.5318c0 1.8845 2.0754 3.3606 4.724 3.3606s4.7235-1.4767 4.7235-3.3606c0-.2936-.2382-.5318-.5318-.5318z"/><path d="m97.6816 13.9168c-1.3959-1.3953-3.2814-1.6968-4.2912-.6875-.2074.2079-.2074.5445 0 .7524.2079.2074.5445.2074.7524 0 .569-.569 1.8457-.2542 2.7874.687s1.2565 2.2179.687 2.7874c-.2079.2079-.2079.5445 0 .7524.1037.1032.2398.1553.376.1553.1361 0 .2722-.0516.3754-.1558 1.0108-1.0114.7088-2.8959-.687-4.2912z"/><path d="m66.8706 9.50284c-.5583-.55833-1.3496-.80506-2.2243-.69659-.8268.10263-1.6388.51633-2.2865 1.164-1.3719 1.37345-1.5819 3.39675-.4674 4.51085.1037.1031.2398.1552.3759.1552.1362 0 .2728-.0516.376-.1547.2079-.2079.2079-.5445 0-.7524-.6998-.6993-.4897-2.0478.4679-3.0065.4813-.4818 1.0726-.78702 1.666-.86093.5413-.0686 1.0193.07178 1.3405.39293.2079.2079.544.2079.7519 0s.2079-.54395 0-.75186z"/></g><path d="m53.5717 9.59847c-.5355-.44454-1.28-.54344-2.0962-.28023-.7317.2361-1.4501.74706-2.0233 1.43886-.5732.6913-.9417 1.4921-1.038 2.2552-.1074.8508.1293 1.5638.6653 2.0079.0989.0818.219.1217.3387.1217.1526 0 .3047-.0659.411-.193.1872-.226.1553-.561-.0707-.7487-.3318-.2744-.3228-.7785-.2882-1.055.0702-.5567.3621-1.1794.8013-1.7095.4393-.5302.9971-.9333 1.5309-1.1055.2643-.0862.7583-.1883 1.0906.0872.2255.1871.5616.1563.7487-.0702.1872-.226.1558-.56102-.0701-.74873z" fill="#000"/><path d="m97.4519 59.1743c-.1612-.2457-.4909-.3143-.7365-.1532-.2457.1612-.3143.4908-.1532.7365.2367.3605.0793.8402-.0351 1.0938-.2313.5115-.6939 1.021-1.2698 1.3985-.5753.3775-1.2272.5982-1.7882.6062-.2792-.0011-.7812-.0436-1.0173-.4041-.1606-.2457-.4897-.3143-.7359-.1537s-.3148.4903-.1537.7359c.3744.5722 1.0391.8854 1.8744.8854.0154 0 .0314-.0005.0468-.0005.7695-.0107 1.6064-.2877 2.3567-.7801.7514-.4924 1.3395-1.1491 1.6559-1.85.3531-.7816.3371-1.5325-.0441-2.1147z" fill="#424242"/><path d="m92.412 1.85949c-.7854-.43709-1.6426-.65298-2.4073-.60725-.8555.04998-1.5133.41263-1.852 1.02095-.1425.25683-.05.58014.2063.72318.2568.1425.5801.04998.7232-.20632.2095-.37648.7072-.45996.9848-.47645.5594-.03137 1.2262.14038 1.8276.47485 1.265.7051 1.7957 1.82655 1.4809 2.39233-.1431.25683-.0511.58013.2058.72317.0813.0452.1701.067.2579.067.1866 0 .3679-.0989.4652-.27278.6637-1.19165-.1675-2.87781-1.8924-3.83868z" fill="#424242"/><path d="m88.0097 18.2926c-2.303 0-4.1758 1.8733-4.1758 4.1763s1.8733 4.1758 4.1758 4.1758c2.303 0 4.1763-1.8728 4.1763-4.1758s-1.8733-4.1763-4.1763-4.1763zm0 7.2892c-1.7165 0-3.1123-1.3964-3.1123-3.1123 0-1.7165 1.3963-3.1129 3.1123-3.1129 1.7164 0 3.1128 1.3964 3.1128 3.1129 0 1.7164-1.3964 3.1123-3.1128 3.1123z" fill="#424242"/><path d="m98.8238 43.6473c-.4972-.4972-1.1736-.7598-1.9558-.7598-1.122 0-2.3019.5365-3.2378 1.4724-.7668.7662-1.273 1.7111-1.4251 2.6597-.1627 1.012.0909 1.9117.7126 2.5333.4966.4972 1.173.7598 1.9552.7598 1.122 0 2.3019-.5365 3.2378-1.4729.7668-.7662 1.273-1.7111 1.4251-2.6598.1627-1.0114-.0909-1.9111-.712-2.5327zm-.3382 2.3647c-.1175.729-.5174 1.4665-1.1273 2.0765-.7269.7269-1.6559 1.1608-2.4854 1.1608-.3446 0-.8327-.0777-1.2034-.4483-.3743-.3738-.5216-.9465-.4147-1.6123.1175-.7295.5174-1.467 1.1273-2.0764.7269-.7269 1.6559-1.1608 2.4859-1.1608.3446 0 .8333.0776 1.2034.4482.3738.3739.5211.9465.4142 1.6123z" fill="#424242"/><path d="m61.7377 47.0196c-.1521-.9486-.6583-1.8935-1.4251-2.6597-.9354-.9359-2.1158-1.4724-3.2378-1.4724-.7822 0-1.4586.2626-1.9552.7598-.6217.6222-.8748 1.5213-.7126 2.5333.1521.9481.6583 1.893 1.4251 2.6597.9353.9359 2.1153 1.4724 3.2373 1.4724.7822 0 1.4585-.2621 1.9557-.7598.6216-.6216.8747-1.5213.7126-2.5333zm-1.4645 1.7819c-.3706.3707-.8587.4483-1.2033.4483-.8295 0-1.7585-.4339-2.4854-1.1608-.6099-.6099-1.0103-1.3469-1.1273-2.0765-.1069-.6657.0404-1.2384.4148-1.6128.3701-.3706.8582-.4482 1.2028-.4482.8295 0 1.759.4339 2.4859 1.1608.6099.6099 1.0103 1.3469 1.1273 2.0764.1063.6663-.0404 1.2385-.4148 1.6128z" fill="#000"/><path d="m109.688 2.75h-2.063v-2.0625c0-.3795-.308-.6875-.687-.6875-.38 0-.688.308-.688.6875v2.0625h-2.062c-.38 0-.688.308-.688.6875s.308.6875.688.6875h2.062v2.0625c0 .3795.308.6875.688.6875.379 0 .687-.308.687-.6875v-2.0625h2.063c.379 0 .687-.308.687-.6875s-.308-.6875-.687-.6875z" fill="#36ac65"/><path d="m105.562 61.5625c.76 0 1.376-.6156 1.376-1.375s-.616-1.375-1.376-1.375c-.759 0-1.374.6156-1.374 1.375s.615 1.375 1.374 1.375z" fill="#36ac65"/></g><path d="m3.375 4.75c.75939 0 1.375-.61561 1.375-1.375s-.61561-1.375-1.375-1.375-1.375.61561-1.375 1.375.61561 1.375 1.375 1.375z" fill="#36ac65"/><circle cx="33.5" cy="33.5" fill="#fff" r="32.5"/><g fill="#424242"><path d="m33.5 0c-18.4718 0-33.5 15.0282-33.5 33.5s15.0282 33.5 33.5 33.5 33.5-15.0282 33.5-33.5-15.0282-33.5-33.5-33.5zm0 65.9365c-17.8858 0-32.43651-14.5507-32.43651-32.4365s14.55071-32.43651 32.43651-32.43651 32.4365 14.55071 32.4365 32.43651-14.5507 32.4365-32.4365 32.4365z"/><path d="m21.4395 20.3679c-3.8047 0-6.8994 3.0953-6.8994 6.8994s3.0953 6.8989 6.8994 6.8989 6.8989-3.0948 6.8989-6.8989c0-3.8046-3.0948-6.8994-6.8989-6.8994zm0 12.7353c-3.2181 0-5.8359-2.6177-5.8359-5.8353 0-3.2182 2.6183-5.836 5.8359-5.836s5.8354 2.6178 5.8354 5.836c0 3.2176-2.6178 5.8353-5.8354 5.8353z"/><path d="m35.5919 36.6426c-2.605 0-4.7241 2.1195-4.7241 4.724s2.1196 4.7235 4.7241 4.7235c2.6039 0 4.7224-2.119 4.723-4.7235 0-2.605-2.1191-4.724-4.723-4.724zm0 8.384c-2.0185 0-3.6606-1.642-3.6606-3.66 0-2.0185 1.6421-3.6605 3.6606-3.6605 2.0174 0 3.6589 1.642 3.6595 3.6605 0 2.0185-1.6421 3.66-3.6595 3.66z"/><path d="m37.6598 54.6693c-.2935 0-.5317.2382-.5317.5318 0 1.2448-1.6761 2.2971-3.66 2.2971-1.9845 0-3.6605-1.0518-3.6605-2.2971 0-.2936-.2383-.5318-.5318-.5318s-.5317.2382-.5317.5318c0 1.8845 2.0754 3.3606 4.724 3.3606s4.7235-1.4767 4.7235-3.3606c0-.2936-.2382-.5318-.5318-.5318z"/><path d="m54.6816 13.9168c-1.3959-1.3953-3.2814-1.6968-4.2912-.6875-.2074.2079-.2074.5445 0 .7524.2079.2074.5445.2074.7524 0 .569-.569 1.8457-.2542 2.7874.687s1.2565 2.2179.687 2.7874c-.2079.2079-.2079.5445 0 .7524.1037.1032.2398.1553.376.1553.1361 0 .2722-.0516.3754-.1558 1.0108-1.0114.7088-2.8959-.687-4.2912z"/><path d="m23.8706 9.50284c-.5583-.55833-1.3496-.80506-2.2243-.69659-.8268.10263-1.6388.51633-2.2865 1.164-1.3719 1.37345-1.5819 3.39675-.4674 4.51085.1037.1031.2398.1552.3759.1552.1362 0 .2728-.0516.376-.1547.2079-.2079.2079-.5445 0-.7524-.6998-.6993-.4897-2.0478.4679-3.0065.4813-.4818 1.0726-.78702 1.666-.86093.5413-.0686 1.0193.07178 1.3405.39293.2079.2079.544.2079.7519 0s.2079-.54395 0-.75186z"/><path d="m10.5717 9.59847c-.5355-.44454-1.27995-.54344-2.09618-.28023-.73169.2361-1.45007.74706-2.0233 1.43886-.57322.6913-.94172 1.4921-1.03796 2.2552-.10742.8508.12921 1.5638.66521 2.0079.0989.0818.21908.1217.33872.1217.15261 0 .30469-.0659.41104-.193.18718-.226.15527-.561-.07072-.7487-.33181-.2744-.32277-.7785-.28821-1.055.07019-.5567.36212-1.1794.80134-1.7095.43923-.5302.99703-.9333 1.5309-1.1055.26428-.0862.75827-.1883 1.09061.0872.22545.1871.56155.1563.74875-.0702.1871-.226.1558-.56102-.0702-.74873z"/><path d="m54.4518 59.1743c-.1611-.2457-.4908-.3143-.7364-.1532-.2457.1612-.3143.4908-.1532.7365.2367.3605.0793.8402-.0351 1.0938-.2313.5115-.6939 1.021-1.2698 1.3985-.5753.3775-1.2272.5982-1.7882.6062-.2792-.0011-.7812-.0436-1.0173-.4041-.1606-.2457-.4897-.3143-.7359-.1537s-.3148.4903-.1537.7359c.3744.5722 1.0391.8854 1.8744.8854.0154 0 .0314-.0005.0468-.0005.7695-.0107 1.6064-.2877 2.3567-.7801.7514-.4924 1.3395-1.1491 1.6559-1.85.3531-.7816.3371-1.5325-.0442-2.1147z"/><path d="m49.412 1.85949c-.7854-.43709-1.6426-.65298-2.4073-.60725-.8555.04998-1.5133.41263-1.852 1.02095-.1425.25683-.05.58014.2063.72318.2568.1425.5801.04998.7232-.20632.2095-.37648.7072-.45996.9848-.47645.5593-.03137 1.2262.14038 1.8276.47485 1.265.7051 1.7957 1.82655 1.4809 2.39233-.1431.25683-.0511.58013.2058.72317.0813.0452.1701.067.2579.067.1866 0 .3679-.0989.4652-.27278.6637-1.19165-.1675-2.87781-1.8924-3.83868z"/><path d="m45.0097 18.2926c-2.303 0-4.1758 1.8733-4.1758 4.1763s1.8733 4.1758 4.1758 4.1758c2.303 0 4.1763-1.8728 4.1763-4.1758s-1.8733-4.1763-4.1763-4.1763zm0 7.2892c-1.7165 0-3.1123-1.3964-3.1123-3.1123 0-1.7165 1.3963-3.1129 3.1123-3.1129 1.7164 0 3.1128 1.3964 3.1128 3.1129 0 1.7164-1.3964 3.1123-3.1128 3.1123z"/><path d="m55.8238 43.6473c-.4972-.4972-1.1736-.7598-1.9558-.7598-1.122 0-2.3019.5365-3.2378 1.4724-.7668.7662-1.273 1.7111-1.4251 2.6597-.1627 1.012.0909 1.9117.7126 2.5333.4966.4972 1.173.7598 1.9552.7598 1.122 0 2.3019-.5365 3.2378-1.4729.7668-.7662 1.273-1.7111 1.4251-2.6598.1627-1.0114-.0909-1.9111-.712-2.5327zm-.3382 2.3647c-.1175.729-.5174 1.4665-1.1273 2.0765-.7269.7269-1.6559 1.1608-2.4854 1.1608-.3446 0-.8327-.0777-1.2034-.4483-.3743-.3738-.5216-.9465-.4147-1.6123.1175-.7295.5174-1.467 1.1273-2.0764.7269-.7269 1.6559-1.1608 2.4859-1.1608.3446 0 .8333.0776 1.2034.4482.3738.3739.5211.9465.4142 1.6123z"/><path d="m18.7377 47.0196c-.1521-.9486-.6583-1.8935-1.4251-2.6597-.9354-.9359-2.1158-1.4724-3.2378-1.4724-.7822 0-1.4586.2626-1.9552.7598-.6217.6222-.8748 1.5213-.7126 2.5333.1521.9481.6583 1.893 1.4251 2.6597.9353.9359 2.1153 1.4724 3.2373 1.4724.7822 0 1.4585-.2621 1.9557-.7598.6216-.6216.8747-1.5213.7126-2.5333zm-1.4645 1.7819c-.3706.3707-.8587.4483-1.2033.4483-.8295 0-1.7585-.4339-2.4854-1.1608-.6099-.6099-1.0103-1.3469-1.1273-2.0765-.1069-.6657.0404-1.2384.4148-1.6128.3701-.3706.8582-.4482 1.2028-.4482.8295 0 1.759.4339 2.4859 1.1608.6099.6099 1.0103 1.3469 1.1273 2.0764.1063.6663-.0404 1.2385-.4148 1.6128z"/></g><path d="m3.4375 60.5c-.3795 0-.6875.308-.6875.6875v2.0625h-2.0625c-.3795 0-.6875.308-.6875.6875s.308.6875.6875.6875h2.0625v2.0625c0 .3795.308.6875.6875.6875s.6875-.308.6875-.6875v-2.0625h2.0625c.3795 0 .6875-.308.6875-.6875s-.308-.6875-.6875-.6875h-2.0625v-2.0625c0-.3795-.308-.6875-.6875-.6875z" fill="#36ac65"/></g></svg>