<svg fill="none" height="88" viewBox="0 0 88 88" width="88" xmlns="http://www.w3.org/2000/svg"><path d="m44 10.3125c-.7054 0-1.4039.0289-2.0982.0715-.2255.0138-.4304.1375-.5459.3314-.1155.1925-.1306.4303-.0385.6366 1.3241 2.9507 1.9951 6.0706 1.9951 9.273 0 12.5098-10.1777 22.6875-22.6875 22.6875-3.2024 0-6.3223-.671-9.273-1.9965-.2049-.0935-.4441-.0784-.6366.0385-.1939.1169-.3163.3204-.3314.5459-.0426.6957-.0715 1.3942-.0715 2.0996 0 18.5749 15.1126 33.6875 33.6875 33.6875s33.6875-15.1126 33.6875-33.6875-15.1126-33.6875-33.6875-33.6875zm0 66c-17.8172 0-32.3125-14.4953-32.3125-32.3125 0-.3479.0069-.6944.0206-1.0381 2.8545 1.1454 5.8493 1.7256 8.9169 1.7256 13.2674 0 24.0625-10.7951 24.0625-24.0625 0-3.0676-.5802-6.0624-1.7256-8.9169.3437-.0137.6902-.0206 1.0381-.0206 17.8172 0 32.3125 14.4953 32.3125 32.3125s-14.4953 32.3125-32.3125 32.3125z" fill="#5f5f5f"/><path d="m31.625 52.9375c-.3795 0-.6875.308-.6875.6875 0 2.6537-2.1588 4.8125-4.8125 4.8125s-4.8125-2.1588-4.8125-4.8125 2.1588-4.8125 4.8125-4.8125c.3795 0 .6875-.308.6875-.6875s-.308-.6875-.6875-.6875c-3.4114 0-6.1875 2.7761-6.1875 6.1875s2.7761 6.1875 6.1875 6.1875 6.1875-2.7761 6.1875-6.1875c0-.3795-.308-.6875-.6875-.6875z" fill="#5f5f5f"/><path d="m77 13.0625h-2.0625v-2.0625c0-.3795-.308-.6875-.6875-.6875s-.6875.308-.6875.6875v2.0625h-2.0625c-.3795 0-.6875.308-.6875.6875s.308.6875.6875.6875h2.0625v2.0625c0 .3795.308.6875.6875.6875s.6875-.308.6875-.6875v-2.0625h2.0625c.3795 0 .6875-.308.6875-.6875s-.308-.6875-.6875-.6875z" fill="#2fa037"/><path d="m13.75 70.8125c-.3795 0-.6875.308-.6875.6875v2.0625h-2.0625c-.3795 0-.6875.308-.6875.6875s.308.6875.6875.6875h2.0625v2.0625c0 .3795.308.6875.6875.6875s.6875-.308.6875-.6875v-2.0625h2.0625c.3795 0 .6875-.308.6875-.6875s-.308-.6875-.6875-.6875h-2.0625v-2.0625c0-.3795-.308-.6875-.6875-.6875z" fill="#2fa037"/><path d="m72.875 72.875c.7594 0 1.375-.6156 1.375-1.375s-.6156-1.375-1.375-1.375-1.375.6156-1.375 1.375.6156 1.375 1.375 1.375z" fill="#2fa037"/><g fill="#5f5f5f"><path d="m61.875 24.75c.7594 0 1.375-.6156 1.375-1.375s-.6156-1.375-1.375-1.375-1.375.6156-1.375 1.375.6156 1.375 1.375 1.375z"/><path d="m37.125 55c.7594 0 1.375-.6156 1.375-1.375s-.6156-1.375-1.375-1.375-1.375.6156-1.375 1.375.6156 1.375 1.375 1.375z"/><path d="m63.25 43.3125c-.3795 0-.6875.308-.6875.6875 0 1.8948-1.5427 3.4375-3.4375 3.4375s-3.4375-1.5427-3.4375-3.4375 1.5427-3.4375 3.4375-3.4375c.3795 0 .6875-.308.6875-.6875s-.308-.6875-.6875-.6875c-2.6537 0-4.8125 2.1588-4.8125 4.8125s2.1588 4.8125 4.8125 4.8125 4.8125-2.1588 4.8125-4.8125c0-.3795-.308-.6875-.6875-.6875z"/><path d="m57.75 59.8125c-.3795 0-.6875.308-.6875.6875 0 1.8948-1.5427 3.4375-3.4375 3.4375s-3.4375-1.5427-3.4375-3.4375 1.5427-3.4375 3.4375-3.4375c.3795 0 .6875-.308.6875-.6875s-.308-.6875-.6875-.6875c-2.6537 0-4.8125 2.1588-4.8125 4.8125s2.1588 4.8125 4.8125 4.8125 4.8125-2.1588 4.8125-4.8125c0-.3795-.308-.6875-.6875-.6875z"/></g></svg>