<svg width="39" height="39" viewBox="0 0 39 39" fill="none" xmlns="http://www.w3.org/2000/svg">
<path d="M14.5289 37.9156C21.3517 34.8183 27.6426 36.2267 30.9306 34.7349C34.2185 33.2421 40.2656 28.2176 33.4006 13.0921C26.5355 -2.03342 16.2395 -0.0379165 12.6222 1.60333C-4.31244 9.28958 2.44431 43.4005 14.5289 37.9156Z" fill="white"/>
<path d="M8.1712 22.6103L16.3894 30.8284C16.813 31.252 17.4987 31.252 17.9212 30.8284L18.556 30.1936C18.9796 29.77 18.9796 29.0843 18.556 28.6618L10.3379 20.4436C9.91429 20.02 9.22854 20.02 8.80604 20.4436L8.1712 21.0784C7.74762 21.502 7.74762 22.1878 8.1712 22.6103Z" fill="#F3F3F1"/>
<path d="M30.8285 16.3898L22.6103 8.17158C22.1867 7.748 21.501 7.748 21.0785 8.17158L20.4437 8.80642C20.0201 9.23 20.0201 9.91575 20.4437 10.3383L28.6618 18.5564C29.0854 18.98 29.7712 18.98 30.1937 18.5564L30.8285 17.9216C31.2521 17.498 31.2521 16.8123 30.8285 16.3898Z" fill="#F3F3F1"/>
<path d="M7.63019 24.8701C7.2066 25.2937 7.2066 25.9794 7.63019 26.4019L12.5984 31.3701C13.0219 31.7937 13.7077 31.7937 14.1302 31.3701L15.5309 29.9693L9.03094 23.4693L7.63019 24.8701Z" fill="#44C789"/>
<path d="M31.3695 12.5981L26.4013 7.62992C25.9778 7.20634 25.292 7.20634 24.8695 7.62992L23.4688 9.03067L29.9688 15.5307L31.3695 14.1299C31.7931 13.7063 31.7931 13.0206 31.3695 12.5981Z" fill="#44C789"/>
<path d="M18.2434 30.5175L17.9184 30.8317C17.4959 31.2542 16.8134 31.2542 16.3909 30.8317L8.16844 22.6092C7.74594 22.1867 7.74594 21.5042 8.16844 21.0817L8.8076 20.4425C9.2301 20.02 9.9126 20.02 10.3351 20.4425L10.6601 20.7675L10.3351 21.0817C9.9126 21.5042 9.9126 22.1867 10.3351 22.6092L18.2434 30.5175Z" fill="#D5DBE1"/>
<path d="M30.5179 18.2433L30.1929 18.5575C29.7704 18.98 29.0879 18.98 28.6654 18.5575L20.4429 10.335C20.0204 9.9125 20.0204 9.23 20.4429 8.8075L21.082 8.16833C21.5045 7.74583 22.187 7.74583 22.6095 8.16833L22.9345 8.49333L22.6095 8.8075C22.187 9.23 22.187 9.9125 22.6095 10.335L30.5179 18.2433Z" fill="#D5DBE1"/>
<path d="M14.4514 31.0592L14.1264 31.3733C13.7039 31.7958 13.0214 31.7958 12.5989 31.3733L7.62645 26.4008C7.20395 25.9783 7.20395 25.2958 7.62645 24.8733L9.03478 23.465L10.1181 24.5483L9.79311 24.8733C9.37061 25.2958 9.37061 25.9783 9.79311 26.4008L14.4514 31.0592Z" fill="#00B871"/>
<path d="M31.0482 14.4517L29.9649 15.535L23.4648 9.035L24.8732 7.62667C25.2957 7.20417 25.9782 7.20417 26.4007 7.62667L26.7257 7.95167L25.6315 9.035L31.0482 14.4517Z" fill="#00B871"/>
<path d="M27.8262 10.0231L30.6 7.24934L31.749 8.39839L28.9752 11.1722L27.8262 10.0231Z" fill="#353643"/>
<path d="M14.0469 23.7999L23.7955 14.0513L24.9443 15.2001L15.1958 24.9487L14.0469 23.7999Z" fill="#353643"/>
<path d="M7.24219 30.6021L10.016 27.8283L11.165 28.9774L8.39124 31.7512L7.24219 30.6021Z" fill="#353643"/>
<path d="M17.156 31.9583C16.649 31.9583 16.1734 31.7612 15.8148 31.4026L7.59774 23.1855C7.23916 22.828 7.04199 22.3513 7.04199 21.8454C7.04199 21.3395 7.23916 20.8628 7.59774 20.5053L8.23257 19.8705C8.97141 19.1327 10.1739 19.1317 10.9127 19.8705L19.1309 28.0887C19.8697 28.8286 19.8697 30.0311 19.1309 30.7699L18.4961 31.4048C18.1386 31.7612 17.6619 31.9583 17.156 31.9583ZM9.57266 20.9398C9.50332 20.9398 9.43399 20.9658 9.38091 21.0188L8.74607 21.6537C8.67782 21.7219 8.66699 21.8021 8.66699 21.8443C8.66699 21.8866 8.67674 21.9668 8.74607 22.035L16.9642 30.2532C17.1029 30.3918 17.2091 30.3908 17.3477 30.2532L17.9826 29.6183C18.0877 29.5122 18.0877 29.341 17.9826 29.2348L9.76549 21.0177C9.71132 20.9657 9.64199 20.9398 9.57266 20.9398Z" fill="#353643"/>
<path d="M13.364 32.5C12.857 32.5 12.3814 32.3028 12.0228 31.9442L7.05575 26.9772C6.69717 26.6186 6.5 26.143 6.5 25.636C6.5 25.1301 6.69717 24.6534 7.05575 24.2959L8.4565 22.8952L9.60592 24.0446L8.20517 25.4453C8.13475 25.5136 8.125 25.5937 8.125 25.636C8.125 25.6782 8.13475 25.7584 8.20408 25.8267L13.1723 30.7948C13.3109 30.9335 13.4171 30.9335 13.5558 30.7948L14.9565 29.3941L16.1059 30.5435L14.7052 31.9442C14.3466 32.3028 13.8699 32.5 13.364 32.5Z" fill="#353643"/>
<path d="M29.4278 19.6852C28.9425 19.6852 28.4571 19.5011 28.0877 19.1317L19.8696 10.9135C19.1307 10.1736 19.1307 8.97108 19.8696 8.23225L20.5044 7.59742C21.2216 6.88134 22.4706 6.88134 23.1856 7.59742L31.4027 15.8145C31.7613 16.172 31.9585 16.6487 31.9585 17.1546C31.9585 17.6605 31.7613 18.1372 31.4027 18.4947L30.7679 19.1295C30.3995 19.5 29.9131 19.6852 29.4278 19.6852ZM21.8445 8.66667C21.8022 8.66667 21.7221 8.6775 21.6527 8.74575L21.0179 9.38058C20.9128 9.48675 20.9128 9.65792 21.0179 9.76408L29.235 17.9812C29.3411 18.0862 29.5123 18.0873 29.6185 17.9812L30.2533 17.3463C30.3226 17.2781 30.3335 17.1979 30.3335 17.1557C30.3335 17.1134 30.3237 17.0332 30.2544 16.965L22.0362 8.74683C21.9669 8.67642 21.8867 8.66667 21.8445 8.66667Z" fill="#353643"/>
<path d="M30.5431 16.1048L29.3937 14.9554L30.7944 13.5547C30.8638 13.4853 30.8735 13.4052 30.8735 13.3629C30.8735 13.3207 30.8638 13.2405 30.7944 13.1722L25.8262 8.20408C25.6876 8.06542 25.5814 8.06542 25.4427 8.20408L24.042 9.60483L22.8926 8.45542L24.2933 7.05467C25.0105 6.33858 26.2596 6.33858 26.9746 7.05467L31.9417 12.0217C32.3003 12.3792 32.4974 12.8559 32.4974 13.3618C32.4974 13.8677 32.3003 14.3444 31.9417 14.7019L30.5431 16.1048Z" fill="#353643"/>
<path d="M10.0205 9.386C9.12459 9.386 8.39551 8.65691 8.39551 7.761C8.39551 6.86508 9.12459 6.136 10.0205 6.136C10.9164 6.136 11.6455 6.86508 11.6455 7.761C11.6455 8.65691 10.9164 9.386 10.0205 9.386ZM10.0205 7.21933C9.72151 7.21933 9.47884 7.462 9.47884 7.761C9.47884 8.06 9.72151 8.30266 10.0205 8.30266C10.3195 8.30266 10.5622 8.06 10.5622 7.761C10.5622 7.462 10.3195 7.21933 10.0205 7.21933Z" fill="#A4AFC1"/>
</svg>
