<svg width="39" height="39" viewBox="0 0 39 39" fill="none" xmlns="http://www.w3.org/2000/svg">
<path d="M9.07467 34.4858C16.5681 34.4858 21.7139 38.3673 25.3247 38.3673C28.9354 38.3673 36.5188 36.2917 36.5188 19.6809C36.5188 3.07017 26.317 0.631588 22.3455 0.631588C3.74793 0.631588 -4.19616 34.4858 9.07467 34.4858Z" fill="white"/>
<path d="M3.24121 10.4166L4.00724 9.65053L5.53931 11.1826L4.77328 11.9486L3.24121 10.4166Z" fill="#A4AFC1"/>
<path d="M7.64551 14.8225L8.41154 14.0564L9.94361 15.5885L9.17757 16.3545L7.64551 14.8225Z" fill="#A4AFC1"/>
<path d="M3.05078 15.5842L4.58285 14.0521L5.34888 14.8181L3.81681 16.3502L3.05078 15.5842Z" fill="#A4AFC1"/>
<path d="M7.45508 11.1801L8.98715 9.648L9.75318 10.414L8.22111 11.9461L7.45508 11.1801Z" fill="#A4AFC1"/>
<path d="M19.5 13.7291L16.9888 15.4375L17.7591 12.3988L15.4375 10.4163L18.4243 10.2462L19.5 7.3125L20.5758 10.2462L23.5625 10.4163L21.2409 12.3988L22.0112 15.4375L19.5 13.7291Z" fill="#F3F3F1"/>
<path d="M14.8955 19.2292H24.1038V31.6875H14.8955V19.2292Z" fill="#44C789"/>
<path d="M24.1045 27.8958H31.6878V31.6875H24.1045V27.8958Z" fill="#F3F3F1"/>
<path d="M7.3125 25.7292H14.8958V31.6875H7.3125V25.7292Z" fill="#F3F3F1"/>
<path d="M19.5 13.7291L19.8066 13.9371L20.1966 12.3988L17.875 10.4163L20.7187 10.2548L20.5757 10.2462L19.5 7.3125L18.4242 10.2462L15.4375 10.4163L17.7591 12.3988L16.9888 15.4375L19.5 13.7291Z" fill="#D5DBE1"/>
<path d="M24.1045 27.8958H26.542V31.6875H24.1045V27.8958Z" fill="#D5DBE1"/>
<path d="M7.3125 25.7292H9.75V31.6875H7.3125V25.7292Z" fill="#D5DBE1"/>
<path d="M14.8955 19.2292H17.333V31.6875H14.8955V19.2292Z" fill="#00B871"/>
<path d="M22.0106 16.25C21.8514 16.25 21.6921 16.2034 21.5535 16.1092L19.4995 14.7117L17.4455 16.1092C17.1671 16.2998 16.7987 16.2977 16.5225 16.1027C16.2462 15.9088 16.1173 15.5653 16.2007 15.2371L16.8475 12.688L14.9094 11.0327C14.657 10.8171 14.5616 10.4693 14.6678 10.1552C14.774 9.83992 15.06 9.62217 15.3915 9.60267L17.8452 9.464L18.7379 7.03192C18.8538 6.71233 19.1593 6.5 19.4995 6.5C19.8396 6.5 20.1451 6.71233 20.2621 7.033L21.1548 9.46508L23.6086 9.60375C23.9401 9.62325 24.2261 9.841 24.3322 10.1563C24.4384 10.4704 24.3431 10.8171 24.0906 11.0338L22.1526 12.6891L22.7993 15.2382C22.8827 15.5664 22.7538 15.9098 22.4776 16.1038C22.3367 16.2013 22.1731 16.25 22.0106 16.25ZM19.4995 12.9166C19.6587 12.9166 19.818 12.9632 19.9566 13.0574L20.6966 13.5612L20.4528 12.5992C20.377 12.2991 20.4777 11.9828 20.7128 11.7813L21.4961 11.1128L20.5297 11.0576C20.2058 11.0381 19.9241 10.8301 19.8126 10.5257L19.4995 9.672L19.1864 10.5257C19.0748 10.8301 18.7931 11.0392 18.4692 11.0576L17.5029 11.1128L18.2861 11.7813C18.5212 11.9828 18.622 12.2991 18.5461 12.5992L18.3024 13.5612L19.0423 13.0574C19.181 12.9632 19.3402 12.9166 19.4995 12.9166Z" fill="#353643"/>
<path d="M24.1038 32.5H14.8955C14.447 32.5 14.083 32.136 14.083 31.6875V19.2292C14.083 18.7807 14.447 18.4167 14.8955 18.4167H24.1038C24.5523 18.4167 24.9163 18.7807 24.9163 19.2292V31.6875C24.9163 32.136 24.5523 32.5 24.1038 32.5ZM15.708 30.875H23.2913V20.0417H15.708V30.875Z" fill="#353643"/>
<path d="M31.6878 32.5H24.1045C23.656 32.5 23.292 32.136 23.292 31.6875V27.8958C23.292 27.4473 23.656 27.0833 24.1045 27.0833H31.6878C32.1363 27.0833 32.5003 27.4473 32.5003 27.8958V31.6875C32.5003 32.136 32.1363 32.5 31.6878 32.5ZM24.917 30.875H30.8753V28.7083H24.917V30.875Z" fill="#353643"/>
<path d="M14.8958 32.5H7.3125C6.864 32.5 6.5 32.136 6.5 31.6875V25.7292C6.5 25.2807 6.864 24.9167 7.3125 24.9167H14.8958C15.3443 24.9167 15.7083 25.2807 15.7083 25.7292V31.6875C15.7083 32.136 15.3443 32.5 14.8958 32.5ZM8.125 30.875H14.0833V26.5417H8.125V30.875Z" fill="#353643"/>
<path d="M20.3128 28.1667H18.6878V24.375H18.417V22.75H19.5003C19.9488 22.75 20.3128 23.114 20.3128 23.5625V28.1667Z" fill="#353643"/>
<path d="M2.16699 30.875H36.8337V32.5H2.16699V30.875Z" fill="#353643"/>
</svg>
