<svg width="39" height="39" viewBox="0 0 39 39" fill="none" xmlns="http://www.w3.org/2000/svg">
<path d="M37.8126 21.6837C33.7154 15.5147 34.1509 9.19122 32.176 6.21803C30.2011 3.24484 24.3153 -1.88128 10.4086 7.05107C-3.4982 15.9834 0.0388874 25.6934 2.21205 28.9628C12.3824 44.2729 45.0698 32.6092 37.8126 21.6837Z" fill="#F8F8F8"/>
<path d="M28.4375 11.9844C28.4375 13.0603 28.0475 14.0404 27.3975 14.7861C26.6283 15.6809 25.5017 16.2455 24.2342 16.2455H14.7658C13.4983 16.2455 12.3717 15.6809 11.6025 14.7861C10.9525 14.0404 10.5625 13.0603 10.5625 11.9844C10.5625 11.3132 10.7142 10.6741 10.9958 10.1095L12.4042 6.39167H16.5208L16.3475 7.6913C15.6325 9.80055 17.2358 11.9844 19.5 11.9844C21.7642 11.9844 23.3675 9.80055 22.6525 7.6913L22.4792 6.39167H26.5958L28.0042 10.1095C28.2858 10.6741 28.4375 11.3132 28.4375 11.9844Z" fill="#44C789"/>
<path d="M12.2849 26.5893C14.1265 22.8076 13.8665 18.3441 11.6024 14.7861C12.3715 15.6809 13.4982 16.2455 14.7657 16.2455H24.234C25.5015 16.2455 26.6282 15.6809 27.3974 14.7861C25.1332 18.3441 24.8732 22.8076 26.7149 26.5893L27.0507 27.2818C27.6465 28.5175 28.0365 30.5607 28.1882 31.8923H10.8115C10.9632 30.5607 11.3532 28.5175 11.949 27.2818L12.2849 26.5893Z" fill="#F3F3F1"/>
<path d="M14.4515 26.5893L14.1157 27.2818C13.5199 28.5175 13.1299 30.5607 12.9782 31.8923H10.8115C10.9632 30.5607 11.3532 28.5175 11.949 27.2818L12.2849 26.5893C14.1265 22.8076 13.8665 18.3441 11.6024 14.7861C12.3282 15.6276 13.3682 16.1816 14.549 16.2348C16.0657 19.5052 16.0549 23.3083 14.4515 26.5893Z" fill="#D5DBE1"/>
<path d="M16.9325 16.2455H14.7658C13.4983 16.2455 12.3717 15.6809 11.6025 14.7861C10.9525 14.0404 10.5625 13.0603 10.5625 11.9844C10.5625 11.3132 10.7142 10.6741 10.9958 10.1095L12.4042 6.39167H14.5708L13.1625 10.1095C12.8808 10.6741 12.7292 11.3132 12.7292 11.9844C12.7292 13.0603 13.1192 14.0404 13.7692 14.7861C14.5383 15.6809 15.665 16.2455 16.9325 16.2455Z" fill="#00B871"/>
<path d="M24.2342 17.0444H14.7658C12.0001 17.0444 9.75 14.7743 9.75 11.9844C9.75 11.2057 9.92875 10.4355 10.2668 9.75795L12.0196 6.12642L13.4875 6.81139L11.7303 10.4514C11.4963 10.9202 11.375 11.4475 11.375 11.9833C11.375 13.8923 12.896 15.4455 14.7658 15.4455H24.2342C26.104 15.4455 27.625 13.8923 27.625 11.9833C27.625 11.4464 27.5037 10.9202 27.2751 10.46L25.5136 6.81032L26.9815 6.12535L28.7387 9.76647C29.0713 10.4355 29.25 11.2057 29.25 11.9844C29.25 14.7743 26.9999 17.0444 24.2342 17.0444Z" fill="#353643"/>
<path d="M19.5005 12.7833C18.156 12.7833 16.9351 12.1687 16.1486 11.097C15.3632 10.0253 15.1552 8.69054 15.581 7.4367L16.0078 6.17968L17.5494 6.68568L17.1225 7.94271C16.8647 8.70332 16.9904 9.51187 17.467 10.1617C17.9437 10.8126 18.6858 11.1854 19.5005 11.1854C20.3151 11.1854 21.0572 10.8126 21.5339 10.1617C22.0105 9.51187 22.1362 8.70226 21.8784 7.94271L21.4515 6.68568L22.9931 6.17968L23.42 7.4367C23.8457 8.69054 23.6377 10.0243 22.8523 11.097C22.0658 12.1687 20.8449 12.7833 19.5005 12.7833Z" fill="#353643"/>
<path d="M17.875 29.2951H21.125V30.893H17.875V29.2951Z" fill="#353643"/>
<path d="M11.5283 32.0425L9.91309 31.8646L10.0041 31.0709C10.1644 29.6637 10.5718 28.2735 11.2142 26.9398L11.5511 26.2463C13.149 22.9663 13.058 19.0908 11.3073 15.879L10.9238 15.1749L12.356 14.4207L12.7395 15.1248C14.7328 18.784 14.8368 23.1996 13.0168 26.9355L12.681 27.6258C12.1166 28.7976 11.758 30.0174 11.6183 31.2488L11.5283 32.0425Z" fill="#353643"/>
<path d="M27.4714 32.0425L27.3814 31.2478C27.2406 30.0163 26.8831 28.7966 26.3176 27.6237L25.9829 26.9334C24.1867 23.2465 24.2669 18.8746 26.1974 15.2409L26.5733 14.5325L28.0141 15.2729L27.6371 15.9813C25.9428 19.1707 25.8713 23.0068 27.4486 26.2431L27.7855 26.9366C28.429 28.2714 28.8364 29.6616 28.9967 31.0688L29.0877 31.8625L27.4714 32.0425Z" fill="#353643"/>
<path d="M33.4482 6.07741C32.5523 6.07741 31.8232 5.36048 31.8232 4.47949C31.8232 3.59851 32.5523 2.88158 33.4482 2.88158C34.3442 2.88158 35.0732 3.59851 35.0732 4.47949C35.0732 5.36048 34.3442 6.07741 33.4482 6.07741ZM33.4482 3.94685C33.1492 3.94685 32.9066 4.18548 32.9066 4.47949C32.9066 4.77351 33.1492 5.01213 33.4482 5.01213C33.7472 5.01213 33.9899 4.77351 33.9899 4.47949C33.9899 4.18548 33.7472 3.94685 33.4482 3.94685Z" fill="#A4AFC1"/>
</svg>
