<svg fill="none" height="30" viewBox="0 0 92 30" width="92" xmlns="http://www.w3.org/2000/svg" xmlns:xlink="http://www.w3.org/1999/xlink"><clipPath id="a"><path d="m0 0h92v30h-92z"/></clipPath><g clip-path="url(#a)" fill="#3dc383"><path d="m0 22.7448c0-2.099 0-4.1981 0-6.2972 0-.1891 0-.1891.203745-.1891h5.389965c.40749 0 .81498.0378 1.20395.1135 1.03722.2269 1.94487.6618 2.63012 1.475.29639.3593.55568.7564.68542 1.2102.074.227.1667.435.2037.6619.1112.5674.1482 1.1536.0556 1.7397-.0926.6431-.2964 1.2293-.64833 1.7777-.3519.5295-.81504.9454-1.35209 1.267-.46307.2837-.98171.4727-1.50034.6051-.20373.0568-.426.0757-.64827.1135-.81498.1323-1.64848.0567-2.48197.0756-.2408 0-.48159 0-.70386 0-.11113 0-.14817.0378-.14817.1513v3.5742c0 .2079 0 .2079-.20375.2079-.8335 0-1.66699 0-2.500498 0-.185222 0-.185222 0-.185222-.1702 0-2.0991 0-4.217 0-6.3161zm2.87095-1.9478v1.8533c0 .1135.03704.1513.14817.1513h2.22267c.46306 0 .92611-.0757 1.33361-.3405.37043-.2458.66679-.5483.79645-.9644.12965-.3782.14818-.7753.07409-1.1724-.07409-.3783-.24079-.7186-.53715-.9644-.44454-.3972-.98168-.5485-1.57439-.5485-.77793-.0189-1.55587 0-2.33379 0-.12966 0-.16671.0378-.16671.1702.03705.5862.03705 1.2102.03705 1.8154zm29.87645 1.9857c.0184 3.5551-2.9267 6.5619-6.6126 6.5431-3.6488-.019-6.5568-2.9313-6.5568-6.5242 0-3.6498 2.945-6.5432 6.5939-6.5432 3.6119-.0188 6.5939 2.9123 6.5755 6.5243zm-6.594-3.4985c-1.9079 0-3.5192 1.5695-3.5192 3.4985 0 1.9288 1.6113 3.4795 3.4451 3.4984 2.0189.0377 3.6118-1.5885 3.6118-3.4984-.0185-1.9479-1.5929-3.4985-3.5377-3.4985z"/><path d="m12.7065 26.0161c0-.3216 0-.6241.0186-.9457.0185-.2647 0-.5294.0371-.7942.0369-.3025.0369-.6052.074-.9077.0371-.2269.0371-.4538.0741-.6619.0556-.2647.1111-.5294.1852-.7753.1112-.3403.2593-.6618.4445-.9644.2409-.3972.5557-.7375.9262-1.0212.3889-.3025.8149-.5295 1.2595-.7375.2408-.1134.4816-.189.7223-.3215.037-.0189.0741-.0189.0927.0189.2037.4161.2778.8321.2963 1.286 0 .1702 0 .3215-.0185.4916-.0186.1703-.0371.3404-.0741.4917-.0926.3215-.2037.643-.389.9266-.2223.3593-.5.643-.852.87-.2778.1701-.6112.2647-.9076.397-.2778.1135-.5556.227-.7965.3972-.2593.1702-.4259.416-.463.7375-.0185.2458-.0185.4917 0 .7375.3149-.3026.815-.4161 1.2781-.4728.3519-.0378.7038-.0378 1.0372-.0189-.1297-.0946-.2037-.1702-.1852-.227.0926-.2079 1.5003.0379 2.093-.0756.389-.0756.7594-.2458.7594-.2458.0926-.0379.1852-.0946.2593-.1324.6298-.3593 1.0373-.9077 1.278-1.5695.1297-.3782.2038-.7565.2408-1.1536.037-.435.0185-.8698-.0741-1.3048-.074-.3215-.1851-.6241-.3334-.9077-.2778-.5295-.6668-.9456-1.1669-1.286-.4815-.3403-1.0372-.5673-1.6114-.6997-.3704-.0755-.7409-.1323-1.1113-.1323-.3705 0-.7409.0189-1.1298.0946-.2964.0566-.5743.1323-.852.2269-.5187.189-1.0003.4349-1.4448.7564.2407.1324.4075.416.4075.6808.3334.2269.5186.7186.1481 1.1157-.7964.8699-1.0927 2.0801-1.6855 3.0825-.0926.1701-.2408.2836-.389.3214-.0184.0945-.0555.1891-.074.2837.3519.0189.6482.2458.6112.6808-.037.2646-.0741.5483-.1111.813.1852.0568.3333.1703.4075.3593.2222-.0377.4815 0 .6667.1703.1297.1323.2593.2647.3519.4161z"/><path d="m13.5213 23.1984c-.037-.0945 0-.1891 0-.2647.0371-.2269.0927-.4539.2038-.6619.1482-.2647.3334-.4917.5557-.6997.2593-.2458.5742-.4539.852-.6808.3149-.2647.6113-.5484.815-.8888.0556-.0945.1296-.208.1666-.3215.0187-.0189.0187-.0378.0557-.0567.0185.0946-.037.1892-.0557.2837-.0925.3782-.2777.7186-.5371 1.0212-.2778.3404-.6112.6051-.9445.8698-.3334.2837-.6854.5485-.9077.9267-.0741.1324-.1481.2647-.1667.397 0 0 0 .0379-.0371.0757z"/><path d="m23.1154 26.5834c-.1111.1325-.2408.2649-.3705.3783-.2964.2648-.6483.4539-1.0373.4917-.3334.0189-.6667.0189-1.0002-.0378-.5371-.1135-1.0557-.2837-1.5558-.5295-.7594-.3782-1.4632-.851-2.1486-1.3805-.426-.3215-.852-.6618-1.3706-.7753.1667-.0379.4075-.0757.7223-.1135 1.0744-.1702 1.204-.1702 1.4077-.2269.7409-.2081 1.167-.8888 1.4633-1.3615.1296-.2082 1.0558-1.721.5371-3.4039-.2222-.7376-.6298-1.2103-.7594-1.3427-.4075-.416-.9075-.6808-1.4262-.9267-.9261-.435-1.9078-.624-2.9265-.6051-.9446 0-1.8893.0379-2.8525.0379-.2592 0-.5186-.0568-.7594-.1703-.463-.2079-.8149-.5484-1.09277-.9833-.01848-.0189-.03711-.0757-.07406-.0757-.05566 0-.03703.0568-.03703.0946-.01863.2459.01848.4728.07398.7186.09268.5296.24088 1.059.44468 1.5507.1851.4349.4074.851.7594 1.1913.5.4539 1.1113.6241 1.741.7186.1112.0189.2038.0189.3149.0379v-.019c.2037-.624.852-1.0022 1.5003-1.0022.1482 0 .2778.0378.4075.0756.037 0 .0555-.0188.0926-.0188.0186-.019.0371-.019.0371-.0379-.2779-.1135-.5743-.2269-.8891-.3215.389 0 .7409.0379 1.0742.0946.0371 0 .0741.019.1113.019.111-.0568.2222-.1324.3333-.1703.3705-.1703.7595-.0946 1.0002.2647.0926.1324.1112.3404.0741.5107.7409.5672.9446 1.5884.6483 2.4205-.1296.3782-.352.6619-.6112.8887.0184.2648-.1112.5485-.3519.6808-.1112.0567-.2223.1135-.3335.1892-.0371.0189-.1297.0567-.1482.0945.0741-.0568.0927-.0756.0371-.0189-.0186.0189-.0556.0378-.0741.0567-.1667.1324-.3705.2081-.5557.2081-.0556.1701-.1667.3214-.3333.4159-.0927.0568-.1853.0947-.2964.1324-.0371.019-.0926.0379-.1297.0568-.0555.0189-.2037.1324-.0371 0-.1666.1324-.3148.208-.5186.208-.1111 0-.2036-.019-.2962-.0567-.0372.208-.1668.3782-.3706.4727-.1111.1324-.2964.208-.5186.208-.6853 0-.8706-.7564-.5556-1.1724-.1853-.227-.2038-.5484-.0556-.8132.0185-.0378.037-.0568.037-.0945-.1296-.5295-.074-1.0779.2408-1.5507.0185-.0378.0371-.0567.0556-.0945-.0371-.1513-.0741-.3216-.0741-.4538-.0185-.3782.2222-.6053.5001-.6619-.0185-.0379-.0371-.0946-.0556-.1324-.3334-.0379-.6668-.0757-.9817-.1703-.7409-.2079-1.3521-.5861-1.778-1.267-.0186-.0377-.0371-.1134-.0927-.0945s-.037.0945-.037.1324v10.0415c0 .1701.0184.189.2037.208h.852c.4446-.019.8705-.0946 1.2595-.3404.3149-.1891.5742-.435.778-.7186.2037-.3026.2964-.5673.3334-.6619.3149-.9833.037-2.4583.1482-2.5718.0185-.0188.037-.0378.037-.0378.0555-.0189.1297.019.2037.019.4816-.0568.815.1701 1.0928.5483.2223.3215.4445.6619.7039.9645.2963.3593.6483.6618 1.0187.9266-.9262-.3404-1.63-.9645-2.1856-1.8343-.0185.0945 0 .1513 0 .189.1111.4728.2778.9456.426 1.3994.2408.7375.6112 1.3426 1.241 1.7965.5556.3972 1.1854.6051 1.8707.6618.3705.0379.7225 0 1.0929-.0567.4074-.0567.7964-.1512 1.1669-.3215.9632-.4348 1.7967-1.0779 2.4263-1.9666.1298-.1891.2779-.3972.3335-.6241-.0556.0568-.0926.0757-.1111.1134z"/><path d="m20.8555.411304c.9261-.170195 2.3338-.170195 3.2414 0v7.677706c0 4.08459-2.0374 5.86229-5.5197 5.86229-3.4821 0-5.5196-1.7777-5.5196-5.86229v-7.677706c.9076-.170195 2.3338-.170195 3.2414 0v8.188256c0 1.53174.778 2.64744 2.2782 2.64744 1.5003 0 2.2783-1.1157 2.2783-2.64744zm14.0954 0c.1666.945526.1666 1.777576 0 2.704206h-3.5007v10.51419c-.9261.1703-2.2782.1703-3.1859 0v-10.51419h-3.5191c-.1668-.94553-.1668-1.7776 0-2.704206zm5.8716 0c2.8895 0 4.8898 1.777586 4.8898 4.368326 0 1.7965-.9446 3.19589-2.4635 3.89555l3.1489 4.97352c-.9077.1701-2.5561.1701-3.4638 0l-2.8523-4.48182h-1.2596v4.48182c-.9076.1701-2.2782.1701-3.1858 0v-13.237396zm-2.0005 6.051376h2.0005c.8705 0 1.6299-.5295 1.6299-1.66413 0-1.13464-.7594-1.66413-1.6299-1.66413h-2.0005zm11.6135 7.18602c-.9076.1701-2.2783.1701-3.1859 0v-13.237396c.9076-.170195 2.2783-.170195 3.1859 0zm10.8911-13.237396c.1666.945526.1666 1.777576 0 2.704206h-3.5008v10.51419c-.9261.1703-2.2782.1703-3.1859 0v-10.51419h-3.5006c-.1667-.94553-.1667-1.7776 0-2.704206zm3.8896 13.237396c-.9075.1701-2.2782.1701-3.1858 0v-13.237396c.9076-.170195 2.2783-.170195 3.1858 0zm14.281-6.61872c0 3.80102-2.7784 6.92132-6.8721 6.92132-4.1119 0-6.8718-3.1203-6.8718-6.92132 0-3.80101 2.7784-6.921245 6.8718-6.921245 4.1121 0 6.8721 3.101325 6.8721 6.921245zm-10.5025 0c0 2.64745 1.6671 4.21702 3.6304 4.21702 1.9634 0 3.6303-1.56957 3.6303-4.21702 0-2.64747-1.6669-4.21703-3.6303-4.21703-1.9633 0-3.6304 1.56956-3.6304 4.21703zm23.0045 6.61872c-.9261.1701-1.5739.1701-2.5001 0l-6.0382-7.75335v7.75335c-.9262.1701-2.2786.1701-3.1863 0v-13.237396c.9261-.170195 1.5747-.170195 2.5009 0l6.0382 7.753326v-7.753326c.9262-.170195 2.2786-.170195 3.1855 0zm-80.0345-.2837c-.926.1702-1.5743.1702-2.50043 0l-6.03822-7.7533v7.7533c-.9261.1702-2.27822.1702-3.185816 0v-13.237354c.926116-.1701947 1.574396-.1701947 2.500496 0l6.03829 7.753324v-7.753324c.92606-.1701947 2.27818-.1701947 3.18568 0z"/></g></svg>