<svg width="14" height="13" viewBox="0 0 14 13" fill="none" xmlns="http://www.w3.org/2000/svg">
<path d="M13.3886 0.0943837C12.7569 -0.24456 12.0522 0.409117 11.6392 0.796481C10.6916 1.71647 9.88974 2.78172 8.99067 3.75013C7.99445 4.81538 7.07112 5.88063 6.0506 6.92171C5.46744 7.50276 4.83569 8.13223 4.44693 8.85853C3.57219 8.01113 2.81895 7.09115 1.84703 6.34067C1.14238 5.80804 -0.0239244 5.42068 0.000373684 6.70382C0.0489699 8.37437 1.53115 10.1659 2.62457 11.3038C3.08623 11.788 3.69368 12.2964 4.39833 12.3206C5.24876 12.369 6.12349 11.3522 6.63375 10.7954C7.53282 9.82694 8.26177 8.73744 9.08786 7.74486C10.157 6.43751 11.2504 5.15433 12.2952 3.82276C12.9513 2.99961 15.0166 0.965913 13.3886 0.0943837ZM1.06945 6.60698C1.04515 6.60698 1.02085 6.60698 0.972258 6.63115C0.875066 6.60698 0.802171 6.58273 0.704979 6.53431C0.777873 6.48589 0.899364 6.5101 1.06945 6.60698Z" fill="#2FA037"/>
</svg>
