<svg width="22" height="22" viewBox="0 0 22 22" fill="none" xmlns="http://www.w3.org/2000/svg">
<g clip-path="url(#clip0)">
<path d="M10.8438 10.5975C12.2997 10.5975 13.5604 10.0753 14.5905 9.04509C15.6206 8.01501 16.1428 6.75465 16.1428 5.29858C16.1428 3.84302 15.6206 2.58249 14.5903 1.55208C13.5601 0.522171 12.2996 0 10.8438 0C9.38777 0 8.12741 0.522171 7.09734 1.55225C6.06726 2.58232 5.54492 3.84285 5.54492 5.29858C5.54492 6.75465 6.06726 8.01518 7.0975 9.04526C8.12775 10.0752 9.38827 10.5975 10.8438 10.5975Z" fill="white"/>
<path d="M20.1149 16.917C20.0851 16.4883 20.0251 16.0207 19.9366 15.5269C19.8473 15.0294 19.7323 14.5591 19.5947 14.1292C19.4525 13.6849 19.2592 13.2462 19.0202 12.8257C18.7721 12.3893 18.4807 12.0093 18.1537 11.6966C17.8118 11.3695 17.3932 11.1065 16.9092 10.9146C16.4268 10.7238 15.8922 10.6271 15.3203 10.6271C15.0958 10.6271 14.8786 10.7193 14.4591 10.9924C14.201 11.1607 13.899 11.3554 13.562 11.5708C13.2738 11.7544 12.8834 11.9264 12.4011 12.0822C11.9307 12.2344 11.453 12.3116 10.9815 12.3116C10.51 12.3116 10.0325 12.2344 9.56153 12.0822C9.07981 11.9266 8.6894 11.7545 8.40154 11.5709C8.0677 11.3576 7.76557 11.1629 7.50357 10.9922C7.08462 10.7191 6.86726 10.627 6.64268 10.627C6.07066 10.627 5.53624 10.7238 5.05402 10.9148C4.57029 11.1063 4.15151 11.3693 3.80927 11.6968C3.48248 12.0097 3.19093 12.3895 2.94319 12.8257C2.70434 13.2462 2.51098 13.6848 2.36865 14.1294C2.23118 14.5593 2.11621 15.0294 2.02692 15.5269C1.93846 16.02 1.87837 16.4878 1.84866 16.9175C1.81946 17.3385 1.80469 17.7754 1.80469 18.2166C1.80469 19.365 2.16975 20.2947 2.88964 20.9804C3.60064 21.657 4.54142 22.0002 5.68546 22.0002H16.2786C17.4226 22.0002 18.363 21.6571 19.0742 20.9804C19.7943 20.2952 20.1593 19.3654 20.1593 18.2165C20.1592 17.7732 20.1442 17.3359 20.1149 16.917Z" fill="white"/>
</g>
<defs>
<clipPath id="clip0">
<rect width="22" height="22" fill="white"/>
</clipPath>
</defs>
</svg>
