<svg width="6" height="4" viewBox="0 0 6 4" fill="none" xmlns="http://www.w3.org/2000/svg">
<path d="M2.55363 2.37636L0.643741 0.498758C0.591279 0.447058 0.521135 0.418617 0.446344 0.418617C0.37151 0.418617 0.301408 0.447058 0.248863 0.498758L0.0815985 0.663284C0.0289703 0.714902 -1.06215e-07 0.783904 -1.03192e-07 0.857434C-1.00169e-07 0.930965 0.0289703 0.999884 0.0815985 1.05154L2.35549 3.28713C2.4082 3.33899 2.47863 3.36739 2.55351 3.36719C2.62871 3.36739 2.69906 3.33903 2.75182 3.28713L5.0235 1.05362C5.07613 1.00197 5.1051 0.933046 5.1051 0.859474C5.1051 0.785944 5.07613 0.717024 5.0235 0.665324L4.85624 0.500839C4.74737 0.393808 4.57015 0.393808 4.46132 0.500839L2.55363 2.37636Z" fill="white"/>
</svg>
