<svg fill="none" height="40" viewBox="0 0 40 40" width="40" xmlns="http://www.w3.org/2000/svg"><g fill="#fff"><path d="m33.3464 0h-26.66697c-1.37858 0-2.49974 1.12152-2.49974 2.5001v35c0 1.3786 1.12116 2.4997 2.49974 2.4997h26.66697c1.3785 0 2.4997-1.1211 2.4997-2.4997v-35c0-1.37858-1.1212-2.5001-2.4997-2.5001zm.8331 37.5001c0 .4596-.3735.8331-.8331.8331h-26.66697c-.45964 0-.83313-.3735-.83313-.8331v-35c0-.46.37349-.83348.83313-.83348h26.66697c.4596 0 .8331.37348.8331.83348z"/><path d="m7.51367 11.6669h24.99993v-8.3334h-24.99993zm1.66662-6.66679h21.66671v5.00019h-21.66671z"/><path d="m13.347 13.333h-4.99984c-.46072 0-.83349.3728-.83349.8335v4.9998c0 .4607.37277.8335.83349.8335h4.99984c.4607 0 .8335-.3728.8335-.8335v-4.9998c0-.4607-.3728-.8335-.8335-.8335zm-.8335 5.0002h-3.33321v-3.3336h3.33321z"/><path d="m31.679 13.333h-5.0002c-.4603 0-.8331.3728-.8331.8335v4.9998c0 .4607.3728.8335.8331.8335h5.0002c.4604 0 .8332-.3728.8332-.8335v-4.9998c0-.4607-.3728-.8335-.8332-.8335zm-.8334 5.0002h-3.3333v-3.3336h3.3333z"/><path d="m22.513 13.333h-4.9998c-.4607 0-.8335.3728-.8335.8335v4.9998c0 .4607.3728.8335.8335.8335h4.9998c.4607 0 .8335-.3728.8335-.8335v-4.9998c0-.4607-.3728-.8335-.8335-.8335zm-.8331 5.0002h-3.3336v-3.3336h3.3336z"/><path d="m13.347 21.667h-4.99984c-.46072 0-.83349.3728-.83349.8331v5.0002c0 .4607.37277.8332.83349.8332h4.99984c.4607 0 .8335-.3725.8335-.8332v-5.0002c0-.4603-.3728-.8331-.8335-.8331zm-.8335 4.9998h-3.33321v-3.3332h3.33321z"/><path d="m31.679 21.667h-5.0002c-.4603 0-.8331.3728-.8331.8331v5.0002c0 .4607.3728.8332.8331.8332h5.0002c.4604 0 .8332-.3725.8332-.8332v-5.0002c0-.4603-.3728-.8331-.8332-.8331zm-.8334 4.9998h-3.3333v-3.3332h3.3333z"/><path d="m22.513 21.667h-4.9998c-.4607 0-.8335.3728-.8335.8331v5.0002c0 .4607.3728.8332.8335.8332h4.9998c.4607 0 .8335-.3725.8335-.8332v-5.0002c0-.4603-.3728-.8331-.8335-.8331zm-.8331 4.9998h-3.3336v-3.3332h3.3336z"/><path d="m13.347 30.0005h-4.99984c-.46072 0-.83349.3724-.83349.8331v5.0002c0 .4604.37277.8332.83349.8332h4.99984c.4607 0 .8335-.3728.8335-.8332v-5.0002c0-.4607-.3728-.8331-.8335-.8331zm-.8335 4.9998h-3.33321v-3.3332h3.33321z"/><path d="m31.679 30.0005h-5.0002c-.4603 0-.8331.3724-.8331.8331v5.0002c0 .4604.3728.8332.8331.8332h5.0002c.4604 0 .8332-.3728.8332-.8332v-5.0002c0-.4607-.3728-.8331-.8332-.8331zm-.8334 4.9998h-3.3333v-3.3332h3.3333z"/><path d="m22.513 30.0005h-4.9998c-.4607 0-.8335.3724-.8335.8331v5.0002c0 .4604.3728.8332.8335.8332h4.9998c.4607 0 .8335-.3728.8335-.8332v-5.0002c0-.4607-.3728-.8331-.8335-.8331zm-.8331 4.9998h-3.3336v-3.3332h3.3336z"/></g></svg>