<svg fill="none" height="13" viewBox="0 0 20 13" width="20" xmlns="http://www.w3.org/2000/svg"><path d="m10.0042 8.24621-7.48225-7.908648c-.20553-.217765-.48032-.33756117-.77333-.33756115-.29317.00000002-.56781.11979615-.773661.33756215l-.655285.692997c-.206178.21742-.31967435.50806-.31967434.81778s.11349634.60002.31967434.81761l8.908296 9.41655c.2065.2184.48244.338.77573.3372.2947.0008.5703-.1186.777-.3372l8.8996-9.40779c.2062-.21759.3197-.50788.3197-.81777 0-.30972-.1135-.60002-.3197-.81779l-.6553-.692822c-.4265-.450828-1.1208-.450828-1.5471 0z" fill="#2fa037"/></svg>