<svg fill="none" height="12" viewBox="0 0 14 12" width="14" xmlns="http://www.w3.org/2000/svg"><path d="m13.3886.417018c-.6317-.31287-1.3364.290523-1.7494.648092-.9476.84922-1.74946 1.83253-2.64853 2.72644-.99622.98331-1.91955 1.96662-2.94007 2.92762-.58316.53635-1.21491 1.11739-1.60367 1.78783-.87474-.78221-1.62798-1.63143-2.5999-2.32418-.70465-.49166-1.8709544-.84922-1.84665632.33522.04859622 1.54204 1.53077632 3.19579 2.62419632 4.24606.46166.447 1.06911.9163 1.77376.9387.85043.0446 1.72516-.894 2.23542-1.408.89907-.89388 1.62802-1.89957 2.45411-2.8158 1.06914-1.20679 2.16254-2.39127 3.20734-3.6204.6561-.75983 2.7214-2.63709 1.0934-3.441582zm-12.31915 6.011632c-.0243 0-.0486 0-.097192.02231-.097193-.02231-.170087-.0447-.267279-.08939.072894-.0447.194385-.02235.364471.06708z" fill="#fff"/></svg>