<svg fill="none" height="100" viewBox="0 0 100 100" width="100" xmlns="http://www.w3.org/2000/svg"><g fill="#2fa037"><path d="m52.0415 33.1498c0 .4856-.3969.8789-.887.8789-.4896 0-.8869-.3933-.8869-.8789 0-.4852.3973-.8789.8869-.8789.4901 0 .887.3937.887.8789z"/><path d="m55.1096 26.7766c-.4897 0-.8869.3933-.8869.8789 0 .4852.3972.8789.8869.8789.49 0 .887-.3937.887-.8789s-.397-.8789-.887-.8789z"/><path d="m59.0503 31.7961c0 .4853-.3973.8789-.887.8789-.49 0-.8869-.3936-.8869-.8789 0-.4852.3969-.8789.8869-.8789.4897 0 .887.3937.887.8789z"/><path d="m76.1939 40.7572-3.3087-3.2772v-6.0454c.0111-.1234.0185-.2483.0185-.3758-.0011-1.2832-.582-2.4928-1.5954-3.3178-.5543-.4556-.6896-1.21-.4549-1.8549.1674-.4702.2539-.9635.2539-1.4685 0-.0007 0-.0007-.0015-.0022.0599-1.5062-.949-3.2798-2.7395-3.9858-.9894-.3864-2.0899-.4146-3.1058-.0465-.6712.2439-1.4332.0073-1.9007-.5252-.8548-.9653-2.0776-1.5212-3.356-1.5245h-.0181c-1.1208 0-2.1915.4537-3.0156 1.2773-.6456.6387-1.0654 1.4462-1.2144 2.3346-.1075.6574-.667 1.2118-1.3304 1.3169-1.8282.3058-3.2639 1.7278-3.5725 3.5391-.1079.6573-.6671 1.2118-1.3319 1.3183-1.5721.2589-2.795 1.3407-3.3323 2.6382-.2099.5054-.3149 1.0335-.3123 1.57.0007.6482.1452 1.2762.429 1.868.2743.5757.68 1.0968 1.1704 1.5081.3644.3035.5821.769.5821 1.2458 0 .5775-.2964.7537-.3655 1.7721l-9.0073 8.9257c-1.7214 1.7058-2.2639 4.2279-1.4435 6.4555l-19.2319 17.1881c-1.8123 1.6223-1.771 4.4158.0096 6.0033.7565.6742 1.7181 1.039 2.727 1.039 1.1423 0 2.2362-.4622 3.0259-1.3323l17.4211-19.1397c2.2041.7002 4.6066.1374 6.2726-1.5135l11.3481-11.2449c.3163-.0069-.8279-.004 6.3804-.004l3.3087 3.2772c.68.6738 1.5728 1.01 2.4661 1.01.8932 0 1.7864-.3369 2.466-1.01l2.7588-2.7326c.6593-.6526 1.0218-1.5202 1.0218-2.4434 0-.9229-.3625-1.7904-1.0218-2.443zm-29.9824 14.3481c-1.3005 1.2884-3.23 1.6487-4.9159.9174-.35-.1516-.7587-.0648-1.0145.2164l-17.8272 19.5854c-.8548.9422-2.3097.9997-3.2484.1629-1.0034-.8943-1.0352-2.4708-.0074-3.3911l19.7013-17.6078c.2945-.2637.3769-.6896.201-1.0422-.8441-1.6908-.507-3.7222.8393-5.0556l8.1414-8.0676c.252.5537.6146 1.043 1.0614 1.433l-4.1857 4.1484c-.3463.3432-.3463.8995 0 1.243.3467.3431.9077.3431 1.2543 0l4.5552-4.5136c.83.2399 1.6941.2351 2.4986.0095l-5.7991 5.7466c-.3467.3435-.3467.9002 0 1.2429.3462.3435.9076.3435 1.2539 0l6.6584-6.5973c.0092.0107.0195.0198.0284.0304.3847.4523.8511.8138 1.3666 1.0734zm28.7285-10.705-2.7591 2.733c-.6678.6614-1.7555.6617-2.424-.0004l-3.5685-3.5346c-.1663-.1648-.3921-.2571-.6267-.2571h-3.3135c.391-.531.6571-1.1426.7724-1.7908.0983-.5358-.3186-1.0345-.8729-1.0345-.4291 0-.7957.3036-.8726.7218-.4065 2.1533-3.1043 2.8429-4.513 1.1938-.6697-.7837-1.6379-1.2337-2.6587-1.2348-.9956 0-1.1918.3588-2.0732.3588-.5558 0-1.0987-.1666-1.5266-.4702-.8981-.6408-1.2961-1.8709-.8848-2.9685.4878-1.2887.129-2.8117-1.0007-3.7569-.6006-.4981-.972-1.2763-.9683-2.0321.0089-1.2594.9867-2.2768 2.1645-2.4745 1.425-.2406 2.5448-1.3506 2.7872-2.7613.1797-1.0748 1.0304-1.9171 2.1169-2.0954 1.4239-.2403 2.5437-1.3499 2.7865-2.7612.0898-.5259.3381-1.0042.7199-1.3825.517-.509 1.0987-.757 1.779-.7617h.0108c.7398 0 1.51.3541 2.0104.9236.9667 1.0935 2.4997 1.5069 3.8434 1.0191.592-.2131 1.2454-.2036 1.8459.0308 1.2111.4702 1.9554 1.8717 1.4676 3.2303-.1405.3908-.2129.7984-.2129 1.2122-.0022 1.017.4387 1.9603 1.2122 2.5906.6031.4925.9486 1.207.9486 1.9607 0 1.1404-.7605 2.2741-2.1298 2.5276-.7014.1256-1.3378.4515-1.8429.9411-.5145.4992-.8504 1.1323-.9709 1.8303-.1641.954-.864 1.7465-1.8179 2.0267-.4715.1362-.7394.6269-.6005 1.0905.1327.4486.615.735 1.1009.5959 1.5444-.4501 2.7828-1.7502 3.067-3.4186.1109-.6717.6656-1.2082 1.3788-1.3349.6508-.1142 1.2636-.3746 1.7968-.7577v3.2839c0 .2336.0935.457.2602.6218l3.5681 3.5343c.3238.3208.5023.7471.5023 1.2004 0 .4534-.1785.88-.5019 1.2005z"/><rect height="2" rx="1" transform="matrix(.90628566 .42266572 -.42266572 .90628566 10.514663 -10.755904)" width="68.5419" x="29.5127" y="18.3334"/></g><circle cx="50" cy="50" r="49.5" stroke="#2fa037"/></svg>