<svg fill="none" height="100" viewBox="0 0 100 100" width="100" xmlns="http://www.w3.org/2000/svg"><g fill="#2fa037"><path d="m67.3056 33.5134c-.3186-.5519-.9123-.8946-1.5495-.8946h-30.4651c-.6373 0-1.231.3427-1.5495.8946l-2.1742 3.7656c-.243.4209-.0987.9591.3222 1.2022.4208.243.9592.0988 1.2022-.3222l1.6744-2.9 6.3543 11.006h-12.7087l2.6867-4.6535c.243-.421.0988-.9593-.3222-1.2023-.4209-.2432-.9593-.0987-1.2022.3222l-3.2515 5.6318c-.3085.5342-.2396 1.2024.1712 1.6627l22.9427 25.696c.27.3024.6574.476 1.063.4762.4052 0 .7932-.1732 1.0635-.4752l22.9892-25.6963c.4118-.4603.481-1.1288.1722-1.6638zm-14.9254 12.7517h-8.2111l6.3543-11.0061 6.3544 11.0061h-.0763c-.4861 0-.8801.3941-.8801.8801 0 .4861.3941.88.8801.88h.4237l-6.7231 22.8185-6.6825-22.8183h8.5606c.4861 0 .8801-.3941.8801-.8801.0001-.4861-.394-.8802-.8801-.8802zm6.022-.8801-6.3543-11.0061h12.7087zm.6583 2.6404h13.1309l-19.5789 21.8843zm13.5748-1.7603h-12.7087l6.3544-11.006zm-36.3448-11.8862h12.7087l-6.3544 11.006zm5.6949 13.6465 6.41 21.8877-19.5425-21.8877z"/><path d="m71.8232 70.9176c-.0418-.0279-.086-.0521-.1321-.0725-.5587-.2472-1.074-.5391-1.5315-.8673-.3948-.2834-.9448-.193-1.2282.2019s-.193.9448.2019 1.2282c.2683.1927.5521.3744.8491.5443-1.9008 1.0845-3.219 2.6383-3.8646 4.5593-.6456-1.9206-1.9636-3.4743-3.8639-4.5589 1.9006-1.0845 3.2186-2.6383 3.864-4.5593.009.0265.0181.0529.0271.0793.1599.459.6614.7014 1.1207.5417.459-.1598.7015-.6615.5417-1.1206-.0669-.1919-.1256-.3912-.1749-.5923l-.3659-1.4946c-.1299-.5307-.6023-.9014-1.1488-.9014-.5464 0-1.0188.3707-1.1489.9015l-.3657 1.4945c-.6236 2.5473-2.5514 3.8769-4.0588 4.5438-.046.0204-.0902.0447-.1322.0727-.3468.2312-.5538.618-.5538 1.0348 0 .4169.2071.8037.5538 1.0349.0419.028.086.0522.1322.0727 1.5074.6668 3.4351 1.9965 4.0588 4.5438l.3658 1.4946c.13.5307.6024.9014 1.1488.9014.5465 0 1.0189-.3707 1.1488-.9015l.3659-1.4945c.6235-2.5473 2.5514-3.8769 4.0587-4.5438.046-.0204.0902-.0447.1321-.0726.3469-.2311.554-.618.554-1.035 0-.4169-.2072-.8039-.5541-1.0351z"/><path d="m75.9969 32.1472c-.042-.028-.0862-.0522-.1324-.0726-.9751-.4314-1.5803-1.1028-1.7989-1.9955l-.1843-.7535v-.0001c-.1136-.4634-.5261-.787-1.003-.787 0 0-.0001 0-.0003 0-.477.0001-.8894.3239-1.0027.7871l-.1845.7535c-.2185.8927-.8238 1.5641-1.7989 1.9955-.0461.0204-.0904.0446-.1323.0726-.2965.1977-.4736.5287-.4735.885 0 .3564.1772.6872.4738.8848.0419.0279.0859.0521.132.0725.9752.4314 1.5804 1.1028 1.7989 1.9956l.1845.7533c.1134.4634.5258.7871 1.0029.7872h.0002c.4771 0 .8894-.3235 1.003-.7871l.1844-.7534c.2186-.8927.8239-1.5641 1.799-1.9955.0459-.0204.0901-.0445.1319-.0725.2966-.1976.4737-.5284.4738-.8848-.0001-.3566-.1772-.6874-.4736-.8851zm-3.1187 2.1509c-.2937-.4832-.6808-.9078-1.1545-1.266.4738-.3582.8609-.7828 1.1546-1.266.2936.4832.6807.9078 1.1544 1.266-.4738.3582-.8609.7827-1.1545 1.266z"/><path d="m28.4336 30.1954.2642 1.0793c.1207.493.5596.8374 1.0671.8374.5077 0 .9466-.3444 1.0671-.8374l.2643-1.0793c.4268-1.7431 1.7542-2.6565 2.7927-3.116.046-.0204.0902-.0447.1321-.0727.3186-.2123.5088-.5677.5088-.9506 0-.383-.1901-.7384-.5087-.9509-.042-.028-.0862-.0522-.1323-.0726-1.0384-.4594-2.3658-1.3729-2.7926-3.1159l-.2643-1.0793c-.1207-.4931-.5595-.8375-1.0672-.8375-.5075 0-.9464.3444-1.0671.8374l-.2642 1.0793c-.4266 1.743-1.7541 2.6565-2.7925 3.1159-.046.0204-.0903.0446-.1322.0726-.3187.2126-.5088.568-.5088.951s.1903.7384.5089.9507c.0419.0279.0861.0522.132.0726 1.0385.4594 2.366 1.3729 2.7927 3.116zm1.3312-6.7663c.4851 1.0617 1.2685 1.9493 2.319 2.6269-1.0504.6776-1.8339 1.5653-2.319 2.627-.485-1.0617-1.2685-1.9493-2.319-2.627 1.0505-.6776 1.834-1.5653 2.319-2.6269z"/></g><circle cx="50" cy="50" r="49.5" stroke="#2fa037"/></svg>