<svg fill="none" height="100" viewBox="0 0 100 100" width="100" xmlns="http://www.w3.org/2000/svg"><g fill="#2fa037"><path d="m23.5101 32.6608h-1.8421v1.9365h1.8421z"/><path d="m76.0122 58.7977h-53.4241c-.5084 0-.9211.4328-.9211.9683 0 11.2117 8.6768 20.3339 19.3432 20.3339h16.5799c10.6655 0 19.3432-9.1222 19.3432-20.3339 0-.5355-.4117-.9683-.9211-.9683zm-18.4221 19.3655h-16.5799c-9.341 0-16.9963-7.7327-17.4771-17.429h51.534c-.4807 9.6963-8.136 17.429-17.477 17.429z"/><path d="m68.647 35.5654c0-.0707-.0009-.1414-.0073-.2488-.1419-1.6054-1.1919-2.9242-2.5782-3.419l1.0427-1.096c1.8082-1.862 1.9896-4.8404.4071-6.9434-1.6948-2.1651-4.7492-2.473-6.8079-.6924-.117.1017-.2303.2092-.3436.3283l-1.133 1.2084c-.4753-1.4495-1.7325-2.5456-3.2818-2.6966-2.0403-.1171-3.7674 1.5288-3.8769 3.661-.0037.0707-.0047.1413-.0047.211v1.4844c-.5415-.3302-1.1688-.5199-1.8384-.521-.0663 0-.1345.002-.2368.0078-1.9693.1926-3.4845 1.9714-3.4513 4.0337v1.3169c-.5527-.336-1.1827-.5161-1.8385-.5171-.0663 0-.1335.0019-.2358.0077-1.9703.1927-3.4854 1.9714-3.4523 4.0339v14.3594c0 .5355.4127.9683.9211.9683h15.6588c2.032 0 3.6844-1.7371 3.6835-3.8712 0-.7049-.1797-1.3662-.4947-1.9364h1.2445c1.9785.057 3.6706-1.559 3.8557-3.6669.0396-.7882-.1483-1.5338-.5038-2.167.8271-.0968 1.5926-.4812 2.1894-1.1067.6962-.7301 1.0813-1.7023 1.0822-2.7383zm-2.3829 1.3672c-.3482.364-.8097.5645-1.3025.5645-.0009 0-.0018 0-.0028 0h-2.7632c-.5095 0-.9212.4338-.9212.9683s.4117.9683.9212.9683l.1013.003c1.0151.057 1.7962.9711 1.7446 1.9994-.0939 1.067-.9551 1.893-2.0025 1.8707h-4.4489c-.5094 0-.9211.4338-.9211.9683 0 .5344.4117.9683.9211.9683 1.016 0 1.8423.8685 1.8423 1.9365 0 1.0681-.8263 1.9366-1.8423 1.9366h-14.7378v-13.4088c-.0174-1.0719.7655-1.9888 1.7446-2.0857l.1004-.0029c1.0142.0009 1.8385.8685 1.8395 1.9336v.0068c0 .5345.4117.9683.9201.9683h.001c.5084 0 .9202-.4328.9211-.9673v-.0009-4.6933c-.0175-1.0718.7655-1.9887 1.7446-2.0856l.0995-.003c1.0151.0019 1.8395.8695 1.8404 1.9356v.0058c0 .5344.4118.9683.9202.9683h.001c.5084 0 .9201-.4328.9211-.9673v-.001-4.8413l.0028-.1075c.0534-1.0661.9027-1.8871 1.9012-1.8338 1.0169.0997 1.7989 1.0166 1.7796 2.1069v.8036c0 .3922.2257.7466.572.8957.3436.1491.7433.0639 1.0049-.2169l2.4989-2.6656c.0681-.0707.1382-.1376.2109-.2004 1.2748-1.1019 3.164-.9102 4.203.4144.9838 1.309.8704 3.1758-.2698 4.3504l-2.4225 2.5466c-.2634.2768-.3427.6932-.1999 1.0554.1418.3612.4789.5975.851.5975h.7645.0488c1.0059 0 1.8606.8153 1.9509 1.8338l.0028.1066c-.0011.517-.1926 1.003-.5408 1.3681z"/><path d="m61.5453 28.0951-25.7904 27.1111 1.3026 1.3693 25.7904-27.1111z"/><path d="m57.5874 29.7554h-1.8423v4.8414h1.8423z"/><path d="m52.061 34.5967h-1.8422v5.8095h1.8422z"/><path d="m46.5356 39.4288h-1.8422v6.7779h1.8422z"/><path d="m61.2716 33.6284h-4.6056v1.9364h4.6056z"/><path d="m56.6663 39.4288h-5.5267v1.9363h5.5267z"/><path d="m52.0609 45.2382h-6.4476v1.9365h6.4476z"/><path d="m38.8579 26.4792c-.0009-.002-.0028-.0039-.0037-.0058-1.2997-2.046-3.9414-2.6018-5.8868-1.2356-.0608.0417-.1207.0862-.1888.1395l-.3316.2653-.3187-.2411c-1.6856-1.6528-4.3356-1.586-5.9402.1646-.7857.856-1.2075 1.983-1.1864 3.1731.0212 1.19.4808 2.2996 1.2942 3.1245.2368.2401.5002.4512.7839.6274l.7756.6372v.4958c0 2.6695 2.066 4.8414 4.6055 4.8414s4.6056-2.1729 4.6046-4.8423v-.4958l.8152-.6691c1.7638-1.4069 2.1921-4.0338.9772-5.9791zm-2.101 4.4453-1.1791.9683c-.2229.183-.3537.4648-.3537.763v.9683c0 1.6015-1.2398 2.9048-2.7633 2.9048s-2.7633-1.3033-2.7633-2.9048v-.9683c0-.2982-.1298-.58-.3537-.763l-1.179-.9683c-.035-.0291-.0728-.0552-.1114-.0784-.1732-.1036-.3335-.2295-.4772-.3757-.4605-.4668-.7203-1.0942-.7323-1.7662s.2266-1.3091.6706-1.7933c.4688-.5112 1.0961-.7688 1.7242-.7688.5987 0 1.1984.2333 1.6627.705.0313.0309.0644.061.1004.088l.9211.6972c.3279.2489.7728.2431 1.0952-.0145l.9709-.7678c.5343-.3757 1.1744-.5074 1.8045-.3766.6282.1316 1.1707.5122 1.5272 1.0719.6834 1.098.4402 2.5775-.5638 3.3792z"/><path d="m43.7719 22.9675h-1.8422v1.9367h1.8422z"/><path d="m49.2982 53.9526h-1.8421v1.9366h1.8421z"/><path d="m71.4062 27.814v1.9366c1.0161 0 1.8423.8685 1.8423 1.9365 0 1.0679-.8262 1.9366-1.8423 1.9366v1.9365c2.032 0 3.6845-1.7371 3.6845-3.8731s-1.6525-3.8731-3.6845-3.8731z"/><path d="m25.349 36.5332h-1.8422v1.9366h1.8422z"/><path d="m57.5907 52.988c-2.032 0-3.6845 1.7371-3.6845 3.8731h1.8423c0-1.0681.8263-1.9366 1.8422-1.9366 1.016 0 1.8422.8685 1.8422 1.9366h1.8422c0-2.136-1.6525-3.8731-3.6844-3.8731z"/><path d="m32.7202 44.2737h-.116c-.4109-1.6684-1.8542-2.9048-3.5684-2.9048-1.7141 0-3.1585 1.2364-3.5683 2.9048h-.1161c-2.0319 0-3.6844 1.7371-3.6844 3.8731s1.6525 3.8731 3.6844 3.8731h7.3688c2.032 0 3.6845-1.7371 3.6845-3.8731s-1.6525-3.8731-3.6845-3.8731zm0 5.8106h-7.3689c-1.016 0-1.8423-.8685-1.8423-1.9365s.8263-1.9366 1.8423-1.9366h.9211c.5085 0 .9212-.4338.9212-.9683 0-1.068.8262-1.9365 1.8422-1.9365s1.8423.8686 1.8423 1.9365c0 .5345.4127.9683.9211.9683h.9212c1.016 0 1.8422.8686 1.8422 1.9366-.0002 1.0681-.8264 1.9365-1.8424 1.9365z"/><path d="m30.878 50.0837h-3.6844c-.5084 0-.9211.4339-.9211.9684v3.8731c0 .5355.4127.9684.9211.9684h3.6844c.5084 0 .9211-.4329.9211-.9684v-3.8731c0-.5345-.4127-.9684-.9211-.9684zm-.9211 3.8732h-1.8422v-1.9365h1.8423v1.9365z"/><path d="m70.4859 47.1782c-1.5235 0-2.7632 1.3033-2.7632 2.9049 0 1.6015 1.2397 2.9048 2.7632 2.9048s2.7633-1.3033 2.7633-2.9048c0-1.6016-1.2398-2.9049-2.7633-2.9049zm0 3.8741c-.5084 0-.9211-.4347-.9211-.9683s.4127-.9683.9211-.9683c.5085 0 .9212.4338.9212.9683 0 .5346-.4127.9683-.9212.9683z"/><path d="m70.4848 43.3055c-3.5545 0-6.4477 3.0404-6.4477 6.7779 0 3.7374 2.8932 6.7778 6.4477 6.7778 3.5546 0 6.4477-3.0404 6.4477-6.7778 0-3.7375-2.8931-6.7779-6.4477-6.7779zm0 11.6201c-2.5395 0-4.6055-2.1727-4.6055-4.8413 0-2.6696 2.066-4.8414 4.6055-4.8414s4.6056 2.1718 4.6056 4.8414c0 2.6695-2.0661 4.8413-4.6056 4.8413z"/></g><circle cx="50" cy="50" r="49.5" stroke="#2fa037"/></svg>