<svg fill="none" height="120" viewBox="0 0 120 120" width="120" xmlns="http://www.w3.org/2000/svg"><circle cx="60" cy="60" r="59.5" stroke="#2fa037"/><g fill="#2fa037"><path d="m46.4075 57.1746c.5062-.4256.5706-1.1817.1438-1.6885-.4268-.505-1.1834-.5694-1.6885-.142-.1246.1032-.2534.2052-.3838.3026-4.8254 3.5596-11.7718.1601-11.7718-5.9351 0-7.1465 9.1271-10.0886 13.3304-4.3975 1.5197 2.0596 1.8073 4.6503 1.0019 6.8907-.2232.6234.1021 1.3099.7237 1.5331.625.2233 1.3098-.1009 1.533-.7236 1.3029-3.6338.3879-7.7622-2.5594-10.502-6.1729-5.7542-16.4272-1.3823-16.4272 7.1993 0 8.378 9.8409 12.7928 16.0979 7.463z"/><path d="m90.5426 40.2652h-38.6181c-.3699-.4633-.77-.908-1.2003-1.3307-2.7211-2.6817-6.272-4.2102-10.0595-4.3493v-3.7881c0-1.5418-1.2542-2.7971-2.7971-2.7971h-1.5911c-.6204 0-1.1237.5033-1.1237 1.1237s.5033 1.1237 1.1237 1.1237h1.5911c.3038 0 .5497.247.5497.5497v3.8675c-3.9354.4355-7.5298 2.4011-10.0787 5.527-1.5789-.2807-2.8696-1.3087-3.5451-2.6325 0 0 0 0 0-.0017-1.7581-3.3683.7712-7.31 4.4288-7.31h2.5593c.6199 0 1.1238-.5033 1.1238-1.1237s-.5039-1.1237-1.1238-1.1237h-2.5593c-4.2015 0-7.4225 3.566-7.2126 7.5558-.0017.0029-.0017.0058 0 .0093-.0093.0742-.0064 46.1484-.0064 46.2232 0 4.4114 3.5886 7.9994 7.9983 7.9994h44.3236v3.3352c0 1.5435 1.2559 2.7977 2.7971 2.7977h13.6586c3.9 0 7.2189-3.1456 7.2189-7.2566v-40.9421c0-4.111-3.3444-7.4567-7.4572-7.4567zm-23.274 2.2475h23.274c2.3657 0 4.3679 1.5847 4.9999 3.7469h-28.2739zm-37.8457.0069c.0017 0 .0017-.0011.0017-.0011.559-.8211 1.2107-1.5766 1.9372-2.2475h.0018c8.3194-7.7147 21.6243-1.6664 21.6243 9.4467 0 4.3899-2.2022 8.4383-5.8911 10.8295-.7358.4778-1.3499 1.1249-1.7726 1.8741-5.4452 9.6177-5.0404 9.0094-5.2335 9.0094s.2035.5932-5.2319-9.0094c-.4238-.7492-1.0367-1.3963-1.7708-1.8729-6.1074-3.9574-7.7158-12.0785-3.6651-18.0288zm-5.1721-1.9882c.683.5972 1.631 1.3382 2.724 1.6305-3.9481 6.8008-2.0445 15.7784 4.8903 20.2733.8808.57.5822.2893 6.0726 9.9876.9469 1.6734 3.3579 1.6763 4.3065 0 5.4777-9.6751 5.1854-9.4153 6.0755-9.9894 6.7834-4.3974 8.7752-13.1506 5.1002-19.9213h5.2081v11.1386c0 1.0327.8396 1.8729 1.8728 1.8729h6.2176v5.9183h-14.8072c-1.0333 0-1.8729.8396-1.8729 1.8729v5.3849c0 1.0112.806 1.8729 1.8903 1.8729.9799-.0093 2.6834-.0232 3.8031-.0203v5.3745c0 .3438-.2795.6233-.6233.6233h-30.8576zm71.4999 48.172c0 2.7322-2.2225 4.9698-4.9698 4.9698h-13.6586c-.302 0-.5496-.2459-.5496-.5503 0-1.7302 0-7.0253 0-8.9851 0-.6204-.5033-1.1237-1.1238-1.1237-.6204 0-1.1237.5033-1.1237 1.1237v3.4025h-44.3236c-1.8549 0-3.5063-.8826-4.5581-2.2504h22.0041c.6216 0 1.1237-.5033 1.1237-1.1237 0-.6198-.5021-1.1237-1.1237-1.1237h-23.0588c-.178-.8014-.138-1.0536-.138-4.2444h30.8576c1.5829 0 2.8707-1.2878 2.8707-2.8708v-5.7479c0-1.0251-.8344-1.8653-1.8595-1.8728-.9788-.007-2.6939.0052-3.8339.0156v-4.6328h14.8073c1.0326 0 1.8728-.8402 1.8728-1.8729v-6.6675c0-1.0327-.8402-1.8729-1.8728-1.8729h-6.2176v-10.7634h4.1458v4.8706c0 .621.5027 1.1237 1.1237 1.1237h29.5263c-.4209 2.3506-2.4764 4.089-4.8903 4.089h-13.6586c-1.5429 0-2.7971 1.2553-2.7971 2.7988v12.9645h-8.5548c-1.0327 0-1.8729.8408-1.8729 1.8729v12.8103h-11.955c-.6204 0-1.1237.5039-1.1237 1.1237 0 .6204.5033 1.1237 1.1237 1.1237h12.3296c1.0321 0 1.8728-.8402 1.8728-1.8728v-12.8103h8.1803v9.0257c0 .6204.5033 1.1237 1.1237 1.1237.6205 0 1.1238-.5033 1.1238-1.1237v-24.2377c0-.3044.2458-.5514.5496-.5514h13.6586c1.9117 0 3.6692-.7509 4.9698-1.9871z"/></g></svg>