<svg fill="none" height="120" viewBox="0 0 120 120" width="120" xmlns="http://www.w3.org/2000/svg"><circle cx="60" cy="60" r="59.5" stroke="#2fa037"/><path d="m94.0511 86.5375-7.9893-19.2527c-.0015-.0034-.0027-.0067-.0041-.01l-2.4043-5.794c-.1636-.3939-.5472-.6506-.9727-.6506h-21.6052v-14.4034l17.6173-7.5916c.5345-.2303.7817-.8517.5521-1.3879-.2298-.5362-.8491-.7839-1.3839-.5537l-16.7853 7.2333v-20.9232l24.277 10.4616-3.6076 1.5546c-.5346.2303-.7817.8518-.552 1.388s.8493.784 1.3839.5536l5.8605-2.5254c.3868-.1667.6376-.5485.6376-.9708 0-.4224-.2508-.8042-.6376-.9709l-27.362-11.7907v-1.8722c0-1.6716-1.3558-3.0315-3.0226-3.0315h-.0279c-1.6666 0-3.0226 1.3599-3.0226 3.0315v41.7987h-21.551c-.4254 0-.8091.2567-.9726.6506l-4.4168 10.6437c-.2236.5387.0307 1.1572.5679 1.3815.537.2244 1.1538-.0307 1.3774-.5694l.9464-2.2808c1.0593-.0207 3.1317-.1555 5.5657-.8101 4.4213-1.1886 8.0167-3.5712 10.4404-6.9022h8.0427v7.0275c-4.1608.5873-6.7969 2.2858-6.7969 4.4441 0 1.4195 1.1491 2.671 3.2353 3.5238 1.7866.7303 4.1392 1.1324 6.6247 1.1324 2.4854 0 4.8382-.4022 6.6247-1.1324 2.0863-.8528 3.2352-2.1041 3.2352-3.5238 0-2.171-2.6567-3.8724-6.85-4.4519v-2.4065c5.6947.571 10.2411 2.7322 11.5265 5.3553.0172.0446.0376.0879.0611.1302.1994.4467.305.9062.305 1.3729 0 2.4301-2.9823 4.8158-7.5979 6.0778-.5613.1534-.8923.7343-.7393 1.2973.1276.47.5524.7789 1.0157.7789.0917 0 .185-.0121.2777-.0375 5.6445-1.5433 9.1507-4.6533 9.1507-8.1166 0-.5433-.0848-1.0743-.2462-1.5899 1.2788-1.0925 4.9059-3.81 9.5656-4.0588l2.7998 6.747c-.1591.2567-.4117.6313-.78 1.0862-.7056.8715-1.9693 2.1979-3.9814 3.567-.4816.3277-.607.9848-.2804 1.4676.2037.3012.5352.4635.8728.4635.2036 0 .4094-.059.5906-.1823 2.2221-1.5121 3.6556-3.0031 4.5306-4.107l3.3523 8.0785h-16.2802c1.6208-.5182 3.1473-1.1144 4.5692-1.7909.5256-.2501.7496-.8804.5003-1.4076-.2494-.5272-.8776-.7517-1.4034-.5017-3.9576 1.8833-8.7829 3.1279-14.3412 3.7002h-39.9102l1.8443-4.4446c1.0188.3594 2.7349.8494 4.8968 1.0267.4981.0409 1.0357.0657 1.6069.0657 2.9471 0 6.7868-.6614 10.7037-3.1825 2.9903 2.5336 8.2598 4.1835 14.3805 4.1835.5819 0 1.0536-.4731 1.0536-1.0566 0-.5836-.4717-1.0567-1.0536-1.0567-4.1005 0-7.939-.7986-10.8085-2.2489-2.6018-1.3148-4.094-3.0494-4.094-4.7584 0-2.2012 2.4637-4.3943 6.4297-5.7234.5519-.185.8497-.7834.6653-1.337-.1844-.5533-.7809-.852-1.3331-.6672-4.9273 1.6513-7.869 4.5401-7.869 7.7277 0 1.1964.409 2.3322 1.1575 3.3702-3.2521 2.0072-6.8064 2.8768-10.5829 2.5844-1.9009-.147-3.4285-.5708-4.3413-.8835l1.0968-2.6431c.2235-.5388-.0308-1.1572-.5678-1.3815-.5369-.2242-1.1538.0307-1.3774.5694l-4.3598 10.5065c-.1353.326-.0993.6983.0961.9922s.5242.4703.8765.4703h70.0248c.3522 0 .681-.1765.8764-.4703.1956-.2939.2316-.6662.0964-.9922zm-58.0132-18.7503c-1.6551.4505-3.143.636-4.1887.7104l2.3048-5.5543h10.0997c-2.0681 2.294-4.8225 3.9199-8.2158 4.8439zm21.0715-48.7557c0-.5065.4107-.9184.9156-.9184h.0279c.5049 0 .9156.4119.9156.9183v54.0728c0 .5063-.4107.9183-.9156.9183h-.0279c-.5049 0-.9156-.412-.9156-.9183zm8.7091 55.3836c0 .8631-2.7365 2.5429-7.7531 2.5429-5.0165 0-7.753-1.6798-7.753-2.5429 0-.6916 1.6587-1.8165 4.6898-2.3058v.995c0 1.6716 1.3559 3.0316 3.0227 3.0316h.0279c1.6666 0 3.0226-1.36 3.0226-3.0316v-1.0036c3.0655.4839 4.7431 1.6161 4.7431 2.3144zm8.0051-3.507c-2.1337-2.8359-6.8259-4.9282-12.7481-5.475v-2.4898h20.9025l1.5645 3.7702c-4.5714.4617-8.0902 2.8654-9.7189 4.1946z" fill="#2fa037"/></svg>