<svg fill="none" height="120" viewBox="0 0 120 120" width="120" xmlns="http://www.w3.org/2000/svg"><circle cx="60" cy="60" r="59.5" stroke="#2fa037"/><g fill="#2fa037"><path d="m83.4494 43.2259 1.5529-1.8065 1.5135 1.3013c.2038.1753.4631.2707.7301.2707.0281 0 .0561-.0011.0842-.0032.2961-.0224.5713-.1614.7649-.3867l2.4044-2.7966c.4031-.469.3498-1.176-.1192-1.5791l-8.2693-7.1093c-.2253-.1937-.5181-.291-.8143-.2676-.2961.0223-.5713.1614-.7649.3866l-2.4044 2.7966c-.4031.469-.3498 1.176.1192 1.5791l1.5134 1.3013-1.6719 1.9446c-3.4246-2.1874-7.3217-3.6975-11.5014-4.3388v-3.3837h3.8567c1.8001 0 3.2644-1.4645 3.2644-3.2646v-2.6055c0-1.8001-1.4644-3.2645-3.2644-3.2645h-16.8248c-1.8001 0-3.2646 1.4644-3.2646 3.2645v2.6055c0 1.8001 1.4645 3.2646 3.2646 3.2646h3.8568v3.3837c-4.2621.6539-8.2299 2.2122-11.703 4.4697l-1.7844-2.0755 1.5136-1.3013c.2251-.1936.3641-.4688.3865-.7649.0223-.2961-.0739-.589-.2675-.8143l-2.4044-2.7966c-.4033-.4689-1.1101-.5223-1.5793-.119l-8.2691 7.1093c-.2252.1936-.3642.4688-.3866.7649-.0222.2961.0739.589.2676.8143l2.4043 2.7966c.2215.2576.5347.3897.8496.3897.2585 0 .5183-.089.7295-.2707l1.5135-1.3011 1.7002 1.9775c-1.4713 1.5345-2.7807 3.2254-3.9012 5.0443-.0378-.0038-.0762-.0058-.1152-.0058h-7.0718c-.6184 0-1.1198.5014-1.1198 1.1199 0 .6184.5014 1.1198 1.1198 1.1198h5.9395c-.5897 1.1706-1.1045 2.3848-1.5385 3.6366h-11.3147c-.6184 0-1.1198.5014-1.1198 1.1198 0 .6185.5014 1.1199 1.1198 1.1199h10.6349c-.4044 1.5522-.6851 3.1536-.8348 4.7924h-15.1232c-.6184 0-1.1198.5014-1.1198 1.1199 0 .6184.5014 1.1198 1.1198 1.1198h15.0027c-.0029.1674-.0065.3344-.0065.5026 0 1.4565.1068 2.8884.309 4.2898h-11.0273c-.6184 0-1.1198.5014-1.1198 1.1199 0 .6184.5014 1.1198 1.1198 1.1198h11.4382c.2777 1.2429.6323 2.4569 1.0599 3.6365h-5.5844c-.6184 0-1.1198.5014-1.1198 1.1198 0 .6185.5014 1.1198 1.1198 1.1198h6.5011c4.7227 10.3203 15.1459 17.5083 27.2176 17.5083 6.305 0 12.3352-1.9387 17.439-5.6063.5021-.3609.6168-1.0608.2559-1.5629-.3613-.5024-1.0609-.6166-1.563-.2558-4.7205 3.3924-10.2989 5.1855-16.1319 5.1855-15.2598 0-27.6744-12.4147-27.6744-27.6743 0-15.2597 12.4146-27.6744 27.6744-27.6744 7.3869 0 14.1071 2.9094 19.0751 7.6422.0102.0108.0215.0206.0321.0311 5.2759 5.0422 8.5671 12.1445 8.5671 20.0011 0 7.4011-2.8847 14.3569-8.1229 19.5858-.4378.437-.4384 1.1459-.0013 1.5837.4369.4377 1.1459.4384 1.5836.0014 5.662-5.6522 8.7802-13.1708 8.7802-21.171 0-8.1058-3.242-15.4673-8.4956-20.8602zm-1.9493-9.6812 6.571 5.6492-.9442 1.0982-6.571-5.6492zm-.0416 4.8279 1.8456 1.5867-1.4782 1.7195c-.6077-.5375-1.2363-1.0521-1.8864-1.5396zm-24.3799-9.4777v-4.6552h1.8085v4.6552zm4.0481-4.6552h1.8085v4.6552h-1.8085zm4.0482 4.6552v-4.6552h1.8086v4.6552zm6.2934-3.6304v2.6055c0 .5652-.4597 1.0249-1.0247 1.0249h-1.2203v-4.6552h1.2203c.565 0 1.0247.4597 1.0247 1.0248zm-18.8746 2.6055v-2.6055c0-.5651.4598-1.0248 1.0249-1.0248h1.2203v4.6552h-1.2203c-.5651 0-1.0249-.4597-1.0249-1.0249zm-15.9725 12.4223-.9443-1.0982 6.5709-5.6492.9443 1.0982-1.5133 1.3011-3.5442 3.047zm3.8562-.3618 1.8121-1.5579 1.6437 1.9119c-.646.4924-1.2718 1.0101-1.8752 1.5524l-1.6142-1.8774zm19.2376-5.6697v-3.1262h4.6321v3.1264c-.7645-.0588-1.5369-.089-2.3161-.089-.7793 0-1.5515.0302-2.316.0888z"/><path d="m52.6508 43.6837c-.2865-.5481-.9632-.7601-1.5112-.4737-6.8083 3.5586-11.4647 10.2254-12.4561 17.8334-1.6775 12.873 7.4308 24.7109 20.3038 26.3882 1.0284.1341 2.0482.1992 3.0588.1991 11.6386-.0011 21.7858-8.6583 23.3294-20.5029.8126-6.2359-.8518-12.415-4.6869-17.3992-3.8349-4.984-9.381-8.1764-15.6172-8.9891-3.0423-.3966-6.0765-.2053-9.0188.5678-.5982.1572-.9556.7695-.7985 1.3677.1572.5981.7698.9553 1.3676.7985 1.4092-.3703 2.8425-.5914 4.2878-.6656v2.9421c0 .6185.5013 1.1199 1.1199 1.1199s1.1198-.5014 1.1198-1.1199v-2.9394c.5436.0294 1.088.0786 1.633.1496 4.3611.5682 8.3488 2.4239 11.5376 5.3192l-2.0281 2.0279c-.4375.4374-.4375 1.1463-.0002 1.5836.2188.2188.5053.3281.792.3281.2865 0 .5732-.1093.7918-.3281l2.0223-2.0223c.3517.3939.6908.8026 1.0162 1.2254 2.6776 3.48 4.1844 7.604 4.3959 11.8985h-2.7778c-.6186 0-1.1199.5014-1.1199 1.1198 0 .6185.5013 1.1199 1.1199 1.1199h2.7716c-.0295.5342-.079 1.0698-.1488 1.6058-.577 4.427-2.4826 8.361-5.2619 11.455l-1.9185-1.9185c-.4375-.4373-1.1464-.4373-1.5838 0-.4373.4374-.4373 1.1465 0 1.5836l1.9206 1.9206c-3.5271 3.1848-8.0944 5.1835-13.022 5.4735v-2.7376c0-.6185-.5012-1.1199-1.1198-1.1199s-1.1199.5014-1.1199 1.1199v2.7513c-.5878-.0275-1.1789-.0781-1.7726-.1556-4.3783-.5705-8.275-2.4402-11.3533-5.1699l1.9834-1.9834c.4374-.4374.4374-1.1463 0-1.5836-.4373-.4374-1.1464-.4374-1.5836 0l-1.9948 1.9946c-3.2326-3.5345-5.2659-8.1319-5.5644-13.0962h2.9028c.6184 0 1.1198-.5014 1.1198-1.1198 0-.6185-.5014-1.1199-1.1198-1.1199h-2.9192c.0272-.5966.0781-1.1969.1566-1.7996.5607-4.3018 2.4165-8.2713 5.2331-11.4298l2.0871 2.0869c.2186.2188.5052.3281.7918.3281.2865 0 .5732-.1093.7918-.3281.4373-.4373.4373-1.1464 0-1.5836l-2.0928-2.0927c1.334-1.2123 2.8286-2.2652 4.4617-3.1188.5482-.2861.7603-.9628.4738-1.5108z"/><path d="m62.0313 53.8137c-.6186 0-1.1198.5014-1.1198 1.1199v6.6518c-.9549.4294-1.6224 1.3875-1.6224 2.5007 0 1.512 1.2301 2.7422 2.7422 2.7422.4145 0 .8063-.0951 1.159-.2605l7.4711 7.4711c.2187.2187.5052.328.7919.328.2865 0 .5732-.1093.792-.328.4373-.4374.4373-1.1465 0-1.5836l-7.5869-7.587c.0741-.2482.1152-.5103.1152-.7822 0-1.113-.6676-2.0713-1.6223-2.5006v-6.6518c-.0002-.6186-.5015-1.12-1.12-1.12zm-.5026 10.2722c0-.2771.2255-.5026.5026-.5026.277 0 .5024.2255.5024.5026s-.2254.5026-.5024.5026c-.2773 0-.5026-.2255-.5026-.5026z"/></g></svg>