<svg fill="none" height="120" viewBox="0 0 120 120" width="120" xmlns="http://www.w3.org/2000/svg" xmlns:xlink="http://www.w3.org/1999/xlink"><clipPath id="a"><path d="m20 18h84v84h-84z"/></clipPath><circle cx="60" cy="60" r="59.5" stroke="#2fa037"/><g clip-path="url(#a)" fill="#2fa037"><path d="m67.3597 58.8906h-9.4611c-1.6265 0-1.6291 2.461 0 2.461h9.4611c1.6266 0 1.6291-2.461 0-2.461z"/><path d="m67.3597 64.8789h-9.4611c-1.6265 0-1.6291 2.4609 0 2.4609h9.4611c1.6266 0 1.6291-2.4609 0-2.4609z"/><path d="m22.4609 62.6942v-31.325c0-.1346.1096-.2442.2442-.2442h15.3995v17.3054c0 2.0738 2.3942 3.2261 4.015 1.9412l4.934-3.9093c.0058-.0045.0141-.0045.0199-.0007l4.9347 3.9106c1.6214 1.2837 4.0151.1327 4.0151-1.9418v-17.3054h16.5062c.1339 0 .2435.1096.2435.2442v4.2701c0 1.6265 2.4609 1.6291 2.4609 0v-4.2701c0-1.492-1.2131-2.7051-2.7044-2.7051h-49.8244c-1.4919 0-2.7051 1.2131-2.7051 2.7051v31.325c0 1.6265 2.4609 1.6291 2.4609 0zm31.1033-14.2568c-.032.0366.125.1064-4.9622-3.9041-.9056-.7178-2.1706-.7178-3.0762 0l-4.9385 3.9157c-.0404-.0013-.0116-5.7832-.0218-17.324h12.9968z"/><path d="m35.4752 78.7671c-2.2309 0-4.0465 1.8149-4.0465 4.0464s1.815 4.0465 4.0465 4.0465 4.0464-1.815 4.0464-4.0465-1.8149-4.0464-4.0464-4.0464zm0 5.6319c-2.0982 0-2.0957-3.171 0-3.171 2.0988 0 2.0962 3.171 0 3.171z"/><path d="m78.7126 66.3857h11.5734c.8204 0 1.5798-.4442 1.9823-1.1587.4024-.7146.3883-1.5939-.0366-2.2956l-4.1983-6.9298c-.4102-.6754-1.1555-1.0958-1.9457-1.0958h-7.3751c-1.2542 0-2.2751 1.0209-2.2751 2.275v6.9298c0 1.2541 1.0209 2.2751 2.2751 2.2751zm.1858-9.019h7.0842l3.9734 6.558h-11.0576z"/><path d="m101.369 62.6507-4.2897-1.169c-.0193-.0051-.0379-.0102-.0577-.0141-.2436-.0538-.4518-.1993-.5864-.4095l-6.1383-9.5727c-.628-.9792-1.6976-1.5637-2.8608-1.5637h-12.2022v-9.3605c0-1.6265-2.4609-1.6297-2.4609 0v30.6181h-50.3121v-3.5632c0-1.6265-2.4609-1.6291-2.4609 0v12.9968c0 1.8919 1.5394 3.4313 3.4312 3.4313h3.4876c.5992 4.1855 4.208 7.4135 8.5563 7.4135 4.3489 0 7.9576-3.228 8.5569-7.4135h32.6087c.5992 4.1855 4.2079 7.4135 8.5568 7.4135 4.3483 0 7.9577-3.228 8.5563-7.4135h6.8472c1.874 0 3.399-1.5247 3.399-3.3986v-14.6842c0-1.5958-1.081-2.9525-2.631-3.3107zm-13.9329-10.268c.3211 0 .6159.1608.7895.4313l6.1383 9.5726c.4819.7524 1.2247 1.2754 2.0937 1.4766l4.2894 1.1689c.019.0052.038.0096.058.0141.432.0955.735.4724.735.9152v10.2494h-2.881c-1.9079 0-3.4607 1.5528-3.4607 3.4613v1.9111h-1.4439c-.5992-4.1855-4.2079-7.4136-8.5569-7.4136-4.3483 0-7.957 3.2275-8.5562 7.4136h-1.4067v-29.2005zm-64.9752 28.2302v-6.9726h50.3121v7.9429h-28.741c-.5993-4.1855-4.208-7.4136-8.5569-7.4136-4.3483 0-7.9577 3.2275-8.5563 7.4136h-3.4876c-.5351 0-.9703-.4351-.9703-.9703zm13.0142 8.3833c-3.4088 0-6.1831-2.7731-6.1831-6.1825s2.7736-6.1831 6.1831-6.1831c3.4094 0 6.1831 2.7737 6.1831 6.1831s-2.7737 6.1825-6.1831 6.1825zm49.7224 0c-3.4094 0-6.1831-2.7731-6.1831-6.1825s2.7737-6.1831 6.1831-6.1831c3.4095 0 6.1831 2.7737 6.1831 6.1831s-2.7736 6.1825-6.1831 6.1825zm15.4035-7.413h-2.9418v-1.9111c0-.5511.4486-1.0004.9998-1.0004h2.88v1.9739c0 .5172-.42.9376-.938.9376z"/><path d="m85.1978 78.7671c-2.2315 0-4.0464 1.8149-4.0464 4.0464s1.8149 4.0465 4.0464 4.0465 4.0465-1.815 4.0465-4.0465-1.815-4.0464-4.0465-4.0464zm0 5.6319c-2.0988 0-2.0963-3.171 0-3.171 2.0989 0 2.0963 3.171 0 3.171z"/></g></svg>