<svg fill="none" height="47" viewBox="0 0 24 47" width="24" xmlns="http://www.w3.org/2000/svg"><path d="m15.9014 23.3082-15.250588-17.43247c-.419926-.47885-.65093407-1.11908-.65093407-1.80174 0-.68304.23100807-1.32289.65093407-1.8025l1.336338-1.526701c.41926-.480362.97971-.744789 1.57696-.744789.59724 0 1.15703.264427 1.57662.744789l18.15817 20.754811c.4213.4811.652 1.124.6503 1.8075.0017.6864-.2287 1.3285-.6503 1.81l-18.14127 20.7348c-.41959.4803-.97938.7448-1.57695.7448-.59725 0-1.15703-.2645-1.57696-.7448l-1.336005-1.5267c-.869348-.9937-.869348-2.6113 0-3.6046z" fill="#2fa037"/></svg>