<svg fill="none" height="47" viewBox="0 0 24 47" width="24" xmlns="http://www.w3.org/2000/svg"><path d="m8.04787 23.3082 15.25053-17.43247c.42-.47885.651-1.11908.651-1.80174 0-.68304-.231-1.32289-.651-1.8025l-1.3363-1.526701c-.4193-.480362-.9797-.744789-1.577-.744789-.5972 0-1.157.264427-1.5766.744789l-18.158219 20.754811c-.421252.4812-.65192929 1.124-.65027212 1.8075-.00165717.6864.22868912 1.3285.65027212 1.81l18.141319 20.7348c.4196.4803.9794.7448 1.577.7448.5972 0 1.157-.2645 1.5769-.7448l1.336-1.5267c.8694-.9937.8694-2.6113 0-3.6046z" fill="#2fa037"/></svg>