<svg width="125" height="125" viewBox="0 0 125 125" fill="none" xmlns="http://www.w3.org/2000/svg">
<g filter="url(#filter0_d)">
<rect x="34" y="14" width="57" height="57" rx="20" fill="#F8F8F8"/>
</g>
<g clip-path="url(#clip0)">
<path d="M68.6904 41.3964L58.5148 31.2489C58.1814 30.9166 57.6416 30.9172 57.3088 31.2506C56.9762 31.584 56.9771 32.1241 57.3105 32.4566L66.8805 42.0002L57.3102 51.5437C56.9768 51.8762 56.9759 52.416 57.3084 52.7494C57.4753 52.9165 57.6939 53.0001 57.9124 53.0001C58.1305 53.0001 58.3482 52.9171 58.5147 52.7511L68.6904 42.6039C68.851 42.4441 68.9411 42.2267 68.9411 42.0002C68.9411 41.7736 68.8507 41.5565 68.6904 41.3964Z" fill="#3DC383"/>
</g>
<defs>
<filter id="filter0_d" x="0" y="0" width="125" height="125" filterUnits="userSpaceOnUse" color-interpolation-filters="sRGB">
<feFlood flood-opacity="0" result="BackgroundImageFix"/>
<feColorMatrix in="SourceAlpha" type="matrix" values="0 0 0 0 0 0 0 0 0 0 0 0 0 0 0 0 0 0 127 0"/>
<feMorphology radius="6" operator="erode" in="SourceAlpha" result="effect1_dropShadow"/>
<feOffset dy="20"/>
<feGaussianBlur stdDeviation="20"/>
<feColorMatrix type="matrix" values="0 0 0 0 0 0 0 0 0 0 0 0 0 0 0 0 0 0 0.1 0"/>
<feBlend mode="normal" in2="BackgroundImageFix" result="effect1_dropShadow"/>
<feBlend mode="normal" in="SourceGraphic" in2="effect1_dropShadow" result="shape"/>
</filter>
<clipPath id="clip0">
<rect width="22" height="22" fill="white" transform="translate(52 31)"/>
</clipPath>
</defs>
</svg>
