<svg fill="none" height="11" viewBox="0 0 15 11" width="15" xmlns="http://www.w3.org/2000/svg"><path d="m7.49273 6.83523-5.6039-6.378412c-.15393-.17563-.35974-.272247-.57919-.272247-.21957 0-.425263.096617-.579438.272247l-.49078.558912c-.1544188.17535-.23942231.40976-.2394223.65955s.0850035.48392.2394223.65941l6.671918 7.59451c.15467.1762.36133.2727.58102.272.22067.0007.42709-.0957.58188-.272l6.66546-7.58744c.1544-.1755.2394-.40962.2394-.65955 0-.24979-.085-.48392-.2394-.65955l-.4908-.558773c-.3194-.363597-.8394-.363597-1.1587 0z" fill="#2fa037"/></svg>