<svg fill="none" height="86" viewBox="0 0 99 86" width="99" xmlns="http://www.w3.org/2000/svg"><path d="m98.0674 67.1828-3.8366.8087 2.2217-3.2371-2.7518-1.8845-2.6549 3.8691c-.4936-1.0131-1.1231-1.9537-1.8715-2.7966l2.001-4.4669c2.5579-5.7023 3.887-11.8794 3.9-18.1289-.0024-4.1257-.9642-8.1936-2.8088-11.8835-1.8454-3.7136-4.6933-6.8359-8.2212-9.0152-7.9817-4.9352-18.1982-4.3513-25.5667 1.461.4528-6.4043 3.207-12.42833 7.7546-16.96037l-2.3585-2.35845c-2.4163 2.42686-4.4009 5.24625-5.8693 8.33932-2.5302-6.3278-8.6528-10.482776-15.4675-10.495806-.9211 0-1.6679.746786-1.6679 1.667856.0139 8.42475 6.3017 15.51965 14.6638 16.54495-.1946 1.1263-.3249 2.2624-.3909 3.4025l-.0643-.0513c-5.5794-4.4522-12.9479-5.9751-19.8343-4.0979-3.0556-7.5583-10.4062-12.4943-18.5582-12.46254h-8.33927c-.92107 0-1.66785.74679-1.66785 1.66786v8.33928c-.02769 6.5574 3.18179 12.7068 8.57792 16.4334-5.27723 2.1516-9.06655 7.3987-11.02677 15.3446-1.66949 7.0159-1.7835 14.312-.33309 21.3768.48701 2.0807 1.28266 4.0776 2.36009 5.9238l-1.98384.4039c-2.68746.5456-4.523897 3.0401-4.247821 5.7683.27689 2.729 2.576711 4.804 5.318731 4.7991h73.608c3.2925.0098 6.4515-1.2989 8.7725-3.6337l.9374-.9374c1.737-1.7281 2.9187-3.9351 3.3959-6.3383l3.4677 3.7062 2.435-2.2819-4.2234-4.5027 5.0174-1.0563zm-53.7501-63.29459c5.9474.81275 10.6253 5.48975 11.438 11.43799-5.9474-.8136-10.6244-5.49056-11.438-11.43799zm8.6732 20.71299 2.685 2.1516c.6092.4878 1.4757.4878 2.0848 0l2.6818-2.15c6.2748-5.0052 15.0164-5.5337 21.8491-1.3209 3.001 1.8544 5.4237 4.5117 6.9931 7.6723 1.6132 3.2266 2.4537 6.7846 2.4553 10.3924-.0122 5.7788-1.2419 11.4909-3.6077 16.7632l-1.6043 3.5776c-2.703-1.7298-5.9752-2.3365-9.1187-1.6899l-30.8683 6.3001c.3168-2.5327.1767-5.1021-.4137-7.586-1.834-6.9735-5.1697-13.4633-9.7734-19.0134-3.9278-4.6517-8.1048-7.5053-12.3274-8.494.0416-.0822.0799-.1669.1198-.2541 3.1923-6.4588 9.7864-10.534 16.9904-10.5022 4.3057.0065 8.4826 1.4699 11.8501 4.1533zm-42.9758-9.1569v-6.67143h6.6714c6.7301-.0228 12.8094 4.01733 15.3943 10.23273-2.1019.9308-4.0459 2.1834-5.761 3.7144l-2.9619-2.9627v-7.6487h-3.3357v4.313l-5.4922-5.4922-2.3584 2.3584 5.4922 5.4922h-4.313v3.3357h7.6487l3.0018 3.0026c-1.1092 1.3307-2.0604 2.7861-2.8349 4.3358-.2174.4259-.4259.8844-.6327 1.3666h-.2802c-6.2202-2.5686-10.26773-8.6463-10.2384-15.3764zm-2.86257 52.3909c-1.34454-6.5509-1.23705-13.316.31517-19.8205 1.325-5.3643 4.2584-12.0757 10.7165-13.5831 6.458-1.5082 12.0585 3.1957 15.6239 7.415 4.2755 5.1436 7.3726 11.1611 9.0755 17.6289.5774 2.4766.6254 5.0468.14 7.542l-3.5727.7289c1.7233-6.0435-.5008-12.522-5.5736-16.2323s-11.9201-3.8675-17.1574-.3941c-5.2381 3.4741-7.75781 9.8426-6.3131 15.9594.5163 2.194 1.5229 4.2429 2.944 5.9931l-3.58573.7321c-1.22483-1.8161-2.10925-3.8382-2.61254-5.9694zm10.05767 4.4481c-1.7746-1.5717-3.0157-3.6574-3.5524-5.9661-1.1702-4.971 1.0261-10.1261 5.423-12.7256 4.3968-2.5987 9.9721-2.0384 13.7639 1.3836 3.7909 3.4221 4.918 8.911 2.7819 13.5506zm69.0922 6.2814-.9357.9373c-1.6972 1.707-4.0068 2.6639-6.4141 2.6565h-73.608c-1.04159.0204-1.9252-.7631-2.02944-1.7998-.10424-1.0375.60427-1.9814 1.62958-2.1695l22.33936-4.5581c-.1043 1.0099-.3282 2.0042-.667 2.9619l3.1403 1.1239c.5537-1.5368.8705-3.1492.9389-4.7813l8.1544-1.6678c-.0431 1.325-.2891 2.6353-.7288 3.8862l3.1419 1.1239c.645-1.8283.9609-3.756.9324-5.6942l8.1577-1.6679c.0546 1.6329-.1963 3.2617-.7411 4.8016l3.1427 1.1215c.7411-2.115 1.0432-4.3586.8869-6.5933l8.1414-1.6678c.1987 1.926-.0326 3.8732-.6792 5.699l3.1419 1.1206c.8461-2.3992 1.1197-4.9629.8013-7.4866l9.5918-1.957c.1393 1.518.0147 3.0482-.3673 4.5231l-.1669.636 3.2257.8454.167-.6369c.509-1.9692.6491-4.0157.4153-6.0362l.167-.035c.5994-.1222 1.2101-.1832 1.8226-.1832 3.6663.0048 6.9686 2.2167 8.3694 5.6045 1.4007 3.3879.6238 7.2855-1.9684 9.8777z" fill="#424242"/><path d="m72.3007 10.4407c-.803 0-1.6019.0342-2.3984.1018l.2818 3.3227c.7045-.0586 1.4081-.0888 2.1166-.0888 8.8646-.0407 17.1126 4.5321 21.7741 12.0724l2.8357-1.7615c-5.269-8.5225-14.5904-13.6914-24.6098-13.6466z" fill="#2fa037"/></svg>