<svg fill="none" height="24" viewBox="0 0 24 24" width="24" xmlns="http://www.w3.org/2000/svg"><circle cx="12" cy="12" fill="#fff" r="10.5"/><g fill="#2fa037"><path d="m15.5772 6.38477h-7.15305c-1.14174 0-2.07063.92889-2.07063 2.07063v7.1531c0 1.1418.92889 2.0709 2.07063 2.0709h7.15305c1.1418 0 2.071-.9289 2.071-2.0709v-7.1531c0-1.14174-.9289-2.07063-2.071-2.07063zm-3.5765 9.36543c-2.05005 0-3.718-1.6679-3.718-3.7182 0-2.05009 1.66795-3.71804 3.718-3.71804 2.0503 0 3.7183 1.66795 3.7183 3.71804 0 2.05-1.6683 3.7182-3.7183 3.7182zm3.8378-6.66751c-.4853 0-.88-.39466-.88-.8797s.3947-.8797.88-.8797c.485 0 .8797.39466.8797.8797s-.3947.8797-.8797.8797z"/><path d="m12.0006 9.88574c-1.1834 0-2.14708.96316-2.14708 2.14656 0 1.184.96368 2.1474 2.14708 2.1474 1.184 0 2.1469-.9634 2.1469-2.1474 0-1.1832-.9632-2.14656-2.1469-2.14656z"/><path d="m12 0c-6.62715 0-12 5.37285-12 12 0 6.6272 5.37285 12 12 12 6.6272 0 12-5.3728 12-12 0-6.62715-5.3728-12-12-12zm7.2183 15.6089c0 2.0083-1.6334 3.6418-3.6418 3.6418h-7.15305c-2.00807 0-3.64179-1.6335-3.64179-3.6418v-7.1531c0-2.00806 1.63372-3.64179 3.64179-3.64179h7.15305c2.0084 0 3.6418 1.63373 3.6418 3.64179z"/></g></svg>