<svg height="1191" viewBox="0 0 3805 1191" width="3805" xmlns="http://www.w3.org/2000/svg"><g fill="none"><g fill="#fff"><path d="m0 915.359615c0-84.459615 0-168.91923 0-253.378846 0-7.608974 0-7.608974 8.39275654-7.608974h222.02655946c16.785513 0 33.571026 1.521795 49.593561 4.565384 42.726761 9.13077 80.112676 26.631411 108.342857 59.35 12.207646 14.457052 22.889336 30.435898 28.230181 48.697436 3.051912 9.13077 6.866801 17.500641 8.392757 26.631411 4.577867 22.826923 6.103823 46.414743 2.288934 70.002564-3.81489 25.870513-12.207646 49.458333-26.704226 71.524359-14.496579 21.305128-33.571026 38.044872-55.697384 50.980128-19.074447 11.413461-40.437827 19.022433-61.801207 24.348713-8.392757 2.2827-17.548491 3.04359-26.704226 4.56539-33.571026 5.32628-67.90503 2.28269-102.239034 3.04359-9.918712 0-19.837424 0-28.993159 0-4.577867 0-6.103823 1.52179-6.103823 6.08718v143.80961c0 8.36988 0 8.36988-8.392756 8.36988-34.3340043 0-68.6680083 0-103.00201233 0-7.62977867 0-7.62977867 0-7.62977867-6.84808 0-84.45962 0-169.680129 0-254.139745zm118.261569-78.372436v74.567949c0 4.565385 1.525956 6.08718 6.103823 6.08718h91.557344c19.074447 0 38.148894-3.04359 54.934407-13.696154 15.259557-9.891667 27.467203-22.066026 32.808048-38.805769 5.340845-15.217949 6.103823-31.196795 3.051912-47.175641-3.051912-15.217949-9.918713-28.914103-22.126359-38.80577-18.311468-15.978846-40.437826-22.066025-64.853118-22.066025-32.045071-.760898-64.090141 0-96.135212 0-5.340845 0-6.8668 1.521795-6.8668 6.848077 1.525955 23.58782 1.525955 48.697436 1.525955 73.046153zm1230.686881 79.894231c.7594 143.04872-120.55408 264.03141-272.38668 263.27408-150.306639-.76446-270.094164-117.94267-270.094164-262.513182 0-146.853205 121.313481-263.274174 271.620124-263.274174 148.78068-.757237 271.62012 117.181866 270.86072 262.513276zm-271.6237-140.766025c-78.586722 0-144.965796 63.154487-144.965796 140.766025 0 77.611539 66.379074 140.00513 141.913886 140.76603 83.16458 1.52179 148.78068-63.915389 148.78068-140.76603-.76298-78.372436-65.6161-140.766025-145.72877-140.766025z"/><g transform="translate(443.527 684.808)"><path d="m79.8756539 362.187179c0-12.935256 0-25.109615.7629779-38.044871.7629779-10.652564 0-21.305129 1.5259557-31.957693 1.5259558-12.174359 1.5259558-24.348718 3.0519115-36.523077 1.5259557-9.130769 1.5259557-18.261538 3.0519115-26.63141 2.2889336-10.652564 4.5778672-21.305128 7.6297786-31.196795 4.5778669-13.696154 10.6816899-26.63141 18.3114689-38.805769 9.918712-15.978846 22.889336-29.675 38.148893-41.088461 16.022536-12.174359 33.571026-21.3051286 51.882495-29.6750004 9.918713-4.5653847 19.837425-7.6089744 29.756137-12.9352564 1.525956-.7608975 3.051912-.7608975 3.814889.7608974 8.392757 16.7397436 11.444668 33.4794874 12.207646 51.7410254 0 6.848077 0 12.935257-.762978 19.783334-.762977 6.848076-1.525955 13.696153-3.051911 19.783333-3.814889 12.935256-8.392757 25.870513-16.022535 37.283974-9.155735 14.457052-20.600403 25.870513-35.096982 35.001282-11.444668 6.848077-25.17827 10.652564-37.385916 15.978846-11.444668 4.565385-22.889336 9.13077-32.808048 15.978847-10.68169 6.848077-17.548491 16.739743-19.074447 29.675-.762977 9.891666-.762977 19.783333 0 29.675 12.970624-12.174359 33.571027-16.739744 52.645473-19.022436 14.49658-1.521795 28.993159-1.521795 42.726761-.760898-5.340845-3.804487-8.392757-6.848077-7.629779-9.130769 3.814889-8.369872 61.801207 1.521795 86.216499-3.04359 16.022535-3.043589 31.282093-9.891666 31.282093-9.891666 3.814889-1.521795 7.629778-3.804488 10.68169-5.326282 25.941247-14.457052 42.72676-36.523077 52.645473-63.154488 5.340845-15.217948 8.392756-30.435897 9.918712-46.414743 1.525956-17.500641.762978-35.001282-3.051912-52.501923-3.051911-12.935257-7.629778-25.1096156-13.733601-36.5230772-11.444668-21.3051282-27.467203-38.0448718-48.067606-51.7410256-19.837424-13.6961539-42.72676-22.8269231-66.379074-28.15320515-15.259558-3.04358974-30.519115-5.32628205-45.778672-5.32628205-15.259558 0-30.519115.76089744-46.54165 3.80448718-12.207646 2.28269231-23.652314 5.32628205-35.096982 9.13076922-21.36338 7.6089744-41.2008049 17.500641-59.5122737 30.4358974 9.9187123 5.3262821 16.7855131 16.7397436 16.7855131 27.3923077 13.7336016 9.1307693 21.3633806 28.9141026 6.1038229 44.8929485-32.8080483 35.001282-45.0156941 83.698718-69.4309859 124.026282-3.8148893 6.848077-9.91871226 11.413462-16.0225352 12.935257-.76297786 3.804487-2.2889336 7.608974-3.05191147 11.413461 14.49657947.760898 26.70422537 9.891667 25.17826967 27.392308-1.5259558 10.652564-3.0519115 22.066026-4.5778673 32.71859 7.6297787 2.282692 13.7336017 6.848077 16.7855131 14.457051 9.1557344-1.521795 19.8374246 0 27.4672032 6.848077 5.3408451 5.326282 10.6816902 10.652564 14.4965795 16.739743z"/><path d="m113.44668 248.813462c-1.525956-3.804488 0-7.608975 0-10.652565 1.525956-9.130769 3.814889-18.261538 8.392757-26.63141 6.103823-10.652564 13.733601-19.783333 22.889336-28.153205 10.68169-9.891667 23.652314-18.261538 35.096982-27.392308 12.970623-10.652564 25.178269-22.066025 33.571026-35.762179 2.288933-3.804487 5.340845-8.369872 6.8668-12.935257.762978-.760897.762978-1.521794 2.288934-2.282692.762978 3.804487-1.525956 7.608975-2.288934 11.413462-3.814889 15.217948-11.444668 28.914102-22.126358 41.088461-11.444668 13.696154-25.178269 24.348718-38.911871 35.001282-13.733601 11.413462-28.230181 22.066026-37.385915 37.283975-3.051912 5.326282-6.103823 10.652564-6.866801 15.978846 0 0 0 1.521795-1.525956 3.04359z"/></g><path d="m952.196378 1069.82179c-4.577867 5.32629-9.918712 10.65257-15.259557 15.21795-12.207646 10.65257-26.704225 18.26154-42.726761 19.78334-13.733601.76089-27.467203.76089-41.200804-1.5218-22.126359-4.56538-43.489739-11.41346-64.090141-21.30513-31.282093-15.21794-60.275252-34.24038-88.505433-55.54551-17.548491-12.93526-35.096982-26.631409-56.460362-31.196794 6.866801-1.521795 16.785513-3.04359 29.756137-4.565384 44.252716-6.848077 49.593561-6.848077 57.986318-9.13077 30.519114-8.369871 48.067605-35.762179 60.275251-54.784615 5.340845-8.369872 43.489739-69.241667 22.126358-136.961539-9.155734-29.675-25.941247-48.697435-31.282092-54.023717-16.785513-16.739744-37.385916-27.392308-58.749296-37.283975-38.148893-17.500641-78.58672-25.109615-120.550503-24.348718-38.911871 0-77.823742 1.521795-117.498592 1.521795-10.68169 0-21.36338-2.282692-31.282092-6.848077-19.074447-8.369872-33.571026-22.066025-45.015694-39.566667-.762978-.760897-1.525956-3.043589-3.051912-3.043589-2.288933 0-1.525956 2.282692-1.525956 3.804487-.762977 9.891667.762978 19.022436 3.051912 28.914102 3.814889 21.305129 9.918712 42.610257 18.311469 62.39359 7.629778 17.500641 16.785513 34.240385 31.282092 47.936539 20.600403 18.261538 45.778672 25.109615 71.71992 28.914102 4.577867.760898 8.392756.760898 12.970624 1.521795v-.760897c8.392756-25.109616 35.096981-40.327564 61.801207-40.327564 6.103823 0 11.444668 1.521794 16.785513 3.043589 1.525956 0 2.288934-.760897 3.814889-.760897.762978-.760898 1.525956-.760898 1.525956-1.521795-11.444668-4.565385-23.652314-9.130769-36.622938-12.935256 16.022536 0 30.519115 1.521794 44.252717 3.804487 1.525955 0 3.051911.760897 4.577867.760897 4.577867-2.282692 9.155734-5.326282 13.733601-6.848077 15.259558-6.848077 31.282093-3.804487 41.200805 10.652564 3.81489 5.326282 4.577867 13.696154 3.051912 20.544231 30.519114 22.826923 38.911871 63.915385 26.704225 97.394872-5.340845 15.217949-14.496579 26.63141-25.17827 35.762179.762978 10.652565-4.577867 22.066026-14.496579 27.392308-4.577867 2.282692-9.155734 4.565385-13.733602 7.608975-1.525955.760897-5.340845 2.282692-6.103823 3.804487 3.051912-2.282693 3.81489-3.04359 1.525956-.760898-.762978.760898-2.288933 1.521795-3.051911 2.282693-6.866801 5.326282-15.259558 8.369871-22.889336 8.369871-2.288934 6.848077-6.866801 12.935257-13.733602 16.739744-3.814889 2.282692-7.629779 3.804487-12.207646 5.326282-1.525956.760897-3.814889 1.521795-5.340845 2.282692-2.288933.760898-8.392756 5.326282-1.525956 0-6.8668 5.326282-12.970623 8.369872-21.36338 8.369872-4.577867 0-8.392756-.760897-12.207646-2.282692-1.525955 8.369872-6.866801 15.217948-15.259557 19.022438-4.577867 5.32628-12.207646 8.36987-21.36338 8.36987-28.230181 0-35.85996-30.435898-22.889336-47.175642-7.629779-9.130769-8.392757-22.066025-2.288934-32.718589.762978-1.521795 1.525956-2.282693 1.525956-3.804487-5.340845-21.305129-3.051912-43.371154 9.918712-62.39359.762978-1.521795 1.525956-2.282693 2.288934-3.804487-1.525956-6.08718-3.051912-12.935257-3.051912-18.261539-.762978-15.217949 9.155735-24.348718 20.600403-26.63141-.762978-1.521795-1.525956-3.804487-2.288934-5.326282-13.733602-1.521795-27.467203-3.04359-40.437827-6.848077-30.519115-8.369872-55.697384-23.587821-73.245875-50.980128-.762978-1.521795-1.525956-4.565385-3.81489-3.804487-2.288933.760897-1.525955 3.804487-1.525955 5.326282v404.036536c0 6.84808.762978 7.60898 8.392756 8.36987h35.096982c18.311469-.76089 35.85996-3.80448 51.882495-13.69615 12.970624-7.60897 23.652314-17.50064 32.045071-28.9141 8.392756-12.17436 12.207645-22.82693 13.733601-26.63141 12.970624-39.56667 1.525956-98.91667 6.103823-103.482054.762978-.760898 1.525956-1.521795 1.525956-1.521795 2.288933-.760897 5.340845.760897 8.392756.760897 19.837425-2.282692 33.571026 6.848082 45.015695 22.066022 9.155734 12.93526 18.311468 26.63141 28.993158 38.80577 12.207646 14.45705 26.704226 26.63141 41.963783 37.28398-38.148893-13.69616-67.142052-38.80577-90.031388-73.80705-.762978 3.80448 0 6.08718 0 7.60897 4.577867 19.02244 11.444668 38.04487 17.548491 56.30641 9.918712 29.675 25.178269 54.02372 51.119517 72.28526 22.889336 15.97884 48.830583 24.34872 77.060764 26.63141 15.259558 1.52179 29.756137 0 45.015695-2.28269 16.785513-2.2827 32.808048-6.08718 48.067605-12.93526 39.674849-17.50064 74.008853-43.37115 99.950101-79.13333 5.340845-7.60898 11.444668-15.97885 13.733601-25.10962-2.288933 2.28269-3.814889 3.04359-4.577867 4.56538z"/></g><path d="m859.113078 16.7397436c38.148894-6.84807693 96.135212-6.84807693 133.521127 0v308.9243594c0 164.353846-83.927565 235.878205-227.367404 235.878205s-227.367405-71.524359-227.367405-235.878205v-308.9243594c37.385916-6.84807693 96.135212-6.84807693 133.521127 0v329.4685894c0 61.632693 32.045071 106.525641 93.846278 106.525641s93.846277-44.892948 93.846277-106.525641zm580.626162 0c6.8668 38.0448718 6.8668 71.524359 0 108.8083334h-144.20282v423.058974c-38.14889 6.848077-93.84628 6.848077-131.23219 0v-423.058974h-144.9658c-6.8668-38.0448719-6.8668-71.5243591 0-108.8083334zm241.86398 0c119.02455 0 201.42616 71.524359 201.42616 175.7673074 0 72.285257-38.91187 128.591667-101.47606 156.744872l129.70624 200.116026c-37.38592 6.848077-105.29095 6.848077-142.67686 0l-117.4986-180.332693h-51.88249v180.332693c-37.38592 6.848077-93.84628 6.848077-131.23219 0v-532.6282054zm-82.40161 243.4871794h82.40161c35.85996 0 67.14205-21.305128 67.14205-66.958974s-31.28209-66.958975-67.14205-66.958975h-82.40161zm478.38712 289.141026c-37.38591 6.848077-93.84628 6.848077-131.23219 0v-532.6282054c37.38591-6.84807693 93.84628-6.84807693 131.23219 0zm448.63099-532.6282054c6.8668 38.0448718 6.8668 71.524359 0 108.8083334h-144.20282v423.058974c-38.14889 6.848077-93.84628 6.848077-131.23219 0v-423.058974h-144.20282c-6.8668-38.0448719-6.8668-71.5243591 0-108.8083334zm160.22535 532.6282054c-37.38592 6.848077-93.84628 6.848077-131.23219 0v-532.6282054c37.38591-6.84807693 93.84627-6.84807693 131.23219 0zm588.25594-266.314103c0 152.940385-114.44668 278.488462-283.06479 278.488462-169.38109 0-283.06479-125.548077-283.06479-278.488462 0-152.940384 114.44668-278.48846138 283.06479-278.48846138 169.38108 0 283.06479 124.78717938 283.06479 278.48846138zm-432.60845 0c0 106.525641 68.668 169.680128 149.54366 169.680128 80.87565 0 149.54366-63.154487 149.54366-169.680128s-68.66801-169.680128-149.54366-169.680128c-80.87566 0-149.54366 63.154487-149.54366 169.680128zm947.61851 266.314103c-38.1489 6.848077-64.85312 6.848077-103.00202 0l-248.73078-311.967949v311.967949c-38.14889 6.848077-93.84628 6.848077-131.23219 0v-532.6282054c38.14889-6.84807693 64.85312-6.84807693 103.00201 0l248.73078 311.9679484v-311.9679484c38.1489-6.84807693 93.84628-6.84807693 131.2322 0zm-3296.827368-11.413462c-38.148893 6.848077-64.853118 6.848077-103.002012 0l-248.730785-311.967949v311.967949c-38.148893 6.848077-93.8462772 6.848077-131.23219273 0v-532.62820495c38.14889333-6.84807692 64.85311873-6.84807692 103.00201173 0l248.730785 311.96794895v-311.96794895c38.148893-6.84807692 93.846278-6.84807692 131.232193 0z" fill="#00a651"/></g></svg>