<svg width="27" height="27" viewBox="0 0 27 27" fill="none" xmlns="http://www.w3.org/2000/svg">
<g opacity="0.5">
<path d="M13.4872 27C20.936 27 26.9744 20.9558 26.9744 13.5C26.9744 6.04416 20.936 0 13.4872 0C6.03843 0 0 6.04416 0 13.5C0 20.9558 6.03843 27 13.4872 27Z" fill="#F0F0F0"/>
<path d="M12.3146 13.5C12.3146 13.5 3.95834 23.0478 3.95044 23.0459C6.3911 25.4889 9.76296 27 13.4874 27C20.9361 27 26.9746 20.9558 26.9746 13.5H12.3146Z" fill="#D80027"/>
<path d="M3.95031 3.9541C-1.31677 9.22617 -1.31677 17.7739 3.95031 23.0461C6.12686 20.8674 8.22017 18.7721 13.4872 13.5001L3.95031 3.9541Z" fill="#0052B4"/>
</g>
</svg>
